<svg width="90" height="96" viewBox="0 0 90 96" fill="none" xmlns="http://www.w3.org/2000/svg">
<g id="#555_piggy_bank_outline">
<path id="Vector" d="M37.051 44.1877C39.995 48.3322 40.1743 55.6977 36.0298 58.6417C31.8854 61.5857 24.987 58.9893 22.043 54.8395C19.099 50.6896 16.2364 40.4724 19.6747 37.6153C23.1131 34.7582 34.107 40.0433 37.051 44.1877Z" fill="#38BDF8"/>
<path id="Vector_2" d="M31.7818 60.4502C30.6438 60.4381 29.514 60.255 28.4304 59.907C25.7058 59.0885 23.3138 57.4215 21.6026 55.1488C20.0329 52.9326 18.588 49.2824 17.9308 45.8441C17.4745 43.427 17.0399 39.0924 19.3267 37.1913C20.3153 36.3711 21.8253 36.1049 23.8188 36.3439C28.539 36.9632 35.1875 40.6133 37.4906 43.8615C39.0753 46.2241 39.8632 49.0313 39.7394 51.8734C39.6199 55.051 38.4086 57.6039 36.3445 59.0759C35.0051 60.0007 33.4091 60.4815 31.7818 60.4502ZM22.4989 37.3488C21.6237 37.288 20.7543 37.5317 20.0383 38.0386C18.6803 39.163 18.311 41.9387 19.0171 45.6431C19.6363 48.9022 21.0377 52.46 22.5043 54.5241C24.0749 56.6012 26.2669 58.1234 28.7617 58.8695C31.4776 59.7006 33.9437 59.4562 35.7307 58.1906C37.5178 56.925 38.5607 54.6599 38.6693 51.8354C38.7834 49.2356 38.0661 46.667 36.6215 44.5025C34.4977 41.5096 28.0936 37.9843 23.6939 37.4412C23.2982 37.3824 22.8989 37.3516 22.4989 37.3488Z" fill="#6B39F4"/>
<path id="Vector_3" d="M54.4812 44.1868C51.5372 48.3312 51.3579 55.6967 55.5024 58.6407C59.6468 61.5847 66.5398 58.9884 69.4838 54.8385C72.4278 50.6886 75.2958 40.4714 71.8575 37.6143C68.4192 34.7572 57.4198 40.0423 54.4812 44.1868Z" fill="#38BDF8"/>
<path id="Vector_4" d="M59.7447 60.45C58.1202 60.4844 56.5261 60.0075 55.1874 59.0866C53.1179 57.6146 51.9283 55.0616 51.7871 51.8841C51.6682 49.0425 52.4557 46.2368 54.0359 43.8722C56.3444 40.6131 62.9875 36.9738 67.7131 36.3546C69.7066 36.0939 71.2166 36.3546 72.2052 37.2019C74.4865 39.1031 74.0574 43.4376 73.5957 45.8548C72.9385 49.2931 71.4991 52.9161 69.9293 55.1594C68.216 57.4299 65.8248 59.0964 63.1015 59.9177C62.0154 60.2617 60.8839 60.4412 59.7447 60.45ZM54.9213 44.5023C53.4769 46.671 52.7597 49.2429 52.8735 51.846C52.9821 54.6706 54.0304 56.9302 55.8175 58.2012C57.6046 59.4723 60.076 59.7113 62.7865 58.8802C65.2807 58.1327 67.4722 56.6107 69.0439 54.5348C70.505 52.4707 71.9119 48.902 72.5311 45.6538C73.2372 41.9439 72.8679 39.1683 71.5099 38.0493C70.7766 37.4355 69.511 37.2291 67.8489 37.4464C63.4546 37.9896 57.0505 41.5202 54.9213 44.5077V44.5023Z" fill="#6B39F4"/>
<path id="Vector_5" d="M69.8642 92.4052C70.2444 93.9913 68.6692 95.4524 66.6052 95.4524H62.4227C61.8081 95.4822 61.1968 95.3467 60.6523 95.0602C60.1078 94.7736 59.65 94.3464 59.3266 93.8229L57.2625 89.9392C53.6555 91.6172 49.7253 92.4867 45.7471 92.4867C41.7689 92.4867 37.8387 91.6172 34.2317 89.9392L32.2003 93.8392C31.8768 94.3627 31.4191 94.7899 30.8746 95.0765C30.3301 95.363 29.7187 95.4985 29.1041 95.4687H24.9217C22.8413 95.4687 21.2661 94.0076 21.6626 92.4215L24.1775 81.8839C21.1282 77.9242 19.227 73.202 18.682 68.234C18.137 63.2661 18.9692 58.244 21.0875 53.7174C23.2058 49.1909 26.5286 45.3343 30.6921 42.5698C34.8557 39.8054 39.6995 38.2396 44.6934 38.0439C45.0464 38.0439 45.4049 38.0439 45.7797 38.0439C46.1545 38.0439 46.4967 38.0439 46.8661 38.0439C51.86 38.2396 56.7038 39.8054 60.8673 42.5698C65.0308 45.3343 68.3536 49.1909 70.4719 53.7174C72.5902 58.244 73.4224 63.2661 72.8774 68.234C72.3324 73.202 70.4312 77.9242 67.3819 81.8839L69.8642 92.4052Z" fill="#38BDF8"/>
<path id="Vector_6" d="M66.5889 95.9954H62.4065C61.695 96.0282 60.9877 95.869 60.3589 95.5346C59.7301 95.2001 59.2028 94.7026 58.8323 94.0943L57.0344 90.6506C53.484 92.2194 49.6451 93.0297 45.7635 93.0297C41.8818 93.0297 38.043 92.2194 34.4925 90.6506L32.7 94.0889C32.3298 94.699 31.802 95.1981 31.172 95.5336C30.5421 95.8691 29.8334 96.0287 29.1205 95.9954H24.938C24.3214 96.013 23.7087 95.8924 23.1447 95.6424C22.5808 95.3924 22.0799 95.0193 21.6789 94.5506C21.4189 94.2399 21.2345 93.8732 21.1403 93.4792C21.046 93.0852 21.0445 92.6748 21.1358 92.2801L23.5855 81.9923C20.5243 77.9426 18.6314 73.1316 18.1124 68.0817C17.5934 63.0318 18.4681 57.9363 20.6415 53.3486C22.815 48.761 26.2041 44.8566 30.4406 42.0598C34.6771 39.2629 39.599 37.6804 44.6717 37.4843C45.3953 37.4414 46.1208 37.4414 46.8444 37.4843C51.9144 37.686 56.8325 39.2721 61.0651 42.0705C65.2978 44.8688 68.6835 48.7727 70.855 53.3586C73.0265 57.9445 73.9009 63.0375 73.3835 68.0851C72.8661 73.1327 70.9765 77.9423 67.9197 81.9923L70.3749 92.2801C70.4649 92.6748 70.4627 93.085 70.3685 93.4788C70.2743 93.8726 70.0906 94.2393 69.8317 94.5506C69.4319 95.0166 68.9337 95.3879 68.3728 95.6378C67.812 95.8877 67.2027 96.0098 66.5889 95.9954ZM57.2626 89.3958C57.3623 89.3956 57.4602 89.4229 57.5454 89.4746C57.6307 89.5263 57.7001 89.6006 57.746 89.6891L59.7775 93.5891C60.0596 94.0183 60.4494 94.366 60.9078 94.5976C61.3662 94.8292 61.8773 94.9366 62.3902 94.9091H66.5726C67.0274 94.9249 67.48 94.8407 67.8987 94.6624C68.3173 94.4841 68.6916 94.2159 68.9952 93.877C69.15 93.6941 69.2601 93.4776 69.3166 93.2447C69.3732 93.0118 69.3747 92.769 69.3211 92.5354L66.8062 81.9977C66.7876 81.9192 66.7867 81.8375 66.8036 81.7586C66.8205 81.6796 66.8548 81.6055 66.904 81.5415C69.892 77.6614 71.7552 73.0341 72.2897 68.1661C72.8241 63.2981 72.0093 58.3768 69.9343 53.9408C67.8593 49.5048 64.6042 45.7251 60.525 43.0151C56.4458 40.3052 51.6998 38.7695 46.8064 38.576C46.1118 38.5326 45.4152 38.5326 44.7206 38.576C39.8271 38.7695 35.0811 40.3052 31.0019 43.0151C26.9228 45.7251 23.6676 49.5048 21.5926 53.9408C19.5176 58.3768 18.7028 63.2981 19.2373 68.1661C19.7717 73.0341 21.6349 77.6614 24.623 81.5415C24.6731 81.605 24.7084 81.679 24.7262 81.7579C24.7441 81.8368 24.7441 81.9188 24.7262 81.9977L22.2113 92.5354C22.1559 92.7697 22.1565 93.0138 22.2131 93.2479C22.2698 93.4819 22.3808 93.6993 22.5372 93.8825C22.8399 94.221 23.2133 94.4888 23.631 94.6672C24.0487 94.8455 24.5004 94.9299 24.9543 94.9145H29.1368C29.6505 94.9424 30.1625 94.8352 30.6218 94.6036C31.0812 94.3721 31.4719 94.0242 31.7549 93.5946L33.7864 89.6946C33.8514 89.5708 33.9617 89.4769 34.0942 89.4324C34.2268 89.3879 34.3714 89.3962 34.4979 89.4556C38.0332 91.0979 41.8844 91.9488 45.7825 91.9488C49.6806 91.9488 53.5317 91.0979 57.067 89.4556C57.1274 89.4224 57.194 89.402 57.2626 89.3958Z" fill="#6B39F4"/>
<path id="Vector_7" d="M45.7638 71.7591C39.0935 71.7591 33.8682 68.8096 33.8682 65.04C33.8682 61.2703 39.0935 58.3154 45.7638 58.3154C52.434 58.3154 57.6594 61.2649 57.6594 65.04C57.6594 68.8151 52.434 71.7591 45.7638 71.7591ZM45.7638 59.4018C39.9083 59.4018 34.9545 61.9819 34.9545 65.04C34.9545 68.0981 39.9083 70.6727 45.7638 70.6727C51.6192 70.6727 56.573 68.0926 56.573 65.04C56.573 61.9873 51.6247 59.4018 45.7638 59.4018Z" fill="white"/>
<path id="Vector_8" d="M34.2209 90.483C34.1276 90.4827 34.0359 90.4584 33.9547 90.4124C33.732 90.2874 31.782 89.1522 31.1954 88.0278C31.1313 87.8989 31.1211 87.7498 31.1669 87.6133C31.2128 87.4768 31.3109 87.3641 31.4398 87.3C31.5681 87.2355 31.7166 87.2245 31.853 87.2693C31.9894 87.3141 32.1025 87.411 32.1677 87.539C32.4827 88.1636 33.7592 89.0544 34.487 89.4672C34.6122 89.538 34.7042 89.6555 34.7429 89.794C34.7816 89.9324 34.7638 90.0806 34.6934 90.206C34.6463 90.2899 34.5777 90.3597 34.4946 90.4084C34.4116 90.4571 34.3171 90.4828 34.2209 90.483Z" fill="#6B39F4"/>
<path id="Vector_9" d="M57.3116 90.483C57.1914 90.4838 57.0742 90.4447 56.9786 90.3718C56.8829 90.2989 56.8141 90.1963 56.7831 90.0801C56.752 89.9639 56.7604 89.8407 56.8069 89.7298C56.8534 89.6189 56.9354 89.5265 57.04 89.4672C57.7733 89.0544 59.0498 88.1636 59.3648 87.539C59.43 87.411 59.5431 87.3141 59.6795 87.2693C59.8158 87.2245 59.9644 87.2355 60.0927 87.3C60.2216 87.3641 60.3197 87.4768 60.3656 87.6133C60.4114 87.7498 60.4012 87.8989 60.3371 88.0278C59.794 89.1522 57.8005 90.2874 57.5778 90.4124C57.4966 90.4584 57.4049 90.4827 57.3116 90.483Z" fill="#6B39F4"/>
<path id="Vector_10" d="M41.8418 67.5332C43.2188 67.5332 44.335 66.417 44.335 65.0401C44.335 63.6631 43.2188 62.5469 41.8418 62.5469C40.4649 62.5469 39.3486 63.6631 39.3486 65.0401C39.3486 66.417 40.4649 67.5332 41.8418 67.5332Z" fill="white"/>
<path id="Vector_11" d="M49.6905 67.5332C51.0674 67.5332 52.1836 66.417 52.1836 65.0401C52.1836 63.6631 51.0674 62.5469 49.6905 62.5469C48.3135 62.5469 47.1973 63.6631 47.1973 65.0401C47.1973 66.417 48.3135 67.5332 49.6905 67.5332Z" fill="white"/>
<path id="Vector_12" d="M39.6312 55.7573C39.4872 55.7573 39.349 55.7001 39.2472 55.5982C39.1453 55.4964 39.0881 55.3582 39.0881 55.2142C39.0881 54.1971 38.684 53.2217 37.9649 52.5025C37.2457 51.7834 36.2703 51.3793 35.2532 51.3793C34.2362 51.3793 33.2608 51.7834 32.5416 52.5025C31.8224 53.2217 31.4184 54.1971 31.4184 55.2142C31.4184 55.3582 31.3612 55.4964 31.2593 55.5982C31.1574 55.7001 31.0193 55.7573 30.8752 55.7573C30.7311 55.7573 30.593 55.7001 30.4911 55.5982C30.3893 55.4964 30.332 55.3582 30.332 55.2142C30.332 53.909 30.8505 52.6573 31.7734 51.7344C32.6963 50.8114 33.948 50.293 35.2532 50.293C36.5584 50.293 37.8101 50.8114 38.733 51.7344C39.6559 52.6573 40.1744 53.909 40.1744 55.2142C40.1744 55.3582 40.1172 55.4964 40.0153 55.5982C39.9135 55.7001 39.7753 55.7573 39.6312 55.7573Z" fill="white"/>
<path id="Vector_13" d="M60.6576 55.7573C60.5135 55.7573 60.3754 55.7001 60.2735 55.5982C60.1717 55.4964 60.1144 55.3582 60.1144 55.2142C60.1144 54.1971 59.7104 53.2217 58.9912 52.5025C58.2721 51.7834 57.2967 51.3793 56.2796 51.3793C55.2625 51.3793 54.2871 51.7834 53.568 52.5025C52.8488 53.2217 52.4448 54.1971 52.4448 55.2142C52.4448 55.3582 52.3875 55.4964 52.2857 55.5982C52.1838 55.7001 52.0456 55.7573 51.9016 55.7573C51.7575 55.7573 51.6194 55.7001 51.5175 55.5982C51.4156 55.4964 51.3584 55.3582 51.3584 55.2142C51.3584 53.909 51.8769 52.6573 52.7998 51.7344C53.7227 50.8114 54.9744 50.293 56.2796 50.293C57.5848 50.293 58.8365 50.8114 59.7594 51.7344C60.6823 52.6573 61.2008 53.909 61.2008 55.2142C61.2008 55.3582 61.1436 55.4964 61.0417 55.5982C60.9398 55.7001 60.8017 55.7573 60.6576 55.7573Z" fill="white"/>
<path id="Vector_14" d="M46.8335 38.0282V44.2693H44.6934V38.0282C45.0464 38.0282 45.4049 38.0282 45.7797 38.0282C46.1545 38.0282 46.4804 38.0065 46.8335 38.0282Z" fill="#6B39F4"/>
<path id="Vector_15" d="M46.8337 44.8122H44.6936C44.5495 44.8122 44.4113 44.755 44.3095 44.6531C44.2076 44.5513 44.1504 44.4131 44.1504 44.269V38.0279C44.1501 37.8893 44.2029 37.7559 44.2978 37.6549C44.3927 37.5539 44.5226 37.4931 44.661 37.4847C45.3954 37.4413 46.1318 37.4413 46.8663 37.4847C47.0046 37.4931 47.1345 37.5539 47.2295 37.6549C47.3244 37.7559 47.3771 37.8893 47.3769 38.0279V44.269C47.3769 44.4131 47.3196 44.5513 47.2178 44.6531C47.1159 44.755 46.9778 44.8122 46.8337 44.8122ZM45.2367 43.7259H46.2905V38.5494H45.2367V43.7259Z" fill="#6B39F4"/>
<path id="Vector_16" d="M28.6588 41.6783C28.582 41.6789 28.5061 41.6632 28.4359 41.6323C28.3656 41.6014 28.3028 41.556 28.2514 41.499C26.0787 39.0819 22.0809 39.6522 22.0428 39.6577C21.9715 39.6684 21.8988 39.6649 21.8288 39.6475C21.7588 39.6301 21.6929 39.599 21.6349 39.5562C21.5769 39.5133 21.5279 39.4594 21.4907 39.3976C21.4535 39.3358 21.4289 39.2673 21.4182 39.196C21.4075 39.1246 21.4109 39.0519 21.4284 38.9819C21.4458 38.9119 21.4768 38.846 21.5197 38.788C21.5625 38.73 21.6164 38.681 21.6782 38.6438C21.74 38.6066 21.8086 38.582 21.8799 38.5713C22.07 38.5713 26.5132 37.9032 29.0607 40.744C29.1293 40.8221 29.1741 40.9182 29.1897 41.021C29.2053 41.1237 29.1911 41.2288 29.1488 41.3237C29.1065 41.4186 29.0378 41.4994 28.9509 41.5565C28.8641 41.6136 28.7627 41.6445 28.6588 41.6457V41.6783Z" fill="#6B39F4"/>
<path id="Vector_17" d="M62.8729 41.6779C62.7904 41.6783 62.7089 41.66 62.6345 41.6242C62.5602 41.5884 62.4949 41.5362 62.4438 41.4715C62.3556 41.3582 62.3158 41.2147 62.3331 41.0722C62.3504 40.9297 62.4234 40.7999 62.5361 40.711C66.6262 37.452 69.5431 38.4949 69.6626 38.5383C69.7942 38.5901 69.9003 38.6912 69.9585 38.8201C70.0167 38.949 70.0224 39.0955 69.9743 39.2284C69.9262 39.3614 69.8281 39.4704 69.701 39.5322C69.5738 39.594 69.4275 39.6038 69.2932 39.5595C69.1792 39.5215 66.7783 38.7447 63.2097 41.5638C63.1134 41.6385 62.9948 41.6787 62.8729 41.6779Z" fill="#6B39F4"/>
<path id="Vector_18" d="M34.2207 71.7969C34.2207 71.7969 35.0681 75.9793 39.3483 75.4199L34.2207 71.7969Z" fill="#7A4DF5"/>
<path id="Vector_19" d="M38.5878 76.0122C35.394 76.0122 33.9926 73.3995 33.6992 71.9057C33.6704 71.7617 33.7 71.6121 33.7815 71.4898C33.863 71.3676 33.9897 71.2827 34.1338 71.2539C34.2778 71.2251 34.4274 71.2547 34.5497 71.3362C34.6719 71.4177 34.7568 71.5444 34.7856 71.6885C34.8182 71.8406 35.5841 75.3658 39.3103 74.8769C39.4543 74.8582 39.5999 74.8975 39.715 74.9861C39.8301 75.0747 39.9053 75.2054 39.9241 75.3495C39.9428 75.4936 39.9035 75.6391 39.8149 75.7543C39.7263 75.8694 39.5956 75.9445 39.4515 75.9633C39.165 75.9989 38.8765 76.0152 38.5878 76.0122Z" fill="white"/>
<path id="Vector_20" d="M34.4113 69.5811C34.4113 69.5811 35.199 70.8792 32.9502 72.2535L34.4113 69.5811Z" fill="white"/>
<path id="Vector_21" d="M32.9502 72.7971C32.8579 72.7973 32.767 72.7739 32.6862 72.7292C32.6055 72.6846 32.5374 72.6201 32.4885 72.5418C32.4508 72.4809 32.4255 72.4131 32.4141 72.3424C32.4027 72.2716 32.4055 72.1994 32.4221 72.1297C32.4388 72.06 32.4691 71.9943 32.5112 71.9364C32.5534 71.8785 32.6065 71.8295 32.6677 71.7922C34.3842 70.7384 33.9605 69.8856 33.9388 69.8476C33.8705 69.7221 33.8545 69.5747 33.8942 69.4375C33.9338 69.3002 34.0259 69.1841 34.1506 69.1143C34.2724 69.0455 34.416 69.0262 34.5516 69.0606C34.6872 69.095 34.8043 69.1804 34.8785 69.299C34.8785 69.299 35.9105 71.0806 33.2489 72.721C33.1588 72.7747 33.055 72.8011 32.9502 72.7971Z" fill="white"/>
<path id="Vector_22" d="M86.9358 91.0146H74.9642C74.4182 91.0146 73.9756 91.4572 73.9756 92.0032V94.4638C73.9756 95.0098 74.4182 95.4524 74.9642 95.4524H86.9358C87.4818 95.4524 87.9244 95.0098 87.9244 94.4638V92.0032C87.9244 91.4572 87.4818 91.0146 86.9358 91.0146Z" fill="#FFD023"/>
<path id="Vector_23" d="M86.9416 95.9958H74.9917C74.7908 95.9965 74.5918 95.9576 74.4059 95.8812C74.2201 95.8048 74.0512 95.6925 73.9089 95.5507C73.7666 95.4089 73.6537 95.2404 73.5767 95.0548C73.4996 94.8693 73.46 94.6704 73.46 94.4695V92.0034C73.46 91.5972 73.6213 91.2076 73.9086 90.9203C74.1959 90.6331 74.5855 90.4717 74.9917 90.4717H86.9416C87.1425 90.4717 87.3415 90.5113 87.527 90.5884C87.7125 90.6654 87.881 90.7783 88.0228 90.9206C88.1647 91.063 88.277 91.2319 88.3533 91.4177C88.4297 91.6035 88.4687 91.8025 88.468 92.0034V94.4695C88.468 94.8743 88.3072 95.2625 88.0209 95.5487C87.7347 95.835 87.3465 95.9958 86.9416 95.9958ZM74.9917 91.558C74.8736 91.558 74.7603 91.605 74.6768 91.6885C74.5932 91.772 74.5463 91.8853 74.5463 92.0034V94.4695C74.5477 94.5867 74.5953 94.6986 74.6787 94.7809C74.762 94.8633 74.8745 94.9095 74.9917 94.9094H86.9416C87.0583 94.9094 87.1702 94.8631 87.2528 94.7806C87.3353 94.6981 87.3816 94.5862 87.3816 94.4695V92.0034C87.3816 91.8862 87.3354 91.7738 87.2531 91.6904C87.1707 91.607 87.0588 91.5595 86.9416 91.558H74.9917Z" fill="#6B39F4"/>
<path id="Vector_24" d="M88.4681 86.4043H76.4964C75.9504 86.4043 75.5078 86.8469 75.5078 87.3929V89.8535C75.5078 90.3995 75.9504 90.8421 76.4964 90.8421H88.4681C89.014 90.8421 89.4566 90.3995 89.4566 89.8535V87.3929C89.4566 86.8469 89.014 86.4043 88.4681 86.4043Z" fill="#FFD023"/>
<path id="Vector_25" d="M88.4739 91.3845H76.5239C76.1177 91.3845 75.7281 91.2231 75.4408 90.9358C75.1536 90.6486 74.9922 90.259 74.9922 89.8527V87.3867C74.9936 86.9814 75.1556 86.5932 75.4427 86.3071C75.7299 86.021 76.1186 85.8603 76.5239 85.8604H88.4739C88.8787 85.8604 89.2669 86.0212 89.5531 86.3074C89.8394 86.5936 90.0002 86.9819 90.0002 87.3867V89.8527C90.0009 90.0536 89.962 90.2527 89.8856 90.4385C89.8092 90.6243 89.6969 90.7932 89.5551 90.9355C89.4133 91.0778 89.2448 91.1907 89.0592 91.2678C88.8737 91.3448 88.6748 91.3845 88.4739 91.3845ZM76.5239 86.9467C76.4068 86.9467 76.2943 86.9929 76.2109 87.0752C76.1275 87.1576 76.08 87.2695 76.0786 87.3867V89.8527C76.0786 89.9708 76.1255 90.0841 76.209 90.1677C76.2925 90.2512 76.4058 90.2981 76.5239 90.2981H88.4739C88.5911 90.2967 88.703 90.2491 88.7853 90.1658C88.8677 90.0824 88.9138 89.9699 88.9138 89.8527V87.3867C88.9138 87.27 88.8675 87.1581 88.785 87.0756C88.7025 86.9931 88.5906 86.9467 88.4739 86.9467H76.5239Z" fill="#6B39F4"/>
<path id="Vector_26" d="M85.2473 81.9658H73.2757C72.7297 81.9658 72.2871 82.4084 72.2871 82.9544V85.415C72.2871 85.961 72.7297 86.4036 73.2757 86.4036H85.2473C85.7933 86.4036 86.2359 85.961 86.2359 85.415V82.9544C86.2359 82.4084 85.7933 81.9658 85.2473 81.9658Z" fill="#FFD023"/>
<path id="Vector_27" d="M85.2522 86.947H73.3023C72.896 86.947 72.5064 86.7856 72.2192 86.4983C71.9319 86.2111 71.7705 85.8215 71.7705 85.4152V82.9492C71.7705 82.7483 71.8102 82.5494 71.8872 82.3638C71.9643 82.1783 72.0772 82.0098 72.2195 81.868C72.3618 81.7262 72.5307 81.6139 72.7165 81.5375C72.9023 81.4611 73.1014 81.4221 73.3023 81.4229H85.2522C85.657 81.4229 86.0452 81.5837 86.3315 81.8699C86.6177 82.1562 86.7785 82.5444 86.7785 82.9492V85.4152C86.7785 85.8205 86.6179 86.2093 86.3318 86.4964C86.0457 86.7835 85.6575 86.9455 85.2522 86.947ZM73.3023 82.5092C73.1851 82.5092 73.0726 82.5554 72.9892 82.6378C72.9058 82.7201 72.8583 82.832 72.8569 82.9492V85.4152C72.8569 85.5334 72.9038 85.6466 72.9873 85.7302C73.0709 85.8137 73.1841 85.8606 73.3023 85.8606H85.2522C85.3694 85.8592 85.4813 85.8116 85.5636 85.7283C85.646 85.6449 85.6922 85.5324 85.6922 85.4152V82.9492C85.6922 82.8325 85.6458 82.7206 85.5633 82.6381C85.4808 82.5556 85.3689 82.5092 85.2522 82.5092H73.3023Z" fill="#6B39F4"/>
<path id="Vector_28" d="M86.9358 77.5273H74.9642C74.4182 77.5273 73.9756 77.9699 73.9756 78.5159V80.9765C73.9756 81.5225 74.4182 81.9651 74.9642 81.9651H86.9358C87.4818 81.9651 87.9244 81.5225 87.9244 80.9765V78.5159C87.9244 77.9699 87.4818 77.5273 86.9358 77.5273Z" fill="#FFD023"/>
<path id="Vector_29" d="M86.9416 82.5085H74.9917C74.5855 82.5085 74.1959 82.3471 73.9086 82.0599C73.6213 81.7726 73.46 81.383 73.46 80.9767V78.5107C73.46 78.3098 73.4996 78.1109 73.5767 77.9254C73.6537 77.7398 73.7666 77.5713 73.9089 77.4295C74.0512 77.2877 74.2201 77.1754 74.4059 77.099C74.5918 77.0226 74.7908 76.9837 74.9917 76.9844H86.9416C87.3465 76.9844 87.7347 77.1452 88.0209 77.4314C88.3072 77.7177 88.468 78.1059 88.468 78.5107V80.9767C88.468 81.382 88.3073 81.7708 88.0213 82.0579C87.7352 82.3451 87.347 82.5071 86.9416 82.5085ZM74.9917 78.0707C74.8745 78.0707 74.762 78.1169 74.6787 78.1993C74.5953 78.2816 74.5477 78.3935 74.5463 78.5107V80.9767C74.5463 81.0949 74.5932 81.2082 74.6768 81.2917C74.7603 81.3752 74.8736 81.4221 74.9917 81.4221H86.9416C87.0588 81.4207 87.1707 81.3732 87.2531 81.2898C87.3354 81.2064 87.3816 81.0939 87.3816 80.9767V78.5107C87.3816 78.394 87.3353 78.2821 87.2528 78.1996C87.1702 78.1171 87.0583 78.0707 86.9416 78.0707H74.9917Z" fill="#6B39F4"/>
<path id="Vector_30" d="M88.4681 73.1982H76.4964C75.9504 73.1982 75.5078 73.6408 75.5078 74.1868V76.6474C75.5078 77.1934 75.9504 77.636 76.4964 77.636H88.4681C89.014 77.636 89.4566 77.1934 89.4566 76.6474V74.1868C89.4566 73.6408 89.014 73.1982 88.4681 73.1982Z" fill="#FFD023"/>
<path id="Vector_31" d="M88.4739 78.1794H76.5239C76.1186 78.1794 75.7299 78.0188 75.4427 77.7327C75.1556 77.4466 74.9936 77.0584 74.9922 76.6531V74.187C74.9922 73.7808 75.1536 73.3912 75.4408 73.1039C75.7281 72.8167 76.1177 72.6553 76.5239 72.6553H88.4739C88.6748 72.6553 88.8737 72.6949 89.0592 72.772C89.2448 72.849 89.4133 72.9619 89.5551 73.1042C89.6969 73.2466 89.8092 73.4155 89.8856 73.6013C89.962 73.7871 90.0009 73.9861 90.0002 74.187V76.6531C90.0002 77.0579 89.8394 77.4461 89.5531 77.7323C89.2669 78.0186 88.8787 78.1794 88.4739 78.1794ZM76.5239 73.7416C76.4058 73.7416 76.2925 73.7886 76.209 73.8721C76.1255 73.9556 76.0786 74.0689 76.0786 74.187V76.6531C76.08 76.7703 76.1275 76.8822 76.2109 76.9645C76.2943 77.0469 76.4068 77.093 76.5239 77.093H88.4739C88.5906 77.093 88.7025 77.0467 88.785 76.9642C88.8675 76.8817 88.9138 76.7698 88.9138 76.6531V74.187C88.9138 74.0698 88.8677 73.9574 88.7853 73.874C88.703 73.7906 88.5911 73.7431 88.4739 73.7416H76.5239Z" fill="#6B39F4"/>
<path id="Vector_32" d="M16.4534 91.0146H4.48175C3.93577 91.0146 3.49316 91.4572 3.49316 92.0032V94.4638C3.49316 95.0098 3.93577 95.4524 4.48175 95.4524H16.4534C16.9994 95.4524 17.442 95.0098 17.442 94.4638V92.0032C17.442 91.4572 16.9994 91.0146 16.4534 91.0146Z" fill="#FFD023"/>
<path id="Vector_33" d="M16.4592 95.9958H4.5093C4.10399 95.9958 3.71521 95.8352 3.4281 95.5491C3.14099 95.263 2.97898 94.8748 2.97754 94.4695V92.0034C2.97754 91.5972 3.13892 91.2076 3.42618 90.9203C3.71344 90.6331 4.10305 90.4717 4.5093 90.4717H16.4592C16.8655 90.4717 17.2551 90.6331 17.5423 90.9203C17.8296 91.2076 17.991 91.5972 17.991 92.0034V94.4695C17.9895 94.8748 17.8275 95.263 17.5404 95.5491C17.2533 95.8352 16.8645 95.9958 16.4592 95.9958ZM4.5093 91.558C4.39117 91.558 4.27788 91.605 4.19435 91.6885C4.11082 91.772 4.0639 91.8853 4.0639 92.0034V94.4695C4.06532 94.5867 4.11288 94.6986 4.19626 94.7809C4.27963 94.8633 4.39211 94.9095 4.5093 94.9094H16.4592C16.5764 94.9095 16.6889 94.8633 16.7723 94.7809C16.8556 94.6986 16.9032 94.5867 16.9046 94.4695V92.0034C16.9046 91.8853 16.8577 91.772 16.7742 91.6885C16.6906 91.605 16.5774 91.558 16.4592 91.558H4.5093Z" fill="#6B39F4"/>
<path id="Vector_34" d="M14.1282 86.4043H2.15655C1.61057 86.4043 1.16797 86.8469 1.16797 87.3929V89.8535C1.16797 90.3995 1.61057 90.8421 2.15655 90.8421H14.1282C14.6742 90.8421 15.1168 90.3995 15.1168 89.8535V87.3929C15.1168 86.8469 14.6742 86.4043 14.1282 86.4043Z" fill="#FFD023"/>
<path id="Vector_35" d="M14.1286 91.3845H2.17868C1.97778 91.3845 1.77886 91.3448 1.59333 91.2678C1.40779 91.1907 1.23929 91.0778 1.09748 90.9355C0.955678 90.7932 0.843361 90.6243 0.766976 90.4385C0.690591 90.2527 0.651638 90.0536 0.652353 89.8527V87.3867C0.652353 86.9819 0.813162 86.5936 1.0994 86.3074C1.38565 86.0212 1.77387 85.8604 2.17868 85.8604H14.1286C14.5339 85.8603 14.9227 86.021 15.2098 86.3071C15.4969 86.5932 15.6589 86.9814 15.6604 87.3867V89.8527C15.6604 90.259 15.499 90.6486 15.2117 90.9358C14.9245 91.2231 14.5349 91.3845 14.1286 91.3845ZM2.17868 86.9467C2.06199 86.9467 1.95009 86.9931 1.86758 87.0756C1.78506 87.1581 1.73871 87.27 1.73871 87.3867V89.8527C1.7387 89.9699 1.78488 90.0824 1.86724 90.1658C1.9496 90.2491 2.0615 90.2967 2.17868 90.2981H14.1286C14.2467 90.2981 14.36 90.2512 14.4436 90.1677C14.5271 90.0841 14.574 89.9708 14.574 89.8527V87.3867C14.5726 87.2695 14.525 87.1576 14.4416 87.0752C14.3583 86.9929 14.2458 86.9467 14.1286 86.9467H2.17868Z" fill="#6B39F4"/>
<path id="Vector_36" d="M17.5833 81.9658H5.61164C5.06566 81.9658 4.62305 82.4084 4.62305 82.9544V85.415C4.62305 85.961 5.06566 86.4036 5.61164 86.4036H17.5833C18.1293 86.4036 18.5719 85.961 18.5719 85.415V82.9544C18.5719 82.4084 18.1293 81.9658 17.5833 81.9658Z" fill="#FFD023"/>
<path id="Vector_37" d="M17.61 86.947H5.66012C5.25481 86.9455 4.8666 86.7835 4.58051 86.4964C4.29442 86.2093 4.13379 85.8205 4.13379 85.4152V82.9492C4.13379 82.5444 4.2946 82.1562 4.58084 81.8699C4.86708 81.5837 5.25531 81.4229 5.66012 81.4229H17.61C17.8109 81.4221 18.01 81.4611 18.1958 81.5375C18.3816 81.6139 18.5505 81.7262 18.6928 81.868C18.8351 82.0098 18.9481 82.1783 19.0251 82.3638C19.1021 82.5494 19.1418 82.7483 19.1418 82.9492V85.4152C19.1418 85.8215 18.9804 86.2111 18.6932 86.4983C18.4059 86.7856 18.0163 86.947 17.61 86.947ZM5.66012 82.5092C5.54343 82.5092 5.43152 82.5556 5.34901 82.6381C5.2665 82.7206 5.22015 82.8325 5.22015 82.9492V85.4152C5.22014 85.5324 5.26632 85.6449 5.34868 85.7283C5.43103 85.8116 5.54293 85.8592 5.66012 85.8606H17.61C17.7282 85.8606 17.8415 85.8137 17.925 85.7302C18.0085 85.6466 18.0554 85.5334 18.0554 85.4152V82.9492C18.054 82.832 18.0065 82.7201 17.9231 82.6378C17.8397 82.5554 17.7272 82.5092 17.61 82.5092H5.66012Z" fill="#6B39F4"/>
<g id="Group 18289">
<g id="Group 18288">
<path id="Vector_38" d="M46.4367 2.20605L45.3206 4.18736C44.5168 5.48776 46.3138 8.05782 49.3446 9.93674C52.3755 11.8156 55.4882 12.2815 56.2767 10.9607L57.3979 8.97936L46.4367 2.20605Z" fill="#FFD023"/>
<path id="Vector_39" d="M54.4801 11.9327C54.1869 11.9301 53.8943 11.9061 53.6046 11.861C50.4659 11.2155 47.6588 9.47531 45.6845 6.95127C44.8602 5.77375 44.6606 4.73446 45.1009 4.01259L46.2118 2.0364C46.2477 1.97825 46.3045 1.93609 46.3705 1.91865C46.402 1.90468 46.436 1.89746 46.4704 1.89746C46.5048 1.89746 46.5388 1.90468 46.5702 1.91865L57.5314 8.71244C57.5873 8.74741 57.6275 8.80259 57.6437 8.86649C57.6599 8.93038 57.6509 8.99807 57.6184 9.05545L56.5023 11.0419C56.1491 11.6562 55.4477 11.9327 54.4801 11.9327ZM46.5293 2.52277L45.5412 4.2737C45.2084 4.78566 45.4183 5.67648 46.1043 6.65434C47.9969 9.06528 50.6806 10.7299 53.6814 11.3542C54.8692 11.5334 55.7293 11.3542 56.0621 10.8064L57.0553 9.04522L46.5293 2.52277Z" fill="#6B39F4"/>
<path id="Vector_40" d="M57.7245 9.18282C58.5337 7.88498 56.7367 5.30335 53.7109 3.41658C50.6851 1.52982 47.5762 1.0524 46.767 2.35024C45.9578 3.64808 47.7547 6.22972 50.7805 8.11648C53.8063 10.0032 56.9152 10.4807 57.7245 9.18282Z" fill="#FFD023"/>
<path id="Vector_41" d="M55.5913 9.96704C54.168 9.96704 52.2482 9.33732 50.3283 8.14956C47.1336 6.16825 45.3264 3.49067 46.2326 2.05204C47.1388 0.61342 50.3283 1.02811 53.523 3.01454C56.7176 5.00097 58.5198 7.67343 57.6187 9.11205C57.2603 9.68545 56.5333 9.96704 55.5913 9.96704ZM48.219 1.69367C47.4715 1.69367 46.9135 1.89333 46.6524 2.30803C45.9408 3.46507 47.7429 5.93274 50.5945 7.70414C53.4462 9.47555 56.4617 9.98751 57.1784 8.83559C57.8952 7.68367 56.0879 5.21088 53.2363 3.43947C51.4188 2.32339 49.5296 1.69367 48.219 1.69367Z" fill="#6B39F4"/>
<path id="Vector_42" d="M55.9697 7.73994L55.1506 7.32012C55.0994 7.32012 55.0891 7.32012 55.0942 7.32012C55.1289 7.44332 55.1316 7.57332 55.102 7.69784C55.0725 7.82237 55.0116 7.93729 54.9253 8.03176C54.741 8.19558 54.4133 8.19046 53.9833 8.03176C53.8655 7.9908 53.7478 7.93448 53.6198 7.88329L53.2972 6.75696C53.4411 6.84097 53.6074 6.87852 53.7734 6.86447C53.8455 6.82915 53.9127 6.78439 53.973 6.73136H53.9474L52.4115 5.94806C52.409 5.97872 52.409 6.00954 52.4115 6.04021C52.4151 6.26375 52.3769 6.48599 52.2989 6.69552C52.1556 7.01294 51.7869 7.04366 51.234 6.80816C50.6926 6.56856 50.2064 6.22 49.8056 5.78423C49.4931 5.47238 49.2399 5.10636 49.0582 4.70398C48.966 4.49407 48.9046 4.29441 48.8278 4.08962L48.2697 3.80292L48.2441 3.05033L48.7919 3.33191C48.8283 3.21795 48.8728 3.10674 48.9251 2.99914C48.9827 2.89646 49.0708 2.81422 49.1772 2.76378C49.2836 2.71334 49.403 2.69718 49.5189 2.71755C49.8241 2.75293 50.1196 2.8468 50.3893 2.99402L50.5173 3.74661C50.1231 3.58278 49.8568 3.57765 49.78 3.82852L51.3159 4.59647C51.3415 4.46336 51.362 4.33536 51.3979 4.21249C51.4068 4.14279 51.4357 4.07716 51.4811 4.02355C51.5265 3.96994 51.5865 3.93065 51.6538 3.91043C51.8589 3.87577 52.0696 3.90434 52.258 3.99235C52.5935 4.12342 52.9116 4.29538 53.2051 4.50431C53.6816 4.83962 54.0943 5.25749 54.4236 5.73815C54.5464 5.92246 54.6386 6.10165 54.7461 6.28595L54.7819 6.35251L55.5857 6.76208L55.9697 7.73994ZM49.8773 4.62207C49.9302 4.80911 50.0208 4.98335 50.1435 5.13403C50.2449 5.27421 50.374 5.39201 50.5228 5.48009C50.6717 5.56817 50.8371 5.62465 51.0088 5.646C51.1726 5.61528 51.1879 5.45657 51.234 5.32858L49.8773 4.62207ZM53.758 5.84566C53.6454 5.68695 53.5583 5.54872 53.4457 5.41049C53.1744 5.08796 52.729 4.84221 52.5703 4.89853C52.4115 4.95484 52.4781 5.05211 52.4576 5.15963L53.758 5.84566Z" fill="white"/>
</g>
<g id="Group 18287">
<path id="Vector_43" d="M36.7705 9.94249C34.4615 10.777 32.6082 15.2874 32.6082 15.2874L33.197 17.5298C33.4442 18.284 33.8401 18.981 34.3614 19.5794C34.8828 20.1779 35.5188 20.6657 36.232 21.0139C36.9452 21.3621 37.721 21.5638 38.5135 21.6068C39.3061 21.6499 40.0991 21.5336 40.8459 21.2647C41.5926 20.9958 42.2778 20.5798 42.8609 20.0414C43.444 19.503 43.9132 18.853 44.2407 18.1301C44.5681 17.4071 44.7472 16.6258 44.7673 15.8323C44.7875 15.0389 44.6482 14.2495 44.3578 13.5109L43.4005 11.4067C43.4005 11.4067 39.0795 9.1131 36.7705 9.94249Z" fill="#FFD023"/>
<path id="Vector_44" d="M38.7923 21.7136C37.5201 21.7089 36.28 21.3135 35.2399 20.581C34.1997 19.8484 33.4096 18.8141 32.9764 17.6179L32.3774 15.355C32.3623 15.3014 32.3623 15.2448 32.3774 15.1912C32.4542 15.0069 34.3024 10.5835 36.6933 9.70291C39.0842 8.8428 43.3488 11.0852 43.5178 11.1825C43.5663 11.2095 43.6056 11.2506 43.6304 11.3002L44.598 13.4044C44.9386 14.3388 45.049 15.3414 44.9199 16.3274C44.7908 17.3135 44.426 18.2539 43.8564 19.0691C43.2869 19.8843 42.5292 20.5502 41.6477 21.0106C40.7662 21.4709 39.7868 21.7121 38.7923 21.7136ZM32.8945 15.3089L33.4679 17.4643C33.9805 18.8792 35.0341 20.0324 36.397 20.6704C37.7599 21.3084 39.3204 21.3789 40.7352 20.8663C42.1501 20.3537 43.3034 19.3001 43.9414 17.9372C44.5794 16.5743 44.6498 15.0138 44.1373 13.599L43.2106 11.5972C42.6321 11.3002 38.8896 9.45716 36.8776 10.1842C34.8656 10.9111 33.13 14.7151 32.874 15.3089H32.8945Z" fill="#6B39F4"/>
<path id="Vector_45" d="M38.2702 20.0329C41.5445 20.0329 44.1988 17.3786 44.1988 14.1043C44.1988 10.8301 41.5445 8.17578 38.2702 8.17578C34.996 8.17578 32.3417 10.8301 32.3417 14.1043C32.3417 17.3786 34.996 20.0329 38.2702 20.0329Z" fill="#FFD023"/>
<path id="Vector_46" d="M38.2805 20.29C37.3524 20.2927 36.4357 20.0865 35.5982 19.6867C34.7607 19.2869 34.0239 18.7037 33.4424 17.9804C32.8609 17.2571 32.4497 16.4122 32.2392 15.5084C32.0286 14.6045 32.0242 13.6649 32.2263 12.7591C32.4283 11.8533 32.8316 11.0046 33.4062 10.2759C33.9809 9.54716 34.7122 8.95712 35.5459 8.54947C36.3796 8.14183 37.2944 7.92704 38.2224 7.92103C39.1505 7.91502 40.0679 8.11794 40.9069 8.51475C41.6429 8.85889 42.3033 9.3456 42.8499 9.94669C43.3965 10.5478 43.8184 11.2513 44.0913 12.0166C44.4272 12.9493 44.5338 13.9492 44.4021 14.9318C44.2703 15.9144 43.9041 16.8509 43.3343 17.6622C42.7644 18.4735 42.0078 19.1358 41.1282 19.5931C40.2486 20.0505 39.2719 20.2895 38.2805 20.29ZM38.2805 8.42772C37.37 8.42827 36.473 8.64778 35.6652 9.06773C34.8573 9.48768 34.1623 10.0957 33.6388 10.8406C33.1152 11.5856 32.7785 12.4454 32.657 13.3478C32.5355 14.2501 32.6328 15.1684 32.9407 16.0253C33.1853 16.7359 33.5687 17.3908 34.0685 17.9519C34.5684 18.5131 35.1747 18.9694 35.8524 19.2942C36.5301 19.619 37.2656 19.806 38.0161 19.8442C38.7666 19.8824 39.5173 19.771 40.2244 19.5167C40.9316 19.2623 41.5811 18.8699 42.1354 18.3624C42.6896 17.8549 43.1375 17.2423 43.4529 16.5602C43.7684 15.8781 43.9452 15.1401 43.9731 14.3892C44.0009 13.6382 43.8793 12.8891 43.6152 12.1855C43.3651 11.4827 42.9779 10.8366 42.4761 10.2847C41.9743 9.73272 41.3678 9.28599 40.6919 8.9704C39.9375 8.6151 39.1143 8.42984 38.2805 8.42772Z" fill="#6B39F4"/>
<path id="Vector_47" d="M37.4048 9.90137L37.6966 10.7103C37.6966 10.7666 37.7376 10.7768 37.7939 10.7666C38.2185 10.6976 38.6538 10.7382 39.0584 10.8843C39.4927 11.032 39.8573 11.3346 40.0824 11.7342C40.1438 11.8417 40.1899 11.9543 40.2513 12.0721L38.997 12.5226C38.9244 12.336 38.7932 12.1779 38.6233 12.0721C38.4778 12.0066 38.3292 11.9485 38.1778 11.898V11.9236L38.741 13.4902H38.8895C39.2517 13.433 39.6196 13.4193 39.9851 13.4493C40.2583 13.4681 40.5216 13.5597 40.7475 13.7146C40.9735 13.8694 41.1539 14.0818 41.2701 14.3299C41.4913 14.742 41.5612 15.2185 41.4676 15.6767C41.3741 16.135 41.1231 16.546 40.7581 16.8385C40.5534 17.0023 40.3332 17.1406 40.108 17.2993L40.3281 17.9085L39.1711 18.3232L38.9458 17.6986C38.6898 17.6986 38.4338 17.7498 38.2086 17.7549C37.7395 17.771 37.2784 17.6305 36.8979 17.3556C36.5807 17.1071 36.3438 16.7705 36.217 16.388L37.4509 15.9426C37.5337 16.1559 37.6855 16.3354 37.8823 16.4523C38.079 16.5692 38.3092 16.6169 38.5362 16.5876C38.3366 16.0245 38.1318 15.4664 37.9321 14.9084L37.159 14.9596C36.849 14.9833 36.5378 14.9306 36.2529 14.806C35.9639 14.6726 35.7253 14.4501 35.5719 14.1712C35.3677 13.8404 35.2595 13.4592 35.2596 13.0704C35.2608 12.7894 35.3237 12.5121 35.4441 12.2582C35.5644 12.0042 35.7392 11.7799 35.9559 11.6011C36.138 11.4626 36.3278 11.3344 36.5242 11.2171L36.5959 11.1762L36.2324 10.3314L37.4048 9.90137ZM39.6625 16.1678C39.8448 16.0753 39.9974 15.9333 40.1028 15.7583C40.1856 15.6053 40.2099 15.4275 40.1713 15.258C40.1327 15.0884 40.0337 14.9387 39.8929 14.8367C39.6579 14.7345 39.3998 14.6973 39.1455 14.7292L39.6625 16.1678ZM36.9389 12.2308C36.8083 12.3514 36.6868 12.4814 36.5754 12.6199C36.5211 12.6982 36.4848 12.7875 36.4688 12.8814C36.4529 12.9754 36.4578 13.0716 36.4832 13.1635C36.5086 13.2553 36.5539 13.3404 36.6158 13.4128C36.6777 13.4852 36.7548 13.5431 36.8416 13.5824C37.0356 13.6412 37.24 13.6569 37.4406 13.6285L36.9389 12.2308Z" fill="white"/>
</g>
<g id="Group 18286">
<path id="Vector_48" d="M43.1631 25.439C41.8985 27.5432 43.3167 32.2123 43.3167 32.2123L45.1905 33.5741C45.8578 33.9755 46.5976 34.2415 47.3677 34.357C48.1377 34.4725 48.923 34.4351 49.6787 34.2471C50.4343 34.0591 51.1456 33.7241 51.7717 33.2612C52.3979 32.7983 52.9268 32.2166 53.3282 31.5493C53.7296 30.882 53.9956 30.1422 54.111 29.3722C54.2265 28.6021 54.1892 27.8168 54.0011 27.0611C53.8131 26.3055 53.4781 25.5942 53.0152 24.9681C52.5523 24.3419 51.9706 23.813 51.3034 23.4116L49.2197 22.3877C49.2197 22.3877 44.4277 23.3502 43.1631 25.439Z" fill="#FFD023"/>
<path id="Vector_49" d="M48.2367 34.6951C47.116 34.6953 46.0166 34.3891 45.0574 33.8094L43.1632 32.4322C43.1183 32.4017 43.0857 32.3564 43.071 32.3042C43.0096 32.1045 41.6375 27.4968 42.943 25.321C44.2536 23.1451 48.9689 22.198 49.1685 22.157C49.2217 22.1391 49.2792 22.1391 49.3323 22.157L51.4109 23.1809C52.4636 23.8079 53.3064 24.7335 53.8322 25.8402C54.3581 26.9469 54.5434 28.1848 54.3645 29.397C54.1857 30.6091 53.6509 31.7408 52.8279 32.6486C52.0049 33.5563 50.9308 34.1991 49.7419 34.4954C49.2501 34.6223 48.7447 34.6894 48.2367 34.6951ZM43.5369 32.0943L45.339 33.4049C46.6268 34.132 48.1476 34.3274 49.5774 33.9495C51.0072 33.5716 52.2328 32.6503 52.9932 31.3819C53.7536 30.1134 53.9885 28.5982 53.648 27.1591C53.3075 25.72 52.4185 24.4707 51.1703 23.6776L49.1839 22.7048C48.549 22.8431 44.4892 23.7799 43.3833 25.6128C42.2775 27.42 43.3577 31.4492 43.5369 32.0943Z" fill="#6B39F4"/>
<path id="Vector_50" d="M46.9567 33.6608C50.231 33.6608 52.8853 31.0065 52.8853 27.7323C52.8853 24.458 50.231 21.8037 46.9567 21.8037C43.6824 21.8037 41.0281 24.458 41.0281 27.7323C41.0281 31.0065 43.6824 33.6608 46.9567 33.6608Z" fill="#FFD023"/>
<path id="Vector_51" d="M46.9467 33.9169C45.9943 33.9148 45.0553 33.6927 44.2029 33.268C43.3504 32.8433 42.6076 32.2275 42.0323 31.4686C41.4569 30.7096 41.0646 29.8281 40.886 28.8926C40.7073 27.9571 40.7471 26.993 41.0023 26.0755C41.2574 25.1579 41.721 24.3117 42.3569 23.6028C42.9929 22.8938 43.7839 22.3413 44.6685 21.9883C45.553 21.6354 46.5071 21.4914 47.4564 21.5678C48.4057 21.6441 49.3246 21.9386 50.1414 22.4284C51.3024 23.1247 52.203 24.1827 52.7048 25.4401C53.2066 26.6976 53.2819 28.0849 52.9192 29.3893C52.5565 30.6937 51.7758 31.843 50.6969 32.6609C49.618 33.4787 48.3005 33.92 46.9467 33.9169ZM46.9467 22.0598C45.5769 22.0607 44.2539 22.5576 43.2222 23.4587C42.1906 24.3598 41.5201 25.604 41.335 26.9611C41.1498 28.3183 41.4624 29.6966 42.215 30.8411C42.9676 31.9856 44.1092 32.8188 45.4287 33.1866C46.7481 33.5544 48.1561 33.4319 49.3922 32.8417C50.6283 32.2516 51.6089 31.2337 52.1525 29.9765C52.6961 28.7192 52.7659 27.3076 52.3492 26.0028C51.9324 24.698 51.0571 23.5883 49.8854 22.8789C49.0037 22.3449 47.9929 22.0617 46.962 22.0598H46.9467Z" fill="#6B39F4"/>
<path id="Vector_52" d="M43.6289 25.0199C43.8747 25.1684 44.1409 25.3117 44.3713 25.4653C44.378 25.473 44.3863 25.4791 44.3956 25.4832C44.4048 25.4874 44.4149 25.4896 44.425 25.4896C44.4352 25.4896 44.4453 25.4874 44.4545 25.4832C44.4638 25.4791 44.4721 25.473 44.4788 25.4653C44.7675 25.1462 45.1295 24.902 45.5335 24.7537C45.9609 24.6021 46.4293 24.6131 46.8492 24.7844L47.1922 24.938L46.5062 26.0797C46.331 25.9795 46.1276 25.9399 45.9277 25.967C45.7744 26.0065 45.6239 26.0561 45.4771 26.1155V26.1411L46.9004 27.0012L47.0028 26.8937C47.2497 26.6196 47.5281 26.3756 47.8322 26.1667C48.0547 26.0128 48.3139 25.9203 48.5836 25.8987C48.8533 25.8772 49.1239 25.9272 49.3681 26.0438C49.8415 26.2356 50.2228 26.6023 50.433 27.0678C50.5989 27.4534 50.6401 27.8812 50.5507 28.2914C50.4944 28.5474 50.4125 28.8033 50.3408 29.0593L50.8937 29.3972L50.2589 30.4467L49.6906 30.1037C49.5063 30.2829 49.3374 30.457 49.1786 30.6157C48.8267 30.927 48.3784 31.1077 47.909 31.1277C47.5073 31.1403 47.1112 31.0315 46.7724 30.8154L47.4482 29.689C47.6476 29.8017 47.879 29.8443 48.1055 29.81C48.332 29.7756 48.5404 29.6664 48.6974 29.4996L47.1615 28.5832L46.5932 29.0952C46.3671 29.3085 46.0933 29.4647 45.7946 29.5508C45.4867 29.6264 45.163 29.605 44.8679 29.4894C44.4997 29.3589 44.1741 29.1306 43.9259 28.8289C43.7506 28.6101 43.6254 28.3555 43.5591 28.0831C43.4927 27.8107 43.4869 27.527 43.5419 27.2521C43.5935 27.0299 43.6585 26.8111 43.7365 26.5968C43.7349 26.5695 43.7349 26.5421 43.7365 26.5149L42.9685 26.0541L43.6289 25.0199ZM49.3425 28.4501C49.4253 28.262 49.452 28.054 49.4193 27.8511C49.3872 27.6808 49.2941 27.5281 49.1574 27.4216C49.0207 27.3151 48.8499 27.2621 48.6769 27.2726C48.4309 27.342 48.208 27.4764 48.0318 27.6617L49.3425 28.4501ZM44.7348 27.1241C44.7113 27.2937 44.6993 27.4648 44.6989 27.6361C44.7072 27.7313 44.736 27.8237 44.7834 27.9068C44.8309 27.9898 44.8958 28.0616 44.9737 28.1171C45.0516 28.1726 45.1406 28.2105 45.2346 28.2282C45.3286 28.246 45.4253 28.243 45.5181 28.2197C45.7111 28.1428 45.8856 28.0259 46.0301 27.8767L44.7348 27.1241Z" fill="white"/>
</g>
</g>
</g>
</svg>
