<?xml version="1.0" encoding="UTF-8"?>
<svg version="1.1" viewBox="0 0 1600 533" width="600" height="200" xmlns="http://www.w3.org/2000/svg">
<path transform="translate(0)" d="m0 0h1600v533h-1600z" fill="#006839"/>
<path transform="translate(1038)" d="m0 0h562v533h-585l-3-13-9 1-1 3-3 1-1-5 3-6 8-11 2-5-1-10-4 2-6 7-4 4-5-2-1 2 3 11-1 3-4-2-2-7v-6l-3-6-5-5-8-11-3-6-2-2v-6l4-2 2-5 7-9 1-2-3-7-11-12-5-3-2-5-3-4v-2h3l1-4h2l2-6-1-7-3-2v-6l6-1 6 4-4-10-5 1v2h-2v3l-9 4-3 1 1-4 14-15 9-10h3v9l8 15 7 16 4 9h2l1-2v-22l-3-9-2-4 1-7 1-1 1-7h4l8 7v2h2v-3l8-9h2l2-4 8-10 7-7 1-7 1-13-4 2 2-9 1-2 2-11-4 1 2-4 7-8 12-13 15-15 1-2h-2l-9-11-8-8-7-9-5-4-7-8-9-10v-2h-2v57l-5-2-2-5v-3l-6 1v-11l-5 1-2-4-5 1-2 1-2 4-6-2-2-5-3-3-3-21-7-9-4-4v21l7 6 1 3-6-2-5 2-4-1-3-1-2 14h-1l-1-8v-26l1-10-5 3-11 12-3 3-3-1 4-8 9-10 2-3h2l2-6h-2v-2h-2l2-5 3-4-1-8-5-1-1-3 1-3 6-1 3 3 1-11-5-13-1-9-5-11 4-2 10-1 2-3-1-5-3-4v-2h-5l-2 6-5 2h-5v-3l19-19 4-2 1 3-1 5 10 16-2-10-4-10-3-4v-3h2l2-5 4-2 2 6h-2l4 8v2h2l11 23 3 10 2-1 1-4 1-22-9-17-1-6 7-3h5l6 7 5-5 8-10 10-10 6-7 2-6 1-14h-2l2-5 6-10 1-3-7 1-1-5z" fill="#97C20E"/>
<path transform="translate(22)" d="m0 0h1016l1 3-1 6h7l-1 5-8 13h2v14l-3 7-3 4h-2l-2 4-11 11-10 13-7-7-9 1-2 1 1 6 9 17-1 22-2 5h-2l-10-23-4-8v-2h-2l-4-7 1-4-1-5-5 5-1 2h-2l3 6 4 7 3 11-1 4-6-9-5-8 1-6h-2l-8 7-7 7-4 5h-2v3l7-2 4-4 1-2h5l4 6 1 5-3 4-13 2 6 14v6l5 13-2 11-3-1v-2l-6 1 1 3v3l4 1 2 4-1 5-5 8h2v2h2l-1 4-7 8-8 10-2 5 4-2 8-8 6-7h3v36l1 4 2-10 7 1 6-2 4 2-8-8v-22l7 6 6 9 3 22 3 1 1 5 6 1 2-4 5-2 4 2v3l5-1 1 10 2-1 3 1 3 8 4 2v-57h2l9 11 12 12 12 14 12 13v2h2l-2 4-21 21-7 8-6 8h3l-1 13h-2l-1 8 3-1v18l-14 16-5 7-7 6-2 4 1 5-2-1v-2h-2v-2l-4-2-5-5h-2l-1 7-2 4 1 6 3 6 1 5v22l-2 3-3-1-4-9-9-20-6-11 1-9-5 3-12 13-9 10v2l5-3 6-1v-3h2v-2h2l1-2 4 2 2 5v4l-5-2-3-1h-4v6l4 2 1 7-3 6h-2l-1 4h-3l4 6 2 5 5 2 7 8 5 6 2 7-5 6-6 9-3 2v6l3 3 4 8 8 11 4 3 2 7 1 10 4 3-1-8-2-7 4-2 4 2 7-9 4-4 3 1 1 11-3 5-9 13-1 5 1 2 5-4 7-1 2 7 1 7h-181l-7-10-13-23-14-27-12-26-12-31-11-34-8-32-7-36-4-28-2-16-1-14v-71l3-34 4-26 4-24 12-48 12-36 6-16-761 1z" fill="#319748"/>
<path transform="translate(0)" d="m0 0h22l3 1h219l-2 2h-19l-1 3-3 1-3-1-1 2-10 5-5 2h-14v-2l-2 1v3l-7-2-5 2h-7l-4 4-7 8-3 6v6l2 2v3l-7-2-1 8 5 1 8 9 6 3 2-4 7-8 6-1 1 5v50l1 7 7-6 10-10 7-8 12-12h2v18l1 4 4 1h15l-1 4-17 17-7 8-19 19-9 11-5 10-2 9-1 2h-5l-2-5-1-16h-3l-1-7v-2l-4-2-9-13-10-11-4-1-1 5 7 8 7 7 8 14 5 14v7l-1 1h-5l-1-8-3-1-1-10-7-11-11-12-4-3-3 3h-2l3 5 12 12 6 8 4 13v3l-3 2-4-1-1-6-2-7-2-1 3 7-1 6-9 2h-2l3 9 8 2 4 12 2 1 2 6h2l1 6h2l1 7 4 2-4 6v6h-2l-1 4h-2v6h-2l-1 9-7 6v8l-7 3-2 5v8l-4 2-3 11 2 1v2l-4 1 3 2 2 7 4 2 1 3 4 2 2 7 5 5-1 9-2 3 5 2 4 7v2l2 1 2 5 5 6 4 6 4 5 2 2v14l1 4-1 15v11l-2 27-3 15-3 8-5 10-2 5-4 6-7 4h-2v-4l-5 3-5-2-3-4 3-9 7-17 4-17 1-6v-30l-3-15-5-16-7-16 2-5 3-2h5l5 6 1 1-4-6-3-2-5 1-4 3 1 9 7 16 5 18 1 6v36l-4 17-5 13-5 12 1 6 3 3 10 3v6l4 3 15 3 3-1 6-1 8 7 7 2 1 7 7 2 3 4h-196z" fill="#015736"/>
<path transform="translate(145,52)" d="m0 0 5 1 8 9 6 3 2-4 7-8 6-1 1 5v50l1 7 7-6 10-10 7-8 12-12h2v18l1 4 4 1h15l-1 4-17 17-7 8-19 19-9 11-5 10-2 9-1 2h-5l-2-5-1-16h-3l-1-7v-2l-4-2-9-13-10-11-4-1-1 5 7 8 7 7 8 14 5 14v7l-1 1h-5l-1-8-3-1-1-10-7-11-11-12-4-3-3 3h-2l3 5 12 12 6 8 4 13v3l-3 2-4-1-1-6-2-7-11-14-13-13-7-8-11-11-14-16v-3l14-1 4-2 1-3v-17l5 2 24 24 7 8 2 1 1-4z" fill="#E5EBE8"/>
<path transform="translate(500,99)" d="m0 0h30l6 4 2 3v10l-5 4 1 7 6 9v2l3-1 7-16 4-11-4-10 4-1 15 1 7 22 4 12 2 3 5 1v-19l-1-9-4-7v-3h22l-1 6-3 3v28h10l5-7h4l1 2v12l-1 1h-41l-15-1 1-4 2-2v-4l-6-4-3-4-1 1v10l4 4-1 3-21 1-7-2-10-18-2-4v-4l7-1 2-9-9 1-1 3v23l4 6-1 5h-17l-3-3 5-7v-27h-7l-1 1-1 25-4 8-6 4-3 1h-8l-6-3-5-7-2-9v-20l-4-2v-6h18l2 1-1 7-2 1-1 8v14l1 3 10 4v-2h2l1-4v-22l-3-4v-5l1-1z" fill="#E6ECE9"/>
<path transform="translate(953,197)" d="m0 0h3l-1 99-1 10-4-2-9-10-8-8-4-6-24-24 1-4 11-13 12-13 9-11 9-9 2-5z" fill="#34873F"/>
<path transform="translate(1212,199)" d="m0 0 2 1-1 6-1 23 1 51 1 27-7-6-9-10-7-7-7-8-12-13-8-7v-4l11-12 7-8 11-12 11-13z" fill="#77AC26"/>
<path transform="translate(279,98)" d="m0 0h14l4 3 1 8-2 4-6-1-4-5h-7l-4 5-2 6 1 9 4 6 4 2h9l7-3 5-9 3-9 2-3-1-4-2-3v-5l1-1 15 1 3 3 8 28 4 6 5 4 1 2 3-1 1-3v-27l-5-8 1-2h19l-1 5-2 3-1 27-1 3-5 5-6 5h-5l-1-5h-18l-8-1-4 1h-32l-7-3-5-4-4-9v-13l4-8 7-6z" fill="#E6ECE9"/>
<path transform="translate(891,58)" d="m0 0 5 2 1 3 5 4 6 8v2h3l5 6 11 11v2l3 1 7 8 2 3-1 4-11 11-7 8-15 16-6 7-3 5h-2l-2-10-1-14v-33l1-15 1-5 1-10-3-7z" fill="#34873F"/>
<path transform="translate(1151,58)" d="m0 0h2v2h2l7 8 9 10 4 5 13 13v2l4 2 7 8-1 4-8 7-7 7-7 8-11 11-9 11-2 3h-2l-1-58z" fill="#6B9828"/>
<path transform="translate(1081,61)" d="m0 0h1l1 99-26-26-7-8-14-14 2-4 7-8 9-10 7-8 9-9 1-2h2l2-4z" fill="#57922E"/>
<path transform="translate(1151,348)" d="m0 0 4 2 6 7 5 5 7 9 5 4 5 7 8 7 5 5 3 2-2 4-8 7-14 15-8 8-1 2h-2l-2 4-8 10-1 2h-2l1-30-1-45z" fill="#6B9828"/>
<path transform="translate(1081,350)" d="m0 0 1 4v22l1 48 1 23-2 1-7-8-9-10-30-30 6-7 9-11 12-13 15-15z" fill="#57912E"/>
<path transform="translate(892,348)" d="m0 0 4 1 4 6 10 11 5 5 7 6 7 8 5 5v2l4 2 1 5-12 12-7 8-11 11h-2v2l-8 7h-1v-7l2-9-1-6-5-10-1-4 2-17-1-13-1-1v-9l-2-7v-7z" fill="#34863F"/>
<path transform="translate(133,359)" d="m0 0h5l5 6 6 12 5 16 3 16 1 24-2 21-4 17-8 19-4 6-6 2-5-4-1-4 10-24 4-17 1-6v-30l-3-15-5-16-7-16 2-5z" fill="#E6ECE9"/>
<path transform="translate(1033,221)" d="m0 0 4 1 11 11 7 8 12 13v4l-8 8h-2v2l-15 15-9 11-2 3h-2l-1 8-4 3v-70h1l1 18h2l2-13 2-12-1-7z" fill="#56912E"/>
<path transform="translate(750,314)" d="m0 0h1l7 36 9 36 14 41 12 29 7 15v2l-5 1 2 7 6 12 2 8-1 2h3l1 7 1 4-7 1v-2l-2-1v-2l4-3h-3l-2 1-6-2v-2l-4 1-3-2-2 1v-4l-4-1 2-2-2-4v-2l-3-2-4 1-3 1-2-2 1-6 4-4 3-1 3-5-1-4 2-3v-5l-1-3-5-1-3-3v-5l7-1 1-7-4-1 1-6v-5l-2-1 1-2h-2v-2h-2l-1-3 1-1v-5l-2-2-1-11-5-12-6-21v-12l-3-9-1-2v-7l-4-18z" fill="#00763A"/>
<path transform="translate(831,111)" d="m0 0 7 1 4 5-4-2h-6l-5 11-5 23-6 12 1 9 3 6 6 8 11 12 1 3h2l9 11h6v2h-2l3 10 6 10 5 13 3 12 1 11-3 4h-3l-7-20-9-25-5-5-8-3-1-1-2 2-2-6-4-6-3 1v-2h-2v3h-2l-1-2-5-2-1-5 2-2v-2h-2l1-8-2-9 1-6 1-3-3-1 1-13v-5l5-2 2-2 4-23 3-8h2l1-4z" fill="#1C874B"/>
<path transform="translate(109,373)" d="m0 0 5 1 6 9 6 18 2 8 1 11v17l-2 16-7 20-5 9-5 2-6-5-1-5 8-16 3-15 1-9v-11l-2-16-4-13-5-11v-6z" fill="#E6ECE9"/>
<path transform="translate(1066,165)" d="m0 0 6 5 7 8 12 12 7 8 10 11 9 14 8 16 2 6 2 18v9l-3 1-3-1-10-26-3-10-4-10-1-5-4 2-6-8-12-13-15-15-1-2v-11z" fill="#35873E"/>
<path transform="translate(1090,416)" d="m0 0 5 1 4 6 6 2 1 7 3 6h3v-16h2l4 13 1 5 1 2-1 13-2 7-3 1-4-5-1 17-7-6-6-8-6-1-4-9-1-8v-14l2-10z" fill="#5C882C"/>
<path transform="translate(1197,20)" d="m0 0 4 5 8 8 9 11 11 11 9 11 9 14 8 14 2 3v26h-3l-3-5-8-20-6-12-2-10-8-2-7-8-8-7-9-10-3-3-1-3-1-13z" fill="#6D9926"/>
<path transform="translate(938,315)" d="m0 0 4 1 2 1 4 7 18 18v2h2l7 8 8 7v3l3 1 10 18 2 7v22l-2 3-3-1-4-9-9-20-6-11 1-9-6 1-8-10-6-5-6-7-4-4-3-6-4-12z" fill="#35863E"/>
<path transform="translate(1197,312)" d="m0 0 4 2 7 7 7 8 11 12 4 4v2l3 1v2h2l9 14 12 20 1 10v18l-4-1-4-9-11-26-2-4-2-10-7 1-4-6-8-7-15-15z" fill="#6D9927"/>
<path transform="translate(940,25)" d="m0 0 5 4 3 4v2h2l7 8 13 12 8 11 6 8 5 8 3 3 7 13-1 22-2 5h-2l-10-23-4-8v-2h-2l-4-7 1-4-1-5-5 3-1-6-4-2-4-5-4-6-4-7-3-4v-3h-2v-3h-2l-5-8z" fill="#35873E"/>
<path transform="translate(437,99)" d="m0 0h11l6 4 3 5v6l-5 6v6l6 10 5 5v3l-2 1h-8l-3-1-9-16-4-7v-3l7-2 1-7-1-2h-5l-2 3-1 5v15l3 8 2 3-1 4h-17l-3-1 1-5 3-5v-22l-3-7-1-4 1-1z" fill="#E6ECE9"/>
<path transform="translate(1212,199)" d="m0 0 2 1-1 6-1 23 1 51 1 27-7-6-9-10-7-7-7-8-12-13-8-7v-4l11-12 7-8 11-12 11-13zm-10 18-9 9-3 1-5 6v2l-4 2-2 5h-2l-1 5-4 1-3 3 1 5h2l2 5 21 21 9 7 3-3-1-5v-7l1-5v-25l-1-27z" fill="#6E9C27"/>
<path transform="translate(83,387)" d="m0 0 5 1 6 8 4 10 2 9v27l-2 9-5 12-5 6-7-1-3-5 3-9 4-10 1-6v-19l-3-13-5-11 1-5z" fill="#E6ECE9"/>
<path transform="translate(370,100)" d="m0 0 16 1 3 4 9 28 2 4 4 3v4l-4 1-18-1 1-5 2-2v-3l-6-4-5-4v12l4 2-1 4-18 1-3-3 1-3 4-1 5-11 6-15-1-5-2-6z" fill="#E6ECE9"/>
<path transform="translate(1063,448)" d="m0 0 5 5 14 15 12 13 12 14 8 12 3 1 1 6 4 7v2h2l3 6v4h-12l-5-12-4-7v-2l-2-1v-2l-3 1-9-11-18-20-6-8-3-16z" fill="#58912E"/>
<path transform="translate(1213,485)" d="m0 0h1l-1 17v30l-1 1h-41l2-4 5-5 7-8h2l2-4 9-10 7-8z" fill="#6E9B27"/>
<path transform="translate(139,123)" d="m0 0 5 2 11 12 8 12 4 1v8l2 2 2-1 1 17 1 4 5 1 1-5h1v5l-4 2-5-1-15 2-11-1-2-4-2-8-2-5 1-3 4 6 1 9 1 2 6-1-5-16-9-11-11-11v-3l4-1 1-3 10 9 9 11 4 7 1 10h3v9l5-1v-7l-5-14-6-11-9-10-7-8 1-5z" fill="#3F9D41"/>
<path transform="translate(1022,488)" d="m0 0 6 5 7 8 11 12 12 13 5 6v1h-39l-1-4-1-15z" fill="#329748"/>
<path transform="translate(181,49)" d="m0 0 6 1 3 5 1 19 2 10 14-6 5 1 1 2-3 5-10 10-7 8-9 9h-3z" fill="#025936"/>
<path transform="translate(1095,134)" d="m0 0 4 2 10 12 1 5-1 33-4-2-9-11-7-1-4-9-1-5 2-2-1-9 1-8 7-1v-2h2z" fill="#5C892C"/>
<path transform="translate(1039,197)" d="m0 0 20 1 12 13 8 10 5 5 6 7 2 2-9 11-4-5-2-5-4-2-22-24-7-7-5-4z" fill="#337436"/>
<path transform="translate(1038,484)" d="m0 0 6 1h14l6 5 7 8 12 14v2h2l4 5v2h2l-2 5-6 7-4-3v-3h-2l-6-8v-2h-2l-8-10-19-19z" fill="#358940"/>
<path transform="translate(1193,196)" d="m0 0v3l-23 23-14 16-3 5-7-6-3-3 2-4 12-13 9-11 8-8z" fill="#5F8A2B"/>
<path transform="translate(1192,484)" d="m0 0v3l-7 7-7 8-7 6-7 8-9 10-4 4-10-12 5-5 5-2 6-8 8-7 8-10z" fill="#5F8B2B"/>
<path transform="translate(1036,316)" d="m0 0h2v18l-14 16-5 7-7 6-2 4 1 5-2-1v-2h-2v-2l-4-2-4-4 1-4 4-5 6-5 8-10 9-11z" fill="#507A32"/>
<path transform="translate(1172,56)" d="m0 0 19 1 12 12 7 8 8 8 2 1-2 4-7 7-4-2-9-10-14-14-7-8-5-5z" fill="#6D9927"/>
<path transform="translate(62,402)" d="m0 0h6l7 8 3 11v15l-5 14-5 5-6-1-3-3 1-7 3-5 2-7v-7l-4-11-2-5 1-5z" fill="#E6ECE9"/>
<path transform="translate(1187,344)" d="m0 0 5 3 10 10 7 8 5 6 5 3-2 4-7 8-5-4-7-8-11-11-7-8-8-8v-2z" fill="#6C9927"/>
<path transform="translate(1164,168)" d="m0 0h1v9l-2 11-7 9-7 7-1 2h-2v2l-5 5-5 6-2 2-6-7-2-5 11-11 7-8 8-10h2l2-4z" fill="#5D892B"/>
<path transform="translate(1052,345)" d="m0 0h14l-6 7-29 29-2 3-1 6-7-6-4-4v-2l6-5 9-11 14-15z" fill="#397A37"/>
<path transform="translate(1063,56)" d="m0 0h2l-2 4-31 31-4 5-2 5-9-9 2-4 7-8 9-10 11-12 2-1z" fill="#3B7937"/>
<path transform="translate(1035,27)" d="m0 0h3v14l-3 7-3 4h-2l-2 4-11 11-10 13-5-5-3-4 2-4 12-13 5-5 6-8 5-7h2l2-4z" fill="#3E7F38"/>
<path transform="translate(1163,456)" d="m0 0 3 2-3 15-6 9-3 5-11 10-8 11-3-1-5-7 1-4 7-9 7-6 7-9 11-13z" fill="#5E892B"/>
<path transform="translate(914,345)" d="m0 0 13 1 6 3 8 7 7 8 8 8 3 2-1 5-5 6h-5l-4-6-12-12-7-8-10-10z" fill="#34873F"/>
<path transform="translate(986,451)" d="m0 0h2l7 8 4 5 5 4 1 3-10 10-5 7h-2l-6-9-8-9-3-2 1-4 8-7z" fill="#35883F"/>
<path transform="translate(986,164)" d="m0 0h2l7 8 10 11-5 5-8 9-3 3-11-12-7-6 2-4 7-7z" fill="#33863F"/>
<path transform="translate(235,107)" d="m0 0h3v8l-5 4-5 3-1-1-2 5-2 1-1 3h-2l-2 4-9 10-1 2h-2v2l-4 4-6 8-4 5h-2l-3 10-3 5-4-1v-9l5-10 13-15 17-17 3-4h2l2-4z" fill="#075E37"/>
<path transform="translate(971,60)" d="m0 0 4 2 9 12 5 8 3 3 7 13-1 22-2 5h-2l-10-23v-5l-2-3v-3h-2l-1-7-2-1 1-7-1-3-3-2-1-5-2-2 1-1z" fill="#36863E"/>
<path transform="translate(1068,174)" d="m0 0 7 5v2l4 2 21 21v2h2l2 5 6 9v13l-2-2-3-10-4 2-6-8-12-13-15-15-1-2z" fill="#5C882C"/>
<path transform="translate(1245,165)" d="m0 0 4 2 9 10 5 5-2 4-7 8h-2l-1 4-2 2-18-18 2-4 8-8z" fill="#7A9B0E"/>
<path transform="translate(972,362)" d="m0 0h4l3 3 6 3 1 4h5l6 11 1 5v22l-2 3-3-1-4-9-9-20-6-11 1-9z" fill="#338940"/>
<path transform="translate(915,55)" d="m0 0 5 1 10 4 2 1v2l4 1 6 3 8 9 7 8 3 3v3l-5 3-3 3-3-1v-2l-3-1-7-8-9-10-3-5v-2l-5-2-4-5-3-3z" fill="#35863E"/>
<path transform="translate(919,199)" d="m0 0h12l-6 7-14 15-10 10-4 7-3 4h-3l-5-7 1-4 7-7 9-11 13-13z" fill="#237D47"/>
<path transform="translate(1245,453)" d="m0 0 4 2 14 14-2 4-8 9-3 5-15-15-4-3v-2l5-5 4-2 2-4z" fill="#799A10"/>
<path transform="translate(1136,134)" d="m0 0h1v40l-10 13-3 1v-40l9-10z" fill="#6B9728"/>
<path transform="translate(971,226)" d="m0 0 5 2 2-1 5 8 2 7v7l-1 2-5-2v-2l-5-1 6 12 3 10-1 4-6-4-6-7-1-18 2-1-2-2-1 8-6-3 2-4 1-3-1-7-1-2z" fill="#51AF41"/>
<path transform="translate(1063,448)" d="m0 0 5 5 14 15 12 13 12 14 8 12 3 1 1 6 4 7v2h2l3 6v4h-8l-5-7-6-18-9-14-9-10v-2h-2l-7-8-12-11-2-1-4-12z" fill="#4A7F32"/>
<path transform="translate(1135,422)" d="m0 0h2v33l-1 8-10 13-2-4v-35l9-13z" fill="#6B9728"/>
<path transform="translate(904,170)" d="m0 0 4 1-2 9-5 9-9 10-4 5-1 2h-2l-1 4h-2l-2 5-4 5h-3l-3-5-2-8h-7l4-2 9-7 2-1-1 5-1 2 8-6 8-8 12-18z" fill="#217C47"/>
<path transform="translate(1203,504)" d="m0 0h3v29h-30v-2h2l2-4 11-12 8-7z" fill="#77AC26"/>
<path transform="translate(1228,283)" d="m0 0 4 2 9 11 1 9v12l-3 3 3 9-1 6-1-2-4-2-5-5-2-3v-23l3-5h-4z" fill="#799B0F"/>
<path transform="translate(110,371)" d="m0 0 5 2 7 10 7 20 2 19v12l-2 19-5 15-7 14-3 3h-6l-5-4-1-2v-6l7-16 2-7 2-17v-15l-2-9-2-8-7-18v-6l5-5zm-1 2-5 4v6l7 16 3 13 1 11v11l-3 20-4 10-5 10 1 5 6 5 5-2 7-14 5-15 2-16v-17l-2-15-6-20-6-10-3-2z" fill="#339746"/>
<path transform="translate(1236,365)" d="m0 0 5 2h2l1-2 7 10 5 9 1 10v18l-4-1-4-9-11-26-2-4z" fill="#6E9823"/>
<path transform="translate(1228,1)" d="m0 0h10l2 5 1 6v34l-4-2-8-10-1-7z" fill="#799C10"/>
<path transform="translate(1008,283)" d="m0 0 2 3-2 14v1 22l-10 13h-1v-39l6-9z" fill="#517A32"/>
<path transform="translate(1090,416)" d="m0 0 5 1 3 6h-2l1 16v22l-7-1-4-9-1-8v-14l2-10z" fill="#50AF42"/>
<path transform="translate(1151,58)" d="m0 0h2v2h2l7 8 9 10 4 5 13 13v2l4 2 7 8-1 4-8 7-7 7-7 8-11 11-9 11h-2v-6l6-4 5-6 5-5 14-15 8-8h2l-1-5-11-10-7-8-15-16-7-7-2-5z" fill="#487D33"/>
<path transform="translate(1079,353)" d="m0 0 1 3-3 1v2l-5 5-9 10-2 4-5 5-4 5-2 3h-2l-2 6 2 6 9 11v2h2l5 7 14 14v2l3 1 1 5-4-2-14-15-28-28 6-7 9-11 12-13z" fill="#3D7B36"/>
<path transform="translate(423,98)" d="m0 0h26l4 2h6v6l5 2v20l2 9 4 5-1 2-3-3-3 3-3-5-6-7-3-6v-6l2-3h2l1-9-4-6-4-2h-11l-16 1 2 7-4-4v-5z" fill="#096F39"/>
<path transform="translate(1024,205)" d="m0 0 4 2 12 13 4 5 5 5 14 15 7 8v2h2l-2 4-21 21-7 8-6 7-8 8-1-2 2-4h2l2-4 12-14 8-8 2-3h2v-2l8-7 2-4-9-9-7-8-12-13-8-8-5-6-2-1z" fill="#0B5E36"/>
<path transform="translate(875,138)" d="m0 0 3 1-1 36-4 6-4 1-2-3v-31l5-8z" fill="#34873F"/>
<path transform="translate(1095,134)" d="m0 0 3 1-1 38h-6l-4-4-2-6-1-5 2-2-1-9 1-8 7-1v-2h2z" fill="#51AF41"/>
<path transform="translate(1e3)" d="m0 0h8v12l-1 16-2 8-8 11h-1l1-31 2-14z" fill="#537B31"/>
<path transform="translate(970,1)" d="m0 0h3 5l3 32v14l-4-2-4-5-2-6-1-11z" fill="#35873F"/>
<path transform="translate(1154,352)" d="m0 0 9 6 6 8 6 7 10 10 8 9 6 4-2 4-8 7-14 15-8 8-1 2h-2l-2 4-6 7h-2v-7l5-2 1-2h2l2-4 11-11 7-9 8-7h2v-5l-7-6-3-5-2-4-4-2-9-10-13-14z" fill="#447B33"/>
<path transform="translate(1028,496)" d="m0 0 4 2 15 16 11 12 5 6v1h-29l-1-5 1-7 6 2v2l5 2 4 2 2-1-3-5-14-15-5-6z" fill="#3F7D37"/>
<path transform="translate(1039,197)" d="m0 0 16 1 4 3v2l3 1v4h-6l4 7 5 5 4-2v-2h2v2l4 2 1 3-4 5 4 2 1-4 5 2 2 3-4 4-4-3-1 4-14-15-9-10-8-8-5-4z" fill="#417A35"/>
<path transform="translate(1209,204)" d="m0 0 1 4-6 4-8 11-4 4h-2l-2 4-5 5-4 6h-2l-1 5-5 3-1 4v2h2l6 8 16 16v3l-4-1-9-9-7-8-11-10 2-4 10-11 7-8 11-12 7-8 8-7z" fill="#467B33"/>
<path transform="translate(83,385)" d="m0 0h5l6 7 7 16 1 5v29l-3 12-5 10-6 7-7-1-5-5 1-7 6-12 2-11v-14l-2-10-6-13v-8zm0 2-5 5 1 6 5 11 2 10v19l-3 12-5 11 2 6 3 2h5l6-8 5-13 1-6v-27l-4-15-6-10-3-3z" fill="#3F9C3F"/>
<path transform="translate(1066,165)" d="m0 0 6 5 7 8 12 12 7 8 10 11 9 14 6 11-2 4-4-7-2-5h-3v5h-2l-1-11-6-9-1-5h-2l-7-8-16-16-2-1v-2l-4-2-4-3z" fill="#457D35"/>
<path transform="translate(969,283)" d="m0 0 4 2 5 8 1 3v8l-1 2v10l2 5 1 12-4-1-6-9-1-8v-20z" fill="#517932"/>
<path transform="translate(1079,63)" d="m0 0h2l-2 4-3 3h-2l-2 4-5 5-7 8-3 6-4 5h-2l-2 4-3 4v9l3 1 8 10v2h2v3l-3 1-20-20 2-4 7-8 9-10 7-8 9-9 1-2h2l2-4z" fill="#387736"/>
<path transform="translate(1023,203)" d="m0 0h2l-1 7 4 2 7 8-3 4 1 10-3 13v6l-4 4h-1l-2-33z" fill="#35863E"/>
<path transform="translate(1035,27)" d="m0 0h3l-1 9-6 10-5 4h-2v2l-5 3-2 3h-2l-2 4-5 7h-2l-2 4h-2l-1-6 12-13 5-5 6-8 5-7h2l2-4z" fill="#527B31"/>
<path transform="translate(258,114)" d="m0 0 2 4 1 11 3 5 3 4v3l5 2 10 2 8 1v3l-7 1-5-1-6 1-8-3v-2l-4-2-5-7-1-17z" fill="#015936"/>
<path transform="translate(857,314)" d="m0 0h4l1 4 5 2 3 3v3h-2l-2 4-6 7h-5l-7-10 1-5 3-1v-2h2l2-4z" fill="#1C874B"/>
<path transform="translate(1024,238)" d="m0 0h1l1 18 2 1 2 7 1 17-1 8-1 4 6-3-2 4-2 3h-2l-1 8-4 3z" fill="#4D7A32"/>
<path transform="translate(1193,196)" d="m0 0v3l-23 23-14 16-2 2v-5l-1-1v-7h7l2-4 5-5 10-11 3-6-4-2z" fill="#5D8A2B"/>
<path transform="translate(499,107)" d="m0 0h7l1 1v27l-5 7-4-5-1-3v-25z" fill="#0B7D3D"/>
<path transform="translate(134,357)" d="m0 0 5 1 5 6 2 6-3-3-4-6-1-1-7 1-2 5 10 24 4 16 1 7v30l-3 16-5 15-7 16 2 5 5 2 4-1-2 3h-6l-5-6 1-7 7-16 5-17 1-6v-36l-4-17-6-17-4-9v-6l5-4z" fill="#339847"/>
<path transform="translate(1012,249)" d="m0 0 4 1 3 8 4 2v24l-3-4-3-5-6-1-1-4v-19z" fill="#51B042"/>
<path transform="translate(1112,422)" d="m0 0h2l4 13 1 5 1 2-1 13-2 7-3 1-5-6-1-18 4-1z" fill="#51B041"/>
<path transform="translate(968,198)" d="m0 0 7 6 6 9 1 5v14h-2l-2-5-4-2-6-5z" fill="#387A38"/>
<path transform="translate(953,199)" d="m0 0h1v6l-4 2-2 4-10 11-7 8-9 10-10 11-4 8-3-3 1-4 11-13 12-13 9-11 9-9z" fill="#005B36"/>
<path transform="translate(139,123)" d="m0 0 5 2 11 12 6 9 3 10-1 6-1-2h-2l-7-13-9-10-7-8 1-5z" fill="#086237"/>
<path transform="translate(940,319)" d="m0 0 5 1 11 12 10 10v2h2l7 8 8 7v3l3 1 4 7v3l-4-1-1-4-6-2-1-5-4-2-10-14-5-5-1-3h-2l-3-4-5-1-1 2-6-10z" fill="#3D7937"/>
<path transform="translate(1036,325)" d="m0 0 2 4-1 7-10 10-8 11-7 6-2 4 1 5-2-1v-2h-2v-2l-4-2-4-4v-3l5 1 3-3 4 1 3-3 3-1 7-10v-3l5-5 6-7z" fill="#40883B"/>
<path transform="translate(1171,284)" d="m0 0 4 2 9 13 4 20-4-2-12-11z" fill="#608C2B"/>
<path transform="translate(556,124)" d="m0 0 4 5 7 5-1 5-3 5h56l1-12h1v13l-1 1h-87l-3-2 1-2 7 2 21-1-2-4-2-2v-10z" fill="#48A03B"/>
<path transform="translate(917,86)" d="m0 0 4 2 6 6v2l3 1 7 8 2 3-1 4-11 11-7 8-16 17-3-3 3-4 4-2 5-7h2l2-4 5-6h2v-2h2v-2l5-3v-8l-3-9h-3v-3h-2v-2l-4-1z" fill="#237D48"/>
<path transform="translate(1117,313)" d="m0 0h3l3 5 7 6-8 8-4 6-3-1-4-7-5-2 2-4 5-4z" fill="#176D3A"/>
<path transform="translate(1096,51)" d="m0 0 5 5 7 9 2 9 1 11-7-6-8-7z" fill="#527A31"/>
<path transform="translate(1096,339)" d="m0 0 5 4 8 11 1 7v10l-8-6-6-6z" fill="#427C35"/>
<path transform="translate(1008,201)" d="m0 0h2v16l-3 5-10 11h-1v-14l3-8z" fill="#3B7C38"/>
<path transform="translate(1576)" d="m0 0h24v27l-3-4-5-10-9-8-7-3z"/>
<path transform="translate(1136,381)" d="m0 0h1v20l-6 5-6 8h-1v-17l3-6z" fill="#5D882C"/>
<path transform="translate(1008,487)" d="m0 0 3 1 1 11-3 5-9 13h-2l-1-4v-10l3-7 7-8z" fill="#35873F"/>
<path transform="translate(1040,425)" d="m0 0 4 2 8 10 2 11 2 10-5-3-8-8-3-13z" fill="#3D7B37"/>
<path transform="translate(1096,382)" d="m0 0 4 2 8 9 1 2 1 9v9l-7-6-6-5z" fill="#5C882C"/>
<path transform="translate(374,126)" d="m0 0 4 2 5 4 3 2-1 4-2 2-1 4h22l1-4 1 5-2 1-20 1-26-1-2-1 1-3v2l20-1 1-3-5-2v-9z" fill="#49A13A"/>
<path transform="translate(0)" d="m0 0h22v3l-10 5-7 9-4 10h-1z"/>
<path transform="translate(1228,242)" d="m0 0 3 1 7 9 4 11 1 10-5-2-8-7-1-2z" fill="#6E9B25"/>
<path transform="translate(1229,201)" d="m0 0 3 1v2h2l6 9 2 8v11l-7-6-6-6z" fill="#6D9925"/>
<path transform="translate(1097,94)" d="m0 0 12 12 1 4-1 1 1 14-4-2-9-10-1-18z" fill="#5C882C"/>
<path transform="translate(1040,137)" d="m0 0 5 5 7 8 3 21-7-6-6-6-2-15z" fill="#377837"/>
<path transform="translate(1136,94)" d="m0 0h1v20l-8 7-4 3-1-3v-9l2-7z" fill="#5D892B"/>
<path transform="translate(1008,242)" d="m0 0h1v19l-11 11h-2v-12l3-8z" fill="#507932"/>
<path transform="translate(841,143)" d="m0 0 4 2 1 2 1 18 2 7-1 6-4-1-3-4-3-19v-7l1-3z" fill="#1C884C"/>
<path transform="translate(1211,489)" d="m0 0 1 4-1 7-8 3-7 8-5 5-12 13-1 2h-2v2h-5l2-4 5-5 7-8h2l2-4 9-10 7-8z" fill="#4B7F32"/>
<path transform="translate(1245,453)" d="m0 0 4 2 14 14-2 4-5 4 1-10-7-5v-2h-6l-4 1 1 7 3 7v4l-4-2-9-8v-2l5-5 4-2 2-4z" fill="#58852E"/>
<path transform="translate(130,138)" d="m0 0 6 1 10 11 8 13-1 7-2 1-2-1-3-8-8-10-8-8z" fill="#096F3A"/>
<path transform="translate(1283,204)" d="m0 0 7 6 14 15 7 8 12 14 7 8-1 4-3 1-3-8-7-7-9-11-5-5v-2l-4-2-12-12-2-1z" fill="#7A9B0F"/>
<path transform="translate(153,48)" d="m0 0 3 1 1 2h8l5-2 9-1-1 3h-3v2l-5 5-6 7-4-1-10-10 2-4z" fill="#085F37"/>
<path transform="translate(161,148)" d="m0 0 5 2 1 3 1 7 3-1 1 17 1 4 5 1 1-5h1v5l-4 2-5-1-8 1v-3l1-1v-7l-3-9 1-3 1-5z" fill="#329544"/>
<path transform="translate(1190,140)" d="m0 0h3l-1 18-5 5-7 8-2-2 3-16 4-7z" fill="#618D2B"/>
<path transform="translate(971,60)" d="m0 0 4 2 9 12 5 8 3 3 6 11v5l-5-3-8-14-5-2 1 3-2 1v-2l-2-1 1-7-1-3-3-2-1-5-2-2 1-1z" fill="#3D7936"/>
<path transform="translate(1034,295)" d="m0 0 5 1-1 13h-2l-1 7-3 5-6 7h-2l1-6 4-8 2-2-1-5-5 5h-2l2-5 3-5h2l2-5z" fill="#52AE40"/>
<path transform="translate(1269,201)" d="m0 0h1v17l-5 5-5 6-3 1v-11l1-7 9-10z" fill="#7A9B0F"/>
<path transform="translate(1172,1)" d="m0 0h7l4 9 4 15-1 4-6-5-5-5-2-4-1-9z" fill="#65932A"/>
<path transform="translate(114,412)" d="m0 0h1l1 11v11l-3 20-4 10-5 10 1 5 5 4 5-1 2-5 5-12 5-15 2-1-1 8-8 20-4 6-2 2h-6l-5-4-1-2v-6l7-16 2-7 2-17v-18z" fill="#339847"/>
<path transform="translate(1191,427)" d="m0 0h2l-1 10-1 9-6 7-4 5h-3l1-9 3-11 8-10z" fill="#618E2A"/>
<path transform="translate(1228,487)" d="m0 0 4 2 6 8 4 14-1 7-7-6-4-6-2-11z" fill="#6D9926"/>
<path transform="translate(1137,52)" d="m0 0h1l-1 19-5 5-7 9-2-1 2-13 6-12 3-4h2z" fill="#447B33"/>
<path transform="translate(1269,241)" d="m0 0h1v15l-9 12-4 2v-15l6-8 4-5z" fill="#799B0F"/>
<path transform="translate(184,122)" d="m0 0h3v7l-6 8-9 9-4-1-2-2 1-4 11-12z" fill="#258E49"/>
<path transform="translate(1137,340)" d="m0 0 1 2-1 17-8 7-3 4h-2v-10l2-8z" fill="#407834"/>
<path transform="translate(1162,366)" d="m0 0 4 1 9 9 7 8 3 3v3l4 2 2 2v5l-6 4-3-10h-2v-2l-3-1-5-10-5-8z" fill="#77AA24"/>
<path transform="translate(1022,488)" d="m0 0 6 5 2 9 2 4-8-4 2 10 3 6-2 5-2 4 5 1v2l2 1v2h-8l-1-4-1-15z" fill="#348C42"/>
<path transform="translate(62,400)" d="m0 0h6l6 5 4 8 2 10v12l-3 10-5 9-4 3-6-1-4-4v-7l2 1v5l4 3 5-1 4-5 4-12v-15l-4-13-5-5h-6l-2 3 1 6 4 9 1 4v7l-2 3-1-13-5-11v-6z" fill="#359845"/>
<path transform="translate(1056,485)" d="m0 0 4 2 14 14 9 11v2h2l2 4h-6l-7-10-3 1v-2l-2-1 1-4-6-7-5 1-5-5-2-5z" fill="#518231"/>
<path transform="translate(190,135)" d="m0 0 6 4-2 4-5 4-10 13-2 1-2-4-2-1 2-5 11-11z" fill="#0B683B"/>
<path transform="translate(1064,287)" d="m0 0h1l-1 15-3 7-9 9-1-4 3-14 8-11z" fill="#397937"/>
<path transform="translate(1e3 236)" d="m0 0 5 2v3l4-1-3 5-6 7-3 8h-2v-4l-4-1-1-4 3-5 3-8z" fill="#4FAE42"/>
<path transform="translate(1283,491)" d="m0 0 7 6 9 11 7 7 7 9 5 5-4 1-5-5-15-16-8-8-3-1z" fill="#7A9B0F"/>
<path transform="translate(969,243)" d="m0 0 4 2 6 10 4 13-1 4-6-4-6-7z" fill="#517A31"/>
<path transform="translate(1212,199)" d="m0 0 2 1-1 6-1 22-1 2-1 12h-2l-1-8v-22l-6 4 2-4 5-4h2l-1-3-7 7-2-1z" fill="#60952B"/>
<path transform="translate(1038,484)" d="m0 0 9 2 7 6 6 9v2l4 2 5 5 7 10 3 5v2h-2l-6-8v-2h-2l-8-10-19-19z" fill="#437E35"/>
<path transform="translate(1174,490)" d="m0 0 1 2 3 1-1 3 5 1-6 7-5 4-14 16-1-3 3-3 3-7 5-4 1-3 3-11z" fill="#6C9927"/>
<path transform="translate(812,212)" d="m0 0 5 2 4 11 3 1v2l4 2 1 7-2 3h-5l-5-9v-2h-2l-2-5 1-4 1-2v-4l-4-1z" fill="#1C884C"/>
<path transform="translate(423,98)" d="m0 0h26l4 2h6v6l5 2v20l2 9 4 5-1 2-3-3-3 3-3-6h3l-1-9v-19h-3l-2 4-2-8-5-5-2-1h-11l-16 1 2 7-4-4v-5z" fill="#3C9B42"/>
<path transform="translate(986,164)" d="m0 0h2l7 8 10 11-5 5-4 2 2-8-3-5-7-6-6 2-2 4-3 4h-2v2l-4-1 2-4 7-7z" fill="#0D6438"/>
<path transform="translate(942,30)" d="m0 0 5 4 6 8 6 7 1 4 2 1h-5l-1-3-2 1 10 11 1 4-12-12-4-6v-3h-2v-3h-2l-3-5z" fill="#3D7836"/>
<path transform="translate(758,491)" d="m0 0h11l5 2 1 4 1-3 4 1-1 7-5 2-1-5-7 2-4 1v-2l-5-1-2-3 2-1z" fill="#00763A"/>
<path transform="translate(1062,206)" d="m0 0 1 2 4 2 5 5 10 11-1 2-4-1-1 3-3 1-2-4 4-4-2-4-2-1v-2h-2l1 3-3 1-2 2-5-6-2-2-3-5 1-2 6 1z" fill="#37853D"/>
<path transform="translate(139,402)" d="m0 0 2 3 1 6v36l-4 17-5 13-5 10-1-3 3-9 5-11 3-12 2-24v-10l-1-11-1-4z" fill="#006839"/>
<path transform="translate(980,351)" d="m0 0h6l1 4 5 1 2-1 3 2-2 10-3 6-3-3-4-7-2-1-2-4z" fill="#50AF42"/>
<path transform="translate(1269,487)" d="m0 0h1v8l-5 13-6 10-2-1v-8l2-9 7-10z" fill="#6E9924"/>
<path transform="translate(930,141)" d="m0 0h2v13l-4 7-5 6h-3l-1-3 4-13 6-9z" fill="#237D48"/>
<path transform="translate(875,138)" d="m0 0 3 1-1 36-4 6-4 1-2-3v-31l2-2v28l1 2h3l1-2v-9l-1-8 3-16-6 3 2-4z" fill="#1F8249"/>
<path transform="translate(1063,448)" d="m0 0 5 5 14 15 8 9 2 5-1 3-1-3h-2l-7-8-12-11-2-1-4-12z" fill="#437F37"/>
<path transform="translate(912,1)" d="m0 0h8l3 11 5 11-1 4h-3l-8-13-2-4-1-5z" fill="#328540"/>
<path transform="translate(1203,169)" d="m0 0 7 1 3 1-1 5-2 4-2 1-17 2 4-6h2l1-3h2l2-4z" fill="#618F2B"/>
<path transform="translate(1154,28)" d="m0 0h7l10 8 5 7-9-2-13-4-1-1v-7z" fill="#4C8231"/>
<path transform="translate(1082,1)" d="m0 0h20v5l4 4v1l-14 1 2-4 4-5-4 4h-14l-1-5z" fill="#78AD25"/>
<path transform="translate(1203,457)" d="m0 0 10 1 1 3-4 5-15 5-5 1 3-5z" fill="#567F30"/>
<path transform="translate(1151,348)" d="m0 0 4 2 5 5-1 2-4-2 7 7-1 2-4-3-1 7v15l-2 10h-1l-2-13z" fill="#59922D"/>
<path transform="translate(1154,317)" d="m0 0h6l10 8 5 6v1l-7-1-13-5-3-4z" fill="#467E32"/>
<path transform="translate(1151,58)" d="m0 0h2v2h2l7 8 9 10 4 5 5 5 2 3-2 2-8-7-11-12-8-8-2-5z" fill="#447B33"/>
<path transform="translate(973,1)" d="m0 0h3v8h2l-1 16 1 8-4 3-2-3v-30z" fill="#517A32"/>
<path transform="translate(1068,466)" d="m0 0 5 3 5 10h2l5 6v2h2l4 5 5 5 4 6-1 3-5-5-12-13-7-8-7-9z" fill="#537E30"/>
<path transform="translate(1070,511)" d="m0 0h2l7 7 2-1 7 1 1 3h2l-2 5-6 7-4-3-2-7-6-8z" fill="#3B853B"/>
<path transform="translate(1026,455)" d="m0 0 4 2 6 5 7 8 3 4-15-5-7-1 1-12z" fill="#1E703A"/>
<path transform="translate(1245,165)" d="m0 0 4 2 9 10 5 5-2 4-4 3 1-10-4-1-5-5-4-1-10 10h-4l2-4 8-8z" fill="#5B862C"/>
<path transform="translate(1169,84)" d="m0 0 4 2 6 6v2l3 1 9 11 1 3-5 1-5-4-7-9-5-10z" fill="#77AB26"/>
<path transform="translate(1060)" d="m0 0 4 1-2 14-8 12-3 1 1-7 3-12z" fill="#1A6A38"/>
<path transform="translate(979,59)" d="m0 0 5 2 4 2v2l6 1 2 1v2l4 2-4 2-7 2-2 2-1-4-2-1-3-4z" fill="#51B042"/>
<path transform="translate(155,110)" d="m0 0h4l1 2-1 18-5-3-4-5v-8l2-3z" fill="#369A46"/>
<path transform="translate(1173,247)" d="m0 0h1v6h2v2h2l4 4 3 7 5 8 4 4-1 2-19-19-2-5h-2l-1-5z" fill="#6B9728"/>
<path transform="translate(522,106)" d="m0 0 6 1v7l-2 3h-7l2 8-3 9h-1v-23l2-4z" fill="#379A46"/>
<path transform="translate(371,1)" d="m0 0h60l1 2-17 1h-13l-9 1-2-1h-8l-4 1-1-1-7-1z" fill="#015736"/>
<path transform="translate(1025)" d="m0 0h12l-1 6h-2l-1 4h-2l-2 4-4 6h-2l1-10 1-9z" fill="#508032"/>
<path transform="translate(1299,426)" d="m0 0 4 2 7 10 3 11v5l-4-1-3-3-1-11-5-4z" fill="#7A9B0F"/>
<path transform="translate(1034,521)" d="m0 0 6 2v2l5 2 4 2 5 1 2 3h-22l-1-5z" fill="#58922E"/>
<path transform="translate(1102,206)" d="m0 0 5 2 7 10 9 16-2 4-4-7-2-5h-3v5h-2l-1-11-6-9z" fill="#507B32"/>
<path transform="translate(1068,183)" d="m0 0 7 6 6 4 7 9v2l3 1v2h2v3h2l7 8 2 3-3 2-6-8-12-13-15-15z" fill="#487C33"/>
<path transform="translate(949,67)" d="m0 0 5 1 5 3 4 1 6 9-1 2-7-1-1-2h-2v-2l-4-1v-2h-2l-4-7z" fill="#50AF42"/>
<path transform="translate(1197,356)" d="m0 0 4 2 8 7 5 6 5 3-2 4-7 8-3-2 1-4h2v-10l-4-2-2-4h-2l-5-6z" fill="#608D2B"/>
<path transform="translate(1026,168)" d="m0 0 4 2 8 7 5 6-19-2 1-10z" fill="#126638"/>
<path transform="translate(895,62)" d="m0 0 6 4 7 9v2h3l6 8-4-1-2-1v-2l-4-1-3-1-3-3-5-4-3-6z" fill="#237D48"/>
<path transform="translate(310,125)" d="m0 0 4 2 7 6-1 5-3 3-6-1-3-5 1-9z" fill="#3B9C43"/>
<path transform="translate(893,28)" d="m0 0 7 1 9 6 3 3-1 4-6-1-5-2v-2l-5-2-3-6z" fill="#35873F"/>
<path transform="translate(1167,253)" d="m0 0 3 1v2h2l6 8 16 16v3l-4-1-9-9-7-8-9-8z" fill="#55802F"/>
<path transform="translate(959,227)" d="m0 0 4 1 2 3 1 8-2 5-5-1-1 9-2 3v-14l2-12z" fill="#329849"/>
<path transform="translate(305,97)" d="m0 0h11l7 1 3 7 8 26 4 5 6 3 1-4 1-15h1v18l-3 5-3-1v-2l-4-2-5-6-7-22-2-10-17-1-1 5h-1v-6z" fill="#3B9841"/>
<path transform="translate(900,173)" d="m0 0v3l-10 15-11 11-5 2 2-5 1-2h2l2-4 8-8 1-2h2l2-4z" fill="#35873F"/>
<path transform="translate(1076,316)" d="m0 0 3 1 2 6v6l-11 1-8 1 13-13z" fill="#146437"/>
<path transform="translate(1059,129)" d="m0 0 1 2h2l5 7 5 5 7 9 4 3v5l-26-26v-3h2z" fill="#437D35"/>
<path transform="translate(1098,520)" d="m0 0 5 1 2 5v7h-16l3-4h2l1-5z" fill="#78AD26"/>
<path transform="translate(896,318)" d="m0 0 7 1 10 8v2h-8l-9-3-3-3 1-4z" fill="#237D48"/>
<path transform="translate(947,169)" d="m0 0 5 1 1 1-1 7-16 4h-3l2-4z" fill="#006839"/>
<path transform="translate(1136,154)" d="m0 0h1v20l-10 13-2 1 1-9h2l1-6 3-5 3-3z" fill="#5C8A2C"/>
<path transform="translate(439,106)" d="m0 0h5l2 3-1 7-6 2h-2l3 6-1 2-3-2 1 10-2-4v-15l2-7z" fill="#479F3A"/>
<path transform="translate(915,290)" d="m0 0 3 1 8 16 1 6-5-2-6-7-2-9z" fill="#237D48"/>
<path transform="translate(1111,236)" d="m0 0 3 3h3l2 4 2 7 2 5v6l-4 1-7-20-2-5z" fill="#5A932D"/>
<path transform="translate(1168,217)" d="m0 0 2 2-1 5-12 12-3 4v-5l-1-1v-7h7l2-4 5-5z" fill="#5B942D"/>
<path transform="translate(1172,345)" d="m0 0h7l3 1 5 13 4 4v2h2v2l4 2 4 6-4-2-10-10-7-8-8-8z" fill="#5F8A2B"/>
<path transform="translate(279,106)" d="m0 0h7l3 3-1 3-4 5-2 3-5-1-1-2 1-9z" fill="#085F36"/>
<path transform="translate(928,432)" d="m0 0 4 1 1 5-5 12-4 3-1-5 1-4-1-4 3-6z" fill="#35873F"/>
<path transform="translate(1109,508)" d="m0 0 1 2h2l1 3 4 4 4 9 3 3 2 4h-7l-5-7-5-15z" fill="#35863E"/>
<path transform="translate(165,110)" d="m0 0h5l3 10-1 5-5 5h-2z" fill="#319647"/>
<path transform="translate(1200,1)" d="m0 0h12l2 17-3-1-9-11z" fill="#6E9C27"/>
<path transform="translate(1136,433)" d="m0 0h1v22l-1 8-10 13h-1v-6l4-2 1-5v-6h2v-3l2-1 1-9z" fill="#5A8A2D"/>
<path transform="translate(1124,30)" d="m0 0 4 2 3 3v2l-6 4-6 7-3 3-5-6 6-3 5-6z" fill="#186736"/>
<path transform="translate(1077,27)" d="m0 0 3 1v11l-14 3-3-1z" fill="#166436"/>
<path transform="translate(1300,140)" d="m0 0 4 2 6 10 3 14-4-1-2-2-2-10-5-7z" fill="#7A9B0F"/>
<path transform="translate(1154,352)" d="m0 0 9 6 6 8 6 7 5 5 6 8-1 2-5-5v-2l-4-2-9-10-13-14z" fill="#126035"/>
<path transform="translate(104,78)" d="m0 0 3 1h-2l1 7v10l-3 5-3 1h-14l1 5-4-4 1-4h17l2-20z" fill="#399A44"/>
<path transform="translate(941,1)" d="m0 0h10l2 8v9l-2-2-2 1-8-14z" fill="#35873F"/>
<path transform="translate(267,139)" d="m0 0 10 4h32l7-1 5 1h16l2 1-1 4-1-2h-55l-10-2-5-3z" fill="#319647"/>
<path transform="translate(1262,353)" d="m0 0 6 1 2 5-1 7-2 2-9-8 1-4z" fill="#7A9B0F"/>
<path transform="translate(1096,51)" d="m0 0 5 5 7 9 2 9 1 11-6-5 1-9-2-8h-2l-2-3-3-1-1-2z" fill="#427B35"/>
<path transform="translate(1175,1)" d="m0 0 5 1 4 12 1 12-5-5-3-9-1-6z" fill="#58832F"/>
<path transform="translate(960,434)" d="m0 0 6 2 5 8v5l-3 1-9-9-1-5z" fill="#98C30E"/>
<path transform="translate(948,457)" d="m0 0 5 1 1 5-5 3-9 2-2-1 1-4z" fill="#35873F"/>
<path transform="translate(1286,456)" d="m0 0 4 1 8 10v2l-8-1-6-1 1-9z" fill="#739615"/>
<path transform="translate(134,357)" d="m0 0 5 1 5 6 2 6-3-3-4-6-1-1-7 1-2 5 10 24 1 8h-2l-4-13-7-17v-6l5-4z" fill="#369945"/>
<path transform="translate(1412,61)" d="m0 0 4 2 9 11 15 16v2h2v2l-4-2-2-4h-2l-7-8-14-13z" fill="#7A9B0F"/>
<path transform="translate(1412,351)" d="m0 0 4 2 15 16 7 8 5 6h-3l-9-9-4-5-5-5-9-8z" fill="#7A9B0F"/>
<path transform="translate(1079,63)" d="m0 0h2l-2 4-3 3h-2l-2 4-5 5-14 16-10 10v-3l11-12 7-8 9-9 1-2h2l2-4z" fill="#116435"/>
<path transform="translate(1286,169)" d="m0 0 4 1 7 7 1 4h-6l-7-1-1-4z" fill="#739615"/>
<path transform="translate(990,101)" d="m0 0 6 5 1 3v15l-3 1-2-4-2-16-1-2z" fill="#3E7836"/>
<path transform="translate(1037)" d="m0 0 2 1-1 8v4l-2 6h-3l-1 2-5-2 2-6 2-3h2l1-4h2z" fill="#4EAD42"/>
<path transform="translate(1336,317)" d="m0 0 3 1 1 2v8l-9 1-7 1 5-5z" fill="#7A9B0F"/>
<path transform="translate(895,352)" d="m0 0 4 2 7 7 6 8-3 1-9-6-5-6-1-4z" fill="#237D48"/>
<path transform="translate(917,57)" d="m0 0 9 3 4 5v2h2l6 9-1 3-10-10v-2l-5-2-5-6z" fill="#1F7B46"/>
<path transform="translate(986,451)" d="m0 0h2l3 7-7 1-4 3-4 7-5-1 1-4 8-7z" fill="#238144"/>
<path transform="translate(1226,71)" d="m0 0 9 1 5 10 4 11v2h2l1 2v8l-2-2-9-21-1-6-8-2z" fill="#7A9B0F"/>
<path transform="translate(1062,519)" d="m0 0 5 2 4 6 6 5v1h-13l-2-6h2z" fill="#78AD26"/>
<path transform="translate(1058,418)" d="m0 0 3 1 7 8 10 10v2l3 1 1 5-4-2-14-15-4-5z" fill="#427935"/>
<path transform="translate(1007,356)" d="m0 0 3 1 1 3 2-1-1 4-2 4 1 5-2-1v-2h-2v-2l-4-2-4-4v-3l5 1z" fill="#3D7F38"/>
<path transform="translate(1081,61)" d="m0 0h1l-1 14-2-1-7 2-1 3-8 7-3 4-2-1 6-8 5-5h2l2-4 5-5 2-4z" fill="#3D7D37"/>
<path transform="translate(1097,346)" d="m0 0 4 2 1 3 3 1-1 7 1 3h-2v2l-4-2-2-2z" fill="#36873E"/>
<path transform="translate(1320,292)" d="m0 0 2 2-1 9-6 9h-3l1-7 4-10z" fill="#7A9B0F"/>
<path transform="translate(897,225)" d="m0 0 4 2-2 4-2 1-4 9-4-2-2-5 8-8z" fill="#006839"/>
<path transform="translate(1118,24)" d="m0 0 3 1 1 4-7 6-5 7-5-2 2-4 7-6z" fill="#0C5F37"/>
<path transform="translate(78,421)" d="m0 0 2 2v12l-3 10-5 9-4 3-6-1-4-4v-7l2 1v5l4 3 5-1 4-5 4-12z" fill="#319648"/>
<path transform="translate(1211,489)" d="m0 0 1 4-1 7-10 3-5 4-2-1 14-15z" fill="#5C8A2C"/>
<path transform="translate(100,444)" d="m0 0 1 4-5 13-7 9-1 1-7-1-5-5 1-7 3-3-1 8 2 4 7 1 6-9 5-14z" fill="#329748"/>
<path transform="translate(1150,227)" d="m0 0h2l2 7 1 3-2 6-7-6-3-3v-2l5-3z" fill="#537D31"/>
<path transform="translate(311,92)" d="m0 0 6 1 5 3 4 2 4 5v7l-2 1v-2h-2l-3-10-14-2 1-4z" fill="#005836"/>
<path transform="translate(1263,65)" d="m0 0 6 1 1 6-3 6-3-1-6-8v-2z" fill="#7A9B0F"/>
<path transform="translate(122,111)" d="m0 0h9l3 4-1 6-3 1-8-7z" fill="#369946"/>
<path transform="translate(1337,28)" d="m0 0 3 1v9l-12 3-3-1z" fill="#7A9B0F"/>
<path transform="translate(1049,198)" d="m0 0h6l4 3v2l3 1v4h-8l-4-3-1-3-2-2z" fill="#527A32"/>
<path transform="translate(131,134)" d="m0 0 6 4 8 8 7 10 3 5v7h-1l-2-6-8-13-8-9-6-2 1 4h-3l-1-4 4-1z" fill="#3A9A41"/>
<path transform="translate(556,128)" d="m0 0 4 1 7 5-1 5-1 1h-5l-4-4z" fill="#0D7339"/>
<path transform="translate(1228,487)" d="m0 0 4 2 2 7 2 4-3 7-3-1-2-11z" fill="#618E2A"/>
<path transform="translate(1197,312)" d="m0 0 4 2 7 7 2 5 2 4-5-2-7-4v-6h-2z" fill="#5D882C"/>
<path transform="translate(1079,353)" d="m0 0 1 3-3 1v2l-5 5-10 11-8 7-4 3 2-4 11-12z" fill="#136236"/>
<path transform="translate(187,144)" d="m0 0 4 1-13 16-5-5 2-4 4-1 2-2 6-1z" fill="#309347"/>
<path transform="translate(969,488)" d="m0 0 5 3 5 10v2l-6 1-4-9z" fill="#35873F"/>
<path transform="translate(111,415)" d="m0 0 3 3v15l-3 21-3 8-2-1 2-5 3-19z" fill="#026B3B"/>
<path transform="translate(1117,313)" d="m0 0h3l2 5-7 5-4 6h-3l-2-1 2-4 5-4z" fill="#0A5E36"/>
<path transform="translate(484,98)" d="m0 0h47l3 3-4-1h-30l-13 1-1 5-2-4-1-3z" fill="#4AA13A"/>
<path transform="translate(210,94)" d="m0 0h2v9l-2 3-8 1-1-2 6-8z" fill="#369A46"/>
<path transform="translate(751,471)" d="m0 0h6l2 4v5l-8 2-3-5z" fill="#00773B"/>
<path transform="translate(1169,423)" d="m0 0 3 2-6 7h-2l-2 4-6 7h-2v-7l5-2 1-2h2l2-4z" fill="#57802F"/>
<path transform="translate(1096,382)" d="m0 0 4 2 8 9v8l-2-2-2-6-5-1-1 9h-1z" fill="#4D7C33"/>
<path transform="translate(1171,284)" d="m0 0 4 2 9 13v7h-2l-4-9-2-3-3-1-2-4z" fill="#5A842E"/>
<path transform="translate(375,128)" d="m0 0 4 1 7 5-1 4-1 1h-6l-3-2z" fill="#10753A"/>
<path transform="translate(217,77)" d="m0 0 4 1v21h20l-1 5-1-3-4 1h-11l-5-2-1-4v-10l1-8z" fill="#339847"/>
<path transform="translate(968,144)" d="m0 0 4 2 5 6v3l-9-1-3 4h-3v-4l3-1z" fill="#207B3F"/>
<path transform="translate(1384,33)" d="m0 0 4 1v4l-6 5-5 6-4-2v-3l8-5z" fill="#789910"/>
<path transform="translate(1263,26)" d="m0 0h3l1 7-5 7-5 1 2-9z" fill="#7A9B0E"/>
<path transform="translate(909,257)" d="m0 0 7 3v3l2 1 10 11 4 5-1 2-22-22z" fill="#207B46"/>
<path transform="translate(215,107)" d="m0 0 8 1v3l-6 7-3 1-1-1v-9z" fill="#379A46"/>
<path transform="translate(113,95)" d="m0 0 4 1 3 8-3 4-4-1-2-3 1-8z" fill="#349947"/>
<path transform="translate(180,127)" d="m0 0 3 3-2 5-5 5-4 2-2-4 2-3h2l2-4z" fill="#1A864B"/>
<path transform="translate(104,106)" d="m0 0 4 2 4 4 1 3-2 2h-6l-3-4v-5z" fill="#389A45"/>
<path transform="translate(1097,94)" d="m0 0 11 11v2h-10l-1 3-1-15z" fill="#4D7C33"/>
<path transform="translate(1068,466)" d="m0 0 5 3 5 10h2l3 4v2l-4-1-7-7-4-6z" fill="#448036"/>
<path transform="translate(1377,314)" d="m0 0h3l1 5-5 2-5 7-4 1-2-1 2-4 6-5z" fill="#759713"/>
<path transform="translate(1194,281)" d="m0 0 5 5 7 9v2h2v2h3l1 4-4-1-11-12-6-7h3z" fill="#628F2A"/>
<path transform="translate(1e3 144)" d="m0 0 3 1 3 6 3 3v2l-6-2h-10l3-5 3-1z" fill="#0F673A"/>
<path transform="translate(1039,226)" d="m0 0 4 2 15 16-1 2-2-2-4-1-5-6-3-1-3-7z" fill="#349245"/>
<path transform="translate(1209,204)" d="m0 0 1 4-6 4-8 11h-3l-7 7v-3l9-9 5-6 8-7z" fill="#4A7E32"/>
<path transform="translate(1022,488)" d="m0 0 6 5 2 9 2 4-4-2-5-2z" fill="#34883F"/>
<path transform="translate(1042,434)" d="m0 0h5l2 3v7h-2l-1 2-2-2-2 1-1-10z" fill="#35863E"/>
<path transform="translate(1045,394)" d="m0 0 3 9 9 11v2h2v2l-4-2-7-8v-2l-3-1-4-6z" fill="#35853E"/>
<path transform="translate(973,74)" d="m0 0 4 3 2 7 1 7h2v3l2 1 1 3-2 2-3-6v-2h-2l-4-7 1-4-1-5-2-1z" fill="#329446"/>
<path transform="translate(248,1)" d="m0 0h42v1h-6l-1 2-11-1h-18l-6-1z" fill="#015736"/>
<path transform="translate(1239,461)" d="m0 0 1 4 4 10v4l-4-2-7-6 5-7z" fill="#6C9827"/>
<path transform="translate(1098,292)" d="m0 0 7 6 4 5-6-2-5-1-7 2 2-4z" fill="#106136"/>
<path transform="translate(1172,56)" d="m0 0 11 2 2 8v3l-4-2-9-9z" fill="#608B2B"/>
<path transform="translate(1376,26)" d="m0 0 5 1v4l-6 3-4 5h-5l1-3h2v-2l5-5z" fill="#6E9319"/>
<path transform="translate(1184,383)" d="m0 0 7 6 5 5 3 2-2 4-3 1-2-2-1-4-6-5z" fill="#4B8131"/>
<path transform="translate(1118,320)" d="m0 0h4l1 4-4 6h-5l-2-3 3-5z" fill="#98C30E"/>
<path transform="translate(1228,283)" d="m0 0 4 2 7 8-2 4-3-1-1-5-3 1-2 3z" fill="#6F9E27"/>
<path transform="translate(922,199)" d="m0 0h9l-6 7-5 5h-2l-1-3 4-6z" fill="#006839"/>
<path transform="translate(1248,459)" d="m0 0 6 1 7 6 2 5-7 6 1-10-7-5v-2z" fill="#679328"/>
<path transform="translate(1063,505)" d="m0 0 3 1 5 6 4 7 4 6v2h-2l-6-8v-2h-2l-6-9z" fill="#57852F"/>
<path transform="translate(1044,106)" d="m0 0 2 4v5l3 1 8 10v2h2l-1 3-9-10-5-5-3-5 2-4z" fill="#35873F"/>
<path transform="translate(964,380)" d="m0 0 4 1 3 6v4l-5-2-3-1-4-1 1-3h2v-2h2z" fill="#329849"/>
<path transform="translate(968,198)" d="m0 0 2 2 1 10 2 7 1 7-4-2-2-2z" fill="#358A40"/>
<path transform="translate(1319,5)" d="m0 0 2 1-1 10-3 5-5 2 3-10z" fill="#7A9B0F"/>
<path transform="translate(1162,499)" d="m0 0v3l-13 14-4 6-4-5 12-8 4-6z" fill="#78AB25"/>
<path transform="translate(116,377)" d="m0 0 3 1 5 10 5 15v7l-2-1-6-21z" fill="#309649"/>
<path transform="translate(1383,322)" d="m0 0 4 1v4l-4 2-6 8-4-2v-3l7-3z" fill="#759713"/>
<path transform="translate(915,241)" d="m0 0 1 3 2 1-8 9-1 5-4-3 1-4z" fill="#006738"/>
<path transform="translate(982,184)" d="m0 0 3 3 2 7 1-2 5 1-3 7-12-12v-2h3z" fill="#0B6838"/>
<path transform="translate(863,111)" d="m0 0 1 3 6-1 3 1v2l4 1-8 4-5-1z" fill="#1C884C"/>
<path transform="translate(194,110)" d="m0 0 4 1 1 4-3 5-4 3-1-2v-6z" fill="#2B8E42"/>
<path transform="translate(277,92)" d="m0 0 4 1v3l-10 5-3-1 2-6z" fill="#005836"/>
<path transform="translate(152,70)" d="m0 0h7l1 9h-5l-4-4z" fill="#3F9D40"/>
<path transform="translate(1137,293)" d="m0 0 4 2 6 6v2l-6-2-5-1-6 2v-2l5-5z" fill="#136236"/>
<path transform="translate(310,130)" d="m0 0h5l5 5-1 4h-6l-3-5z" fill="#016939"/>
<path transform="translate(1203,457)" d="m0 0h6v1l-5 1 1 1v6l-7-1-4 4 1 2-5 1 3-5z" fill="#63932A"/>
<path transform="translate(979,298)" d="m0 0 2 4v26h-1l-2-10-1-2v-10z" fill="#35873F"/>
<path transform="translate(1008,242)" d="m0 0h1v19l-2 1-1-11h-5l2-4z" fill="#357336"/>
<path transform="translate(1008,203)" d="m0 0h1v17l-3 3h-2l1-3v-10h-2l2-4z" fill="#036338"/>
<path transform="translate(139,123)" d="m0 0 5 2 11 12 5 7-1 2-11-12-7-8-2-1-2 4 1-5z" fill="#339746"/>
<path transform="translate(1205,212)" d="m0 0h2l1 9v13l-1 5h-1v-22l-5 2-4 3 2-4zm-9 10m-2 1 2 1-4 3z" fill="#6C9928"/>
<path transform="translate(1026,455)" d="m0 0 3 1-3 1v9l3-4 4 1 2 5 2 2-13-2 1-12z" fill="#37803B"/>
<path transform="translate(1096,423)" d="m0 0 9 2 1 7 3 6-2 2-5-9-3-3-2 1z" fill="#4F9039"/>
<path transform="translate(1081,350)" d="m0 0 1 4-1 9h-6l-8 8v-3l8-9h2v-2l2-1 1-5z" fill="#437A35"/>
<path transform="translate(206,122)" d="m0 0 4 1-2 4-5 4-5-5 1-3z" fill="#339442"/>
<path transform="translate(1152,64)" d="m0 0 5 5 1 2-3 2v12l-2 2-1-2z" fill="#58922D"/>
<path transform="translate(520,125)" d="m0 0h2l3 6-3 9-4-4v-6z" fill="#0C7D3D"/>
<path transform="translate(116,122)" d="m0 0 7 1 2 4-3 3-4-1-4-3v-3z" fill="#319241"/>
<path transform="translate(1280,89)" d="m0 0h5l2 4-1 7-4-2v-2l-3-1-1-4h2z" fill="#7A9B0F"/>
<path transform="translate(1097,60)" d="m0 0 3 3 1 4 1 3v6l-4-2-2-2v-11z" fill="#3B883C"/>
<path transform="translate(895,31)" d="m0 0 7 1 7 6v2l-11-3-3-4z" fill="#237D48"/>
<path transform="translate(1098,4)" d="m0 0 4 2 4 4v1l-14 1 2-4z" fill="#0F6137"/>
<path transform="translate(1149,517)" d="m0 0 3 1 1 3-1 9-7-7 1-4z" fill="#537C31"/>
<path transform="translate(809,514)" d="m0 0h2l2 7 4 1-1 3-6 1-4-4h2l-1-5z" fill="#00773B"/>
<path transform="translate(1096,425)" d="m0 0h1l1 10 1 3h2l2 5-3 5h-3l-1-9z" fill="#62912A"/>
<path transform="translate(1069,216)" d="m0 0h2v2l4 2 1 3-4 4-5-3-1-5 3-1z" fill="#507C32"/>
<path transform="translate(1241,170)" d="m0 0h7l-3 2-10 10h-4l2-4z" fill="#5F8A2B"/>
<path transform="translate(152,90)" d="m0 0h6l2 5-1 5-6-3-1-1z" fill="#389A45"/>
<path transform="translate(955,86)" d="m0 0 3 2-2 4-4 4-3-1-2-6 5-2z" fill="#237D48"/>
<path transform="translate(1156,269)" d="m0 0h1l1 20-5-4v-8z" fill="#2C6F33"/>
<path transform="translate(139,163)" d="m0 0 4 4 2 8 1 5 9 1 6 1-3 2-13-1-2-4-2-8-2-5z" fill="#299048"/>
<path transform="translate(1135,6)" d="m0 0h6l5 4v2l-15-1 2-4z" fill="#1C6534"/>
<path transform="translate(1176,200)" d="m0 0h6l-1 3h-2l-2 5-4 5-3 1 1-5 3-6 2-2z" fill="#6B9728"/>
<path transform="translate(872,348)" d="m0 0 4 1 1 3-1 2h-2l-2 4-4-1 1-6z" fill="#217E48"/>
<path transform="translate(167,69)" d="m0 0 4 1v8l-4 2-2-1v-9z" fill="#369946"/>
<path transform="translate(1040,425)" d="m0 0 4 2 6 8-1 3-2-3h-6l-1-1z" fill="#2C7539"/>
<path transform="translate(913,287)" d="m0 0h4l1 4h-3l1 7 2 8 5 5h-3l-6-7-1-6z" fill="#35873F"/>
<path transform="translate(1256,179)" d="m0 0h2v11l-4 4h-2l-1 4-2 2-2-4 4-5 4-3z" fill="#6D9622"/>
<path transform="translate(114,412)" d="m0 0h1l1 11v11l-1 9h-2v-28z" fill="#419E3F"/>
<path transform="translate(868,146)" d="m0 0 1 3v30l6-2-2 4-4 1-2-3v-31z" fill="#1C874B"/>
<path transform="translate(313,142)" d="m0 0 8 1h16l2 1-1 4-1-2-28-1v-2z" fill="#449F3D"/>
<path transform="translate(184,122)" d="m0 0h3v7l-6 8v-3l1-5-2-3z" fill="#339847"/>
<path transform="translate(1046,357)" d="m0 0 1 2-5 6-6 1-2-2 7-6z" fill="#35863E"/>
<path transform="translate(1293,320)" d="m0 0h2l1 5-2 7-4-1-1-5 3-5z" fill="#7A9B0F"/>
<path transform="translate(1165,140)" d="m0 0 1 4-10 12h-2v-6l6-4z" fill="#56802F"/>
<path transform="translate(1282,377)" d="m0 0 5 1-1 10-7-6-1-2z" fill="#7A9B0F"/>
<path transform="translate(1103,218)" d="m0 0h6l1 2v13l-2-2-4-10z" fill="#58912D"/>
<path transform="translate(462,117)" d="m0 0h1l2 17 5 10-4-3-3 3-3-6h3l-1-9z" fill="#389943"/>
<path transform="translate(1070,507)" d="m0 0 1 2h2l1-2 6 8-1 4-2 1-1-3-2-2-2-4h-2z" fill="#339346"/>
<path transform="translate(1006,432)" d="m0 0h3l-1 6-3 3h-5v-4z" fill="#166F3C"/>
<path transform="translate(439,108)" d="m0 0h5v7l-1 1h-6v-6z" fill="#006739"/>
<path transform="translate(994,462)" d="m0 0h4l5 5 2 4-7 4v-7l-1-3z" fill="#1A793E"/>
<path transform="translate(1136,381)" d="m0 0h1v6l-2 4-7 2-2 2 1-4z" fill="#527C31"/>
<path transform="translate(945,293)" d="m0 0 1 2 5 2 2 2 1 7-4-2-6-7z" fill="#3E7836"/>
<path transform="translate(1113,221)" d="m0 0 4 2 6 11-2 4-4-7-2-5-2-1z" fill="#457E34"/>
<path transform="translate(160,146)" d="m0 0 2 4 2 6-1 6-1-2h-2l-4-8 1-2 2 1z" fill="#0D733B"/>
<path transform="translate(1357,4)" d="m0 0 4 1 3 5-12 2 2-5z" fill="#769812"/>
<path transform="translate(1207,412)" d="m0 0 2 2 1 3v9l-4 2v-14z" fill="#4F842F"/>
<path transform="translate(969,243)" d="m0 0 4 2 5 8-1 2-5-5-1 11h-1z" fill="#3B7636"/>
<path transform="translate(875,197)" d="m0 0 1 3-6 9-2-1-1-1h-6l4-2 9-7z" fill="#1C884B"/>
<path transform="translate(1181,521)" d="m0 0 2 4-5 6h-2v2h-5l2-4 5-5z" fill="#58822F"/>
<path transform="translate(1357,293)" d="m0 0 3 1 5 5 1 2-10-1-4 1 2-4z" fill="#6B8F1C"/>
<path transform="translate(1097,136)" d="m0 0 4 2 6 8 1 6-4-5v-2l-4-1-2-2h-1z" fill="#518233"/>
<path transform="translate(462,109)" d="m0 0 1 4-1 8-3-1-1-4-3 1 1-3h2l1-4z" fill="#057A3B"/>
<path transform="translate(1136,94)" d="m0 0h1v7l-2 4-7-1 3-5z" fill="#4F7B32"/>
<path transform="translate(83,385)" d="m0 0h5l6 7 2 6h-2l-6-9-5-1-4 3-2-1z" fill="#319648"/>
<path transform="translate(1239,301)" d="m0 0h2l1 4v12l-2 2-1-10-2-5v-2z" fill="#78AD26"/>
<path transform="translate(1008,201)" d="m0 0h2v16h-1l-1-13-4 4-3 6-3 3 1-6z" fill="#237D3D"/>
<path transform="translate(1068,176)" d="m0 0 6 5 1 6-5-1-3-1z" fill="#55922F"/>
<path transform="translate(1204,170)" d="m0 0 9 1-1 5-4 1h-2z" fill="#447A34"/>
<path transform="translate(1229,148)" d="m0 0 4 1 3 5h-9l-6 3 2-4z" fill="#5A8D2C"/>
<path transform="translate(1107,513)" d="m0 0 3 3v2h2l4 9 3 4v2l-5-1-3-9-5-9z" fill="#5E8F2C"/>
<path transform="translate(112,442)" d="m0 0 2 1-1 11-4 10-1 2h-2l3-9 2-7z" fill="#319748"/>
<path transform="translate(1030,373)" d="m0 0 4 2-1 4-4 5-1 6-2-2 2-13z" fill="#35863E"/>
<path transform="translate(897,271)" d="m0 0h1l1 12-1 3h-3v-12z" fill="#187641"/>
<path transform="translate(1143,232)" d="m0 0 4 1 2 2h4v8l-7-6-3-3z" fill="#437C34"/>
<path transform="translate(750,119)" d="m0 0h1l-1 10-3 22-2-3 1-9z" fill="#00773B"/>
<path transform="translate(956,344)" d="m0 0h2l1 4h2l8 10-1 2-8-7-4-5z" fill="#3E7836"/>
<path transform="translate(877,294)" d="m0 0 5 1 2 4-7 2-2-2v-4z" fill="#227D48"/>
<path transform="translate(957,237)" d="m0 0 3 1v3h2v2h-3l-1 9-2 3v-14z" fill="#51B042"/>
<path transform="translate(1090,207)" d="m0 0h3v3h2l7 8 2 3-3 2-6-8-5-6z" fill="#477D33"/>
<path transform="translate(1055,198)" d="m0 0 5 1 11 12-3 1-5-4-2-4-2-1v-2l-4-2z" fill="#3B7A38"/>
<path transform="translate(517,111)" d="m0 0h1l3 14-3 9h-1z" fill="#56A632"/>
<path transform="translate(418,106)" d="m0 0 4 1v7l-1 2-4-1-1-6z" fill="#015736"/>
<path transform="translate(84,99)" d="m0 0 16 1v2h-14l1 5-4-4z" fill="#2F9549"/>
<path transform="translate(1216,87)" d="m0 0h3l-2 4-6 6h-2l1-6 3-3z" fill="#5E892B"/>
<path transform="translate(1060)" d="m0 0 4 1-2 7-4 1-2 5h-1v-5z" fill="#3C8239"/>
<path transform="translate(1132,351)" d="m0 0h2l-1 7-2-1-2 3h-3l-1 2-1-2 3-5z" fill="#557F30"/>
<path transform="translate(1185,272)" d="m0 0 7 6 2 2v3l-4-1-7-7 2-1z" fill="#58812F"/>
<path transform="translate(1060,131)" d="m0 0h2l5 7 5 5 5 6-1 2-7-7-9-11z" fill="#527A32"/>
<path transform="translate(1288,5)" d="m0 0h5l-4 8-2 3h-2l1-9h2z" fill="#7A9B0F"/>
<path transform="translate(1052,486)" d="m0 0h4v3l4 2 3 4-4 1-5-5z" fill="#57912E"/>
<path transform="translate(1136,134)" d="m0 0h1v9l-3 2-4-2 2-4z" fill="#59882E"/>
<path transform="translate(1075,231)" d="m0 0 3 1v2h3l3-3 1 5-6 3-3-3z" fill="#35873F"/>
<path transform="translate(1092,196)" d="m0 0 5 1 7 7 1 4-5-2-7-8z" fill="#487C33"/>
<path transform="translate(1396,6)" d="m0 0 6 1 2 3-4 1h-7l-1-3z" fill="#7A9B0F"/>
<path transform="translate(1266,432)" d="m0 0h1v9h-8l2-4z" fill="#4A7E32"/>
<path transform="translate(1191,427)" d="m0 0h2v6l-6 4h-2l1-4z" fill="#59832F"/>
<path transform="translate(952,375)" d="m0 0 5 1-2 6-6 2 1-7z" fill="#247D47"/>
<path transform="translate(1071,187)" d="m0 0 4 2 6 4 7 9-1 2-16-16z" fill="#527A32"/>
<path transform="translate(1252,178)" d="m0 0 4 1 1 1-1 7-4 1z" fill="#78AD26"/>
<path transform="translate(346,120)" d="m0 0h1v18l-3 5-3-1v-2l-2-1h5l1-4z" fill="#55A634"/>
<path transform="translate(280,124)" d="m0 0 4 2 1 5-1 1h-5l-1-7z" fill="#015736"/>
<path transform="translate(166,90)" d="m0 0h5v6l-2 3h-3l-1-8z" fill="#218440"/>
<path transform="translate(1153,467)" d="m0 0 1 2-5 9-3 3h-2l-1 2 1-5z" fill="#6C9828"/>
<path transform="translate(1064,287)" d="m0 0h1v5l-3 1-1 2-3 3-3 7h-1l1-7 8-10z" fill="#186737"/>
<path transform="translate(1058,87)" d="m0 0v3l-15 15v-3l10-11z" fill="#116136"/>
<path transform="translate(1142,481)" d="m0 0v3l-3 5-2 3-7 3 2-4 5-5z" fill="#5D932C"/>
<path transform="translate(1396,295)" d="m0 0 4 1 3 2v2h-11l2-4z" fill="#6A8E1D"/>
<path transform="translate(1077,226)" d="m0 0 5 2 2 3-4 4-3-3-1-5z" fill="#58922E"/>
<path transform="translate(996,114)" d="m0 0h1v10l-3 1-2-4 1-5z" fill="#0E6237"/>
<path transform="translate(1158,514)" d="m0 0h2l-1 5-2 2-3 7-2 1v-5l3-6h2z" fill="#5D942C"/>
<path transform="translate(1302,394)" d="m0 0h2l-2 10-4-2-2-3z" fill="#7A9B0F"/>
<path transform="translate(1264,146)" d="m0 0h3l1 6-9 1 2-4z" fill="#538030"/>
<path transform="translate(392,109)" d="m0 0 4 5 1 6-4 1-1-3z" fill="#0C6438"/>
<path transform="translate(106,466)" d="m0 0 1 3-3 5 1 5 5 4v2l-5-2-3-4v-6z" fill="#49A13B"/>
<path transform="translate(100,444)" d="m0 0 1 4-5 13-2 2-1-2 6-16z" fill="#2F9549"/>
<path transform="translate(1186,359)" d="m0 0 5 4v2h2v2l4 2 4 6-4-2-10-10z" fill="#63902A"/>
<path transform="translate(839,293)" d="m0 0 5 2 1 3-3 2-4-1-1-4z" fill="#1C884C"/>
<path transform="translate(1134,209)" d="m0 0 2 2v8l-2 2-4-4v-2l3-3z" fill="#527C31"/>
<path transform="translate(1137,208)" d="m0 0h5l1 3-7 6v-7z" fill="#699628"/>
<path transform="translate(1200,502)" d="m0 0 2 2-6 7h-3l-4 4-2-1 6-7 5-3z" fill="#528230"/>
<path transform="translate(1416,271)" d="m0 0h1v16l-3-2v-8z" fill="#7A9B0F"/>
<path transform="translate(419,141)" d="m0 0 1 3h20l2-3 1 4-1 1h-22l-2-3z" fill="#369844"/>
<path transform="translate(1069,76)" d="m0 0 3 1-5 5-7 8-2-1 6-8z" fill="#3D7A37"/>
<path transform="translate(1238,460)" d="m0 0 2 1-3 6-1 3-5-1v-2l5-5z" fill="#5F8B2B"/>
<path transform="translate(95,398)" d="m0 0h2l4 10v6l-2 1z" fill="#399A44"/>
<path transform="translate(1048,350)" d="m0 0h2l1 3-5 5-3 1-1-2z" fill="#527A32"/>
<path transform="translate(876,344)" d="m0 0 3 1-1 6-3-2-4 1-3 4 1-5 4-4z" fill="#35873F"/>
<path transform="translate(1153,229)" d="m0 0 6 2v3l-4 6-1-3z" fill="#6D9927"/>
<path transform="translate(1291,34)" d="m0 0 5 1-2 7h-3l-1-7z" fill="#7A9B0F"/>
<path transform="translate(1198,464)" d="m0 0 7 2-1 2-7 2-4-1z" fill="#527F31"/>
<path transform="translate(1244,461)" d="m0 0 3 1v7l3 1-4 1-3-3-1-4z" fill="#98C30E"/>
<path transform="translate(994,404)" d="m0 0h3v8h-4l-1-6z" fill="#0A6B39"/>
<path transform="translate(1209,204)" d="m0 0 1 4-6 4-5 7-1-4 5-5z" fill="#537D30"/>
<path transform="translate(1197,176)" d="m0 0 3 1-1 5-8 1 4-6z" fill="#508031"/>
<path transform="translate(172,135)" d="m0 0h6l-2 5-4 2-2-4z" fill="#006839"/>
<path transform="translate(1207,126)" d="m0 0 2 2 1 3v9h-3z" fill="#367C37"/>
<path transform="translate(556,124)" d="m0 0 2 4h-2l1 8 3 3 4 2-3 3-2-1-2-4-2-2v-10z" fill="#489F3A"/>
<path transform="translate(312,117)" d="m0 0h6l1 4-8 1z" fill="#3D9C42"/>
<path transform="translate(1025,527)" d="m0 0 5 1v2l2 1v2h-8z" fill="#56922E"/>
<path transform="translate(1245,165)" d="m0 0 4 2 3 4-1 2-3-2-6-1 2-4z" fill="#4F7C31"/>
<path transform="translate(1118,516)" d="m0 0 3 3 1 4h2l3 6-1 4-3-4-3-7z" fill="#5F902C"/>
<path transform="translate(110,371)" d="m0 0 5 2 2 4-5-3-5 1-2 2-2 4v-6l4-3z" fill="#3D9C41"/>
<path transform="translate(909,257)" d="m0 0 7 3v3l2 1-1 2-4-2-4-4z" fill="#1D7945"/>
<path transform="translate(131,134)" d="m0 0 6 4 1 2-8-2 1 4h-3l-1-4 4-1z" fill="#3E9C40"/>
<path transform="translate(948,126)" d="m0 0 2 1v12l-3-1v-8z" fill="#005836"/>
<path transform="translate(560,117)" d="m0 0 4 1 1 4-8 2 1-5z" fill="#439E3D"/>
<path transform="translate(1488,432)" d="m0 0 4 2 3 5-4 1-3-3z" fill="#789910"/>
<path transform="translate(975,404)" d="m0 0 3 3v5l-5-2-1-4z" fill="#329849"/>
<path transform="translate(897,147)" d="m0 0h2v2l2 1-3 5-3 1 1-7z" fill="#3E7836"/>
<path transform="translate(522,142)" d="m0 0h2l-1 4h-21v-3l2 1h17z" fill="#3F9D40"/>
<path transform="translate(1108,117)" d="m0 0 2 1v7l-4-2-2-4z" fill="#56822F"/>
<path transform="translate(971,116)" d="m0 0h3l4 9-1 3-6-10z" fill="#329849"/>
<path transform="translate(1081,350)" d="m0 0 1 4-1 9h-3l-1-6 2-1 1-5z" fill="#36823C"/>
<path transform="translate(850,217)" d="m0 0 3 3 2 4v5l-4-1-1-8z" fill="#227D48"/>
<path transform="translate(1235,181)" d="m0 0 1 4 5 2 2 2v3l-4-2-6-7z" fill="#6F9822"/>
<path transform="translate(1107,516)" d="m0 0 3 3 4 8-1 3-4-5-2-5z" fill="#7CAF22"/>
<path transform="translate(1010,488)" d="m0 0h1l1 11-3 5-2 1z" fill="#329849"/>
<path transform="translate(1158,478)" d="m0 0v3l-4 6-5 4v-3z" fill="#6E9C27"/>
<path transform="translate(1127,260)" d="m0 0 2 3v9l-3 1-3-1-1-5h2l4 4z" fill="#418036"/>
<path transform="translate(1382,264)" d="m0 0 4 1 1 1v5h-4z" fill="#7A9B0F"/>
<path transform="translate(1245,171)" d="m0 0 4 1v5l-5 1z" fill="#78AA22"/>
<path transform="translate(374,126)" d="m0 0 3 1-2 1v9l3 1-4 1-1-1v-9z" fill="#359744"/>
<path transform="translate(1301,107)" d="m0 0h1l-1 8-4-2-1-3h2v-2z" fill="#7A9B0F"/>
<path transform="translate(934,106)" d="m0 0h4l1 5-3 3h-2z" fill="#006839"/>
<path transform="translate(1153,75)" d="m0 0h2v10l-2 2-1-2v-9z" fill="#5B932D"/>
<path transform="translate(1208,458)" d="m0 0h5l1 3-2 3-4-1z" fill="#4A8032"/>
<path transform="translate(1252,405)" d="m0 0h5v7l-4-1z" fill="#5F8B2B"/>
<path transform="translate(949,354)" d="m0 0 6 2 1 6-4-2-3-4z" fill="#51B042"/>
<path transform="translate(1197,312)" d="m0 0 4 2 7 7-1 2-5-4-3-3-1 2z" fill="#72A226"/>
<path transform="translate(911,203)" d="m0 0 2 1-8 9-3 1 1-4z" fill="#35873F"/>
<path transform="translate(1008,148)" d="m0 0 5 5 1 3-11-3 4-1z" fill="#227F3E"/>
<path transform="translate(1448,145)" d="m0 0h2l-2 9-3 1 1-7z" fill="#7A9B0F"/>
<path transform="translate(436,118)" d="m0 0 2 3 2 5-4-2 1 10-2-4v-11z" fill="#379945"/>
<path transform="translate(1131,466)" d="m0 0 1 2-6 8h-1v-6z" fill="#5D892B"/>
<path transform="translate(1026,457)" d="m0 0h3l1 3-2 5-3 2z" fill="#005B36"/>
<path transform="translate(1050,412)" d="m0 0 4 2 7 8h-3l-8-8z" fill="#1B6335"/>
<path transform="translate(1264,319)" d="m0 0 3 3h-2l-2 5h-3l1-4z" fill="#7B9C0E"/>
<path transform="translate(1183,311)" d="m0 0 4 2 1 6-4-2-3-3v-2z" fill="#5D872D"/>
<path transform="translate(1248,171)" d="m0 0 6 2 4 5-3 1-5-4z" fill="#618C2A"/>
<path transform="translate(1523,146)" d="m0 0h3l1 5-1 1h-5l1-4z" fill="#759813"/>
<path transform="translate(294,128)" d="m0 0 4 2v3h-8l1-3z" fill="#025A36"/>
<path transform="translate(378,117)" d="m0 0 5 1v3l-7 1z" fill="#409E40"/>
<path transform="translate(1066,77)" d="m0 0 2 1-8 9-5 3 2-4z" fill="#206834"/>
<path transform="translate(1080,68)" d="m0 0h1v7l-2-1-7 2 4-5z" fill="#507A32"/>
<path transform="translate(192,7)" d="m0 0h6l-1 2-7 2-5-1 2-2z" fill="#006839"/>
<path transform="translate(1202,460)" d="m0 0h3v6l-5-1v-3z" fill="#5D882C"/>
<path transform="translate(1029,457)" d="m0 0 7 5-1 5-3-4-3-1z" fill="#17713A"/>
<path transform="translate(111,446)" d="m0 0 1 4-4 12-2-1 2-5 2-9z" fill="#006839"/>
<path transform="translate(874,354)" d="m0 0h2l-2 5-2 2-4-1-1-5 2 2 4-1z" fill="#35873F"/>
<path transform="translate(1014,354)" d="m0 0 2 1-1 2 2 1-4 3-1-1-2 2v-5z" fill="#398B3E"/>
<path transform="translate(1151,348)" d="m0 0 4 2 5 5-1 2-4-3-2 1z" fill="#427F34"/>
<path transform="translate(1029,174)" d="m0 0 4 2v4h-5v-3z" fill="#006738"/>
<path transform="translate(1076,151)" d="m0 0 5 2 2 2v5l-5-5z" fill="#4C8135"/>
<path transform="translate(1488,146)" d="m0 0 4 2 3 3v1h-6l-1-1z" fill="#6C911C"/>
<path transform="translate(353,141)" d="m0 0v3l-2 2-2 5-4-1v-2z" fill="#106B3C"/>
<path transform="translate(1073,144)" d="m0 0 4 2 4 4 1 4-5-3z" fill="#5D882C"/>
<path transform="translate(168,138)" d="m0 0 2 2 1 3 2 2-4 1-3-3 1-4z" fill="#329849"/>
<path transform="translate(1269,487)" d="m0 0h1v8l-2 3-2-7z" fill="#7A9B0F"/>
<path transform="translate(983,463)" d="m0 0 4 1 1 6-2 1-2-5-2-1z" fill="#329849"/>
<path transform="translate(766,412)" d="m0 0 4 3-5 2-3 1-2-2 3-3z" fill="#00773B"/>
<path transform="translate(1413,319)" d="m0 0 5 1v4h-5l-1-4z" fill="#7A9B0F"/>
<path transform="translate(1063,251)" d="m0 0 5 4-2 4-4 3 1-9z" fill="#38813B"/>
<path transform="translate(1210,201)" d="m0 0h2l-1 4-4 2-5 5-2-1z" fill="#5E8D2C"/>
<path transform="translate(139,163)" d="m0 0 4 4 2 8-2 1-4-10z" fill="#419E3F"/>
<path transform="translate(875,138)" d="m0 0 3 1v6h-2v-4l-6 3 2-4z" fill="#208449"/>
<path transform="translate(137,140)" d="m0 0 4 2 7 8-1 3-9-11z" fill="#309547"/>
<path transform="translate(951,90)" d="m0 0 5 1-4 5-3-1v-4z" fill="#016639"/>
<path transform="translate(1226,71)" d="m0 0 9 1 1 4-5-1-4-1z" fill="#799C10"/>
<path transform="translate(359,1)" d="m0 0h10v2l-2 1h-6l-2-1z" fill="#015736"/>
</svg>
