<?xml version="1.0" encoding="UTF-8"?>
<svg version="1.1" viewBox="0 0 2048 1024" width="800" height="400" xmlns="http://www.w3.org/2000/svg">
<path transform="translate(0)" d="m0 0h2048v1024h-2048z" fill="#FAFAFA"/>
<path transform="translate(210,418)" d="m0 0 26 1 44 4 30 2 60 5 28 2 35 3 19 1 32 3 76 6 13 3 5 5 4 13 6 29 5 22v-97l1-1h7l1 10v92l1 33-1 4 9 43 6 26 4 20 9 41 7 32 1 10-34 3-10 3-45 4-2 1 12 3h19l30-3 16-1v2l3-2 6-1h9l13 2 4 1 23 4 25 5 29 5 13 3 9 1 2 1-1 3-40 3-15 2-23 2-30 3-21 2-82 7-19 2h23l28-2 33-3 51-4 15 2 36 10 3 3 5 1-1 4-14 3-54 7-6 1-17 1-6 3-18 4-4 1 14-1 47-6h13v4l-7 1-1 3-4 1-1 1 20-1 31-4 41-5 27-3 12-2 81-11 12-3-1-3h-9l-27 3h-7v-1l46-7 5-1-2 11-12 3-61 9-235 32-32 4-22 3h-9l-19-3-56-15-63-17-36-10-34-9-18-5-23-7-9-6-5-5-4-9-4-21-3-18-9-52-11-62-9-53-7-37-4-24-4-23v-6h1l5 28 7 37 6 37 5 26 8 47 5 28 8 44 3 12 2 9-3-15-3-19-7-40-3-19-2-12-3-16-8-47-6-32-8-47-6-34-3-15v-10l4-4z" fill="#20242E"/>
<path transform="translate(1388,236)" d="m0 0h22l144 14 10 3 9 5 8 9 4 8 2 7v10l-3 16-7 27-4 14-15 55-5 18-5 17-8 30-5 18-24 86-6 19h33v13l-36 1-2 5-5 20-6 20-3 12-15 2-5 6-1 8 4 8 5 3 7 1h55l9-1 6-3-2 4-7 3h-65l-6 24-4 15-3 9-4 15-6 23-3 7-3 15-5 16-8 15-8 7-6 4-6 2h-16l-14-5-40-20-28-13-39-19-23-11-12-7-5-5-4-5-3-5-2-7v-20l9-35 16-58 14-51 20-72 5-19 19-67 20-73 4-13h-23l-7-3-5-6 1-3 3 3 2 1v3h63l5-3 3-4v-11l-4-5-4-2-25-1 2-10 8-29 5-12 6-9 8-8 10-5z" fill="#0B0B0C"/>
<path transform="translate(376,141)" d="m0 0h201v253h-100v-152h-101z" fill="#0A090A"/>
<path transform="translate(411,434)" d="m0 0h10l31 2 7 1v1h-13l24 3 28 2 26 2 31 7 5 3 5 2 3 6v4h-10v2l10 1 3 5 2 12 2 10-3 1 4 2 3 11v5l-3 1h3l2 9-5 1 1 4 6 1 3 6 1 6 1 8 1 1v7l3 5 1 8 1 5v1l3 8v4l-6 2v6l-3 2h-23l-2-1v-6l7-1-4-2h2v-4l-5 1-2-1v-2h-4l1 7-9 2-2 3h-2v5l-8 6-7 1-3-4 1-4-3-8-7 6-1 2 5 1v-4l3 1 2 16 4 2v7l1 10 2 6 2 1-2-7v-5h2l4 15 4 18v2l-3 1h-7l1 5-3-1-1-3-9 1v3h-2v-4h-11l-1 4-1-2-9-1-3 4-2-2v-3l-11 1v4h-2v-4h-9l1-5 3-1v2l3-1-1-8-1-5h2l3 13 4 1 1-2h5l3-3h2l1 3h5v2l4-1h4v-8h2v5l5-1-3-17v-9l-1-6h2l2 12 1 4 3 9h3l-6-20-4-17-4-2-1-3-2 9-4 4-5 1h-7v2h-2l-2 7-3 1-1 2-3-5-11-27-11-29v-3l-9 2-10-1-32-1-27-2-1-2h5l-1-5-3-3 1-4h-3l-1 3-4-1v2l-8 1 2 3-2 3-7-2-3-9-1-5-1-3h-2l-5-9v-5h3l3 8 4 7 1 3h3l2-5v-8l3-2 3 1v-3h3l2-6v-6l-7-6 2-3h2v-6l2 1 2-3 6 7h5l-1-5-4-1v-2h-2v-2l-5-1-2 3-4-1-1-5h-2v8l2 7-5-5-2-7-3-1-2-7-1-3-4-2-2-2 2 6 3 6v3l5 1 4 8 3 3v6l-7-6-3-7-2-1v-2l-4-2-3-5-2-5v-4h-3l-4-6-5-5-1-5 6-7 2-6-34-2-9-1v-4l32 2h14l4-1h36v-2l25-2 5 1-1-5-3-1v-7z" fill="#34363E"/>
<path transform="translate(759,141)" d="m0 0h116l-1 5-8 20-15 36-12 29-15 36-16 39-11 26-5 13-17 41-4 8-52 1v150l-3 2h-7l-1-152-53-1 1-5 16-38 19-46 16-39 15-36 19-46 17-42z" fill="#0A090A"/>
<path transform="translate(633,739)" d="m0 0h9l13 2 4 1 23 4 25 5 29 5 13 3 9 1 2 1-1 3-40 3-15 2-23 2-30 3-21 2-82 7-19 2h23l28-2 33-3 51-4 15 2 36 10 3 3 5 1-1 4-14 3-54 7-6 1-17 1-6 3-18 4-4 1 14-1 47-6h9v1l-29 4-46 6 10 2 16 1v3l-14 1v2h-8l-1 1h-7l-1 1-13 1-10 2-37 4h-18l-26-6-7-2-23-6-22-6-20-5-15-4-29-8-17-4-21-6-11-3-9-2-25-7 3-7h2v-3l-10-2-13-4-2-1v-2l2-1 33-3 23-2h43l49-4 31-3 61-5 25-2h6l16 4h19l30-3 16-1v2l3-2z" fill="#D2D4D4"/>
<path transform="translate(210,418)" d="m0 0 26 1 44 4 30 2 60 5 28 2 12 1 1 2-3 1v7l3 3v3h-12l-15-1-23-1-32-2-45-2-1 5-2-2-1-3-9-1v3l9 1-1 4-10 1-8-3-30-2-9-1h-7l1 12 5 26 3 13v6h5l-1 2h-2l1 8 3 3h-3l2 9 4 22 3 4-1 1 1 13 7 43 14 74 9 50 36-1 81-5 111-6 52-2 71-5h8l-6-25-3-12-2-9-2-11-2-7-4-17-8-35v-2l-20-1v-1l19-1-3-11-4-2h4l-3-10-1-6-2-4v-5l-1-5-4-16-6-1-1-4 5-1-2-9-4 1-1-2h5l-4-16-12-2v-1h12l-3-10-3-15-7-2-4-1v-2h10l-4-10-8-3-5-2-27-6-20-1-17-2-28-2-21-3v-1h12l34 2 76 6 13 3 5 5 4 13 6 29 5 22v-97l1-1h7l1 10v92l1 33-1 4 9 43 6 26 4 20 9 41 7 32 1 10-34 3-10 3-57 5-39 3-78 7-49 4h-43l-36 3-22 2v2l12 3 13 4v3l-2 2-2 4 16 5 10 3 9 2 28 7 14 4 28 7 15 4 29 8 48 12 9 3 18 4h18l37-4 10-2 13-1 2-1h6l3-1 6 1v-2l14-2v-1l-18-1-10-2 2-2 46-6 29-4h4v4l-7 1-1 3-4 1-1 1 20-1 31-4 41-5 27-3 12-2 81-11 12-3-1-3h-9l-27 3h-7v-1l46-7 5-1-2 11-12 3-61 9-235 32-32 4-22 3h-9l-19-3-56-15-63-17-36-10-34-9-18-5-23-7-9-6-5-5-4-9-4-21-3-18-9-52-11-62-9-53-7-37-4-24-4-23v-6h1l5 28 7 37 6 37 5 26 8 47 5 28 8 44 3 12 2 9-3-15-3-19-7-40-3-19-2-12-3-16-8-47-6-32-8-47-6-34-3-15v-10l4-4z" fill="#0B0B0C"/>
<path transform="translate(214,442)" d="m0 0 2 2h12l3 1 30 2 9 3 9-1v-2l-8-2v-3h9l3 5 1-4h26l40 2 29 2h10l10 1v1l-6 1h-12v2l-12 1h-24l-4 1h-14l-32-2v2l25 2 18 1 1 3-6 9h-2v6l5 5 4 5v2h3l3 9 4 6 2 1v2l3 1 3 7 5 4-1-5-4-5-1-5h-5l-4-10-2-6 1-2 4 5 5 5v6h4l3 9 2 2-2-7 1-6h2l2 5h3l2-3 5 2v2h2v2l4 1 1 5-5 1-2-4-3-1-1-2-2 3-1-1-1 5-3 3 7 6v6l-3 6h-3v3l-5 1v8l-3 5h-3l-5-7-2-4-2-7h-1v5l4 7v2h2l3 4-1 3-3-4h-5l-4 3h-3l-2 2-2-1-3-5-5 1v9l-9 5-1 5 4 16h-3l-2-6-3 3-3 1-1 3h-5l4 12h-4l-1 7-3 3-3-1-1-2-3-1 2 8-4-2-1-4-8 1-4-15-3-5-5-18-6-10-2 2v9l-4 2h-5l2 11h-4l-2-6-3 1-2-4-1-1-1 2h-5l-2-6-2-11v-7-2l-2-3-4-24-1-1v-6l2-1-3-1-1-10h3l-4-1-8-38-2-14z" fill="#20242E"/>
<path transform="translate(633,739)" d="m0 0h9l13 2 4 1 23 4 25 5 29 5 13 3 9 1 2 1-1 3-40 3-15 2-23 2-30 3-21 2-82 7-19 2-16 1-25 3-26 2h-14l-50-9-26-5-18-3-1-1-14-2-7-3 2-2 31-2 26-3 34-3 20-2h14l1-1 42-4h12l1-1 40-4h14l2 1v-2l37-4 16-1v2l3-2z" fill="#111618"/>
<path transform="translate(646,138)" d="m0 0h17l14 4 11 7 5 4 9 12 5 13 1 4v19l-4 12-5 10-9 10-7 5-15 6-4 1h-19l-10-3-11-6-10-9-7-10-5-14-1-12 2-14 4-10 7-11 10-9 14-7z" fill="#0A0A0B"/>
<path transform="translate(418,453)" d="m0 0 33 2 28 2 6 1 1-1 24 1 5-2 5 2 3-1 7 2v5h-9l-1-1v5l1 1v16l-1 4v8l1 4-3 7v5l2 2-4 4-3 9-3 1-2 5-4 9-3 4-5-1-3-2 3 11 4 11 6 27 6 14 1 7-3-2-6-18-3-7-5-21-9-25-1-1v8l-3 6h-3l-2-4h-8l2 4h5l-1 4-6-1-1 4-3 1-4 9-4-1-5-11-10-27-1-3h-7l-2-4 1-11-3-12-1-7-10-24-5-15v-2z" fill="#3C434B"/>
<path transform="translate(1766,396)" d="m0 0h40v173h-41v-146z" fill="#19A599"/>
<path transform="translate(530,461)" d="m0 0h9l1 3h-8l4 4 4 1v3h-12v2h8l5 1v4h-7v2h9l1 8-3 2 5 2v4h-12l12 2-1 4h-5v2h8v4h-10l3 2v2l-2 1v3l4 1v3l8 3 1 4-6 1 9 1-1 4-7 1 6 1 2 3-7 4h7v3l-4 1 7 1v4l-5 1v3l5 1-1 3-8 1h12l-1 5h-9l-3-1 1 3 5 2 1 4h-7l-1 6v5l-4 1-2 5-3 1-1 6h-3l-2-3v-2h-2v-2h-2l2 9h-3l-2-7-7 6-1 2 5 1v-4l3 1 2 16 4 2v7l1 10 2 6 2 1-2-7v-5h2l4 15 4 18v2l-3 1h-7l1 5-3-1-1-3-9 1v3h-2v-4h-11l-1 4-1-2-9-1-3 4-2-2v-3l-11 1v4h-2v-4h-9l1-5 3-1v2l3-1-1-8-1-5h2l3 13 4 1 1-2h5l3-3h2l1 3h5v2l4-1h4v-8h2v5l5-1-3-17v-9l-1-6h2l2 12 1 4 3 9h3l-6-20-4-17-9-21-3-12-3-15-7-20 1-3 5 3 4-1 4-9 4-7 3-2 3-10 3-3h-2v-6l3-8-1-5v-9l1-1v-16l-1-1v-6l2 1 9 1z" fill="#33373F"/>
<path transform="translate(518,445)" d="m0 0 10 1 27 6 5 3 5 2 3 6v4h-10v2l10 1 3 5 2 12 2 10-3 1 4 2 3 11v5l-3 1h3l2 9-5 1 1 4 6 1 3 6 1 6 1 8 1 1v7l3 5 1 8 1 5v1l3 8v4l-6 2v6l-3 2h-23l-2-1v-6l7-1-4-2h2v-4l-5 1-2-1v-2h-4l1 7-9 2-2 3h-2v5l-8 6-7 1-3-4 2-6-1-2v-6h2v2h2l2 4 2-2 1 1 1-4 4-4v-3h5l-1-7 2-4h7l-2-4-5-2v-3h12l1-4-14 1 2-2h8v-3l-6-2-1-3h8v-4h-7l-1-2h5v-3l-7 1-5-1v-1l7-1 4-3-1-1-12-1 2-2h8l3-1 1-3h-10l1-2h6l-2-4-12-2v-1h5v-3h-5v-3l1-2h2v-2l-5-1 3-2 9 1v-4h-8l-1-3h6l1-3-12-1-1-2 13 1-1-4-5-1 2-3h2l-1-8h-9v-2h7v-4l-13-1v-2h12v-3l-5-1-3-2v-2l7-1v-2h-9l1-3 5 1v-6h-3l-1-2-14-5z" fill="#302F36"/>
<path transform="translate(1231,326)" d="m0 0h39v124h-38l-1-4z" fill="#FB5454"/>
<path transform="translate(1643,533)" d="m0 0 2 1v119h-39l-1-1v-117l1-1z" fill="#19A599"/>
<path transform="translate(1818,282)" d="m0 0h40v112l-1 2h-39z" fill="#19A599"/>
<path transform="translate(1713,480)" d="m0 0h40v94h-40z" fill="#FB5454"/>
<path transform="translate(270,762)" d="m0 0 12 3 13 4v3l-2 2-2 4 16 5 10 3 9 2 28 7 14 4 28 7 15 4 29 8 48 12 9 3 18 4h18l37-4 10-2 13-1 2-1h6l3-1 6 1v-2l14-2v-1l-18-1-10-2 2-2 46-6 29-4h4v4l-7 1-1 3-4 1-1 1 20-1 31-4 41-5 27-3 12-2 81-11 12-3-1-3h-9l-27 3h-7v-1l46-7 5-1-2 11-12 3-61 9-235 32-32 4-22 3h-9l-19-3-56-15-63-17-36-10-34-9-18-5-20-6-6-6z" fill="#162324"/>
<path transform="translate(1981,250)" d="m0 0h38v43l-1 31h-30l-10-1v-72z" fill="#19A599"/>
<path transform="translate(1673,472)" d="m0 0h26v71h-40v-70z" fill="#19A599"/>
<path transform="translate(537,740)" d="m0 0h6l16 4 12 1v2h-16l-33 3h-7l-1 2h-12l-33 3h-9l-1 2h-14l-39 4-35 3-19 2-21 1 1-4-6-1h-14l-3 3 3 5 7 3 6 3-3 1-17-4-31-9-4-2v-2l2-1 33-3 23-2h43l49-4 31-3 61-5z" fill="#D0D3D3"/>
<path transform="translate(1475,663)" d="m0 0h69l7 5 3 7v9l-5 5-4 2-9 1h-55l-9-2-5-4-3-7 1-8 6-7z" fill="#FB5454"/>
<path transform="translate(312,761)" d="m0 0h16l5 2-2 7h2v2l3 1v3l17 1 13 2 2 1 11 1 10 3 20 3 21 4 10 3 13 2 9 1h8l4 1 3 5-3 5-1 4h-8l-29-8-8-4-16-4-20-4-31-7-3-1-3 1 3 4-1 2-5 3-3 1-23-6-15-4-21-6 3-7h2v-2l7 1 10 3 12 2-10-4-3-1-3-6z" fill="#C6BBBA"/>
<path transform="translate(878,786)" d="m0 0h10l1 4-9 3-20 3-65 9-12 2-35 4-49 6-15 2h-8l-13 1 3-4h3l1-2 7-1v-4l-4-1 162-19h16z" fill="#C7BCBB"/>
<path transform="translate(586,544)" d="m0 0 2 4 1 10 2 4 2 11 1 5v1l3 8v4l-6 2v6l-3 2h-23l-2-1v-6l7-1-4-2h2v-4l-5 1-2-1v-2h-4l1 7-9 2-2 3h-2v5l-8 6-7 1-3-4 2-6-1-2v-6h2v2h2l2 4 2-2 1 1 1-4 4-4v-3h5l-1-7 2-4h7l-2-4-5-2v-3h12l1-4-14 1 2-2 11-2 1-3 4-1 4 1 3 3v-3l2-1v-2l8-1 1-3h2z" fill="#2F2E35"/>
<path transform="translate(1344,309)" d="m0 0 26 1 6 4 3 4v11l-6 7-3 1h-60l-3-1v-3l-5-2v-2h-2l1-11 5-6 4-2z" fill="#19A498"/>
<path transform="translate(1926,272)" d="m0 0h40v49h-40z" fill="#FB5454"/>
<path transform="translate(1551,601)" d="m0 0h40v47l-1 1h-36l-3-1z" fill="#FB5454"/>
<path transform="translate(111,544)" d="m0 0h9v211h-7l-3-1z" fill="#FB5454"/>
<path transform="translate(1178,322)" d="m0 0h38v47h-38l-1-1v-45z" fill="#19A599"/>
<path transform="translate(708,394)" d="m0 0h15l-4 1v150l-3 2h-7z" fill="#19A599"/>
<path transform="translate(893,781)" d="m0 0h2l-2 11-12 3-61 9-191 26h-7v-1l6-1h-18v-1l14-2v-1l-18-1-10-2 2-2 46-6 29-4h4v4l-7 1-1 3-4 1-1 1 20-1 31-4 41-5 27-3 12-2 81-11 12-3-1-3h-9l-27 3h-7v-1l46-7z" fill="#2A595A"/>
<path transform="translate(438,437)" d="m0 0h12l34 2 76 6 13 3 5 5 4 13 6 29 1 7-1 1 1 8-3-4-1 3-1 14v4 6l-1-2-6-1-1-4 5-1-2-9-4 1-1-2h5l-4-16-12-2v-1h12l-3-10-3-15-7-2-4-1v-2h10l-4-10-8-3-5-2-27-6-20-1-17-2-28-2-21-3z" fill="#1F242D"/>
<path transform="translate(411,434)" d="m0 0h10l31 2 7 1v1h-13l24 3 17 1 11 4 8 3 4 5-5 3-50-3-41-3-4-5v-2l-3-1v-7z" fill="#3C424A"/>
<path transform="translate(514,613)" d="m0 0 3 1 3 9v5h2l4 15v3l2-1v-5h2v-7l3 2 1 5 2 1-2-7v-5h2l4 15 4 18v2l-3 1h-7l1 5-3-1-1-3-9 1v3h-2v-4h-11l-1 4-1-2-9-1-3 4-2-2v-3l-11 1v4h-2v-4h-9l1-5 3-1v2l3-1-1-8-1-5h2l3 13 4 1 1-2h5l3-3h2l1 3h5v2l4-1h4v-8h2v5l5-1-3-17v-9l-1-6h2l2 12 1 4 3 9h3l-6-20z" fill="#38494F"/>
<path transform="translate(1477,694)" d="m0 0h5l3 9-4 21-5 17-6 18-5 16-5 12-3 3-6 1-1 7h-1l1-11 3-7 7-27 5-18 4-13 4-18z" fill="#CBD1D0"/>
<path transform="translate(594,419)" d="m0 0h7l1 10v92l1 33h-3l-6-27-1-13v-94z" fill="#19A599"/>
<path transform="translate(437,506)" d="m0 0 4 2 4 7 2 11 4 1v2l4 1v-7l-1-2v-7l3 3 7 22 6 10 2 5h5l-1 4-6-1-1 4-3 1-4 9-4-1-5-11-10-27-1-3h-5l-2-6 1-8z" fill="#3C424A"/>
<path transform="translate(50,660)" d="m0 0h4l1 34v60l-2 1h-8v-94z" fill="#19A599"/>
<path transform="translate(377,296)" d="m0 0h10l1 19v47l-1 19-1 1h-9z" fill="#FB5454"/>
<path transform="translate(1578,288)" d="m0 0h1l-1 12-12 46-25 91-17 60-14 50-12 43-16 58-4 13-2-1 14-51 9-34 14-50 7-26 11-39 14-52 30-108z" fill="#33494F"/>
<path transform="translate(360,222)" d="m0 0h9v102l-5 1-3-1-1-34z" fill="#FB5454"/>
<path transform="translate(199,424)" d="m0 0h3l3 19 4 21 6 37 5 28 8 44 8 48 2 7 3 22 5 29 4 20 3 19 2 11v7l-2-4-4-21-4-20-6-34-6-33-9-51-7-39-4-23-8-45v-5h-2l-5-29v-7z" fill="#DBDEDE"/>
<path transform="translate(588,567)" d="m0 0 4 1 2 6v4 1l3 8v4l-6 2v6l-3 2h-23l-2-1v-6l7-1-4-2h2v-4l-5 1-2-1 1-3h8l-1-2-2 1v-2h-2v-2l-5 1-2-2 6-1v-3l-6-1v-2l6 1 2-1h22l-1-3z" fill="#20242E"/>
<path transform="translate(1489,420)" d="m0 0 22 4 12 3-1 9-3 11-2 2-13-2-13-3-8-1 1-5z" fill="#1EA599"/>
<path transform="translate(66,565)" d="m0 0h5l1 5v75l-1 1h-9l-1-79z" fill="#19A599"/>
<path transform="translate(463,346)" d="m0 0h6l1 86-1 2h-8l-1-1v-86z" fill="#FB5454"/>
<path transform="translate(1744,738)" d="m0 0 10 1 5-1 2 1v26l-3 7-6 3h-11l-5-3 1-5 2-1 5 2h6l2-2v-3l-9 1-6-4-2-4v-10l4-6z" fill="#101516"/>
<path transform="translate(1455,379)" d="m0 0 2 1-4 22-4 16 12 1 9 1 2-9 2-1-2 10-2 13-5 13-6 2-3 8-4 16h-1v-7l4-15-1-4 4-14h2l-2 9v4l5-12 4-11-17-2-2-1-2 13-3 12-3 4 1-7 9-39 2-12-5 12-12 34-7 23-7 25-6 12-3 15-5 15-1-4 7-28-1-7-1-8 1-4 2-9 4-2 1-3 1 2-2 8-1 15 7-22 9-31 10-25 5-15z" fill="#5E6F6F"/>
<path transform="translate(828,332)" d="m0 0 5 1 1 22v60l-2 4-4 1-3-2v-84z" fill="#19A599"/>
<path transform="translate(874,201)" d="m0 0h7l1 1v77l-3 2-6-1-1-2v-75z" fill="#19A599"/>
<path transform="translate(1681,726)" d="m0 0h6l1 1v37l-6 1-4-1-1 1h-7l-7-6-1-3v-10l4-6 5-2 7 1 3 1-1-2v-11z" fill="#111819"/>
<path transform="translate(413,361)" d="m0 0h6l1 1v71h-9l-1-1v-70z" fill="#19A599"/>
<path transform="translate(1502,728)" d="m0 0h28v36h-14v-21h-13l-1-1z" fill="#0D0F10"/>
<path transform="translate(373,505)" d="m0 0 5 4 5 6 1 6-4 1-4-4h-2v2h2l-1 14h2v10l-3 1v2h-2l1 4h2v-3l3-1 5 1-2 2 5 5h-8l-1 3-4-1v2l-8 1 2 3-2 3-7-2-3-9-1-5-1-3h-2l-5-9v-5h3l3 8 4 7 1 3h3l2-5v-8l3-2 3 1v-3h3l2-6v-6l-7-6 2-3h2v-6l2 1z" fill="#302F36"/>
<path transform="translate(129,551)" d="m0 0h8v87l-4 1-4-1z" fill="#FB5454"/>
<path transform="translate(1402,318)" d="m0 0h2v5h2v-2h4v8h2v-5l3-1 8 1 5 1v5h2l1-3 1 3-3 3h-6l-3-4-2 3-14-2-1-4-2 6 9 1 13 2h12l-2 6h-12v7l-4 12-1-4 2-7 1-9h-2l-3 10-4 13-9 30-6 18-2 3-2 13-4 12h-2v-5h-1l1-10 1-4h2l2-11 1-1-3-3h6l4-13 3-8 5-16 4-16 4-9 1-4-10-1-8-3 2-9z" fill="#45373F"/>
<path transform="translate(673,809)" d="m0 0h4v4l-7 1-1 3-4 1-1 1 13-1 7 1v1l-66 8h-8v-1l14-2v-1l-18-1-10-2 2-2 46-6z" fill="#19A498"/>
<path transform="translate(542,468)" d="m0 0h8l1 3 5-2h8l5 2 2 4 2 12 2 10h-24v-4l-4-2-1-4 3-2h-3v-4l4-1-5-1v-4l9-1-3-1-5-1h-1v2l-3-1z" fill="#34373E"/>
<path transform="translate(331,344)" d="m0 0 4 2 2 3v60l-2 2-8-1v-62z" fill="#19A599"/>
<path transform="translate(841,274)" d="m0 0h9l1 61-1 2-7 1-3-3v-60z" fill="#19A599"/>
<path transform="translate(518,445)" d="m0 0 10 1 27 6 5 3 5 2 3 6v4h-10v2l2 1-9 1-1-2h-7v4l2 1-1-4 3 2h7l2 3-2 1v-2l-2 1h-7l-1 3-2-3-14-1v-2h12v-3l-5-1-3-2v-2l7-1v-2h-9l1-3 5 1v-6h-3l-1-2-14-5z" fill="#302E35"/>
<path transform="translate(1570,349)" d="m0 0h2l-1 7-13 48-5 18-5 17-8 30-5 18-7 25-1-4 1-13 2-5 3-15 3-9 4-18 6-20 2-7 4-16 4-15 2-5h2l2-13 3-10z" fill="#222D36"/>
<path transform="translate(0,632)" d="m0 0h5v120l-2 3h-3z" fill="#FB5454"/>
<path transform="translate(590,819)" d="m0 0h8l3 2 7 1 16 1v3l-14 1v2h-8l-1 1h-7l-1 1-13 1-10 2-16 1 2-2-3-6v-2l30-5z" fill="#BCBAB8"/>
<path transform="translate(1641,738)" d="m0 0 10 1h6v25l-5 1-4-1-2 1h-6l-6-4-3-6v-7l3-6 3-3z" fill="#0E1515"/>
<path transform="translate(1856,738)" d="m0 0 5 2 3 10v3h2l1-8 2-6 7-1-1 9-6 17-1 1-7-1-3-10v-2h-2l-2 10-3 3-5-1-4-9-4-13v-3h7l3 8v6h2l2-9z" fill="#0F1314"/>
<path transform="translate(1556,728)" d="m0 0h16l-1 5-13 31-2 1h-8l-6-1 3-9 8-20z" fill="#0E1011"/>
<path transform="translate(1284,459)" d="m0 0h19l-1 7-10 36-1 1h-6l-2-4z" fill="#FB5454"/>
<path transform="translate(557,568)" d="m0 0h5v3h-4v2l6 1v3l-3 2h4v2h4l2 1-1 3h-13l1 7-9 2-2 3h-2v5l-8 6-7 1-3-4 2-6-1-2v-6h2v2h2l2 4 2-2 1 1 1-4 4-4v-3h5l-1-7 2-4h7l-2-5z" fill="#313137"/>
<path transform="translate(490,443)" d="m0 0h8l13 1 9 2 12 4 1 3h3l1 4-1 2-15-1h-4-3l-10 1-18-1-4 1-5-1-26-2-33-2h-4v-3h15l58 4 19 1 3-3-4-4-14-4z" fill="#33363E"/>
<path transform="translate(678,557)" d="m0 0 5 1 2 2v56l-2 1h-7l-1-9v-20l1-30z" fill="#19A599"/>
<path transform="translate(1761,728)" d="m0 0h7l6 12 4 11 4-8 5-13 2-2h7l-3 10-6 15-4 9-2 3h-5l-3-5-6-15-5-12z" fill="#0F1213"/>
<path transform="translate(1448,819)" d="m0 0 5 1 6 9 1 6-5 5-9 4-11 2-7-1v-7l6-5 6-11 6-2z" fill="#D1D4D4"/>
<path transform="translate(426,288)" d="m0 0h9l1 1v49h-10l-1-1v-29z" fill="#19A599"/>
<path transform="translate(1124,356)" d="m0 0h40v8l-1 5h-39z" fill="#19A599"/>
<path transform="translate(474,818)" d="m0 0 29 6 7 1 1 1 12 1 4 2-1 8 3 1h-14l-26-6-7-2-4-2 2-1v-2l-5-1v-2h-2z" fill="#C3B7B5"/>
<path transform="translate(438,437)" d="m0 0h12l34 2 76 6 13 3 5 5 4 13v7l-3-2-3-7-1-7h-2l-3-4-18-3v-2h-14l-8-2-26-1-17-2-28-2-21-3z" fill="#0E1616"/>
<path transform="translate(1820,738)" d="m0 0h8l6 4 3 8-1 3-8 1h-10l2 3h7l6-1 2 1-1 5-7 3h-7l-5-3-3-3-2-5 1-8 6-7z" fill="#101B1C"/>
<path transform="translate(204,461)" d="m0 0h1l5 28 7 37 6 37 5 26 8 47 5 28 8 44 3 12 2 16h2l2 10 2 12-2-2-4-16-2 3-4-25-9-52-11-62-9-53-7-37-4-24-4-23z" fill="#2D7D78"/>
<path transform="translate(345,288)" d="m0 0h8v58l-9-1z" fill="#19A599"/>
<path transform="translate(1403,314)" d="m0 0 28 3 8 2v6l-4 10-2 1h-10l-22-4 1-6 2-2v6l14 1 3-3 2 5 7-2v-1h-2v-5l-15-1-1 5h-2v-8h-4v2h-2v-5h-2z" fill="#2B2F37"/>
<path transform="translate(660,565)" d="m0 0h6l1 1v50l-5 1-4-2v-48z" fill="#FB5454"/>
<path transform="translate(1505,592)" d="m0 0h33v13l-37 1 3-13z" fill="#19A599"/>
<path transform="translate(842,792)" d="m0 0 21 2-3 2-65 9-9 1h-11l1-2 10-3 15-4 1-1 22-3z" fill="#D2D3D3"/>
<path transform="translate(1719,738)" d="m0 0 7 1 4 5 1 4v16l-5 1-3-1v-19l-7 1-1 1-1 17-6 1-2-1v-24l1-1h8z" fill="#0E2625"/>
<path transform="translate(1327,318)" d="m0 0 3 1 1 8h4l1-6 3-3 7 1 2 2 2-2 6 1h4 2l4-2 5 1 2 3v6l-3 3-7-1h-2-6l-1-2-2 2h-3v-2l-5 3h-5l-2-2-1 1h-9l-1-1v-10z" fill="#E4E9E9"/>
<path transform="translate(1588,728)" d="m0 0h26l1 1v7h-10v28l-1 1-7-1v-28l-9-1z" fill="#151A1B"/>
<path transform="translate(346,484)" d="m0 0 7 6 3 4v6h4l3 9 2 2-2-7 1-6h2l2 5h3l2-3 5 2v2h2v2l4 1 1 5-5 1-2-4-3-1-1-2-2 3-1-1-1 5-3 3 7 6v6l-3 6h-3v3h-5l-1-9 2-5-1-10-5-6-1-5h-5l-4-10-2-6z" fill="#302E35"/>
<path transform="translate(1536,430)" d="m0 0h1l-1 9-2 9-2 6-3 10-3 9-12 42-7 25-11 40-11 39-6 21-1-4 19-70 9-32 9-34 19-68z" fill="#30323A"/>
<path transform="translate(893,191)" d="m0 0h5l4 5v16l-3 5-1 40h-4v-40l-2-4-3-1v-11l1-7z" fill="#D3D5D5"/>
<path transform="translate(876,199)" d="m0 0h6l2 3 1 61-1 16-3 3h-8l-3-4v-59l1-18zm-2 2-2 2v75l3 3 6-1 1-1v-77l-1-1z" fill="#D3D5D5"/>
<path transform="translate(444,296)" d="m0 0h9l1 5v16l-1 22h-8l-1-1z" fill="#FB5454"/>
<path transform="translate(643,537)" d="m0 0h9l1 2v17l-1 22-1 2h-7l-1-1z" fill="#FB5454"/>
<path transform="translate(696,514)" d="m0 0 5 1 1 3v39l-3 2-5-1-1-2v-40z" fill="#19A599"/>
<path transform="translate(1876,272)" d="m0 0h37l1 1v8h-41l-1-1v-7z" fill="#19A599"/>
<path transform="translate(98,478)" d="m0 0h5l1 1v35h-10v-35z" fill="#FB5454"/>
<path transform="translate(843,271)" d="m0 0h6l3 2 1 22v40l-5 5h-6l-4-5v-61zm-2 3-1 1v60l3 3 7-1 1-4-1-59z" fill="#D3D5D5"/>
<path transform="translate(893,781)" d="m0 0h2l-2 11-12 3-61 9-15 2-10-1v-1l81-11 12-3-1-3h-9l-27 3h-7v-1l46-7z" fill="#2F5B5C"/>
<path transform="translate(810,398)" d="m0 0 6 1 1 1 1 18v13l-4 4-5-1-1-2v-32z" fill="#19A599"/>
<path transform="translate(1310,545)" d="m0 0h1l-1 9-2 13v6l2-5 3 1-1 9 3-9 5-13 1 4-8 21-4 11-2 10-4 8-1-3 4-11v-2l-2-1-3 11-2 3 1-9 1-6-1-1 1-11h2l1-5 2-16z" fill="#455C5F"/>
<path transform="translate(80,543)" d="m0 0h7l1 1v35l-1 1h-7l-1-1v-35z" fill="#19A599"/>
<path transform="translate(335,445)" d="m0 0h15l29 2h10l10 1v1l-6 1h-12v2l-12 1h-24l-4 1h-8l-1-4 3-2z" fill="#1F232D"/>
<path transform="translate(826,331)" d="m0 0h7l1 1 1 13v52h-1l-1-42-1-22-6 1v84l4 1 2-1 2-3-1 5-6 1-4-3-1-23v-50l1-12z" fill="#D3D5D5"/>
<path transform="translate(522,598)" d="m0 0 3 1 2 16 4 2v7l1 6-2 10h-2l1 6h-3l-4-14v-4h-2l1-6-3-17v-3h4z" fill="#303036"/>
<path transform="translate(232,602)" d="m0 0h1l3 19 2 7 3 22 5 29 4 20 3 19 2 11v7l-2-4-4-21-4-20-6-34-6-33-3-16 1-3z" fill="#E6E3E3"/>
<path transform="translate(195,507)" d="m0 0h6l2 2 1 25-2 2h-9l-1-6v-20z" fill="#FB5454"/>
<path transform="translate(609,442)" d="m0 0h10v28l-1 1h-9z" fill="#FB5454"/>
<path transform="translate(295,770)" d="m0 0 7 1 22 7-4 3-2 1 1 3h-8l-21-6 3-7h2z" fill="#19A599"/>
<path transform="translate(1511,532)" d="m0 0 2 1-2 10-13 47-16 58-4 13-2-1 14-51 9-34z" fill="#353A42"/>
<path transform="translate(270,762)" d="m0 0 12 3 13 4v3l-2 2-3 5-8-1-9-4-3-2z" fill="#39484F"/>
<path transform="translate(262,375)" d="m0 0h7l1 13v16l-7 1-3-2 1-27z" fill="#19A599"/>
<path transform="translate(1415,341)" d="m0 0 1 3-4 11-6 21-5 17-6 18-2 3-2 13-4 12h-2v-5h-1l1-10 1-4h2l2-11 1-1-3-3h6l4-13 3-8 5-16 4-16 4-9z" fill="#2A4F53"/>
<path transform="translate(1573,290)" d="m0 0h1l-1 11-9 35-3 11-4 17-2 5-3 14-4 8-2 6h-1l1-9 20-72z" fill="#33363E"/>
<path transform="translate(502,826)" d="m0 0 21 1 4 2-1 8 3 1h-14l-14-3 3-1v-4h-2z" fill="#19A599"/>
<path transform="translate(586,544)" d="m0 0 2 4 1 10v3h-25l-17 1 2-2 11-2 1-3 4-1 4 1 3 3v-3l2-1v-2l8-1 1-3h2z" fill="#20242E"/>
<path transform="translate(733,801)" d="m0 0h6l-3 5-27 4-19 2h-5v-2l7-2-1-2z" fill="#D3D5D5"/>
<path transform="translate(1614,739)" d="m0 0h7v2l3-2h6v7l-7 2-1 2-1 14h-7z" fill="#111416"/>
<path transform="translate(483,526)" d="m0 0h2l10 26 5 14 6 27 6 14 1 7-3-2-6-18-3-7-5-21-9-25-5-12z" fill="#FA5454"/>
<path transform="translate(1473,410)" d="m0 0 1 3-2 7-2 13-5 13-6 2-3 8-4 16h-1v-7l4-15-1-4 4-14h2l-2 9v4l5-12 4-10 4-9z" fill="#3F5052"/>
<path transform="translate(1440,455)" d="m0 0h1v6l-1 5 1 1 3-9h2l-1 10 4-12h1l-1 8-4 15-6 3h-2l-1 5-2 8-5 13-1-3 4-14 3-7 1-16 3-12z" fill="#533D41"/>
<path transform="translate(1578,288)" d="m0 0h1l-1 12-12 46-11 40-3-1 4-17 11-38 9-34z" fill="#34444A"/>
<path transform="translate(403,652)" d="m0 0h2l2 8v5l5-2 2-3h4v3l2 1-2 5h-20l-2-1v2l-7 1-3-1v-2h-3l1-4 12 1v-4l8 1z" fill="#2A5A5B"/>
<path transform="translate(1551,383)" d="m0 0 1 4-6 21-9 34-2 6h-1l1-9 1-8-1-3 9-33h2l4-11z" fill="#26282E"/>
<path transform="translate(216,437)" d="m0 0h4v2h7l1 2 7-1v3h2l-1-4-3-1 9 1 1 1 3-1 18 1-2 6h-12l-22-2-7-2v-2l-7 1v-3z" fill="#1F232D"/>
<path transform="translate(166,524)" d="m0 0h3l1 55-2 2h-5l-2-2v-5h2v-2h3z" fill="#D3D5D5"/>
<path transform="translate(908,167)" d="m0 0h9v23l-1 1h-8l-1-23z" fill="#19A599"/>
<path transform="translate(1493,671)" d="m0 0h11l3 5h1l1-5 4 2v10h-4l-1-4h-2l-2 4h-12l-1-1v-9z" fill="#F4E1E1"/>
<path transform="translate(1540,728)" d="m0 0 6 1 4 5-1 6-3 4h-8l-4-4v-8l3-3z" fill="#0D1112"/>
<path transform="translate(1349,473)" d="m0 0h2l-2 5-1 3 5-4-2 6-8 20-4 8-6 13-4 13-3 9-1-4 7-22 5-10-1-5 6-14 2 1-1 4 1-1 2-5-3-1 3-10z" fill="#2B4E50"/>
<path transform="translate(575,785)" d="m0 0h21l1 4-5 6-14-3-15-4v-2z" fill="#C7BDBC"/>
<path transform="translate(1693,739)" d="m0 0h8v25h-8z" fill="#122"/>
<path transform="translate(513,626)" d="m0 0h2l2 12 1 4 3 9 4 1 2 12-14 1v-6l4-1-3-17v-9z" fill="#FB5454"/>
<path transform="translate(1339,613)" d="m0 0 1 3-8 42-6 22-2 4h-1v-8l11-45 4-16z" fill="#20242E"/>
<path transform="translate(264,440)" d="m0 0 29 2v1h-9l-1 5-2-2-1-3-9-1v3l9 1-1 4-10 1-8-3-30-2-3-2h12l10 1h12z" fill="#17191F"/>
<path transform="translate(562,605)" d="m0 0 4 2 6-2 14 2h2 4l1 4-1 1h-10l-1 1h-6l-5 2-5-1-2-1-1-5-4 1v-3z" fill="#333D44"/>
<path transform="translate(199,424)" d="m0 0h3l3 19 4 21 1 11-3 1-2-10v-5h-2l-5-29v-7z" fill="#BFD5D3"/>
<path transform="translate(571,498)" d="m0 0 5 2 3 11v5h-15l-9-1-2-1v-2l7-1 1 3h2v-3l7 1 4-2 1-3-2-1 1-2h-13v-5z" fill="#34373F"/>
<path transform="translate(563,594)" d="m0 0h28v5l-3 2h-23l-2-1z" fill="#33363E"/>
<path transform="translate(1403,321)" d="m0 0 1 2h2v-2h4v8h2v-5l3-1 8 1 5 1v5h2l1-3 1 3-3 3h-6l-3-4-2 3-14-2-2-4z" fill="#2C3A41"/>
<path transform="translate(893,193)" d="m0 0 5 1 2 2v16l-3 4-5-2-2-3 1-16z" fill="#19A599"/>
<path transform="translate(282,369)" d="m0 0 5 1v19l-3 2-5-1-1-2v-18z" fill="#19A599"/>
<path transform="translate(1799,739)" d="m0 0h8l-1 25-6 1-1-1z" fill="#111617"/>
<path transform="translate(301,583)" d="m0 0h4 4v3h-4l4 12h-4l-1 7-3 3-3-1-1-2-3-1 2 8-4-2-1-5 2-2h4l1-2v3h3l-3-14v-5h3z" fill="#3E3F44"/>
<path transform="translate(1358,769)" d="m0 0 5 1 4 3v9l-2 4h-6l-5-5v-6z" fill="#5A7B79"/>
<path transform="translate(629,485)" d="m0 0 5 1v21l-1 1-7-1v-21z" fill="#FB5454"/>
<path transform="translate(1541,455)" d="m0 0h2l-3 14-5 18-7 25-1-4 1-13 2-5 3-15 3-9 2-3 2-7z" fill="#2D383E"/>
<path transform="translate(208,475)" d="m0 0h2l3 14 7 40v9l-3-4-4-23-5-29z" fill="#E6E8E8"/>
<path transform="translate(482,529)" d="m0 0 3 4 1 7v8l-3 6h-3l-3-6-3-14 2-1 6 1z" fill="#3C4149"/>
<path transform="translate(438,437)" d="m0 0h12l34 2 25 2-3 1v2l4 1-12-1-39-3-21-3z" fill="#182022"/>
<path transform="translate(1528,671)" d="m0 0h19l1 2h-3v8l-1 2h-3l-1-10-2 1v9h-5l-1-2-4 2-1-5z" fill="#F5EFEF"/>
<path transform="translate(1415,433)" d="m0 0 2 1-2 10-5 10-5 12-2-4h-2l-1 7-2 1 2-11 2-12 2 1v4l4-11h2v7l3-6z" fill="#BE5B5C"/>
<path transform="translate(312,369)" d="m0 0h7v21h-8v-20z" fill="#FB5454"/>
<path transform="translate(409,361)" d="m0 0 4 1h-3l1 70 9 1v1h-10l-3-2v-23l1-29v-17z" fill="#D3D5D5"/>
<path transform="translate(395,369)" d="m0 0h6l1 1v20h-8v-20z" fill="#19A599"/>
<path transform="translate(328,345)" d="m0 0 2 1-2 2-1 62h8l1-1 1-60h1v62l-2 2h-8l-3-3 1-63z" fill="#D3D5D5"/>
<path transform="translate(1284,736)" d="m0 0 1 3h2v-2l5 1v3h2l-1 4-4 9-5-1-3-2v-7l2-7z" fill="#25615F"/>
<path transform="translate(316,578)" d="m0 0 2 1 1 7-5 1-2 6v8l-5 4h-3v-7l4-1-3-7v-4h5l1-4 5-1z" fill="#111518"/>
<path transform="translate(1455,382)" d="m0 0 1 4-4 20-3 12 12 1 8 1-1 3-20-4-2 13-3 12-3 4 1-7 9-39 2-13z" fill="#674146"/>
<path transform="translate(476,649)" d="m0 0h2l3 13 4 1 1-2h5l3-3h2l1 7-9 2h-6v4h-2v-4h-9l1-5 3-1v2l3-1-1-8z" fill="#2E585A"/>
<path transform="translate(1416,364)" d="m0 0 1 2-5 18-3 21-1 4 5-4-2 7-1 5-1 3-2 1-3 8-2 1 2-13 1-4 2-2-1-3 2-13 1-12 6-18z" fill="#854F53"/>
<path transform="translate(1533,448)" d="m0 0 1 4-13 47-6 21h-2l1-8 12-43 2-5 4-15z" fill="#0A090A"/>
<path transform="translate(1325,625)" d="m0 0h1l-1 9-7 33-4 13-3 1 1-8 6-24 6-21z" fill="#20242E"/>
<path transform="translate(236,447)" d="m0 0 20 1 2 1v3h-11l2 3v4h-7l-4-6v-3l-5-1z" fill="#3B4048"/>
<path transform="translate(786,805)" d="m0 0h13l-1 2-52 7h-12l3-2 27-4 19-2z" fill="#2A5254"/>
<path transform="translate(373,505)" d="m0 0 5 4 5 6 1 6-4 1-4-4-4 3-6-5 2-3h2v-6l2 1z" fill="#323A41"/>
<path transform="translate(295,451)" d="m0 0 32 2 14 2v2h-23l-23-2z" fill="#393E46"/>
<path transform="translate(675,820)" d="m0 0 4 1-2 2-26 4-22 3h-7v-1l6-1-2-2z" fill="#2C4045"/>
<path transform="translate(556,517)" d="m0 0h6l1 3 1-3h5v2l2-2h8l2 9-3 1h-12v-3h7l5-1v-2l-9 1h-14z" fill="#33353D"/>
<path transform="translate(400,650)" d="m0 0 4 1h-2v4h2v7l-8-1v4h-14l-1 2v-4l7-2 5-4 2-3h2v-2z" fill="#0A090A"/>
<path transform="translate(1323,469)" d="m0 0 1 3h3l-3 12-2 3-1-4-3 9-6 21-4 12h-2l2-10 9-29 3-10z" fill="#315154"/>
<path transform="translate(794,419)" d="m0 0h7l1 2v10l-2 3-7-1-2-3v-8z" fill="#19A599"/>
<path transform="translate(1553,384)" d="m0 0h1l-1 9-12 44-3-1 4-16 8-30z" fill="#33454B"/>
<path transform="translate(1369,667)" d="m0 0 1 4 1 6-7 25-3-1v-7l4-19h2l-1-3 1-3h2z" fill="#20242E"/>
<path transform="translate(1548,421)" d="m0 0 2 2v6l-1 1-1 9-4 14-4 5-2 7h-1l1-9 7-26 2-3z" fill="#222932"/>
<path transform="translate(1511,391)" d="m0 0 13 1 4 1v5l-2 3-10-1-5-2z" fill="#355458"/>
<path transform="translate(783,365)" d="m0 0h1v22l-1 3h-7l-1-6z" fill="#FA5555"/>
<path transform="translate(1366,318)" d="m0 0 5 1 2 3v6l-3 3-7-1h-3v-7l3-4z" fill="#E1E7E7"/>
<path transform="translate(1641,745)" d="m0 0 7 1 3 3-1 7-3 2h-6l-3-5 1-5z" fill="#F1F2F2"/>
<path transform="translate(1672,745)" d="m0 0 7 1 2 2v7l-3 3h-7l-2-3v-7z" fill="#F3F2F2"/>
<path transform="translate(1321,315)" d="m0 0 3 3-3 5-5 4-6 8-4-2 1-5 6-7 5-5z" fill="#F4F5F5"/>
<path transform="translate(272,569)" d="m0 0h3l4 14 4 9 4 13v2h-4l-4-15-3-5-4-16z" fill="#FB5454"/>
<path transform="translate(371,799)" d="m0 0 16 2 17 3 3 2 6 2 4 4-19-4-21-6-6-2z" fill="#EAEFEE"/>
<path transform="translate(275,775)" d="m0 0 10 3 11 2 21 6 7 1-3 1v2l-9-2-27-7-10-4z" fill="#182426"/>
<path transform="translate(246,699)" d="m0 0 2 4 4 17 2 16h2l2 10 2 12-2-2-4-16-2 3-4-25-3-17z" fill="#273C41"/>
<path transform="translate(1435,642)" d="m0 0h1v5h4l1-3 7 1 10 3-1 7-8-2-12-4-3-2z" fill="#303E44"/>
<path transform="translate(598,742)" d="m0 0h9v3l-7 2-4 4h-2l-1 2-6-5-9-3v-1z" fill="#1F3032"/>
<path transform="translate(1321,752)" d="m0 0h5l2 3v9l-4 5-5-1 1-9-2 1 1-5z" fill="#4C5D5D"/>
<path transform="translate(1516,671)" d="m0 0h7l3 3v6l-3 3h-7l-2-3v-7z" fill="#F5E2E2"/>
<path transform="translate(305,657)" d="m0 0 3 2 1 9-1 4h-20l-3-1 1-3h9l2 1v-3l5-1 4-1z" fill="#2E464B"/>
<path transform="translate(453,511)" d="m0 0 5 3 6 16 8 16 1 3-4-1-6-9-7-22-1-3h-2z" fill="#F55656"/>
<path transform="translate(1493,597)" d="m0 0h2l-1 8-12 43-4 13-2-1 14-51z" fill="#373C43"/>
<path transform="translate(1745,745)" d="m0 0h6l3 3v6l-3 3h-7l-2-3v-6z" fill="#F5F5F5"/>
<path transform="translate(580,532)" d="m0 0h3l2 3-1 4-5 2h-19l-1-5h7l2 3v-3h9l3-1z" fill="#33363E"/>
<path transform="translate(1405,319)" d="m0 0h10l21 3-2 5-3-2h-8l-10-1-1 5h-2v-8h-4v2h-2z" fill="#0A090A"/>
<path transform="translate(1396,300)" d="m0 0h7l7 2h2 3l-1 6-4 1-3-1v-3l-2 3-10-1-1-3z" fill="#22252C"/>
<path transform="translate(2033,237)" d="m0 0h15v8h-14l-1-1z" fill="#19A599"/>
<path transform="translate(1444,289)" d="m0 0h9l3 3-4 8h-10l-1-4 3-4h2v-2z" fill="#353238"/>
<path transform="translate(31,747)" d="m0 0h6l1 1v13l-1 1h-7v-14z" fill="#19A599"/>
<path transform="translate(1458,558)" d="m0 0h1v5l4-1 1-3 9 2 1 1 7 1-1 6-2 1-10-3-1-4-3 2-6-1-1-5z" fill="#2E5054"/>
<path transform="translate(1467,425)" d="m0 0 1 3-8 19-3 5-5 20h-1v-7l4-15-1-4 4-14h2l-2 9v4l5-12z" fill="#85AFAA"/>
<path transform="translate(1403,324)" d="m0 0h1v6l14 1 3-3 2 5 8-2 1 5h-9l-22-4 1-6z" fill="#0A090A"/>
<path transform="translate(1570,349)" d="m0 0h2l-1 7-8 30-2-4 1-10 3-10z" fill="#283B40"/>
<path transform="translate(1521,349)" d="m0 0h2v5h2l1-5 5 1h2 3l1 4 3-3-1 7h-8l-10-2-1-4z" fill="#326364"/>
<path transform="translate(510,654)" d="m0 0h2l1 5v7h-4l-1 4-1-2-9-1-3 4-2-2v-3l4-1-1-3 1-1h5v2l4-1h4z" fill="#2C6162"/>
<path transform="translate(436,502)" d="m0 0 5 1 6 7 2 4 2 10 2 5h-2v-2l-4-1-2-5-2-9-4-5-2-1z" fill="#F95A5A"/>
<path transform="translate(1398,789)" d="m0 0 7 2 3 1-1 6-2 5-5-1-4-2 1-8h2z" fill="#668583"/>
<path transform="translate(1538,592)" d="m0 0h1v14l-1 1-36 2-2 4-1-2 2-5 1-1h36z" fill="#CCD3D2"/>
<path transform="translate(411,434)" d="m0 0h10l31 2 7 1v1h-13l9 1v1h-10l-12-2-23-1-2-2z" fill="#304244"/>
<path transform="translate(1573,290)" d="m0 0h1l-1 11-9 35-3 11-1-4 1-9 10-36z" fill="#2E3039"/>
<path transform="translate(428,641)" d="m0 0h2l6 26-1 1h-7z" fill="#FB5454"/>
<path transform="translate(246,439)" d="m0 0 18 1-2 6h-12l-4-2-1-4z" fill="#272B34"/>
<path transform="translate(1431,305)" d="m0 0h7l5 1v5h3v-5h2l-1 7-4 1-12-2z" fill="#252932"/>
<path transform="translate(347,532)" d="m0 0 3 2 2 7 8 14 1 10-3-1-3-9-1-5-1-3h-2l-5-9v-5z" fill="#FB5454"/>
<path transform="translate(1471,669)" d="m0 0 4 1 9 11v4l-6-1-3-3-4-7-1-4z" fill="#F8F7F7"/>
<path transform="translate(1504,425)" d="m0 0h2v2l4 1-3-3h9l7 2-1 3-4-1-1 6-4-1-2 1-4-4z" fill="#C8D7D6"/>
<path transform="translate(489,614)" d="m0 0 3 1-2 3 5 1-2 4h-2v2h-2l-2 7-3 1-1 2-3-5 4-2 2-7-1-2 2-4z" fill="#312F35"/>
<path transform="translate(1350,319)" d="m0 0 6 1h4v10h-5l-1-2-2 2h-3z" fill="#F4F4F4"/>
<path transform="translate(1584,290)" d="m0 0 2 2v8l-7 28-2 3-1-8 4-8 1-8z" fill="#292E35"/>
<path transform="translate(515,621)" d="m0 0h2l4 17 3 13-3 1-2-2-3-10-1-18z" fill="#34343A"/>
<path transform="translate(230,451)" d="m0 0h6l1 4h3l2 5h7l-1 4h-6l-3-2v-2h-7l-2-2h3v-5h-3z" fill="#20232B"/>
<path transform="translate(332,668)" d="m0 0 4 1v2l5-1h12l2-1v2l3 1-7 2-8 1h-3l-14-1-1-3h6z" fill="#0C0B0D"/>
<path transform="translate(548,462)" d="m0 0 3 1 1-1h15l1 5h-26l-1-2 2-2h4z" fill="#32353D"/>
<path transform="translate(1491,434)" d="m0 0h7v2l10 2-2 2-3-1v2h-2v-2l-3 2v3h-7l-1-7z" fill="#CDD3D3"/>
<path transform="translate(732,812)" d="m0 0h5l1 3-21 3-18-1v-1z" fill="#266665"/>
<path transform="translate(585,624)" d="m0 0 7 2 2 2v3h-17l-1-3 3-3z" fill="#32363E"/>
<path transform="translate(582,476)" d="m0 0 2 1 4 20-4-1-1 4-1-5-1-1-1-14z" fill="#0F1718"/>
<path transform="translate(222,446)" d="m0 0 14 1-2 2 4 1 1 5h-2l-1-3-6-1v2h3l-1 4-7-1v-4h3v-2h-5z" fill="#32343C"/>
<path transform="translate(1511,515)" d="m0 0 2 2-2 9-10 36-2 1 1-7 8-30z" fill="#32343C"/>
<path transform="translate(1481,518)" d="m0 0 11 2 1 1-1 7-13-3 1-6z" fill="#387574"/>
<path transform="translate(1301,329)" d="m0 0 6 4v3l62 1v1l-58 1-2 1-7-6z" fill="#31343C"/>
<path transform="translate(298,585)" d="m0 0 2 1 4 16v3l-3 3-3-1-1-2-3-1 2 8-4-2-1-5 2-2h4l1-2v3h3l-3-14z" fill="#376D6D"/>
<path transform="translate(1372,311)" d="m0 0h9l5 2-1 8-4-1-1 9h-1l-1-11-4-5z" fill="#232630"/>
<path transform="translate(884,783)" d="m0 0 6 1 1 4-1 3-2-1-1-3h-9l-27 3h-7v-1z" fill="#19A599"/>
<path transform="translate(232,602)" d="m0 0h1l3 19 2 7v6h-2l-1 2-5-28 1-3z" fill="#DAE2E1"/>
<path transform="translate(317,444)" d="m0 0h12l6 1v3l2 1-9 1-2-1-4 1-5-2z" fill="#2B373E"/>
<path transform="translate(576,573)" d="m0 0h17l1 5h-16l-2-1z" fill="#313239"/>
<path transform="translate(390,486)" d="m0 0 4 2 5 10 3 15v4h-2l-3-10-3-12-4-7z" fill="#FB5454"/>
<path transform="translate(824,800)" d="m0 0h8l2 2-29 4-10-1v-1z" fill="#2A5B5C"/>
<path transform="translate(406,660)" d="m0 0h1v5l5-2 2-3h4v3l2 1-2 5h-15l4-1-1-2z" fill="#3C464B"/>
<path transform="translate(1362,278)" d="m0 0h4l-2 4-1 4 2-1 1-3h4 2l1 3 1-3 3 1v4h-2v2l-5-1-10-1 1-6z" fill="#3C4D53"/>
<path transform="translate(428,653)" d="m0 0h1v12l-1 3h-9v-5h4v-9l4 5z" fill="#30454A"/>
<path transform="translate(1431,320)" d="m0 0h7v7l-3 8-3 1-1-8-1 2h-2v-5l-2-1h5l3 2 1-4z" fill="#373C45"/>
<path transform="translate(318,551)" d="m0 0h2v2h2l-1 5-3 8 2 11 2 8h-3l-4-15 1-7 2-5 1-4z" fill="#1FA69B"/>
<path transform="translate(227,444)" d="m0 0 16 2 18 1 8 3v3h-6l-4-3-3-1-29-2-4-2z" fill="#20242E"/>
<path transform="translate(1578,288)" d="m0 0h1l-1 12-7 27-3 1 2-10z" fill="#333840"/>
<path transform="translate(434,752)" d="m0 0 13 1 2 2-4 2-17 1-1-2 2-3z" fill="#C8BEBD"/>
<path transform="translate(1252,723)" d="m0 0 4 4-1 7-3 1-5-2v-7l5-1z" fill="#404547"/>
<path transform="translate(1320,556)" d="m0 0 1 4-8 21-1 2h-2l-1 2v-16h4l-1 9 3-9z" fill="#4B6566"/>
<path transform="translate(1564,336)" d="m0 0 1 4-12 43h-1l1-9 2-9 2-7 4-13 2-8z" fill="#0A090A"/>
<path transform="translate(1452,602)" d="m0 0 2 3v2l5 1-2-5 12 2v6l-4 1-9-3-5-2z" fill="#376D6D"/>
<path transform="translate(1349,473)" d="m0 0h2l-2 5-1 3 5-4-2 6-6 15-1-3 2-5-3-1 3-10z" fill="#567A77"/>
<path transform="translate(1554,408)" d="m0 0h2l-2 10-4 15-2-4h2l-1-7 1-11z" fill="#344348"/>
<path transform="translate(1531,302)" d="m0 0h2v4l4-1 1 3v-4h2v4h3v-5h2l2 4h4v2h-7v2l-12-2-1-1z" fill="#2E5457"/>
<path transform="translate(272,759)" d="m0 0h17l-3 2h-2l1 3-1 1-10-1-4-2v-2z" fill="#EBEEEE"/>
<path transform="translate(571,498)" d="m0 0 5 2-1 5-14-1v-5z" fill="#33363E"/>
<path transform="translate(1449,456)" d="m0 0h1l-1 8-4 13h-1l-1-5-3 2 1-7 3-9h2l-1 10z" fill="#749B99"/>
<path transform="translate(514,613)" d="m0 0 3 1 3 9 4 19v5l-2-2-4-14z" fill="#FB5454"/>
<path transform="translate(601,822)" d="m0 0 23 1v3l-16 2-4-4z" fill="#FB5454"/>
<path transform="translate(431,499)" d="m0 0h2l4 7v14l-1 5 1 4-3-1-1-7 1-1-1-12z" fill="#21A79B"/>
<path transform="translate(346,484)" d="m0 0 7 6 3 4 1 7-5 1-4-10-2-6z" fill="#312F35"/>
<path transform="translate(1419,442)" d="m0 0 1 3-5 11v4l-3 3-6 17-3 4 1-7 6-16 7-15z" fill="#807773"/>
<path transform="translate(893,781)" d="m0 0h2l-2 11-12 3h-9l4-2 14-3v-5l-3-1 3-2z" fill="#264246"/>
<path transform="translate(556,517)" d="m0 0h6l1 3 1-3h5v2h5v2l-5 1h-14z" fill="#363941"/>
<path transform="translate(416,516)" d="m0 0 5 5 4 9 2 3-1 5-3 2-1-1-2-12-3-8z" fill="#FB5454"/>
<path transform="translate(523,827)" d="m0 0h7l4 2-1 6v3l-7-1v-8z" fill="#CAB5B4"/>
<path transform="translate(516,602)" d="m0 0 1 3h2l3 17v5l-3-4-3-9-2-3z" fill="#242831"/>
<path transform="translate(1480,473)" d="m0 0h2v6l5 1 1-5 6 1-1 7-9-1-4-3z" fill="#3E585C"/>
<path transform="translate(270,762)" d="m0 0 10 3-1 3-5 3 2 4-5-2-1-1z" fill="#333B41"/>
<path transform="translate(1800,726)" d="m0 0h6l1 1v7l-2 1h-6v-8z" fill="#152122"/>
<path transform="translate(1551,383)" d="m0 0 1 4-6 21-3 11-1-4 4-20 4-11z" fill="#111013"/>
<path transform="translate(1238,736)" d="m0 0 3 1v2l5 1 6 2 7 5v2l-5-1-16-8z" fill="#71AEA8"/>
<path transform="translate(1695,726)" d="m0 0 6 1v7l-1 1h-7v-8z" fill="#121C1D"/>
<path transform="translate(1435,687)" d="m0 0 5 2 5 1v7l-5-1-9-4 2-1 3 1z" fill="#2E4D51"/>
<path transform="translate(312,664)" d="m0 0 5 1 3 3v2l3 1-3 1h-3l-10-1 1-3h4z" fill="#3D4248"/>
<path transform="translate(396,663)" d="m0 0h1l-1 7-7 1-3-1v-2h-3l1-4 12 1z" fill="#2A484C"/>
<path transform="translate(1503,565)" d="m0 0 1 4-8 28h-2l1-7 7-24z" fill="#363B43"/>
<path transform="translate(1310,545)" d="m0 0h1l-1 9-3 21-2 5-1 6-2-4 3-13 1-10z" fill="#B14A4D"/>
<path transform="translate(374,507)" d="m0 0 4 2 5 6 1 6-4 1-3-4-3-9z" fill="#F46363"/>
<path transform="translate(444,636)" d="m0 0h2l6 27 2 2h-2v2l-3-1-4-22z" fill="#FB5454"/>
<path transform="translate(1539,435)" d="m0 0h1l-1 9-4 14-3 3 1-9 5-16z" fill="#334C50"/>
<path transform="translate(339,667)" d="m0 0h4v2l9-2h5l1 3-5 1h-13l-4 1-1-3z" fill="#324C51"/>
<path transform="translate(1301,580)" d="m0 0 2 2 1 9 1-4h2l-1 6h-2l-3 11-2 3 1-9 1-6-1-1z" fill="#565D5F"/>
<path transform="translate(481,529)" d="m0 0h1v5h-7l3 14-5 1v-2h2l-3-11v-4h7v-2z" fill="#1CA398"/>
<path transform="translate(163,573)" d="m0 0h6l1 1v5l-2 2h-5l-2-2v-5z" fill="#19A599"/>
<path transform="translate(1403,321)" d="m0 0 1 2h2v-2h4v8l4 1-4 1-6-1-2-4z" fill="#2A2E37"/>
<path transform="translate(1506,587)" d="m0 0 1 3 10-1 21 2v1h-33z" fill="#CCD2D2"/>
<path transform="translate(579,749)" d="m0 0h2v2l-4 4 11 1-2 2-12 2 1-2h3v-2l-10-2-1-2h8z" fill="#353F46"/>
<path transform="translate(434,658)" d="m0 0 3 3v3l3-1h7l1 4h-7l-4 1-2-1z" fill="#4A5C5E"/>
<path transform="translate(1369,471)" d="m0 0 1 3-4 13-4 10-2-4-2 1 2-8h2l1 2 3-10z" fill="#3A7270"/>
<path transform="translate(521,457)" d="m0 0 8 1 1 1v5h-9l-2-5z" fill="#19A599"/>
<path transform="translate(748,810)" d="m0 0h13v2l-15 2h-12l3-2z" fill="#254B4D"/>
<path transform="translate(292,592)" d="m0 0 4 2 1 9-5 2h-4l1-5h4l-1-1z" fill="#F75353"/>
<path transform="translate(1327,318)" d="m0 0 3 1 1 9h5v2h-9l-1-1v-10z" fill="#EFEFEF"/>
<path transform="translate(618,827)" d="m0 0h16v1l-12 2-1 1h-13l2-1v-2z" fill="#192023"/>
<path transform="translate(249,699)" d="m0 0h1l3 19 2 11v7l-2-4-4-21-1-7z" fill="#93BCB7"/>
<path transform="translate(562,605)" d="m0 0 6 3v3l7 1-3 3h-4l-5-2-1-5-4 1v-3z" fill="#313339"/>
<path transform="translate(227,583)" d="m0 0h2l3 13v11l-2-2-3-16z" fill="#E1E9E8"/>
<path transform="translate(179,537)" d="m0 0h8l1 1v5l-2 1h-6l-1-1z" fill="#FB5454"/>
<path transform="translate(1353,495)" d="m0 0 2 1v8l-4 13-2 3 1-10 1-1v-7z" fill="#59585B"/>
<path transform="translate(1262,697)" d="m0 0 4 1 1 7h3l-1 3-6-1-3-2 1-7z" fill="#657676"/>
<path transform="translate(1386,420)" d="m0 0 3 2v11l-2 6h-2v-5h-1l1-10z" fill="#4F4346"/>
<path transform="translate(1420,731)" d="m0 0 5 2v6l-1 2-5-1-1-1 1-7z" fill="#294144"/>
<path transform="translate(1484,630)" d="m0 0 2 4-7 25-1 2-2-1z" fill="#343840"/>
<path transform="translate(387,486)" d="m0 0 3 1v10l2 8v5h-3l-2-12z" fill="#19A599"/>
<path transform="translate(1408,441)" d="m0 0h2v10l-5 9h-2l1-8z" fill="#61494B"/>
<path transform="translate(602,828)" d="m0 0 8 1 4 3-14 1v-2l-6 1h-8v-1l7-1 2-1h6z" fill="#31373B"/>
<path transform="translate(1284,736)" d="m0 0 1 3h2v-2l5 1 1 5-5 2-5-3v-5z" fill="#FB5454"/>
<path transform="translate(266,667)" d="m0 0 10 2 2 1 6 1 1 2h-16v-2h-2z" fill="#344248"/>
<path transform="translate(476,649)" d="m0 0h2l3 13-1 4h-9l1-4 3-1v2l3-1-1-8z" fill="#FB5454"/>
<path transform="translate(225,561)" d="m0 0h1l3 22h-3l-3-15 1-3z" fill="#DFE1E0"/>
<path transform="translate(554,561)" d="m0 0h7l-1 5h-9l-4-2 1-2z" fill="#373B43"/>
<path transform="translate(1305,525)" d="m0 0 1 4-6 16-4 9-2-1 6-16z" fill="#84948F"/>
<path transform="translate(795,417)" d="m0 0h5l1 2-9 1v10l1 2 7 1 2-2-1 4-6 1-5-3v-12l2-3z" fill="#D3D5D5"/>
<path transform="translate(1412,405)" d="m0 0 1 2-3 7v6l-3 1-3 8-2 1 2-10h2l1-5z" fill="#B98B8B"/>
<path transform="translate(1557,365)" d="m0 0 3 1-4 17-2 3-2-1 4-17z" fill="#343841"/>
<path transform="translate(1390,806)" d="m0 0 4 1 10 5 1 4h-3l-1-2-5-1-6-2z" fill="#6FABA7"/>
<path transform="translate(1828,753)" d="m0 0h8l-3 1v2l-6 2h-7l-2-4z" fill="#EAE9E8"/>
<path transform="translate(521,571)" d="m0 0h2l3 12 4 17h-3l-4-18z" fill="#19A599"/>
<path transform="translate(1358,463)" d="m0 0 1 2-3 9h2l-1 10-2 6h-2l2-12 1-2-3 1 3-11z" fill="#96585A"/>
<path transform="translate(1445,452)" d="m0 0h6v6l-2 1-4 10-1-2 1-10z" fill="#2D4F52"/>
<path transform="translate(305,657)" d="m0 0 3 2 1 9-2 3-4-1-1-5 4-1z" fill="#794E52"/>
<path transform="translate(522,628)" d="m0 0 3 1 4 16-3 1-4-14z" fill="#19A599"/>
<path transform="translate(1472,562)" d="m0 0 9 1-1 6-2 1-7-2z" fill="#297270"/>
<path transform="translate(375,504)" d="m0 0 9 3 1 5-5 1-2-4-3-1-1-3z" fill="#212730"/>
<path transform="translate(1533,489)" d="m0 0 1 2-6 21-1-4 1-13 3-5z" fill="#244147"/>
<path transform="translate(1323,469)" d="m0 0 1 3h3l-3 12-2 3-2-6z" fill="#83383B"/>
<path transform="translate(294,369)" d="m0 0h9v6h-8l-1-1z" fill="#FB5454"/>
<path transform="translate(1411,286)" d="m0 0h2v5l4-3 2 6h-11l-2-1 1-5 3 1z" fill="#317C79"/>
<path transform="translate(260,551)" d="m0 0h3v3l4 2h-5l-2 5h-3l-1-6z" fill="#0D0C0E"/>
<path transform="translate(452,513)" d="m0 0 2 1 2 9-1 7h-2l-2-8v-8z" fill="#1CA59A"/>
<path transform="translate(1553,384)" d="m0 0h1l-1 9-3 11h-2v-7l4-12z" fill="#314C51"/>
<path transform="translate(1573,290)" d="m0 0h1l-1 11-5 20-2-2 2-9z" fill="#2C2D34"/>
<path transform="translate(1402,447)" d="m0 0 2 1v8l-1 4h2l-1 2h-3l-1 7-2 1 2-11z" fill="#7F7173"/>
<path transform="translate(567,561)" d="m0 0 11 1 1 4h-12l-1-4z" fill="#34373F"/>
<path transform="translate(325,543)" d="m0 0h3l2 5-2 2v9l-3-1-1-3v-7h2z" fill="#248781"/>
<path transform="translate(471,534)" d="m0 0 2 2 2 7v4l-4-1-2-4v-7z" fill="#32353D"/>
<path transform="translate(567,471)" d="m0 0 2 2 1 5-5 1v2h-6l-2-4 10-1z" fill="#373B43"/>
<path transform="translate(1526,465)" d="m0 0 1 4-5 18-2 1 1-9 4-13z" fill="#373B43"/>
<path transform="translate(1405,301)" d="m0 0 5 1h2 3l-1 6-4 1-3-1v-3l-2 1z" fill="#2A494E"/>
<path transform="translate(1276,753)" d="m0 0h3v2h2v2l5 2 3 1-1 3-12-4z" fill="#247975"/>
<path transform="translate(346,538)" d="m0 0 2 1 3 6v2h2l3 4-1 3-3-4-5-1-1-2z" fill="#256765"/>
<path transform="translate(1473,410)" d="m0 0 1 3-2 7-1 9-4 1-1-6 3-4z" fill="#A6595A"/>
<path transform="translate(1393,410)" d="m0 0 1 2-1 2-2 13-2 3-1-7-1-3z" fill="#307875"/>
<path transform="translate(1392,751)" d="m0 0 2 1-4 6h2l3 5-1 3-3-5-6 1v-3h2l2-5z" fill="#5DA9A3"/>
<path transform="translate(1395,749)" d="m0 0 4 1-1 5-4 3h-4l2-5z" fill="#2B5759"/>
<path transform="translate(457,646)" d="m0 0 3 1v14h2v2l3-1v2l-3 1 1 2h-6v-3h2l-1-13z" fill="#8D5255"/>
<path transform="translate(310,596)" d="m0 0 2 2-1 4-4 3h-3v-7z" fill="#0D0D0E"/>
<path transform="translate(535,492)" d="m0 0h10l1 5h-10z" fill="#353941"/>
<path transform="translate(246,699)" d="m0 0 2 4 4 17-1 3-2-1-4-21z" fill="#374C4E"/>
<path transform="translate(526,468)" d="m0 0h10l4 1v3h-13z" fill="#3D434B"/>
<path transform="translate(241,453)" d="m0 0h6l2 2v4h-7l-2-2z" fill="#19A599"/>
<path transform="translate(1426,325)" d="m0 0h2v5h2l1-3 1 3-3 3h-6l-1-5h3z" fill="#344A4F"/>
<path transform="translate(1419,304)" d="m0 0 3 1v2h2l1-3h3l-1 7-6-1h-4l1-5z" fill="#2D4349"/>
<path transform="translate(1548,276)" d="m0 0h8l-1 6h-6l-2-1z" fill="#ECE6E6"/>
<path transform="translate(867,794)" d="m0 0 8 1v1l-13 2h-10l1-2z" fill="#2A5759"/>
<path transform="translate(1398,789)" d="m0 0 7 2 3 1-1 6-1-2-5-1-3-3z" fill="#595F61"/>
<path transform="translate(1274,675)" d="m0 0 5 2 3 3v2h2l-1-5 4 2v6l-5-1-3-4h-3z" fill="#598A89"/>
<path transform="translate(494,658)" d="m0 0h2l1 7-2 1h-7l1-4z" fill="#FB5454"/>
<path transform="translate(1419,461)" d="m0 0 1 2-3 10-5 1 3-9 3-1z" fill="#F65353"/>
<path transform="translate(496,441)" d="m0 0h13l-3 1v2l4 1-12-1-11-1v-1z" fill="#1F292D"/>
<path transform="translate(1308,717)" d="m0 0 3 1v2l6 1 1 3-2 4-2-1v-3l-4 1v-4h-2z" fill="#6E9190"/>
<path transform="translate(1509,671)" d="m0 0 4 2v10h-4z" fill="#F0EEEE"/>
<path transform="translate(379,662)" d="m0 0h2v7l-4 1-3-2v-5z" fill="#FB5454"/>
<path transform="translate(464,660)" d="m0 0 5 1 1 5h-2l-1 2-5-2-1-2h4l-3-1v-2z" fill="#374249"/>
<path transform="translate(524,591)" d="m0 0 2 2 1 6-5-1v4l-5-1 2-4 4-3z" fill="#2C2C33"/>
<path transform="translate(1497,478)" d="m0 0h7l-1 7h-5l-1-5z" fill="#437978"/>
<path transform="translate(1416,473)" d="m0 0h1v9h-4v5l-2-4 1-9z" fill="#323137"/>
<path transform="translate(1431,305)" d="m0 0h7l-1 7h-6z" fill="#2D323B"/>
<path transform="translate(1313,771)" d="m0 0 4 1v2l8 2 1 4-6-2-8-4z" fill="#80AEA9"/>
<path transform="translate(1369,713)" d="m0 0 6 1 1 3-3 4-6-2z" fill="#4B7777"/>
<path transform="translate(1263,643)" d="m0 0 5 1v3l-1 3h2l1-4h2l-1 5-4 1-4-6z" fill="#DFE0DF"/>
<path transform="translate(284,443)" d="m0 0h9l5 1-1 3h-8l-5-1z" fill="#393D45"/>
<path transform="translate(246,682)" d="m0 0h1l2 13v9l-2-1-2-12z" fill="#DFE4E3"/>
<path transform="translate(581,633)" d="m0 0h9l-1 5h-7z" fill="#31343C"/>
<path transform="translate(316,573)" d="m0 0h1l-1 8-5 2-2 3v-3l-3-1h3v-3l3-3h3z" fill="#313C42"/>
<path transform="translate(1533,459)" d="m0 0 1 3-4 14-3 1 2-10 2-7z" fill="#35454B"/>
<path transform="translate(1374,297)" d="m0 0h3l1 4 1-4 3 1v5l-1 1-7-1z" fill="#2D4148"/>
<path transform="translate(1435,642)" d="m0 0h1v5h4l1-3 5 1 2 4-3 1v-3l-3 2-3 1-5-3z" fill="#2F5C5D"/>
<path transform="translate(290,588)" d="m0 0 2 1 1 10 1 2-5-1v6l-2 1-1-6 1-2h3z" fill="#267975"/>
<path transform="translate(298,585)" d="m0 0 2 1 4 16v2h-2l-3-10z" fill="#19A599"/>
<path transform="translate(675,820)" d="m0 0 4 1-2 2-4 1h-11l-3-2z" fill="#324046"/>
<path transform="translate(1349,787)" d="m0 0 4 2 6 4 5 1v4l-5-2-9-5z" fill="#B1CAC8"/>
<path transform="translate(1358,771)" d="m0 0h5l2 2v6l-4-3h-5z" fill="#14181A"/>
<path transform="translate(602,765)" d="m0 0 2 1v2h5v1h-17l-1-3h8l3 1z" fill="#33474D"/>
<path transform="translate(588,567)" d="m0 0 4 1v5l-2 1-12-1 4-2h6l-1-3z" fill="#20242E"/>
<path transform="translate(1443,471)" d="m0 0h1l1 8-6 3h-2l2-5z" fill="#233D41"/>
<path transform="translate(1531,451)" d="m0 0 1 3-3 10-1 3-3-1 3-13h2z" fill="#30343C"/>
<path transform="translate(270,450)" d="m0 0 14 1-1 3h-7l-6-2z" fill="#345155"/>
<path transform="translate(302,444)" d="m0 0h9l3 1v3h-9l-3-2z" fill="#383D45"/>
<path transform="translate(1542,420)" d="m0 0 2 3-2 10-2 4-2-1z" fill="#364147"/>
<path transform="translate(1426,324)" d="m0 0h5l4 2-2 10-2-4v-4l-1 2h-2v-5z" fill="#232731"/>
<path transform="translate(634,825)" d="m0 0h5l4 3-14 2h-7v-1l6-1-2-2z" fill="#2F4F53"/>
<path transform="translate(1321,759)" d="m0 0h2l1 6h2l-2 4-5-1z" fill="#89BAB5"/>
<path transform="translate(404,755)" d="m0 0h6l3 1 7 1v1l-17 1z" fill="#C7BDBC"/>
<path transform="translate(675,753)" d="m0 0h22l6 2v1l-15-1-13-1z" fill="#2C2E36"/>
<path transform="translate(305,583)" d="m0 0h4v3h-4l4 12h-3l-3-11v-3z" fill="#49B2A9"/>
<path transform="translate(219,440)" d="m0 0h2v2h6v3h-12v-4z" fill="#0A090A"/>
<path transform="translate(1372,311)" d="m0 0h9l4 1v2l-8 3z" fill="#2F2F35"/>
<path transform="translate(1380,281)" d="m0 0h2l3 7 2 1v-6h2l1 4-2 4-4-1-4-6z" fill="#355F61"/>
<path transform="translate(1537,273)" d="m0 0h5l1 4-4 3-3-1v-5z" fill="#A6CCC8"/>
<path transform="translate(1377,254)" d="m0 0 5 2v6l-4-1-3 1 1-7z" fill="#85B0AD"/>
<path transform="translate(264,556)" d="m0 0 4 1 3 4 1 8-3-2-4-8z" fill="#FB5454"/>
<path transform="translate(329,544)" d="m0 0 4 1 4 2 2 5-1 3-2-1-3-5-3-1z" fill="#8F484C"/>
<path transform="translate(541,512)" d="m0 0 2 1v2h7l1 2-13 1v-3z" fill="#292A32"/>
<path transform="translate(387,502)" d="m0 0 2 1v7h-4l-1-3-4-2 4-2 3 1z" fill="#363137"/>
<path transform="translate(389,487)" d="m0 0 4 4 1 2v6l-1-3h-2l-1 3-1-2z" fill="#1F2128"/>
<path transform="translate(509,654)" d="m0 0h1v8l-10 3v-2h2v-2l-6 1 1-3 10 1z" fill="#34383F"/>
<path transform="translate(238,450)" d="m0 0 20 1v1l-17 2-2 1z" fill="#32353D"/>
<path transform="translate(216,437)" d="m0 0h4v2h6v3h-5v-2l-7 1v-3z" fill="#445C5F"/>
<path transform="translate(1500,424)" d="m0 0h2l4 7v2l-8-2z" fill="#D4D6D6"/>
<path transform="translate(1496,422)" d="m0 0 10 1 5 1v3l-1 2-4-2v-2l-6-1v3h-2v-4z" fill="#19A599"/>
<path transform="translate(1562,372)" d="m0 0h4l-2 10-2 4-1-8z" fill="#253E44"/>
<path transform="translate(1533,350)" d="m0 0h3l1 4 3-3-1 7-5-1-1-1z" fill="#367B79"/>
<path transform="translate(1362,295)" d="m0 0h6l1 1v6h-2l-1-3-2-1v4h-2z" fill="#2C3039"/>
<path transform="translate(242,669)" d="m0 0h2l2 10v7l-2-1-2-10z" fill="#EBEAEA"/>
<path transform="translate(568,617)" d="m0 0h8l1 4-4 1-5-2z" fill="#33363E"/>
<path transform="translate(588,607)" d="m0 0h4l1 4-1 1h-9l1-3z" fill="#33363E"/>
<path transform="translate(518,602)" d="m0 0 3 2 2 8v8l-2-3-3-12z" fill="#19A599"/>
<path transform="translate(294,591)" d="m0 0 4 2 3 11h-3l-2-4z" fill="#111113"/>
<path transform="translate(530,461)" d="m0 0h9l1 3-16 1v-1h6z" fill="#315C5E"/>
<path transform="translate(238,459)" d="m0 0 11 1-1 4h-6l-4-4z" fill="#0A090A"/>
<path transform="translate(1413,323)" d="m0 0 4 1 1 8-5-1-1-7z" fill="#2B3B42"/>
<path transform="translate(1385,299)" d="m0 0h2l1 4 2-4h2v6l-3 1-5-1z" fill="#2C3C43"/>
<path transform="translate(1281,746)" d="m0 0 3 1 1 2 4 1v4l-5-1-3-2z" fill="#EADCDC"/>
<path transform="translate(598,742)" d="m0 0h9v3l-7 1v-2h-11v-1z" fill="#3E6164"/>
<path transform="translate(602,655)" d="m0 0h3l2 8-1 1h-5v-2h3v-4h-2l-1 2-1-4z" fill="#33373F"/>
<path transform="translate(523,616)" d="m0 0h1l1 13-5-1 1-6v-5z" fill="#364249"/>
<path transform="translate(243,561)" d="m0 0h2l3 11v3l-3-1-2-8z" fill="#FB5454"/>
<path transform="translate(1511,532)" d="m0 0 2 1-2 10-2 5-2 1 2-10z" fill="#383C43"/>
<path transform="translate(373,519)" d="m0 0 3 1-1 14h-3v-5l1-1z" fill="#19A599"/>
<path transform="translate(385,508)" d="m0 0 4 2v17l-3-3-1-4 1-1v-6z" fill="#78A8A2"/>
<path transform="translate(295,451)" d="m0 0h5v2h7v2h-12z" fill="#3B4048"/>
<path transform="translate(1330,448)" d="m0 0 1 3-5 16-2 2 2-12z" fill="#A98987"/>
<path transform="translate(411,434)" d="m0 0h10l2 3h-13l-2-2z" fill="#2E4045"/>
<path transform="translate(1503,389)" d="m0 0 4 1 2 7-2 1-5-3z" fill="#32363E"/>
<path transform="translate(1404,377)" d="m0 0 1 2-4 14-3 3 1-5 4-13z" fill="#2B4348"/>
<path transform="translate(1528,274)" d="m0 0h2l-2 6h-7v-4h7z" fill="#96BAB8"/>
<path transform="translate(546,753)" d="m0 0 8 2 8 3 1 4-11-5-6-2z" fill="#343B42"/>
<path transform="translate(1281,706)" d="m0 0 4 1 3 7 2 2-5-1-7-3 1-2 5 3-2-5z" fill="#87BEB9"/>
<path transform="translate(364,536)" d="m0 0 2 1-2 12-1 3h-2l1-13z" fill="#19A599"/>
<path transform="translate(371,532)" d="m0 0 1 2h2l-1 6h-3v-2l-4 1v-2h2v-3h3z" fill="#2B6364"/>
<path transform="translate(568,471)" d="m0 0 2 1 1 3v7h-10l4-1v-2l5-1z" fill="#313037"/>
<path transform="translate(271,442)" d="m0 0h9l1 2-1 2-9-1z" fill="#33373F"/>
<path transform="translate(1301,329)" d="m0 0 6 4v3l4 1v3l-5-2-5-6z" fill="#1E3538"/>
<path transform="translate(1580,317)" d="m0 0 1 3-3 11-2-3 1-8z" fill="#243D43"/>
<path transform="translate(706,815)" d="m0 0h9l2 1v2l-18-1v-1z" fill="#227975"/>
<path transform="translate(893,781)" d="m0 0h2l-2 11-3-4-1-3-2-2z" fill="#305154"/>
<path transform="translate(1238,736)" d="m0 0 3 1v2l5 1 4 4-6-1-6-3z" fill="#A0C3BF"/>
<path transform="translate(286,668)" d="m0 0h9l1 3-8 1-3-1z" fill="#FB5454"/>
<path transform="translate(510,654)" d="m0 0h2l1 5v7h-4l1-4z" fill="#33595C"/>
<path transform="translate(1433,490)" d="m0 0h2l-1 5-5 13-1-3 4-14z" fill="#486667"/>
<path transform="translate(1448,418)" d="m0 0 13 1 8 1-1 3-20-4z" fill="#2C2C33"/>
<path transform="translate(1362,278)" d="m0 0h4l-2 4-1 4 4-2v3h-7l1-6z" fill="#2E474C"/>
<path transform="translate(670,814)" d="m0 0 2 3 4 2-13 1 3-4h3z" fill="#FB5454"/>
<path transform="translate(275,775)" d="m0 0 10 3 6 2v1l-9-1-7-3z" fill="#122324"/>
<path transform="translate(1271,700)" d="m0 0h2v2l4 1-2 7h-2v-6l-3 1z" fill="#7BAAA7"/>
<path transform="translate(236,634)" d="m0 0h2l1 2 1 11-3-1-1-5z" fill="#DEE5E4"/>
<path transform="translate(568,573)" d="m0 0h7l-1 5-6-1-1-3z" fill="#353840"/>
<path transform="translate(383,512)" d="m0 0 4 1v6l-3 2-3-8z" fill="#30343C"/>
<path transform="translate(1560,341)" d="m0 0 1 2-3 15-2-3 2-10z" fill="#34373F"/>
<path transform="translate(1402,318)" d="m0 0h2l-2 11-3 3 1-10z" fill="#333841"/>
<path transform="translate(623,760)" d="m0 0h1v5l4 1v1h-11l-3-1v-2l7 1z" fill="#2E3038"/>
<path transform="translate(1360,709)" d="m0 0h2l1 3 1-2h2l-1 6h-4l-1-1z" fill="#4D6869"/>
<path transform="translate(353,690)" d="m0 0h5v3h-14v-2z" fill="#323A41"/>
<path transform="translate(305,678)" d="m0 0h5l1 3-4 2-3-2-1 2-2-3z" fill="#0A090A"/>
<path transform="translate(523,599)" d="m0 0h2l2 15h-2l-2-7z" fill="#2AA89E"/>
<path transform="translate(583,553)" d="m0 0 5 1 1 3-6 1h-4v-2h4z" fill="#35373E"/>
<path transform="translate(358,552)" d="m0 0 4 2 2 10-3 1z" fill="#26A49A"/>
<path transform="translate(431,499)" d="m0 0h2l4 7v3l-4-1z" fill="#31ABA0"/>
<path transform="translate(1444,458)" d="m0 0h2l-3 12-2 4-1-4 3-9z" fill="#77A8A3"/>
<path transform="translate(1527,349)" d="m0 0 5 2 2 5 1 2-8-1 3-1-2-4z" fill="#30343C"/>
<path transform="translate(802,803)" d="m0 0h7l3 2-13 1-4-2z" fill="#2B6666"/>
<path transform="translate(403,766)" d="m0 0h2v2h6v3l-12-1z" fill="#32343B"/>
<path transform="translate(396,668)" d="m0 0 4 2-3 3h-8l1-3h6z" fill="#0A090A"/>
<path transform="translate(534,629)" d="m0 0h2l2 7v5h-2l-2-7z" fill="#37454C"/>
<path transform="translate(252,573)" d="m0 0h2l2 10-3 1-2-10z" fill="#19A599"/>
<path transform="translate(1503,565)" d="m0 0 1 4-3 11-2-1 1-7z" fill="#363F46"/>
<path transform="translate(566,524)" d="m0 0h10l1 3h-11z" fill="#343840"/>
<path transform="translate(1480,473)" d="m0 0h2v6h7l1 4-7-2-3-2z" fill="#33363E"/>
<path transform="translate(1456,377)" d="m0 0h2l-1 3h-2l-5 11h-1v-5l4-8z" fill="#294C50"/>
<path transform="translate(458,651)" d="m0 0h1v13l-7 3v-2l3-3 1-2h2z" fill="#33444A"/>
<path transform="translate(576,631)" d="m0 0h17v1l-14 1-1 3-3-4z" fill="#0A090A"/>
<path transform="translate(227,583)" d="m0 0h2l2 11h-2l-1 2z" fill="#E9E1E1"/>
<path transform="translate(1306,577)" d="m0 0h1l-1 10-2 5-1-4 2-10z" fill="#141417"/>
<path transform="translate(222,554)" d="m0 0h2l1 3v9l-3-3z" fill="#EFE8E8"/>
<path transform="translate(1415,480)" d="m0 0h1l1 6 2-1-1 6-3 1-1-6-1-4h2z" fill="#374148"/>
<path transform="translate(225,453)" d="m0 0h8l-1 4-7-1z" fill="#FB5454"/>
<path transform="translate(261,449)" d="m0 0h7l1 4h-6l-2-1z" fill="#296A69"/>
<path transform="translate(1495,422)" d="m0 0 3 1-1 6-4 2 1-8z" fill="#D3D5D5"/>
<path transform="translate(1446,306)" d="m0 0h2l-1 7-4 1v-2h-2l1-5 1 4h3z" fill="#2D5357"/>
<path transform="translate(534,765)" d="m0 0v3l-5 2h-8l2-3 9-1z" fill="#334A4F"/>
<path transform="translate(1464,685)" d="m0 0 5 2 2 2-2 3h-2l-2-2-2-1z" fill="#1E212A"/>
<path transform="translate(236,624)" d="m0 0 2 4v6h-2l-1 2-1-10z" fill="#BEC5C4"/>
<path transform="translate(1466,606)" d="m0 0h3v5l-4 1-2-5z" fill="#315357"/>
<path transform="translate(454,514)" d="m0 0 3 3 1 9-3-3-1-2z" fill="#373A41"/>
<path transform="translate(715,814)" d="m0 0h10l-1 3h-7l-2-1z" fill="#305658"/>
<path transform="translate(290,779)" d="m0 0 10 2-2 1v2l-9-2z" fill="#203234"/>
<path transform="translate(505,756)" d="m0 0h3v2h9l-3 3-11-3z" fill="#3D595C"/>
<path transform="translate(628,751)" d="m0 0 1 4-2 1 1 2-4-1v-2l-5-2 3-1 5 1z" fill="#32343C"/>
<path transform="translate(460,750)" d="m0 0h5l7 2v1l-15 1z" fill="#C7BDBC"/>
<path transform="translate(1367,740)" d="m0 0h1l1 5 2 1v2l-5-1-1 3-2-5-1-2 5 1z" fill="#639593"/>
<path transform="translate(1292,741)" d="m0 0h2l-1 4-3 8-1-3-2-1 2-5 3-2z" fill="#1C948B"/>
<path transform="translate(1284,736)" d="m0 0h1v5h2v2h3v-2l3 1-1 2-4 1-5-3v-5z" fill="#DEDCDC"/>
<path transform="translate(1323,696)" d="m0 0 4 3 1-3h2l-1 7-6-2z" fill="#29454A"/>
<path transform="translate(266,667)" d="m0 0 10 2-5 4h-2v-2h-2z" fill="#49555B"/>
<path transform="translate(412,663)" d="m0 0h3l-1 5h-6v-3z" fill="#FB5454"/>
<path transform="translate(513,613)" d="m0 0 2 1 1 8v5l-2-1z" fill="#1D1E23"/>
<path transform="translate(522,598)" d="m0 0 2 1v11l-2 2-3-10h3z" fill="#3A454C"/>
<path transform="translate(298,580)" d="m0 0 5 2-2 1v2h-6l-1-3z" fill="#0A090A"/>
<path transform="translate(1305,569)" d="m0 0h1l1 7-2 4-1 6-2-4z" fill="#F05A5A"/>
<path transform="translate(1487,520)" d="m0 0h5l1 1-1 7h-2l-1-6z" fill="#303A41"/>
<path transform="translate(1515,502)" d="m0 0h1l-1 10-2 5h-1l1-9z" fill="#363941"/>
<path transform="translate(1412,405)" d="m0 0 1 2-3 7v6h-3l1-7z" fill="#E35C5D"/>
<path transform="translate(1561,355)" d="m0 0h1l-1 9-3 3 1-9z" fill="#374048"/>
<path transform="translate(1566,319)" d="m0 0h1l-1 9-2 5h-1l1-9z" fill="#33363E"/>
<path transform="translate(429,766)" d="m0 0h3l1 4h7v2h-8v-3l-3-1z" fill="#2F847F"/>
<path transform="translate(1820,745)" d="m0 0h7l1 3h-10z" fill="#F2F1F1"/>
<path transform="translate(1248,725)" d="m0 0 2 1-1 6 5 1v2l-7-2v-7z" fill="#849F9F"/>
<path transform="translate(1280,705)" d="m0 0 2 1 2 3v4l-5-2v-3z" fill="#1A504E"/>
<path transform="translate(1435,687)" d="m0 0 5 2-1 3-4 2-4-2 2-1 3 1z" fill="#3CA198"/>
<path transform="translate(339,667)" d="m0 0h4v4l-7 1-1-3z" fill="#246666"/>
<path transform="translate(561,587)" d="m0 0h7v4h-7z" fill="#344E53"/>
<path transform="translate(225,561)" d="m0 0h1l1 11-3 1-1-8z" fill="#C6D3D1"/>
<path transform="translate(262,555)" d="m0 0h2v5l-3 5h-2l2-9z" fill="#19A599"/>
<path transform="translate(552,499)" d="m0 0h6v5l-5-1z" fill="#33363E"/>
<path transform="translate(1421,473)" d="m0 0 2 4-3 10-2-4z" fill="#292D36"/>
<path transform="translate(1323,475)" d="m0 0h1v9l-2 3-2-6z" fill="#5A2628"/>
<path transform="translate(557,473)" d="m0 0h8l2 3h-10z" fill="#312F35"/>
<path transform="translate(1440,455)" d="m0 0h1v6l-3 9h-1l1-12z" fill="#F56060"/>
<path transform="translate(280,441)" d="m0 0 13 1v1h-9l-1 5-2-2z" fill="#1A1C24"/>
<path transform="translate(1582,306)" d="m0 0h1v7l-1 4-3 1 2-11z" fill="#202E34"/>
<path transform="translate(1396,300)" d="m0 0h2l1 7-5-1z" fill="#2F3E45"/>
</svg>
