<?xml version="1.0" encoding="UTF-8"?>
<svg version="1.1" viewBox="0 0 1056 984" width="264" height="246" xmlns="http://www.w3.org/2000/svg">
<path transform="translate(0)" d="m0 0h1056v984h-1056z" fill="#161623"/>
<path transform="translate(744,60)" d="m0 0 9 1 8 5 6 8 3 9v29l6 1 2 4-1 5-5 2h-4l3 14 2 13 4 6 11 8 4 5v5l8-6 8-4 3-4 5 1 15 9 1 4-10 17-8 12-7 11-8 11-4 6-5-1-17-11 1-4 3-4v-10l2-3-1-3-5 3-6 6h-2l1 5-3 5-14 27-8 12-10 14-11 13-7 8-7 7-7 8-15 15-8 7-11 10-14 11-17 12-18 11-17 9v20l1 33v28l-1 23-2 13 9-4 7-1 6-7 6-3 10-2 14-11 17-17 8-7 10-9 16-15 10-9 18-18 8-7 13-12 15-14 10-9 15-15 8-7 4-2v-2l8-7 15-14 7-6 8-8h2v-3h2v-10l6-7h2v-2l6-2 8 1 8 7 3 7v8l24 24 7 8 13 13 7 8 8 8 7 8 6 7 5 5 6 5 8 1 7 4 5 8-1 9-4 7-6 4-11 1-5 5-12 11-13 13-8 7-11 11-8 7-14 13-8 7-14 14-8 7-8 8-8 7-16 15-12 11-12 12-8 7-17 16-6 5v2l10 7 8 8 3 10v35l-3 9-7 8-10 6-1 1v12l7 8 4 5 1 5v14l8-7 11-10 19-12 17-8 21-7 25-5 18-2h34l-1 9-4 20-9 29-7 16-7 14-12 18-11 13-9 9-14 10-6 3-1 2 5 1 21 11 14 10 4 3-1 4-10 9-17 13-23 12-14 5-16 3h-15l-15-3-8-1-4 6-8 6-14 7-15 5-23 5-17 2-8-3-32-7-8-4 1-5v-50l-2-34-4-31-8-40-10-35-13-40-7-18-9-26-5-16-10-33-7-25v-3l-5 5-4 3-4-9-5-20-1-6v-18l-2 1-9 1h-19l-17-3-1 13-4 37-1 17h-9l-20-6-19-10-7-5-3-1v33l3 26 6 27 5 20 12 40 11 35 10 38 7 34 3 24v34l-2 30-2 6-5 4-16 8-15 5-24 5-26 3h-30l-24-3-27-6-19-7-12-7-7-7-3-7-5 1-13 4-13 3-8 1h-24l-18-3-15-4-22-8-22-11-22-14-19-14-2-4 17-1 140-4 20-1 2-9-86 3-70 2h-23l6-7 11-9 14-11 15-10 18-10 17-8 11-4h5l-5-9-7-10-10-17-10-23-4-8-18-10-4-4 16-3 23-2h15l21 2 21 5 17 7 16 10 11 10v2h3l5-10 9-8 2-1 1-3v-15l-4-6-3-4-1-10-1-22-6-1-7-7-2-13-16-16-7-8-28-30-16-17-13-13-7-8-30-32-14-15-14-14-7-8-31-33-9-9v-2l-10-1-8-6-4-5-1-9 5-7 9-6 10-2 14-13 8-7 13-13 8-7 13-12 17-16 12-12h2l-1-7 5-8 5-4 3-2h7l6 3 6 6 2 13 17 17 7 8 8 8 7 8 6 7 16 16 7 8 12 12 7 8 10 10 7 8 14 15 4 4 8-1 13-4 20-4 28-3h4l2-6 8-18 12-20 13-16 9-6 15-8 17-13 19-14 15-10 6-2v-17l-2-8v-10l2-2h12l-1-6v-14l1-4 7 1 11 4 21 3 1 1 1 7v30l-2 3-6 1h-16v16l6 1h19l25-4 26-6 28-10 25-13 24-16 14-12 7-8 12-18 9-11 1-6-21 6h-4l3 5-1 4-2 2h-7l-2-4-6 2-15 7-9 3h-11l-10-5-7-8-1-8 4-11 5-9-1-3-5-4 1-5 10-21 14-23 13-18 11-13 8-8 10 2 8-11 8-6z" fill="#FDC94B"/>
<path transform="translate(857,266)" d="m0 0 8 1 8 7 3 7v8l24 24 7 8 13 13 7 8 8 8 7 8 6 7 5 5 6 5 8 1 7 4 5 8-1 9-4 7-6 4-11 1-5 5-12 11-13 13-8 7-11 11-8 7-14 13-8 7-14 14-8 7-8 8-8 7-16 15-12 11-12 12-8 7-17 16-6 5v2l10 7 8 8 3 10v35l-3 9-7 8-10 6-1 1v12l7 8 4 5 1 5v14l8-7 11-10 19-12 17-8 21-7 25-5 18-2h34l-1 9-4 20-9 29-7 16-7 14-12 18-11 13-9 9-14 10-6 3-1 2 5 1 21 11 14 10 4 3-1 4-10 9-17 13-23 12-14 5-16 3h-15l-15-3-8-1-4 6-8 6-14 7-15 5-23 5-17 2-8-3-32-7-8-4 1-5v-50l-2-34-4-31-8-40-10-35-13-40-7-18-9-26-5-16-10-33-8-28 1-5 9-14 9-15 6-6 7-3 7-1 6-7 6-3 10-2 14-11 17-17 8-7 10-9 16-15 10-9 18-18 8-7 13-12 15-14 10-9 15-15 8-7 4-2v-2l8-7 15-14 7-6 8-8h2v-3h2v-10l6-7h2v-2z" fill="#FDC94B"/>
<path transform="translate(744,60)" d="m0 0 9 1 8 5 6 8 3 9v29l6 1 2 4-1 5-5 2h-4l3 14 2 13 4 6 11 8 4 5v5l8-6 8-4 3-4 5 1 15 9 1 4-10 17-8 12-7 11-8 11-4 6-5-1-17-11 1-4 3-4v-10l2-3-1-3-5 3-6 6h-2l1 5-3 5-14 27-8 12-10 14-11 13-7 8-7 7-7 8-15 15-8 7-11 10-14 11-17 12-18 11-17 9v20l1 33v28l-1 23-1 14-6 7-11 19-6 9-4 7-5 4-4-9-5-20-1-6v-18l-2 1-9 1h-19l-17-3-1 13-4 37-1 17h-9l-20-6-19-10-7-5-3-1-1 3v-6l-10-9-6-5-1-7 8-16 6-14 7-19 3-9-5 2-7 6-6 8-11 13-8 13-9 16-6 11-13 26-4 7-4 1-19-8-1-1v-17l6-16 11-26 4-10 7-21 7-20 6-19 6-18-3-1h4l2-6 8-18 12-20 13-16 9-6 15-8 17-13 19-14 15-10 6-2v-17l-2-8v-10l2-2h12l-1-6v-14l1-4 7 1 11 4 21 3 1 1 1 7v30l-2 3-6 1h-16v16l6 1h19l25-4 26-6 28-10 25-13 24-16 14-12 7-8 12-18 9-11 1-6-21 6h-4l3 5-1 4-2 2h-7l-2-4-6 2-15 7-9 3h-11l-10-5-7-8-1-8 4-11 5-9-1-3-5-4 1-5 10-21 14-23 13-18 11-13 8-8 10 2 8-11 8-6z" fill="#96E186"/>
<path transform="translate(509,489)" d="m0 0 9 1 8 1h19l11-1 1 18 5 23 4 11 5-5 4-2 12 42 7 23 10 30 8 21 13 38 10 35 6 26 5 27 3 25 2 34v50l-2 5-13 2h-17v6l-3 1-17-5-15-6-11-7-7-8-2-6-1-36-3-5v-45l8-11 8-6 4 1 4 8v-9l-2-5-4-18-11-57-6-39-7-46v15l5 53 1 17v65l-1 2h-2l1 16-3 1v16l-1 2v25l-1 8-4 20-7 27-11 33-2 3-9 1v2l-8-1-9-4-4-5-1-4 2-7v-4l-2-1 2-17 1-18v-34l-4-30-9-40-9-33-10-31-9-30-6-23-6-26-3-20-1-11v-30l1-3 4 1 13 8 15 7 17 5 9 1v-17l4-37z" fill="#232633"/>
<path transform="translate(872,292)" d="m0 0 4 2 9 9 7 8 29 31 14 15 6 6v2h2l7 8 3 3v4h-3v2h-2l-2 7 1 8 2 6-5 4-7 8-8 7-11 11-8 7-4 4-8 7h-2l-1 3-7 6-8 8h-2v2l-5 5-7 6-8 7-12 12h-2v2l-10 8-5 5-7 6-6 7-5 5-12 11-8 7-7 8-6 5-5 3-1-37-2-10-5-7-14-9-11-6-16-8-4-1h-30l-46-2 5-6 8-7 8-8h2v-2l8-7 16-15 8-7 7-7 8-7 14-14 8-7 16-15 12-11 11-11 8-7 10-10 8-7 15-14 10-9 9-9 6-5 3-4h2v-2l3-1 5 3h8l9-4z" fill="#3D477E"/>
<path transform="translate(514,288)" d="m0 0h2l4 7 5 15 4 17 2 12 1 12v38l-5 32-16 64v4h-2l-1 13-4 37-1 17h-9l-20-6-19-10-7-5-3-1-1 3v-6l-10-9-6-5-1-7 8-16 6-14 7-19 3-9-5 2-7 6-6 8-11 13-8 13-9 16-6 11-13 26-4 7-4 1-19-8-1-1v-17l6-16 11-26 4-10 7-21 7-20 6-19 6-18-3-1h4l2-6 8-18 12-20 13-16 9-6 15-8 17-13 19-14z" fill="#96E186"/>
<path transform="translate(207,285)" d="m0 0 5 2 9 10 7 8 11 12 17 17 7 8 9 9 7 8 14 15 7 8 23 23 5 6-1 5-11 7-6 6h-2l-5-13-6-11-9-10-15-10-13-4-6-1h-15l-10 2-11 4h-2v2l-9 6-4 2-2 4-7 8-6 12-3 13v16l3 13 8 15 11 12 11 7 13 5 4 1h24l16-6 11-7 9-9 8-13 2-5h1l2 15 4 9 1 3-1 2-8 4-7 6-6 11-1 3v11l3 10 10 13-6 7-3 8v26l-1 2h-5l-7-6v-2h-2l-7-8-7-6-4-6-5-5-9-10-30-32-14-14-7-8-15-16-7-7-7-8-5-6-24-24-3-1-1-5h-2l-5-6-4-4-7-8-6-6v-2l-3-1-7-8-3-3 2-6 1-2-1-9-2-4 7-8 11-9 14-14h2v-2l8-7 24-22 4-5 8-7 6-8 9 4h8l7-4z" fill="#3D477E"/>
<path transform="translate(900,664)" d="m0 0h34l-1 9-4 20-9 29-7 16-7 14-12 18-11 13-9 9-14 10-6 3-1 2 5 1 21 11 14 10 4 3-1 4-10 9-17 13-23 12-14 5-16 3h-15l-15-3-8-2 2-9v-36l-3-11v-8l5-4 11-8 7-8 2-10v-36l-5-8-12-12-4-3-1-4v-15h1v14l8-7 11-10 19-12 17-8 21-7 25-5z" fill="#96E186"/>
<path transform="translate(185,665)" d="m0 0h15l21 2 21 5 17 7 16 10 11 10v2l3 1 1 38 4 9 4 5 9 7-1 3-12 7-5 6-3 9-1 19-114 4-41 1h-23l6-7 11-9 14-11 15-10 18-10 17-8 11-4h5l-5-9-7-10-10-17-10-23-4-8-18-10-4-4 16-3z" fill="#96E186"/>
<path transform="translate(857,266)" d="m0 0 8 1 8 7 3 7v8l24 24 7 8 13 13 7 8 8 8 7 8 6 7 5 5 6 5 8 1 7 4 5 8-1 9-4 7-6 4-11 1-5 5-12 11-13 13-8 7-11 11-8 7-14 13-8 7-14 14-8 7-8 8-8 7-16 15-12 11-12 12-8 7-17 16-6 5-3 3-6-3v16l-2 10-4 8-9 7-16 8-19 6-22 4-9 1h-28v-32l1-1 32-3 24-4 19-5 16-7 5-3-10 2-17 5-22 4-21 2h-14v-34l2-1 24-1 31-5 25-7 13-7 10-9 3-9h1l1 36 4-3h2l2-4h2l2-4 11-11 11-9 6-7h2l2-4 3-1 2-4 9-7 10-10h2v-2l8-7 12-12 8-6 4-5h2v-2l7-6h2l2-4 6-5 5-5 6-5 5-5 16-15 8-8 7-6 6-7-3-8 1-7 2-5h2v-2h3l-2-5-8-8v-2h-2l-7-8-9-9-7-8-7-7-7-8-8-8-7-8-14-15-3-2-2 4-8 3h-8l-6-3h-2v2l-7 6-20 20-8 7-15 14-10 9-9 9-8 7-13 13-8 7-16 15-12 11-12 12-8 7-7 7-8 7-13 12-3 3h-2v2l-8 7-8 8-6 5 25 1v1l-30 2-16 2h-11l6-8 6-3 10-2 14-11 17-17 8-7 10-9 16-15 10-9 18-18 8-7 13-12 15-14 10-9 15-15 8-7 4-2v-2l8-7 15-14 7-6 8-8h2v-3h2v-10l6-7h2v-2z" fill="#FEE3B2"/>
<path transform="translate(744,60)" d="m0 0 9 1 8 5 6 8 3 9v29l6 1 2 4-1 5-5 2h-4l3 14 2 13 4 6 11 8 4 5v5l8-6 8-4 3-4 5 1 15 9 1 4-10 17-8 12-7 11-8 11-4 6-5-1-17-11 1-4 3-4v-10l2-3-1-4-16-9-7-5-1-3 2-1 7 1 1-3-10-4-4 1-1 1v12h-3v2l-12 4-8 2h-4l3 5-1 4-2 2h-7l-2-4-6 2-15 7-9 3h-11l-10-5-7-8-1-8 4-11 5-9-1-3-5-4 1-5 10-21 14-23 13-18 11-13 8-8 10 2 8-11 8-6z" fill="#FAA228"/>
<path transform="translate(859,252)" d="m0 0 4 2 27 27 7 8 15 16 13 13 7 8 14 15 9 9 7 8 12 13 10 10 8 10 1 4-12 11-13 13-8 7-10 10-8 7-11 11-8 7-10 9-51 48-13 12-17 16-7 7-8 7-10 10-8 7-12 11-6 5-2 2-11-8 2-4 13-12 10-9 16-15 8-8h2l1-3 8-7 16-15 12-11 17-16 8-8h2l1-3 8-7 24-22 9-9 8-7 20-20 4-3 11-1 6-4 4-9v-6l-4-6v-2l-10-4-7-1-7-8-15-15-7-8-5-6-23-23-7-8-13-13v-2l-4-2-1-1v-8l-3-7-7-6-8-1-6 1v2l-5 4-2 3-1 10h-2v3l-7 6h-2l-1 3-8 7-8 8-8 7-4 4h-2v2l-8 7-12 11-14 14-8 7-15 14-13 12-10 9-18 18-8 7-15 14-12 11-8 7-13 13-12 9-12 3-6 4-4 5-9 1 2-4 7-8 8-7 7-7 8-7 10-10 8-7 8-8 8-7 15-14 9-9 8-7 8-8 8-7 7-7 8-7 31-29 34-32 8-7 7-7 8-7 9-9 8-7 12-11z" fill="#3C467D"/>
<path transform="translate(240,383)" d="m0 0h13l12 2 8 3v2l4 1 9 7 7 7 7 11 4 12 1 8v16l-1 6h-2l-1 5-5 10-9 11-11 8-8 4-11 3h-20l-13-4-11-6-12-11-8-12-5-16v-17l2-9 4-9 7-11 8-8 11-8 13-4z" fill="#3E487F"/>
<path transform="translate(786,387)" d="m0 0h19l12 3 12 6 10 9 7 8 6 13 2 6 1 7v13l-3 13-6 11-8 10-9 7-16 8-8 2h-15l-15-4-13-7-10-9-9-14-4-11-1-4v-18l4-13 8-14 9-10 13-8 9-3z" fill="#3E487F"/>
<path transform="translate(193,245)" d="m0 0 4 1 23 23 7 8 13 13 7 8 15 15 7 8 15 16 15 15 7 8 16 17 12 13 7 8 9 9-13 4-5-1-13-13-7-8-14-15-7-7-7-8-12-12-7-8-7-7v-2l-3-1-7-8-15-16-2-4-3-1-7-8-11-11-2-13-8-7-3-1h-7l-8 6-4 7v7h-2l-2 4-8 7-11 11-8 7-8 8-8 7-13 12-11 11-8 7-10 8-10 2-8 6-3 5 1 9 6 7 5 3 10 2 7 8 12 12 7 8 9 9 7 8 15 16 14 14 7 8 7 7 7 8 8 8 7 8 15 16 13 13 7 8 9 9 7 8 7 7 7 8 14 15 7 7 2 13 6 6 6 2 1 4v11l-4-2v-2l-3-1-7-8-12-12-7-8-16-16-7-8-46-49-8-8-7-8-8-8-7-8-9-9-7-8-8-8-7-8-10-10-7-8-8-8-7-8-9-9-7-8-16-16-7-8-9-10-2-4 7-7 8-7 25-25 8-7 7-7 8-7 8-8 8-7 17-16 7-7 8-7 7-7 11-9z" fill="#3C467C"/>
<path transform="translate(534,224)" d="m0 0 7 1 11 4 21 3 1 1 1 7v30l-2 3-6 1h-16l-1 23 7 12 5 16 3 20v64l-4 40-5 40-2 2-9 1h-19l-12-2-4-2 2-10 14-57 5-32v-38l-2-18-4-19-5-17-3-6-1-4 6-2v-17l-2-8v-10l2-2h12l-1-6v-14z" fill="#FBFDFD"/>
<path transform="translate(490,777)" d="m0 0h7l4 25 1 9v34l-2 30-2 6-5 4-16 8-15 5-24 5-26 3h-12l-2-1v-33l1-1 30-3 25-4 21-6 16-8 8-5 1-2v-11l-8 7-8 5-16 7-21 6-18 3-20 2h-15l-1-1v-33l43-4 15-2 3-1h-34v-33l2-1 26-2 25-4 14-3z" fill="#FEE3B2"/>
<path transform="translate(284,814)" d="m0 0h1l3 21 2 33-14 5-17 4-8 1h-24l-18-3-15-4-22-8-22-11-22-14-19-14-2-4 17-1 140-4z" fill="#96E186"/>
<path transform="translate(789,612)" d="m0 0h1v35l-3 9-7 8-10 6-1 1v17l-3 10-7 8-13 8-14 6-18 5-18 3-24 2h-12l-1-5v-28l1-1 40-4 17-3 23-6 4-2h-7l-24 4-22 2h-9l-1-1 1-33 2-1 29-2 24-4 16-4 16-6 11-7 8-8z" fill="#FEE3B2"/>
<path transform="translate(802,752)" d="m0 0 1 3v24l-2 10-9 10-10 7-4 3v10l-3 11-5 7-11 7-11 5-18 6-26 5-20 2h-16l-1-33 2-2 33-2 23-3 4-1h-34v-32l6-2 31-3 17-3 19-5 15-6 9-6 7-7z" fill="#FFE4B2"/>
<path transform="translate(596,161)" d="m0 0h12l10 5 8 9 5 11 2 11v7l-4 11-9 8-13 5-19 3h-14l-1 2-21-3-13-5-5-1v24l-12 1-2 1-2-1-5-21-1-10v-12l2-13 3-8 8-9 10-5h17l16 4h6l11-6z" fill="#35385A"/>
<path transform="translate(190,259)" d="m0 0h7l6 3 6 6 2 13 17 17 7 8 8 8 7 8 6 7 16 16 7 8 12 12 7 8 10 10 7 8 14 15 4 4 4 2-9 2-3-5-11-12-21-21-7-8-12-13-11-12-7-7-7-8-19-19-7-8-12-14-4-1-6 5-3 1h-8l-8-4-11 12-4 2-2 4-10 10-8 7-14 13h-2v2l-8 7-10 10-11 9-4 5 3 7v6l-3 6 2 4 4 4v2l3 1 7 8 9 9 2 5 4 2 3 3v2h2l1 5 4 1 21 21v2l3 1 7 8 14 15 7 7 7 8 2 4 3 1 7 8 17 17 7 8 8 8 7 8 9 10v2l4 2 4 6 8 7 5 5v2h2l7 7 5 1 1-2 1 13 5 14-1 6v17h-1l-1-18-6-1-7-7-2-13-16-16-7-8-28-30-16-17-13-13-7-8-30-32-14-15-14-14-7-8-31-33-9-9v-2l-10-1-8-6-4-5-1-9 5-7 9-6 10-2 14-13 8-7 13-13 8-7 13-12 17-16 12-12h2l-1-7 5-8 5-4z" fill="#F0F2F0"/>
<path transform="translate(657,500)" d="m0 0 21 1 27 3 17 4 19 9 4 4 1 8-6 7-8 5-16 5-22 4-26 2h-14l-29-3-15-3-12-4-10-5-5-4-3-5 1-7 9-6 12-6 19-5 20-3z" fill="#FEE4B2"/>
<path transform="translate(857,266)" d="m0 0 8 1 8 7 3 7v8l24 24 7 8 13 13 7 8 8 8 7 8 6 7 5 5 6 5 8 1 7 4 5 8-1 9-4 7-6 4-11 1-5 5-12 11-13 13-8 7-11 11-8 7-14 13-8 7-14 14-8 7-8 8-8 7-16 15-12 11-12 12-8 7-17 16-6 5-3 3-4-4 8-7 9-8h2l2-4 8-7 7-7 8-7 5-5h2v-2l8-7 16-15 15-14 12-12h2v-2l8-7 10-9 15-14 12-11 7-7 6-5 15-15h2v-2l8-7 2-5-3-3-3-8 1-7 2-5h2v-2h3l-2-5-8-8v-2h-2l-7-8-9-9-7-8-7-7-7-8-8-8-7-8-14-15-3-2-2 4-8 3h-8l-6-3h-2v2l-7 6-20 20-8 7-15 14-10 9-9 9-8 7-13 13-8 7-16 15-12 11-12 12-8 7-7 7-8 7-13 12-3 3h-2v2l-8 7-8 8-6 5 25 1v1l-30 2-16 2h-11l6-8 6-3 10-2 14-11 17-17 8-7 10-9 16-15 10-9 18-18 8-7 13-12 15-14 10-9 15-15 8-7 4-2v-2l8-7 15-14 7-6 8-8h2v-3h2v-10l6-7h2v-2z" fill="#EEF0EE"/>
<path transform="translate(474,692)" d="m0 0 2 3 10 35 7 28v3l-8 2-17 6-15 4-26 4-28 2-1-1v-33l1-1 26-2 26-4 28-7 3-1 1-3-24 4-11 2-21 2h-11v-34l1-1 26-2 29-4z" fill="#FEE3B2"/>
<path transform="translate(576,765)" d="m0 0 4 1 12 26 6 15 8 26 8 38 5 24-1 5-17-4-19-8-11-8-6-8-1-4-1-36-3-5v-45l8-11z" fill="#FBC84D"/>
<path transform="translate(780,828)" d="m0 0h1v36l-3 10-4 6-8 6-14 7-15 5-23 5-17 2-8-3-19-4 2-1v-25l1-1 40-4 24-5 20-7 13-8 8-8 1-2z" fill="#FEE3B2"/>
<path transform="translate(779,714)" d="m0 0 2 2 1 6-1 18-3 8-4 5-10 7-15 7-16 5-21 4-21 2h-19v-33l2-1 19-1 30-4 20-5 16-6 15-9z" fill="#FFE4B2"/>
<path transform="translate(501,829)" d="m0 0h1v16l-2 30-2 6-5 4-16 8-15 5-24 5-26 3h-12l-2-1v-33l1-1 30-3 25-4 21-6 16-8 8-5 1-2z" fill="#FCE2B2"/>
<path transform="translate(163,328)" d="m0 0h14l12 5 8 7 5 10 1 3v14l-3 9-6 8-8 6-9 3h-15l-9-4-8-7-5-7-2-6-1-10 2-10 6-9 8-8z" fill="#F7F9F9"/>
<path transform="translate(869,337)" d="m0 0h15l10 4 6 4 6 8 3 8v17l-5 10-5 6-10 6-7 2h-12l-10-4-8-6-5-7-3-8v-15l4-10 7-8 10-6z" fill="#F8F9F9"/>
<path transform="translate(534,224)" d="m0 0 7 1 11 4 21 3 1 1 1 7v30l-2 3-6 1h-16l-1 22-6 2-3 3-5-1-13-10-1-3-2-2h2v-17l-2-8v-10l2-2h12l-1-6v-14z" fill="#F9E0B1"/>
<path transform="translate(657,504)" d="m0 0h8l1 2 20 2 11 4 1 3-1 1h-7l-7-2-16-1v7h18l15 3 9 5-1 7-10 5-4 1-27 1-2 6-11-1-2-5-18-1-12-3-3-2v-4l5-1 11 3 17 1 1-10h-18l-9-3-5-4 1-4 6-4 11-3 13-1z" fill="#FECA4B"/>
<path transform="translate(772,405)" d="m0 0 4 1 8 8 7 8 6 7 22 22 3 4 4-2 3-2 5 3 7 6-1 5-15 15-8 7h-2v2h-3l-6-8-4-3 1-4 4-3-1-5-8-8-7-8-11-11-7-8-5 3-5 5-4-2-1-3h-2l-1-6 15-20z" fill="#FBFDFC"/>
<path transform="translate(259,400)" d="m0 0 6 1 11 8 9 7 1 4-19 19-8 7-10 9-12 12 4 8-5 5-5 6-5-1-7-8-13-13-4-7 8-6 3-3 5 1 3 4 4-2 11-10 8-7 15-15h2l-3-5-5-4-1-5z" fill="#FBFDFC"/>
<path transform="translate(399,412)" d="m0 0 2 1-6 20-9 27h-8l-20-4-15-6-9-7-2-4 1-5 9-8 17-7 21-5z" fill="#FFE4B2"/>
<path transform="translate(460,647)" d="m0 0 2 4 9 29-1 3v-2l-9 1-17 3-19 2h-18v-34l1-1 20-1 31-3z" fill="#FEE3B2"/>
<path transform="translate(357,541)" d="m0 0h1l1 5 19 8 5-1-2 7 15 1 9 1v34l-1 1-22-1-2-1-1-11-6 1-7 8-9-1-6-4-3-7v-10l4-10 5-12z" fill="#FEE4B3"/>
<path transform="translate(437,603)" d="m0 0h13l7 30-1 3-31 4h-22v-33l2-1z" fill="#FDE3B2"/>
<path transform="translate(498,899)" d="m0 0 5 1 9 4 8 1h8l3 3v2l5 2 22 12 11 7v3l-2 1-15 1h-32l-5-5-5 1-3 3-11-2-5-3v-8z" fill="#0A070F"/>
<path transform="translate(641,891)" d="m0 0h9l11 4 32 7 4 2h11l-3 2-9 1-7 3-14 4-22 6h-6l-1-1h-6l-2 4-9 2-9-1-1-3-2-18-3-3 4-1 1-6 17-1z" fill="#0A070F"/>
<path transform="translate(787,383)" d="m0 0h18l13 3 16 8 8 7 6 8 6 10 4 12 1 6v15l-3 13-7 14-9 10-8 7-10 6-17 5h-16l-16-4-13-7-12-11-8-13-5-13-1-5v-20l4-13 8-13 9-10 9-7 8-4 9-3zm-1 4-11 3-12 6-11 10-8 13-5 12-1 5v18l4 13 8 13 9 10 14 8 8 3 9 2h15l13-4 14-8 9-8 9-14 3-7 2-10v-13l-2-10-5-12-6-9-10-10-12-7-9-3-6-1z" fill="#E7E8E5"/>
<path transform="translate(239,379)" d="m0 0h15l12 3 8 3 10 6 10 9 7 10 6 13 1 6 2 1-2 6-1 24 1 9-2 2-1-7-5 10-7 9-7 7-11 7-16 6h-24l-13-4-11-6-10-9-8-10-7-15-2-10v-16l4-16 6-10 9-11 11-8h2v-2l16-6zm1 4-15 3-8 4-11 9-8 9-6 11-3 8-1 6v17l5 16 8 12 8 8 11 7 9 4 8 2h20l13-4 11-6 8-7 8-11 5-10v-3h2l1-6v-16l-2-12-4-10-8-11-8-8-7-5h-3v-2l-13-4-7-1z" fill="#E7E9E4"/>
<path transform="translate(263,805)" d="m0 0h23l-1 9-1 1-20 1-69 2-28 1h-15v-1l7-1v-2l-1-1-15-1-1-2-12-1v-1l70-2z" fill="#1B1B2C"/>
<path transform="translate(312,490)" d="m0 0 7 1 9 6v5l-5 3-8 7-3 5h-4v11l3 10-1 6-3 4h-6l-9-12-3-10v-11l4-9 6-8 8-6z" fill="#F9FAF7"/>
<path transform="translate(207,285)" d="m0 0 5 2 9 10 7 8 11 12 17 17 7 8 9 9 7 8 14 15 7 8 23 23 5 6-1 5-3 1-15-16-10-10-5-6-5-5-16-17-12-13-7-8-12-12-7-8-1-3-4-2-11-11-7-8-7-6-3-3z" fill="#DEDDD7"/>
<path transform="translate(705,297)" d="m0 0 4 1-1 6-3 1-1 3-3 1-1 5-3 3-1 3-4 2v2h-2v2h-2l-2 5-3 3h-3v2h-2v2l-5 2-2 4-5 3-4 3h-2v2h-2v2l-7 5h-2v2l-3 3-3 2 1 2-4-1-10 7 2 2-6 1-3 1 1 2-8 3-4-1-8 1-2 1-1-2-2 1 2-4 2-1v2l9-2 16-8 6-5h2v-2h3l2-7 4-6 11-8 13-11 10-9 13-12z" fill="#141225"/>
<path transform="translate(843,290)" d="m0 0 3 1-2 4-29 29h-2l-2 4-8 7-14 13-8 7-15 14-3 3h-2l-2 4-8 7-11 11-1 2-5 3-16 15-12 11-19 19-8 7-16 15-12 11-7 5-1 2-3-1 1-3 8-7 9-9 8-7 15-14 26-24 14-14 8-7 16-15 4-4h2l1-3 8-7 3-3h2v-2l8-7 13-13 8-7 3-1v-2l8-7 4-4h2v-2l8-7 4-4h2v-2l8-7 8-8z" fill="#3A4375"/>
<path transform="translate(447,452)" d="m0 0h4l-1 8-5 12-8 20-8 15-2 8-9-1-2-1-1-17-1-4 7-11 7-8 9-11 6-7z" fill="#FFE4B2"/>
<path transform="translate(1055,114)" d="m0 0h1v139h-2l-2-9v-16l-2-10-3 1v-13l-1-6 1-15v-25l1-15 1-29 2 3v7l1-6 2-3z" fill="#141224"/>
<path transform="translate(442,561)" d="m0 0h1v6h2l3 29-10 1h-19v-33l2-2z" fill="#FCE2B2"/>
<path transform="translate(926,654)" d="m0 0h5l3 4-4 1v2l2 1-6 1-1 1-25 1-24 3-22 5-15 5h-8l-6 2-8 3-5-1 3-3h2l1-3 17-8 14-3 13-2 7-1 8-3 12-2v-1h10l17-1 11 2z" fill="#151326"/>
<path transform="translate(399,520)" d="m0 0h13l10 1 2 2v32l-1 1h-20l-5-1-1-4 1-12v-13l-1-4z" fill="#FFE4B2"/>
<path transform="translate(745,66)" d="m0 0h6l6 4 5 6 2 6v29l-4-2-8-9-23-16v-4l9-10z" fill="#161624"/>
<path transform="translate(359,868)" d="m0 0h9l15 2 1 1v34h5v1l-17-1-12-2-1-14z" fill="#FDE2B2"/>
<path transform="translate(613,610)" d="m0 0h15l9 1v35h-12l-12-2-1-1v-32z" fill="#FFE4B2"/>
<path transform="translate(643,650)" d="m0 0 22 1 3 3v31l-1 1h-13l-11-1z" fill="#FFE4B3"/>
<path transform="translate(356,825)" d="m0 0 23 2 1 1v34l-19-1-6-1v-34z" fill="#FFE4B2"/>
<path transform="translate(669,173)" d="m0 0 4 2 13 8 15 7 8 3-3 3-15 7-11 3-8-1-6-3-5-6v-8l4-10z" fill="#161724"/>
<path transform="translate(810,171)" d="m0 0 5 2 6 5 1 6-7 11-10 15-7 10h-6l-8-7 1-6 20-30z" fill="#FCFBF8"/>
<path transform="translate(627,566)" d="m0 0 22 2 1 1v33h-16l-8-1-1-1v-33z" fill="#FFE4B2"/>
<path transform="translate(949,404)" d="m0 0 3 1-2 5-7 7h-2v2l-8 7-6 6h-2l-2 4h-2l-1 3-8 7-9 9-8 7-16 15-11 10h-2v2l-8 7-15 15-8 7-7 7-8 7-5 5h-2v2l-8 7-16 15-7 6-5 5-12 11-5 1 2-4 13-12 8-7 32-30 8-8 8-7 14-12 24-24 8-7 16-15 12-11 7-7 8-7 5-5 16-15 5-5z" fill="#393E66"/>
<path transform="translate(743,882)" d="m0 0h6l3 2-9 6-9 2 1 4h-2v3l-19 4-17 2-8-3-19-4 2-1v-4l8-1 3-2 14 1 36-7z" fill="#FEE6A8"/>
<path transform="translate(381,785)" d="m0 0h11l11 1 2 1 1 33-1 1-24-1-1-1z" fill="#FFE4B2"/>
<path transform="translate(93,392)" d="m0 0 4 2 21 21 7 8 15 15 7 8 7 7 7 8 9 10 10 10 7 8 6 6v2h2l7 8 17 17v2h2l9 11 14 14 7 8 8 7 7 8 8 8 5 6 5 5 3 4-3 1-2-1v-2h-2l-7-8-14-14-7-8-6-6v-2h-2l-7-8-15-15-7-8-5-5v-2h-2l-7-8-6-6v-2l-3-1-7-8-16-17-12-12-7-8-16-17-3-3v-2h-2v-2h-2l-7-8-16-17-12-12z" fill="#363B62"/>
<path transform="translate(364,604)" d="m0 0h14l10 1v34l-1 1-22-1-1-1z" fill="#FFE4B3"/>
<path transform="translate(377,698)" d="m0 0 18 1 6 1v34h-11l-11-1-3-2v-31z" fill="#FFE4B2"/>
<path transform="translate(657,784)" d="m0 0h7l16 3 1 32-3 2h-18l-3-1-1-3v-32z" fill="#FFE4B2"/>
<path transform="translate(361,742)" d="m0 0 22 1 1 1v33l-1 1-20-1-3-1v-33z" fill="#FFE4B2"/>
<path transform="translate(368,651)" d="m0 0h14l9 1 1 1v33l-4 1-19-2-1-1z" fill="#FFE4B2"/>
<path transform="translate(846,292)" d="m0 0 1 2 2 1-3 1v2l-7 6-20 20-8 7-15 14-10 9-9 9-8 7-13 13-8 7-16 15-12 11-12 12-8 7-7 7-8 7-13 12-3 3h-2v2l-8 7-8 8-6 4-2-1 2-4 9-7 10-9 8-8 8-7 4-2 1-3 8-7 21-21 8-7 14-13h3l2-4 16-16 8-7 10-10 8-7 13-12 16-14 5-5z" fill="#A0C3A5"/>
<path transform="translate(872,292)" d="m0 0 4 2 9 9 7 8 29 31 14 15 6 6v2h2l7 8 3 3v4h-3l-1 2-7-8-22-22-7-8-15-15-7-8-9-10-7-8-4-5z" fill="#AFC1B5"/>
<path transform="translate(910,743)" d="m0 0h5l-3 10-8 14-4 5-1 3h-2l-1 4h-2l-2 5-5 5-5 4-7 3-4 5 2 3 2 6 9 6 1 2 6 3-1 2-2-1v2l-5-1-13-8-17-8 1-3 9-5 13-10 10-10 10-13 11-18z" fill="#161529"/>
<path transform="translate(947,403)" d="m0 0 3 1-4 5-14 14-10 8-7 8-10 9-8 8-8 7-13 12h-2l-2 4-10 9-20 20-11 9-17 16-8 8-8 7-8 8-16 14-2-1v-39h1l1 36 4-3h2l2-4h2l2-4 11-11 11-9 6-7h2l2-4 3-1 2-4 9-7 10-10h2v-2l8-7 12-12 8-6 4-5h2v-2l7-6h2l2-4 6-5 5-5 6-5 5-5 16-15 8-8 7-6z" fill="#D6CCB6"/>
<path transform="translate(135,433)" d="m0 0 4 1 21 21v2l3 1 7 8 14 15 7 7 7 8 2 4 3 1 7 8 17 17 7 8 8 8 7 8 9 10v2l4 2 4 6 8 7 5 5v2h2l5 5 2 3-2 2-5-5v-2l-4-2-12-13-8-9-8-7-15-16-13-14v-2h-2l-7-8-17-17v-2h-2l-7-8-16-17-8-8-7-8-9-10-11-12z" fill="#A2ADB4"/>
<path transform="translate(639,742)" d="m0 0 19 1 1 1v33l-3 1-11-1-6-32z" fill="#FBE1B1"/>
<path transform="translate(751,170)" d="m0 0 5 1 8 4-1 4-8-1 2 4 21 12v2l-5 3-5 5h-6l-13-7-2-2v-8l-1-2h3l-1-12z" fill="#FDE2B2"/>
<path transform="translate(664,169)" d="m0 0 1 2 3 1-1 5-4 8-1 3v8l5 6 9 3 9-1 15-6 9-4 4 2-2 4-19 9-9 3h-11l-10-5-7-8-1-8 4-11z" fill="#F1A437"/>
<path transform="translate(207,285)" d="m0 0 5 2 9 10 7 8 11 12 17 17 7 8 9 9 7 8 14 15 7 8 23 23 5 6-1 3-8-7-16-17-17-17-7-8-11-12-7-8-7-7-7-8-21-21-7-8-10-10-2-3z" fill="#373B63"/>
<path transform="translate(744,60)" d="m0 0 9 1 8 5 6 8 3 9v22l-2 9-2 1-2-5-1-28-4-9-6-5-2-1h-6l-8 5-8 9-3 3h-3v-2l-2-1h3l1-5 7-9 8-6z" fill="#F5A431"/>
<path transform="translate(292,886)" d="m0 0 5 1 1 4 3-1 7 3v2h5v2l7-1 4 3h12l2 4 6 2 5-1 6-1 5 3h9v-1h9l3 3v3l2 1-7 2-9-2-5-2-8-1-5 1h-8l-6-2-18-4v-2l-7-1-10-4v-2l-5-2-5-6z" fill="#131124"/>
<path transform="translate(575,548)" d="m0 0 4 1 8 28 7 23 10 30 4 10 2 11-5-2-3-5v-2l-2-1-3-10-2-7-1-9-2-1-2-10-3-5-2-12-2-5 1-5-5-8v-8l-4-3-1-7z" fill="#171825"/>
<path transform="translate(626,694)" d="m0 0 5 1h14l1 1v18l-1 14-9 3-10-35z" fill="#FAE1B1"/>
<path transform="translate(201,505)" d="m0 0 7 6 11 11v2h2l9 11 14 14 7 8 8 7 7 8 8 8 5 6 5 5 3 4-3 1-2-1v-2h-2l-7-8-14-14-7-8-6-6v-2h-2l-7-8-15-15-7-8-5-5v-2h-2l-7-8-2-3z" fill="#363B64"/>
<path transform="translate(177,284)" d="m0 0h3l-2 5-11 11h-2l-2 4-12 12-8 7-4 5-5 3-9 9-8 7-4 2v2l-8 7-10 8v-3l26-26 8-7 16-15 8-7 6-6h2v-2l8-7z" fill="#3B4476"/>
<path transform="translate(487,868)" d="m0 0 7 1 3 3-1 5-4 3-8 3-6 3-8 3h-6l-4 1-6 2-7-2 1-2 5-2 10-2 11-6 9-6z" fill="#FFE7A9"/>
<path transform="translate(872,292)" d="m0 0 4 2 9 9 7 8 29 31 14 15 6 6v2h2l7 8 3 3-1 3-7-6-5-5-16-17-10-10v-2l-4-2-7-8-7-7-9-11-14-15-2-2z" fill="#33385C"/>
<path transform="translate(359,534)" d="m0 0 5 1 12 5 10 1 1 4-4 8-2 2-6-1-16-7-1-1z" fill="#9FAAB3"/>
<path transform="translate(718,408)" d="m0 0h2v2l-7 6-3 5-23 23-8 7-16 15-12 11-7 5-1 2-3-1 1-3 8-7 9-9 8-7 15-14 26-24z" fill="#3A4274"/>
<path transform="translate(772,157)" d="m0 0 7 1 10 8 3 4-1 4-2-2-2 3-1 3-6 1-8-7-7-5 1-5z" fill="#FDE2B1"/>
<path transform="translate(836,514)" d="m0 0 2 1-10 10-8 7-5 5h-2v2l-8 7-16 15-7 6-5 5-12 11-5 1 2-4 13-12 8-7 32-30 8-8 8-7z" fill="#3B4477"/>
<path transform="translate(896,835)" d="m0 0 3 1-1 1 2 1-1 3-4 4-3 4-4 4 2 1-3 2h-2l-5 4h-2v2l-7 7-7 4-13 5-3 2-10 1v2l-4 1 1-3 9-4h3v-2l9-2v-2l7-3 3-1v-2l5-2v-2l9-6 3-4 1-4 8-9z" fill="#141224"/>
<path transform="translate(861,357)" d="m0 0h4v2h2v-2h8l2 2v5l-8-1-2 2v3h7l11-1 5 5-1 10-5 2h-10l-2-4 12-2v-5l-5-1-7 2h-7l-4-5 1-8z" fill="#3C467C"/>
<path transform="translate(169,345)" d="m0 0 7 1 3 2v-3h4v4h-2l2 2v10l-5-1-1-8-5-1v8l1 10-3 3-6 1-8-2-1-13 4-2 2 10 7 1-2-11-1-6z" fill="#3C467D"/>
<path transform="translate(572,882)" d="m0 0 4 1 12 7 17 6 1 3h4l-1 2-3-1v2h-2v2l-6-1-10-3-16-8-5-6 1-3 4 1z" fill="#131224"/>
<path transform="translate(447,452)" d="m0 0h4l-1 8-5 12-2 5-5 2h-13l2-5 10-12 6-7z" fill="#FECA4D"/>
<path transform="translate(850,495)" d="m0 0 2 3-10 10-11 9-17 16-8 8-8 7-8 8-16 14-2-1v-39h1l1 36 4-3h2l2-4h2l2-4 11-11 11-9 6-7h2l2-4 3-1 2-4 9-7 10-10h2v-2z" fill="#CED7D8"/>
<path transform="translate(398,418)" d="m0 0 1 2-5 16h-6l-11-4-5-4 2-4 8-4 3-1z" fill="#FECA4B"/>
<path transform="translate(554,490)" d="m0 0h2v22l-3-3-2-5-3-2-16-1-5-2-2-6v-1l20-1z" fill="#191929"/>
<path transform="translate(179,286)" d="m0 0 3 1-6 8-7 7h-2l-2 4-10 10-8 7-14 13h-2v2l-8 7-10 10-8 6-8 4 5-6 8-7 3-1v-2l8-7 12-11 3-3h3l2-4 8-8 8-7 21-21z" fill="#A0BFA8"/>
<path transform="translate(687,243)" d="m0 0 5 1-1 2-5 5-9 6h-4l-2 4-10 6-3 3-12-1 1-2h2v-2h2v-2l6-3 3-2 14-8z" fill="#141224"/>
<path transform="translate(722,409)" d="m0 0 2 3-16 16-8 7-7 7-8 7-13 12-3 3h-2v2l-8 7-8 8-6 4-2-1 2-4 9-7 10-9 8-8 8-7 4-2 1-3 8-7 21-21z" fill="#9FADB1"/>
<path transform="translate(641,353)" d="m0 0 2 1-4 9h-3v2l-9 7-17 8h-7-2l-1 1-1 18h-1v-20l16-9 14-8 12-8z" fill="#1A1A2B"/>
<path transform="translate(650,820)" d="m0 0h1v7h2l1 2v33l-1 7 4 3 1 3v18h2v2l-6-1-5-3 1-5z" fill="#FAE2B5"/>
<path transform="translate(135,433)" d="m0 0 4 1 21 21v2l3 1 7 8 14 15 7 7 7 8 3 5-3 1-3-3v-2h-2l-7-8-16-17-8-8-7-8-9-10-11-12z" fill="#A1ADB3"/>
<path transform="translate(707,201)" d="m0 0 3 1v5l-4 4-8 4-8 3h-16l-5-5v-1l14-1 16-6z" fill="#141324"/>
<path transform="translate(473,703)" d="m0 0h4v7h3l5 16v5l-2 2-3-1 3-5-13 1 1-7-2-9v-6z" fill="#FAE3A8"/>
<path transform="translate(701,126)" d="m0 0h5l17 11 12 8 4 5v1l-7-1-21-14-6-3v8l-4 1-1-2v-11z" fill="#FCF6E9"/>
<path transform="translate(667,526)" d="m0 0h17l10 2 1 5-3 2-13 1h-12l-1-1v-7z" fill="#FFE4B3"/>
<path transform="translate(455,659)" d="m0 0h5l6 5 5 16-1 3v-2h-12l2-4-1-3-6-4 1-9z" fill="#FCE5A9"/>
<path transform="translate(746,193)" d="m0 0 8 6 8 4 5 1-2 1 1 5-4 5-1-3-19-8v-6z" fill="#9FAAB3"/>
<path transform="translate(437,525)" d="m0 0 8 6-1 27-6-3-1-1z" fill="#FEE3B2"/>
<path transform="translate(822,180)" d="m0 0 2 1v8l-10 15-7 11-6 8-4-1-4-2 6-2 11-17 10-15z" fill="#EEA33A"/>
<path transform="translate(207,285)" d="m0 0 5 2 9 10 7 8 11 12 13 13v2l-4-1-22-22-7-8-10-10-2-3z" fill="#363B62"/>
<path transform="translate(287,374)" d="m0 0 7 6 19 19 7 8 8 7-3 3-6-5-7-8-13-13-5-6-7-7z" fill="#CED8D6"/>
<path transform="translate(843,290)" d="m0 0 3 1-2 4-29 29h-2l-2 4-4 3-2-1 2-5 4-2v-2l8-7 4-4h2v-2l8-7 8-8z" fill="#383D68"/>
<path transform="translate(155,683)" d="m0 0 3 1v3l5 2 4 2 6 9 4 15 2 12-2 2-2-6-1-4-3-7-3-10-3-6-1-3-3-1-2-2-9-5 4-1z" fill="#141224"/>
<path transform="translate(765,369)" d="m0 0h3l-2 4-10 10-8 7-16 15-7 6h-2l1-4 12-11h3l2-4 16-16z" fill="#9CB7A8"/>
<path transform="translate(96,389)" d="m0 0 7 6 1 3 3 1 7 8 9 9 2 5 4 2 3 3v2h2l1 5-7-6-10-10-7-8-17-17z" fill="#A0ADB2"/>
<path transform="translate(93,392)" d="m0 0 4 2 21 21 7 8 10 10-1 2h-3v-2h-2v-2h-2l-7-8-16-17-12-12z" fill="#24273D"/>
<path transform="translate(177,284)" d="m0 0h3l-2 5-11 11h-2l-2 4-12 12-7 6-4-2 16-15 3-3h2v-2l8-7z" fill="#373D66"/>
<path transform="translate(629,274)" d="m0 0h8l5 2-3 2-20 6-8 2h-4v-2h2l1-4 6-2h10l1-3z" fill="#141224"/>
<path transform="translate(686,186)" d="m0 0h6l12 5 5 2-3 3-6 3-7-1-1 2-3-7 1-2-4-3z" fill="#151326"/>
<path transform="translate(494,808)" d="m0 0h6l2 12v9h-2v3l-5 2 2-11-3-1-1-3-2-1 1-8z" fill="#FEE5A4"/>
<path transform="translate(747,381)" d="m0 0 3 3-10 10-1 2-5 3-16 15-6 4 2-4 4-4h2l-1-3 12-11 13-12z" fill="#3B4476"/>
<path transform="translate(710,488)" d="m0 0h10l11 4 9 5 3 3-5-1-19-5-13-2-1-1-8-1v-1z" fill="#F5EFE2"/>
<path transform="translate(761,888)" d="m0 0h3l-2 5-4 5-13 5h-7l1-4 6-2v-2z" fill="#131223"/>
<path transform="translate(850,495)" d="m0 0 2 3-10 10-11 9-17 16-2-3 4-2 2-4 3-1 2-4 9-7 10-10h2v-2z" fill="#C5D3B2"/>
<path transform="translate(874,476)" d="m0 0 2 1-3 3-3 5-4 2v2l-8 7-15 15-7 4-2-1 17-16 18-18z" fill="#373D66"/>
<path transform="translate(162,308)" d="m0 0 2 1-12 12-8 10h-2v2h-2v2h-2v2l-8 5-5 4-6 4 2-4 8-8h2v-2l8-7 12-11z" fill="#363A5F"/>
<path transform="translate(402,389)" d="m0 0 1 2-2 4 4 1v2h-13l-2-2v2l-2 1-13 1-2-3 4-1 1-2 18-2 2-2z" fill="#141225"/>
<path transform="translate(496,882)" d="m0 0 3 1-3 3-5 3-3 5-6 6-11 4-2-2 5-5h3l-1-4 19-10z" fill="#131223"/>
<path transform="translate(836,514)" d="m0 0 2 1-10 10-8 7-5 5h-2v2l-7 4-4 4h-2l2-4 12-11 9-9 8-7z" fill="#3B4477"/>
<path transform="translate(293,377)" d="m0 0 4 2 26 26 5 6-1 3-8-7-16-17-10-10z" fill="#2B2F4A"/>
<path transform="translate(689,896)" d="m0 0 4 3 3-1h11l2 1v2l5 1v1l-17 2-8-3-9-2-1-3z" fill="#F3DCAF"/>
<path transform="translate(772,366)" d="m0 0 2 1-13 13-7 8-19 19-4-2 10-10 8-7 16-15z" fill="#363A5F"/>
<path transform="translate(371,442)" d="m0 0h8l8 2 2 1v6l-1 1-9-1-8-4-1-4z" fill="#FECA4B"/>
<path transform="translate(638,513)" d="m0 0h16v7h-18l-3-2 2-4z" fill="#FFE4B2"/>
<path transform="translate(947,403)" d="m0 0 3 1-4 5-14 14-10 8-7 8-7 6h-2v-2l5-5 16-15 8-8 7-6z" fill="#D5DBD8"/>
<path transform="translate(481,742)" d="m0 0 8 1 1 8h-2v2l-2 1h-9l-2-5 4-6z" fill="#FEE6A8"/>
<path transform="translate(179,286)" d="m0 0 3 1-6 8-7 7h-2l-2 4-10 10-8 6-1-3 13-12 6-7 8-7z" fill="#A2C5A7"/>
<path transform="translate(650,820)" d="m0 0h1v7h2l1 2v33l-2 9h-1l-1-35z" fill="#DFD1B0"/>
<path transform="translate(134,434)" d="m0 0 4 2 11 12 13 14v2l-3 1-11-12-14-15-2-3z" fill="#353A62"/>
<path transform="translate(107,833)" d="m0 0h2v2l6 1 9 5v2l6 2 9 6v2l4 1v3l-5-2-11-7-9-4-3-4-6-3z" fill="#141224"/>
<path transform="translate(871,295)" d="m0 0 4 2 7 7 7 8 9 11-1 2-4-2-11-12-7-8-4-5z" fill="#AEB4B5"/>
<path transform="translate(273,364)" d="m0 0 4 2 15 16v2l4 2 12 13 6 6-1 3v-2h-2l-6-7-5-5-5-4v-2l-4-2-3-3v-2l-4-2v-2h-3l-4-7v-2l-4-2z" fill="#363B61"/>
<path transform="translate(923,346)" d="m0 0h2l7 8 9 9v2h2l7 8 3 3-1 3-7-6-5-5-16-17-2-4z" fill="#2C3150"/>
<path transform="translate(137,813)" d="m0 0h21l4 3-3 1h-37v-2l3-1h10z" fill="#141224"/>
<path transform="translate(201,505)" d="m0 0 7 6 11 11v2h2l9 11h-3v-2l-3 1-11-12-3-3v-2h-2l-7-8-2-3z" fill="#3B4477"/>
<path transform="translate(677,452)" d="m0 0h2l-2 4-8 8h-2v2l-8 7-8 8-6 4-2-1 2-4 9-7 10-9 8-8z" fill="#A5B8B3"/>
<path transform="translate(199,514)" d="m0 0 3 1 7 8 16 16 7 8 9 9 7 8h-3l-14-14-7-8-6-6v-2l-4-2v-2h-2l-7-8-6-6z" fill="#363B62"/>
<path transform="translate(141,452)" d="m0 0 7 6 13 13 7 8 7 7 7 8 8 8-1 2-13-13-2-4-4-2v-2l-4-2-7-8-1-3-4-2v-2l-4-2v-2l-3-1-6-7z" fill="#373C64"/>
<path transform="translate(575,548)" d="m0 0 4 1 8 28-1 2-7-10v-8l-4-3-1-7z" fill="#181926"/>
<path transform="translate(225,533)" d="m0 0h2l1 2 5 3 11 11 7 8 6 7-3 1-8-8v-2h-2l-7-8-12-12z" fill="#35395E"/>
<path transform="translate(796,340)" d="m0 0 2 1-3 5-8 7-10 10-8 7-3-2 9-9 8-7z" fill="#9FAAB3"/>
<path transform="translate(826,186)" d="m0 0h3l-2 6-7 10-5 9h-2l-1 2-1-3 2-6 8-12 4-2z" fill="#151425"/>
<path transform="translate(201,811)" d="m0 0h14l13 3v1l-9 1h-13l-13-1-1-2z" fill="#0A070F"/>
<path transform="translate(359,396)" d="m0 0 8 1 1 2-1 2-5-1v2l2 1-6 2h-8l-3-3 1-3 10-2z" fill="#141225"/>
<path transform="translate(893,324)" d="m0 0 4 2 9 10 14 14 7 8 2 4-7-6-13-13-6-4v-2l-4-2-1-4-1-3-4-2z" fill="#363B61"/>
<path transform="translate(739,69)" d="m0 0 4 1-2 8-5 5-7 1v-4l9-10z" fill="#0C0A13"/>
<path transform="translate(94,402)" d="m0 0 7 6 8 8 7 8 9 9 7 8-1 2-13-13v-2l-4-2-5-6-5-5-7-8-3-3z" fill="#363A5F"/>
<path transform="translate(718,894)" d="m0 0h9l5 2 1 3-13 3h-6l2-6z" fill="#F6DEAF"/>
<path transform="translate(256,561)" d="m0 0 5 2 4 5 14 14v2h2l5 5 2 3-2 2-5-5v-2l-4-2-12-13-9-10z" fill="#ADC9B4"/>
<path transform="translate(718,408)" d="m0 0h2v2l-7 6-3 5-15 15-4-2 17-16z" fill="#373C65"/>
<path transform="translate(898,322)" d="m0 0 8 6 4 2 9 10 5 6-3 2-7-7v-2l-4-2-7-8-5-5z" fill="#33385B"/>
<path transform="translate(809,213)" d="m0 0 3 2-7 11-7 7h-2v2h-3v-2h2l2-5 6-8h2l2-4z" fill="#151424"/>
<path transform="translate(864,798)" d="m0 0 2 1-3 4 1 2-1 2h2l7 7-2 1-17-8 1-3 9-5z" fill="#1B1B2C"/>
<path transform="translate(949,404)" d="m0 0 3 1-2 5-7 7h-2v2l-5 4-4-1 10-10zm-19 19 2 1-2 3h-2z" fill="#33385B"/>
<path transform="translate(262,350)" d="m0 0 4 1 20 20 1 6-20-20z" fill="#E1D7B8"/>
<path transform="translate(301,846)" d="m0 0 9 3 19 7 12 4v2l-11-2-14-5-14-7z" fill="#FFE4B3"/>
<path transform="translate(775,669)" d="m0 0 2 4 1 10-2 5-5-1-1-3h2l-1-11z" fill="#141225"/>
<path transform="translate(252,331)" d="m0 0 20 20 1 3-2 2-12-13-9-10z" fill="#363B62"/>
<path transform="translate(206,286)" d="m0 0 4 5 14 14v5l-5-4-7-8-7-6-3-3z" fill="#D3CAB5"/>
<path transform="translate(304,395)" d="m0 0 5 2v2l5 2 14 14-4 2-15-16z" fill="#9EB3AD"/>
<path transform="translate(846,292)" d="m0 0 1 2 2 1-3 1v2l-7 6-5 5-5 4-2-2z" fill="#9EADB0"/>
<path transform="translate(874,473)" d="m0 0 1 2-4 5-8 7-10 10h-2l1-4 12-12 8-6z" fill="#D7DCD9"/>
<path transform="translate(861,357)" d="m0 0h4v2h2v-2h8l2 2v5l-8-1-2 1v-2l-5-1z" fill="#4B5582"/>
<path transform="translate(145,320)" d="m0 0h2l-1 4-13 12h-2v2l-6 5-2-1 9-10 4-4h3l2-4z" fill="#B6CBBD"/>
<path transform="translate(737,54)" d="m0 0 5 1-1 6-5 4-5-1-1-3 1-2h2v-2l4-1z" fill="#141325"/>
<path transform="translate(275,685)" d="m0 0 12 1 4 1-2 1v2l-6 2h-6l-4-3 1-3z" fill="#151327"/>
<path transform="translate(714,416)" d="m0 0m-1 1m-1 1m-1 1m-1 1m-1 1m-1 1m-1 1m-1 1m-1 1m-1 1m-1 1m-1 1m-1 1m-1 1m-1 1m-1 1m-1 1m-1 1m-1 1m-1 1 2 3-13 12-4 2v-3l3-3h2l1-3 8-7z" fill="#9EABB1"/>
<path transform="translate(177,284)" d="m0 0h3l-2 5-11 11h-2l-2 4-3-1 1-3 8-7z" fill="#33385D"/>
<path transform="translate(629,274)" d="m0 0h8l5 2-3 2-12 4h-3l2-4 1-3z" fill="#1A1A2E"/>
<path transform="translate(390,424)" d="m0 0h7l-2 9-9-3-1-4z" fill="#FEE3AF"/>
<path transform="translate(894,662)" d="m0 0h32l-1 2-33 1v-2z" fill="#212338"/>
<path transform="translate(596,281)" d="m0 0h10l3 1v2h-2v2h-10l-11 1 2-2z" fill="#141224"/>
<path transform="translate(932,363)" d="m0 0 6 2 7 6 6 7h2v2h-3l-1 2-7-8-10-10z" fill="#B0BDB2"/>
<path transform="translate(772,530)" d="m0 0h1l1 36 4-3h2l2-4 2 2-7 7-4 2-1-1z" fill="#9FAAB3"/>
<path transform="translate(114,344)" d="m0 0 2 1-4 5-7 8-10 8v-3l5-5z" fill="#353A60"/>
<path transform="translate(573,535)" d="m0 0h2l1 3v8l-4 2-4-4 3-7z" fill="#181827"/>
<path transform="translate(850,495)" d="m0 0 2 3-10 10-6 4-3-2 9-8h2v-2z" fill="#9CB6A8"/>
<path transform="translate(937,675)" d="m0 0 2 1 1 4-2 2v-2h-2v9l-3 3-2-1-1-4h2v-7l3-3h2z" fill="#131224"/>
<path transform="translate(447,452)" d="m0 0h4l-1 8-1 1-10-1 4-5z" fill="#FEE7BB"/>
<path transform="translate(248,335)" d="m0 0 5 2v2l4 1 11 11 3 4-1 2-5-6-4-1-7-8z" fill="#E2D9C5"/>
<path transform="translate(728,271)" d="m0 0 1 3h2v2h-3l-2 5-4 4h-5l4-6z" fill="#19192D"/>
<path transform="translate(729,899)" d="m0 0h5l2 2-1 3-4 3h-10v-3l8-2-2-2z" fill="#131123"/>
<path transform="translate(314,397)" d="m0 0 7 6 7 8-1 3-8-7-6-6z" fill="#333961"/>
<path transform="translate(93,392)" d="m0 0 4 2 13 13-2 3-16-16z" fill="#303556"/>
<path transform="translate(761,368)" d="m0 0 3 1-1 3h-2l-2 4-8 7-3-1 1-3h2l1-3 8-7z" fill="#383F6B"/>
<path transform="translate(179,286)" d="m0 0 3 1-6 8-7 7h-2l-1 3-2-3 14-14z" fill="#AFCDB4"/>
<path transform="translate(787,589)" d="m0 0 2 1v7l-4 1v3l-5-5 1-4z" fill="#171528"/>
<path transform="translate(806,542)" d="m0 0 2 1-8 8-8 7-7 7-2-1 11-11 2-4 4-3h2z" fill="#3C467D"/>
<path transform="translate(221,308)" d="m0 0 7 6 6 5 7 8 4 5-1 2-6-6v-2l-4-2v-2l-4-2-9-10z" fill="#393E66"/>
<path transform="translate(885,466)" d="m0 0h3l-2 4-9 9-5 3 2-4v-3z" fill="#3D4579"/>
<path transform="translate(152,861)" d="m0 0 6 2 8 3v2l6 1 5 2v2h-6l-5-3-14-7z" fill="#141225"/>
<path transform="translate(185,489)" d="m0 0 4 2 4 4v2h2l6 7v2l-4-1-2-4-3-1-7-8z" fill="#262942"/>
<path transform="translate(931,419)" d="m0 0m-1 1m-1 1m-1 1m-1 1m-1 1m-1 1m-1 1m-1 1v3l-9 10-6 5h-2v-2l5-5z" fill="#DEE6E4"/>
<path transform="translate(833,524)" d="m0 0h2l-2 4-5 4-5 5-3 1v2h-2v2l-8 7v-3l7-7h2l1-3 8-7z" fill="#373C64"/>
<path transform="translate(148,450)" d="m0 0 4 1 10 11v2l-3 1-11-12z" fill="#3A4274"/>
<path transform="translate(811,200)" d="m0 0 1 2-2 5h-2l-2 5-3 5-3 6-7-2v-1l6-2 11-17z" fill="#FECA4B"/>
<path transform="translate(822,180)" d="m0 0 2 1v8l-8 8-2 3h-2l2-5 7-11z" fill="#F7BC47"/>
<path transform="translate(196,740)" d="m0 0 4 2 4 6v3h-8z" fill="#11101D"/>
<path transform="translate(236,317)" d="m0 0 4 1 12 12v2l-4-1-12-12z" fill="#2D314E"/>
<path transform="translate(891,313)" d="m0 0 4 1 9 10 3 4h-3l-6-5-5-5-3-4z" fill="#383E69"/>
<path transform="translate(580,562)" d="m0 0 3 1 4 16-4-4-4-6z" fill="#191A27"/>
<path transform="translate(604,284)" d="m0 0m-7 1h7l2 2-15 3h-7l5-4z" fill="#1F2033"/>
<path transform="translate(287,868)" d="m0 0 4 1 3 8-6-1-2-1v-2h-2l-1-3z" fill="#100E19"/>
<path transform="translate(655,472)" d="m0 0 3 1-6 7-7 5-2-1 2-4 9-7z" fill="#9EABB2"/>
<path transform="translate(775,649)" d="m0 0h2l-1 9-4 3h-6l6-7z" fill="#FFE6A9"/>
<path transform="translate(919,346)" d="m0 0 7 6 8 8 3 5-6-2-3-3-1-4-8-8z" fill="#E3E0D1"/>
<path transform="translate(256,562)" d="m0 0 5 5 6 7-2 3-10-11z" fill="#394063"/>
<path transform="translate(201,505)" d="m0 0 7 6 5 5-1 3h-2v-2h-2l-7-8-2-3z" fill="#373C64"/>
<path transform="translate(109,408)" d="m0 0 4 2 9 10-1 2-4-2-8-9z" fill="#292D46"/>
<path transform="translate(737,397)" d="m0 0v3l-7 7-5 4h-2l1-4 9-8z" fill="#D3DADB"/>
<path transform="translate(729,73)" d="m0 0 2 3-1 4-4 4h-3v-2l-2-1h3l1-5z" fill="#F6C14D"/>
<path transform="translate(843,290)" d="m0 0 3 1-2 4-11 11v-3l4-6z" fill="#404770"/>
<path transform="translate(504,286)" d="m0 0 5 1-5 5-5 2-4-3 6-2v-2z" fill="#141225"/>
<path transform="translate(764,89)" d="m0 0h1l1 15 2 1 1 7-3 3-2-5z" fill="#D2BB7A"/>
<path transform="translate(445,620)" d="m0 0h6l2 1v4l-7 2-2-3z" fill="#FFE7A9"/>
<path transform="translate(173,476)" d="m0 0 4 2 9 10-2 3-11-12z" fill="#33375A"/>
<path transform="translate(251,674)" d="m0 0 7 1 7 5-1 3-14-7z" fill="#1B1C2E"/>
<path transform="translate(751,581)" d="m0 0 4 1 1 2-1 3h-2l-1 2-4-1-7 1 3-2 4-2z" fill="#FFE7A9"/>
<path transform="translate(120,417)" d="m0 0h2l3 3 7 6v2h2l1 5-7-6-8-8z" fill="#CADBCF"/>
<path transform="translate(456,318)" d="m0 0 3 1-5 5h-4l-2 4-4 2-1-3 4-3h2v-2l4-1v-2z" fill="#141225"/>
<path transform="translate(789,170)" d="m0 0 5 5-4 2-4 4-7-1-1-2h8v-5z" fill="#FAC951"/>
<path transform="translate(874,476)" d="m0 0 2 1-3 3-3 5-4 2v2l-4-1 6-7z" fill="#393F68"/>
<path transform="translate(689,896)" d="m0 0 4 5-4 1-9-2-1-3z" fill="#F2DBAE"/>
<path transform="translate(781,697)" d="m0 0h9l-1 4-6 2-1 3-1-2z" fill="#141224"/>
<path transform="translate(923,346)" d="m0 0h2l7 8 2 2v3l-4-2-8-8z" fill="#2A2E46"/>
<path transform="translate(777,158)" d="m0 0 5 2 8 7h-3l-2-2-1 2-4-2-3-3z" fill="#EBC566"/>
<path transform="translate(656,874)" d="m0 0 2 1v18h2v2l-6-1-1-2h3l-1-3z" fill="#FAE1A8"/>
<path transform="translate(360,903)" d="m0 0 12 1 1 3h-13l-2-1v-2z" fill="#171724"/>
<path transform="translate(141,452)" d="m0 0 7 6 11 11-3 1-2-4-4-2v-2l-3-1-6-7z" fill="#373C65"/>
<path transform="translate(949,404)" d="m0 0 3 1-2 5-6 5-1-5 5-5z" fill="#3F4776"/>
<path transform="translate(272,354)" d="m0 0 4 2 7 7-2 2-5-3-4-5z" fill="#394170"/>
<path transform="translate(662,175)" d="m0 0h2l-1 5-2 4h-2l-2 4-1-4 4-8z" fill="#FBBE43"/>
<path transform="translate(1051,921)" d="m0 0 5 1-1 2h-4v3l4-1v2l-2 1-2 3-4-2v-2h2l1-6z" fill="#141225"/>
<path transform="translate(919,729)" d="m0 0 1 2-2 7-6 2 2-6 2-4z" fill="#19182D"/>
<path transform="translate(135,433)" d="m0 0 4 1 9 9v2l-4-1-9-10z" fill="#AECCB3"/>
<path transform="translate(781,573)" d="m0 0 2 1-9 9-3 5-3-1 2-4z" fill="#363A60"/>
<path transform="translate(904,444)" d="m0 0 3 1-6 7-4 4-2-1 1-4z" fill="#A6CFA7"/>
<path transform="translate(262,350)" d="m0 0 4 1 9 9-1 3-7-6z" fill="#BEBDB4"/>
<path transform="translate(680,321)" d="m0 0 1 2-5 5-1 3-2 1-2 4-3-1 1-4 10-9z" fill="#1C1D31"/>
<path transform="translate(609,653)" d="m0 0 4 1 2 5v8l-1-2-2-1-2-7z" fill="#191A28"/>
<path transform="translate(656,268)" d="m0 0m-7 1h7l1 2-14 5 1-3 4-2z" fill="#1C1E30"/>
<path transform="translate(492,787)" d="m0 0h5l1 4-4 3h-3v-6z" fill="#FFE7A9"/>
<path transform="translate(924,707)" d="m0 0h4v2h2v5l-7 1z" fill="#141325"/>
<path transform="translate(745,388)" d="m0 0h3l-2 4-8 6-4 1 2-3h3l2-4z" fill="#ABC5AB"/>
<path transform="translate(223,306)" d="m0 0 3 1 6 7 1 5-7-6-3-5z" fill="#E4DECE"/>
<path transform="translate(765,683)" d="m0 0 4 1-1 9h-2l-3-7z" fill="#FCE4AA"/>
<path transform="translate(308,518)" d="m0 0h2v14h-2l-1-4v-9z" fill="#3D477F"/>
<path transform="translate(622,280)" d="m0 0m-6 1h6l1 2-12 3h-4v-2l7-2z" fill="#1F2135"/>
<path transform="translate(260,672)" d="m0 0 5 3 5 5v3l-5-3-7-4 2-1z" fill="#141224"/>
<path transform="translate(812,531)" d="m0 0 1 3-7 7-5 3v-3z" fill="#E8E3D6"/>
<path transform="translate(913,343)" d="m0 0 4 2 10 10 1 4-7-6-8-9z" fill="#A7BEAD"/>
<path transform="translate(806,331)" d="m0 0h3l-2 4-8 7h-3l9-10z" fill="#B7CAC0"/>
<path transform="translate(812,322)" d="m0 0 3 1-2 1-2 4-4 3-2-1 2-5z" fill="#383E6A"/>
<path transform="translate(834,300)" d="m0 0v3l-4 6-3 3h-3l1-4 8-7z" fill="#303557"/>
<path transform="translate(699,303)" d="m0 0 3 1-11 11-3-1z" fill="#161623"/>
<path transform="translate(453,633)" d="m0 0h4l-1 3-16 1 3-2z" fill="#F9E2AC"/>
<path transform="translate(898,464)" d="m0 0v3l-6 5-5 5-4 2 1-3 8-7z" fill="#363B61"/>
<path transform="translate(892,459)" d="m0 0 4 1-6 7-4-2z" fill="#393F6D"/>
<path transform="translate(347,399)" d="m0 0h7l2 3-2 3-4-1-3-2z" fill="#141225"/>
<path transform="translate(664,169)" d="m0 0 1 2 3 1-1 5-3 3v-5l-3 1 2-5z" fill="#ECAF49"/>
<path transform="translate(764,163)" d="m0 0 2 4 6 4 6 7-4-2-10-8z" fill="#FECA4B"/>
<path transform="translate(819,523)" d="m0 0 4 1-9 9-2-3 4-2 2-4z" fill="#A8B9B4"/>
<path transform="translate(689,441)" d="m0 0m-1 1m-1 1 1 3-8 7-2-2 4-4h2l1-3z" fill="#9DB2AC"/>
<path transform="translate(118,428)" d="m0 0 4 2 10 11-1 2-13-13z" fill="#363B62"/>
<path transform="translate(726,403)" d="m0 0v3l-10 10-4 2 2-4z" fill="#3D477F"/>
<path transform="translate(782,559)" d="m0 0 2 2-7 7-4 2-1-3 6-4h2z" fill="#AEC3B8"/>
<path transform="translate(810,536)" d="m0 0h2l-2 5-6 3-2 3h-2l2-4z" fill="#373C65"/>
<path transform="translate(861,488)" d="m0 0 3 1-6 7-4-1z" fill="#35395D"/>
<path transform="translate(652,479)" d="m0 0 2 1-1 3-2 1-1 3h-6l5-6z" fill="#363B62"/>
<path transform="translate(817,321)" d="m0 0 2 3-8 7-2 1-2-2 5-4z" fill="#9DB0AD"/>
<path transform="translate(256,561)" d="m0 0 5 2 4 5 2 5-7-6z" fill="#CBE2CD"/>
<path transform="translate(896,452)" d="m0 0v3l-6 7h-3l2-4z" fill="#D6DBDD"/>
<path transform="translate(399,412)" d="m0 0 2 1-2 5h-7v-3-1z" fill="#FFE6AA"/>
<path transform="translate(293,377)" d="m0 0 4 2 5 6-2 2-7-7z" fill="#313452"/>
<path transform="translate(761,368)" d="m0 0 3 1-1 3h-2l-2 4-4-2z" fill="#383D67"/>
<path transform="translate(796,340)" d="m0 0 2 1-3 5-6 5h-2l2-4z" fill="#9EADB0"/>
<path transform="translate(206,286)" d="m0 0 4 5 1 2-2 2-7-5z" fill="#A2ABB3"/>
<path transform="translate(246,671)" d="m0 0h8l4 2v2h-10z" fill="#141225"/>
<path transform="translate(790,655)" d="m0 0h1v5l-5 4-3-2 4-5z" fill="#141224"/>
<path transform="translate(199,514)" d="m0 0 3 1 7 8 5 6-4-2-11-11z" fill="#35395D"/>
<path transform="translate(390,396)" d="m0 0h7v1l5 1v1l-18 1 4-2h2z" fill="#1D1F2E"/>
<path transform="translate(287,374)" d="m0 0 7 6 3 4-6-2-4-4z" fill="#E3EADC"/>
<path transform="translate(111,353)" d="m0 0v3l-6 5-8 4 5-6 8-5z" fill="#BFDEC0"/>
<path transform="translate(158,470)" d="m0 0 3 1 7 8 3 4-4-1-9-10z" fill="#363A5E"/>
<path transform="translate(687,315)" d="m0 0 3 1-9 9-1-2 2-4zm-9 10 2 1z" fill="#141323"/>
<path transform="translate(641,270)" d="m0 0 7 1-5 5-5-1 1-4z" fill="#141225"/>
<path transform="translate(129,338)" d="m0 0 2 1-4 6-6 4-2 1 2-4z" fill="#383E69"/>
<path transform="translate(236,317)" d="m0 0 4 1 4 4-1 4-7-7z" fill="#2C2F49"/>
<path transform="translate(570,286)" d="m0 0h6l5 2v1l-11 1z" fill="#141225"/>
<path transform="translate(525,268)" d="m0 0 16 4v1l-11-1-5-2z" fill="#FECA4B"/>
<path transform="translate(704,192)" d="m0 0 5 1-3 3-7 3v-3z" fill="#191A27"/>
<path transform="translate(1051,934)" d="m0 0 2 1v5l3 1v2l-4-1-3-4z" fill="#141225"/>
<path transform="translate(618,888)" d="m0 0 3 3 15 1v1h-17l-1 2z" fill="#171724"/>
<path transform="translate(177,873)" d="m0 0h7l6 3 1 2-9-2-5-2z" fill="#141225"/>
<path transform="translate(466,667)" d="m0 0 2 3 1 7-5-2z" fill="#F0DAAE"/>
<path transform="translate(249,557)" d="m0 0 4 2 4 5-3 1-5-5z" fill="#272A45"/>
<path transform="translate(390,425)" d="m0 0h5l-1 5h-5z" fill="#FCFEFE"/>
<path transform="translate(102,356)" d="m0 0 1 2-6 7-3 1 2-5z" fill="#282B49"/>
<path transform="translate(145,320)" d="m0 0h2l-1 4-5 4h-2l2-4z" fill="#C0D1C8"/>
<path transform="translate(232,315)" d="m0 0 7 6 2 3-5-1-4-6z" fill="#FCF9F0"/>
<path transform="translate(212,297)" d="m0 0 4 2 7 7 1 4-5-4-7-8z" fill="#9FAAB3"/>
<path transform="translate(179,286)" d="m0 0 3 1-6 8h-2l1-4z" fill="#A0B9AC"/>
<path transform="translate(875,665)" d="m0 0h15v1l-17 2z" fill="#252841"/>
<path transform="translate(128,428)" d="m0 0 4 2 3 4-4 1v-2h-2v-2l-2-1z" fill="#2A2F4D"/>
<path transform="translate(710,418)" d="m0 0 2 1-11 11v-3l2-4 5-3z" fill="#3C467D"/>
<path transform="translate(730,406)" d="m0 0v3l-3 1v2l-8 6 2-4 7-7z" fill="#383D68"/>
<path transform="translate(354,399)" d="m0 0 4 1-1 2 5 1-4 2-4-1-1-2 2-1z" fill="#191A29"/>
<path transform="translate(909,338)" d="m0 0 5 1 5 7-4-2-5-3z" fill="#CDD3C6"/>
<path transform="translate(153,313)" d="m0 0 2 3-8 6-1-3z" fill="#9EAEAF"/>
<path transform="translate(669,261)" d="m0 0m-1 1 1 3-11 5 2-4 4-2z" fill="#1D1E30"/>
<path transform="translate(1053,260)" d="m0 0 3 1v6h-3v-2h-2z" fill="#141225"/>
<path transform="translate(1052,240)" d="m0 0 4 4v9h-2l-2-9z" fill="#141225"/>
</svg>
