<?xml version="1.0" encoding="UTF-8"?>
<svg version="1.1" viewBox="0 0 1108 868" width="277" height="217" xmlns="http://www.w3.org/2000/svg">
<path transform="translate(0)" d="m0 0h1108v868h-1108z" fill="#181726"/>
<path transform="translate(256,147)" d="m0 0h131l13 1 10 4 9 9v2l416 1 17 3 12 5 11 7 12 11 8 11-1 5v12l2 12 5 12 2-6 2-12 3-11 1-1h30l7 2 3 3 5 17 1 6v10l-4 15-4 9v5l23 12 22 9 9 6 6 7 8 16 4 13 4 21 3 25v17l-5 24-5 15-11 24-12 20-1 1-9 1-3 4-2 8v10l-12 3h-13l-2-2-33-2-1-4 30-1 5-4v-3h-5l-1-4 9-10 8-3 1-2h3v-8l13-34 6-21v-23l-1-14h-2l-3 10-6 23-3 4h-18l-4-6-2-1h-33l-4 2-4 5h-9l-9 3-2 15 1 64 2 4 6 4-1 3h-14l-13-1-3 37v14l-1 17-5 3-9 3-15 2h-521l-17-3-14-6-11-8-8-7-8-11-6-12-4-14-1-8v-172l2-1 8 4 9 4h124l11-3 3-2h3v-2l6-5h2l2-4 3-1v-3h2l1-5 3-5 1-8v-131h-198l-1-3 4-13 7-9 8-6 7-3z" fill="#FDFDFC"/>
<path transform="translate(519,209)" d="m0 0h302l14 7 9 9 7 14v97l-6 21-5 20-4 7-4-1-5-5-5-2-47-2-11-5-12-5-5-3 2 11-1 1h-7l-16-3-1 5h-18l-9 4-4 4-1 2v11l2 5 4 3v2l7 2 95 1 28 8 11 2 12 1v19l-4 12-5 9h-2v3l-7 6h-2v2l-11 6-11 3-44 1h-225l-9-1-9-3-10-5v-2h-3l-7-8-2-4h-2l-6-14-2-5-1-11v-153l1-35 8-16 8-8 9-5h4z" fill="#262938"/>
<path transform="translate(882,695)" d="m0 0h31l18 4 15 6 9 6 18 3 16 6 11 8 8 9 8 15 3 11v14l-4 11-6 9-10 7-11 4-5 1h-17l-16-5-6-1-12 5-14 3-7 1h-28l-23-4-11-4-8-6-3-6v-66h-2l-2 4-20 20-8 7-8 8-8 7-7 6-10 2-24 1-139 1-4 1h-9l-1-1-309-1-21-3-9-4-1-1v-9l5-9 8-12 11-16 12-17 6-5 12-3 18-3h421l54 1 16 2 13 3 4 2 2 4 15-9 15-5z" fill="#FDFDFB"/>
<path transform="translate(256,147)" d="m0 0h131l13 1 10 4 9 9v2l416 1 17 3 12 5 11 7 12 11 8 11-1 5v12l2 12 5 12 2-6 2-12 3-11 1-1h30l7 2 3 3 5 17 1 6v10l-4 15-4 9v5l23 12 22 9 9 6 6 7 8 16 4 13 4 21 3 25v17l-5 24-5 15-11 24-12 20-1 1-9 1-3 4-2 8v10l-12 3h-13l-2-2-33-2-1-4 30-1 5-4v-3h-5l-1-4 9-10 8-3 1-2h3v-8l13-34 6-21v-23l-1-14h-2l-3 10-6 23-3 4h-18l-4-6-2-1h-33l-4 2-4 5h-9l-9 3-2 15 1 64 2 4 6 4-1 3h-14l-13-1-1 12h-1v-11l-11-3 1-7 13-35 7-28 3-23 1-12v-21l-1-2-7 15-8 14-6 7-4 3-1 15h-1l-1-7 1-6h-12l-19-4-20-6-95-1-7-3v-2l-4-2-2-2-1-4v-11l4-6 8-4 3-1h15l3 1 1-5h8l8 2h7l-1-11 4 1 10 5 13 5 1 1 47 2 6 3 5 5h3l4-10 8-31 3-11h2l2-5 8-11 11-9 13-9 1-11v-34l-2-20-5-14-7-12-10-10-13-8-10-4-8-2-9-1h-399l1 2 1 35v86l-2 14h-1v-136h-198l-1-3 4-13 7-9 8-6 7-3z" fill="#8FDD7E"/>
<path transform="translate(227,182)" d="m0 0h197l1 2v129l-1 8-5 10h-2v3l-8 7-3 3h-2v2l-10 4-7 2h-124l-12-5-7-5-1-5-4-1-3-6-5-4-1-2-1-13-1-29-1-7-1-19v-69z" fill="#262837"/>
<path transform="translate(983,380)" d="m0 0h2l2 14v23l-6 21-11 29-2 5-1 8h-3l-1 3-8 3-8 9v3h5l2-1-2 6-5 4h-30l1 3 33 2 5 3 3 2-2 3-11-2v-2l-4 3v4 4h9l7-1 1-3 4 14 5 12 2 2-3 27-7 42-5 52-2 24-6 1-7-2 1 3-3 2h-7l-18-4h-42l6-7 1-3-2-1-1-4-1 5-2-1-1-2-2-59v-24l2-20v-12l2-20 4-3 5-14 4-14 2-6h6l-1-5-5-3-2-4-1-64 1-11 2-4 9-4h9l5-6 3-1h33l4 4 2 3h18l3-7 7-25z" fill="#181726"/>
<path transform="translate(882,695)" d="m0 0h31l18 4 15 6 9 6 18 3 16 6 11 8 8 9 8 15 3 11v14l-4 11-6 9-10 7-11 4-5 1h-17l-16-5-6-1-12 5-14 3-7 1h-28l-23-4-11-4-8-6-3-6v-66h-2l-2 4-20 20-8 7-8 8-8 7-7 6-10 2-24 1-143 1 5-4 4-9 154-1 13-4 10-8 9-10 15-15 7-8 8-9h2l1-7h2l2 4 15-9 15-5z" fill="#FED163"/>
<path transform="translate(245,343)" d="m0 0 14 6 3 2h-2l1 135 1 25 4 16 6 12 9 10 9 8 14 7 12 3 9 1h477l26-1 17-4 16-8 2-3 1 8-1 17-5 3-9 3-15 2h-521l-17-3-14-6-11-8-8-7-8-11-6-12-4-14-1-8v-172z" fill="#8FDD7E"/>
<path transform="translate(519,209)" d="m0 0h302l14 7 9 9 5 10 1 11-3 2h-354l-2-2 1-10 7-13 7-7 9-5h4z" fill="#020203"/>
<path transform="translate(571,282)" d="m0 0h11l2 1 1 76 7 1 7 2v2l11 2 9 4 20 7 10 3v2l5 1-1 5-4 9-2 4h-2v3h-2l-2 5-7 7h-3l-1 3-6 4h-3v2l-10 4-8 3-11 2h-17l-15-3-16-7-11-8-9-9-7-10-5-10-4-14-1-6v-19l2-10 4-11 3-7h2v-3h2v-3h2l2-5 3-3h2v-2h2l2-4 8-6h2v-2l13-6z" fill="#FCFCFA"/>
<path transform="translate(131,498)" d="m0 0h22l9 3 12 7 6 5 5 7v2l3 1 1 6h2l4 13v16l-4 15h-2l-1 6-3 1-1 4h-2l-2 5-4 4h-2v2l-3 2h-4v2l-9 2v2l-9 2h-17l-5-2-8-2v-2l-4-1-6-3-9-8-6-9-4-8-3-12v-14l2-9 5-11h2l1-4 9-10 5-4 14-7z" fill="#FBFBF9"/>
<path transform="translate(185,57)" d="m0 0h20l15 5 3 2v2l4 1 9 8 5 7 2 7h2l3 9v25l-5 13-3 5h-2l-1 4-8 8h-3v2h-3v2l-8 4-9 3h-21l-11-3v-2l-5-1-9-6-7-7-8-13-4-14v-16l3-11 4-8h2l1-4 7-8 9-7 5-1v-2z" fill="#FBFCFA"/>
<path transform="translate(649,8)" d="m0 0h20l9 2 5 3 5 2v2l4 1 10 9 5 9v2h2l4 13v22l-6 15h-2l-1 5-1 2h-2l-2 4-5 4h-2v2h-3l-1 3-9 4-5 2-8 1h-15l-14-4-11-7-9-9-2-3v-3h-2l-2-4v-4h-2l-3-13v-15l3-12h2l2-7 7-9 10-9 7-4z" fill="#FAFAF7"/>
<path transform="translate(983,380)" d="m0 0h2l2 14v23l-6 21-11 29-2 5-1 8h-3l-1 3-8 3-7 6-4-2-58 1-1-56 1-11 2-4 9-4h9l5-6 3-1h33l4 4 2 3h18l3-7 7-25z" fill="#181726"/>
<path transform="translate(701,316)" d="m0 0h123v2l4 1 6 7v10l-1 3h-2l-2 5-3 1-1 3-3 1h-120l-8-6-4-7v-7l3-6 3-4h3v-2z" fill="#FBFBF9"/>
<path transform="translate(517,683)" d="m0 0h8l6 1h14l7 1 2 1 7-1 9-1h17l16 1 11-1h28v3h23l4-2v2h8l6 1-2 2h-7l-4 1-2-2-4 2-39 1 1 2h71v-5h28l4 1h27l10-1 9-2h9l2 1h9l12 2 1 3 10 1 3 1-3 4 6-2 4-2h3v-3l6 1v2h6v-2h3v2h5l2 1v5l-5 3h-3v-2h-6l-1 1-15 1-10-2-10-1-54-1-395-1v-1l8-1v-1h81 2l14-1h62l-12-2h-3l-4-2h-11v2h-4v-2l-10 2-3-1h-6l-5 1-4-1-4 1-7-1-5 1h-4-5l-2-1h-7l-1-1h-11l-1-3h30l1 1h25l1-3-2-2h30l6 1z" fill="#2A2D3A"/>
<path transform="translate(310,702)" d="m0 0 4 1-9 4-8 9-11 16-12 17-7 11-1 4 5 3 9 1 72 1h235l3 1 2 8 3 3h-308l-21-3-9-4-1-1v-9l5-9 8-12 11-16 12-17 6-5z" fill="#90DB7D"/>
<path transform="translate(634,295)" d="m0 0 5 1 13 13 8 13 6 16 2 12v12l-3 13-3 5-6-1-50-17-12-4-2-1 1-4 7-11 10-14 14-19z" fill="#8FDF7E"/>
<path transform="translate(909,212)" d="m0 0h30l7 2 3 3 5 17 1 6v10l-4 15-6 6-2 3-1-8-3-3-6-2h-10l-5 4-1 5v9l5 5 4 2 7-1 4-1v-2l5-1 1-4h2l-1 16-9 41-3 9h-1l-2-24v-9l2-3-1-4-3-5-3-1-2 5-1 2-3 2 3 2-1 7-10 47-2 2v-22l4-51-1-16-4-9-4-7-1-14 3-21 3-11z" fill="#FCBF93"/>
<path transform="translate(631,32)" d="m0 0h57l3 4v50l-3 4-4 1h-47l-6-2-2-4v-50z" fill="#292C3A"/>
<path transform="translate(258,194)" d="m0 0h19v2l6 2 6 4 4 5 1 5h2l2 8v15l-1 1-1 7-4 5-6 7h-3v2l-8 3h-17l-7-3v-2l-4-1-6-7-4-9v-21l6-12h2l2-4 5-4z" fill="#FAFBF8"/>
<path transform="translate(834,707)" d="m0 0h2l2 6v13h-2l-2 4-20 20-8 7-8 8-8 7-7 6-10 2-24 1-143 1 5-4 4-9 154-1 13-4 10-8 9-10 15-15 7-8 8-9h2z" fill="#92DD7D"/>
<path transform="translate(574,703)" d="m0 0h6l22 11v2l9 3v2l6 2 13 7 4 2v2l3 1 1 2v6l-4 8-7 11-3 3-7-1-15-8-10-6-5-2v-2l-9-3-17-11-1-2v-7l4-9h2l1-5h2l2-4z" fill="#F9FAF7"/>
<path transform="translate(192,81)" d="m0 0h30l3 2 1 5v44l-2 5-2 2h-3l-5-13-7-8-7-4 5-7v-8l-4-5-2-1h-10l-5 5-1 7 4 8v3l-6 4h-2l-2 4-4 6-3 9-4-1-2-5v-48l3-3z" fill="#B7B1A7"/>
<path transform="translate(711,375)" d="m0 0 14 1 8 7 8 4 12 4 23 6 5 4 10 4 1 2-2 1h-88l-4-2v-2l-4-2-2-2-1-4v-11l4-6 5-3z" fill="#FDFDFB"/>
<path transform="translate(929,184)" d="m0 0h9l8 2 8 4-2 2 1 6 3 3 1-3 6 1 2 3-1 14-3 5-2 3 3 1-2 8h-4l-2-10-3-2-2 1-2-6-3-2-5-1h-30l-4 15-3 16-3-4-5-13-1-9v-12l2-4 5-2 2-4h3v-2h8l5 2v2l4-1 3-6-2-3-3-1v-2z" fill="#252737"/>
<path transform="translate(591,276)" d="m0 0 13 2 14 5 11 6 2 2-1 5-18 24-8 11-7 9-3 3-5-2-2-5v-58z" fill="#8FDD7E"/>
<path transform="translate(867,509)" d="m0 0h13l14 1-4 2-2-1-2 11-4 11-4 12-3 3h-2v11l-1 9v14l-2 18v24l2 59 2 2v-6l2 1 2 9-6 6 3 2h-7l-2-2-1-44-3-74 1-19v-12l2-25 1-10z" fill="#252737"/>
<path transform="translate(978,510)" d="m0 0h1v16l-3 25-7 40-6 37-3 31-2 28-1 19-1 3-4 1-10-6-8-3 4-1 1-2 1-3 13 1 1-24 5-52 8-50 2-19-3-3-8-22-7 2h-7l-3-3 1-5v-3l4-1v2l9 1 2 1 1-3-2-2 13-2 9-1z" fill="#252737"/>
<path transform="translate(631,32)" d="m0 0h42l14 1v2h-15l-3 2v3l-6-1-1-1h-5l-9 7-1 3v7l8 6 2 3v7l-5-1-4-1v7l8 4 1 9h-26l-2-4v-50z" fill="#262838"/>
<path transform="translate(574,703)" d="m0 0h6l22 11v2l9 3v2l6 2 13 7 4 2v2l3 1 1 2v6l-4 8-7 11-3 3-7-1-15-8-10-6-5-2v-2l-9-3-17-11-1-2v-7l4-9h2l1-5h2l2-4zm2 6-5 6-4 7v7l11 6 5 3h3v2l8 4 19 11 6 3 4-1 6-10 2-9-14-8-15-8-4-3h-4v-2l-10-6z" fill="#20212C"/>
<path transform="translate(924,297)" d="m0 0 4 1 4 6-1 5-1 1 1 40-6 22-6 15h-6l-3-13v-17l7-33 4-16-4-2 1-2h3l2-5z" fill="#686F6F"/>
<path transform="translate(747,361)" d="m0 0 4 1 10 5 13 5 5 5-1 9-1 12-28-7-13-5-8-6-3-3-14-1h-8l3-2h15l3 1 1-5h8l8 2h7z" fill="#F9BF8F"/>
<path transform="translate(525,708)" d="m0 0 5 1 5 8 5 15v6l-8 6-15 5-5-1v-4l13-6 5-2h3l-3-12-3-6v-3l-10 3-10 4-24 10-8 3-6 3 1 9 4 10h6l5-3h5v4l-5 4-6 1v2h-7l-5-6-4-8-3-10v-6l8-5 11-4 11-5 14-5 10-4z" fill="#22232E"/>
<path transform="translate(968,480)" d="m0 0 5 2 9 6-1 4-3 10v10l-12 3h-13l-2-2-33-2-1-4 30-1 5-4v-3h-5l-1-4 9-10 9-4z" fill="#FAC090"/>
<path transform="translate(944,489)" d="m0 0 4 2-1 7h5l2-1-2 6-4 3-35 1-18-1-7-3-2-4v-8l1-1z" fill="#010102"/>
<path transform="translate(953,733)" d="m0 0h18l1 5-5 3-10 5-1 4 4 4 2 1-1-9h4l1 6h13l5 2 5 5 3 6v6l-5 8 2 5-1 4-4-1-1-5-4 1h-12l-3-3 2-4 9-1v-5l7 1 1-5-3-3h-23l-6-4-4-5v-9l4-6z" fill="#FEFDFC"/>
<path transform="translate(491,246)" d="m0 0 2 1 352 1-2 3-5-1h-106l-19 1-9 1-25-1h-59l-4 2-5-1-5 2-8 1h-40l-7-2-6 1-4-1-5 2v-2l-14-2-31-2z" fill="#181726"/>
<path transform="translate(657,37)" d="m0 0h5l4 2v2l5 2 1 5-4 1-5-1 2 8 7 5v3h2v9l-4 5-7 2-1 4h-2v2h-2l-3-6-8-4v-7l4-1 2 2 4 1-1-7-5-5-5-4v-7l3-5z" fill="#F3F5F1"/>
<path transform="translate(585,284)" d="m0 0h1l1 46 2 10 5 2 7-8 22-30 7-10-1-4-5-3 1-3 6 3 4 1v2l4 1v4h-5l-2 4-10 14-14 19-13 19-3 6 12 3 23 8-2 3-9-1-6-3-11-3v-2l-9-2-5-1-1-2z" fill="#1D1E2B"/>
<path transform="translate(983,489)" d="m0 0h15l21 1v9l-3 5-5 2-33 1v-9l3-7z" fill="#010102"/>
<path transform="translate(923,260)" d="m0 0h10l7 3 3 3 1 5 4-6 1 4-4 8-2 1-1 3-5 1v2l-6 3-8-1-6-5-1-2v-9l2-6z" fill="#E7B693"/>
<path transform="translate(884,710)" d="m0 0 4 1-1 4-5 4-1 3 9-2 4-5h2v-2l7-3h11l10 5 3 2-1 3-10 8h-11l1-4 7-5v-2h-8l-10 10-2 1h-14l-7-4-2-2 1-5 4-4z" fill="#FEFEFD"/>
<path transform="translate(913,290)" d="m0 0 9 6 1 2-2 6-3 2 3 2-1 7-10 47-2 2v-22l4-51z" fill="#FDFDFC"/>
<path transform="translate(943,277)" d="m0 0h2l-1 16-9 41-3 9h-1l-2-24v-9l2-3-1-4-3-6 7-4h2v-2l4-4 2-9z" fill="#FEFEFD"/>
<path transform="translate(916,506)" d="m0 0h31v1h-30l1 3 33 2 1 3h-2v-2h-28l-1 10-1 1-1 11-2 13-2 9h-4l-1-1v-22l2-15v-10l4-1z" fill="#262837"/>
<path transform="translate(261,220)" d="m0 0h11l3 4v22l-2 2h-12l-1-1v-26z" fill="#2F333F"/>
<path transform="translate(624,284)" d="m0 0 7 3 4 1v2l4 1v4h-5l-2 4-10 14-14 19-11 16-9 1 1-5 1-2 5-1 6-7 22-30 7-10-1-4-5-3z" fill="#222333"/>
<path transform="translate(914,267)" d="m0 0 2 1-1 10 7 6 4 2 7-1 4-1v-2l4-1v6l-3 4h-2v2l-8 4h-4l-2 5-1-2 1-3-8-6-2-5-1-11-2-3 1-4h2z" fill="#F6C08B"/>
<path transform="translate(531,712)" d="m0 0 3 3 4 10 2 7v6l-8 6-15 5-5-1v-4l13-6 5-2h3l-3-12-3-6v-3l-6 1 1-2 8-1z" fill="#252730"/>
<path transform="translate(396,225)" d="m0 0h17v4h-103v-3z" fill="#666D6E"/>
<path transform="translate(310,244)" d="m0 0h103l-1 3h-102z" fill="#67706E"/>
<path transform="translate(311,208)" d="m0 0h102v3h-103z" fill="#739073"/>
<path transform="translate(962,719)" d="m0 0h7l8 2v1l7 2-1 3-13-3h-14l-10 3-5 3-6 10-2 7-1 14 5 10-1 4-2-1v-4h-2l-3-10v-14l5-13 8-9 10-4z" fill="#FEFEFD"/>
<path transform="translate(335,290)" d="m0 0 4 2v35h-8v-35z" fill="#E2EADD"/>
<path transform="translate(916,735)" d="m0 0h2l-1 9v17l3 10 7 11 10 12v1h-6l-8-6-4-9-3-5-2-10-2-4v-12l1-6-2-6z" fill="#FFC093"/>
<path transform="translate(148,560)" d="m0 0h11l4 6v7l-5 5h-8l-6-5v-9l4-2z" fill="#272834"/>
<path transform="translate(125,531)" d="m0 0h8l6 5v9l-5 5h-7l-3-1v-2h-2l-1-2v-8l1-3z" fill="#2B2E38"/>
<path transform="translate(394,284)" d="m0 0h7v42l-1 1h-5z" fill="#ECF7E7"/>
<path transform="translate(373,291)" d="m0 0h7v36h-7z" fill="#EFF4EC"/>
<path transform="translate(631,32)" d="m0 0h42l14 1v2h-15l-3 2v3l-6-1-1-1h-5l-7 5-3-1-1-3h2v2h2l-1-5-11-1-1 3-6-2z" fill="#1F202D"/>
<path transform="translate(353,297)" d="m0 0h6l1 1v28l-7 1-1-1v-28z" fill="#E1E6DE"/>
<path transform="translate(149,532)" d="m0 0h2l-1 9-4 7-3 7-8 16-4 6h-3l1-5 5-13 5-9 9-17z" fill="#2B2E36"/>
<path transform="translate(888,538)" d="m0 0h5l2 11-3 2-1 8-2 6-3 4v9l-5 15h-2l-1-2v-6l3-1-1-8 3-3 1-9 2-6 2-7 1-5-2-2z" fill="#252737"/>
<path transform="translate(917,265)" d="m0 0h1l2 12 5 2 11-1 2-3h3v6l-4 1v2l-6 3-8-1-6-5-1-2v-9z" fill="#383B47"/>
<path transform="translate(740,221)" d="m0 0h7l4 4v6h-2l-2 4h-6l-5-5 1-7z" fill="#EDF2E8"/>
<path transform="translate(800,221)" d="m0 0h8l3 3v8l-4 3h-6l-4-4v-7z" fill="#F1F4E9"/>
<path transform="translate(264,202)" d="m0 0h7l3 4v7l-3 3h-8v-2h-2l-1-2v-6z" fill="#272A33"/>
<path transform="translate(771,221)" d="m0 0h7l3 3v7l-4 2v2h-6l-4-4v-7z" fill="#F0F4EB"/>
<path transform="translate(312,302)" d="m0 0 5 1v24h-6v-24z" fill="#FDFDFB"/>
<path transform="translate(845,728)" d="m0 0 5 1 14 5 16 3v2l-2 1-13-1-9-2-9-3-2-2z" fill="#FFC093"/>
<path transform="translate(656,82)" d="m0 0 2 4h2l1-2 1 4h25l3-2-2 4-4 1h-47l-4-2h24z" fill="#83967F"/>
<path transform="translate(626,369)" d="m0 0 6 1 21 7-3 1 1 4h-2v-2l-10-2-15-5-1-2z" fill="#343A3F"/>
<path transform="translate(917,507)" d="m0 0h30l-1 3 2 1-14 1-16-1z" fill="#8CD37D"/>
<path transform="translate(547,255)" d="m0 0 5 2 1 1 14 1-3 2-7 1-9-1h-12-4v-2h2v-3h8z" fill="#181726"/>
<path transform="translate(908,557)" d="m0 0h2l3 4-1 1 2 1v-2l9 1-3 11-3-1-3-6h-7l-5-2v-2l6-2z" fill="#242636"/>
<path transform="translate(608,327)" d="m0 0 2 2-13 19-9 1 1-5 1-2 5-1 6-7 5-5z" fill="#242535"/>
<path transform="translate(247,311)" d="m0 0h6l1 1 1 13-3 3-5-1-1-5z" fill="#D3E7CC"/>
<path transform="translate(874,510)" d="m0 0h7l-3 14-2 9-3 3-1-4 1-21z" fill="#181726"/>
<path transform="translate(886,427)" d="m0 0h3v3h2l1 4-4 14-1 30h-1l-1-43z" fill="#252737"/>
<path transform="translate(292,310)" d="m0 0h4v16l-1 1h-5l-1-1v-15z" fill="#F0F5EC"/>
<path transform="translate(924,297)" d="m0 0h3l-1 13h2l-3 12-4-2v-13l-1-3z" fill="#262838"/>
<path transform="translate(811,375)" d="m0 0h11l6 3 4 4v2l-17-4-10-3v-1z" fill="#F8F9F3"/>
<path transform="translate(412,688)" d="m0 0h30l7 2-2 3-7-1-1 1h-5l-2-1h-7l-1-1h-11z" fill="#252737"/>
<path transform="translate(399,160)" d="m0 0h7l2 4v5l-3 2-7-1-1-1v-6z" fill="#FEFEFD"/>
<path transform="translate(839,701)" d="m0 0 6 1v2l7-2-4 4-10 6-2-1v-4l-6-2-1-2 9-1z" fill="#1F1F2D"/>
<path transform="translate(772,388)" d="m0 0h5v10l-19-5 2-2z" fill="#FFD162"/>
<path transform="translate(377,160)" d="m0 0 7 1 1 2v6l-4 2-6-1-1-1 1-7z" fill="#FEFEFD"/>
<path transform="translate(905,262)" d="m0 0 2 1 4 10 1 7-7 1-1-13z" fill="#1E1F2C"/>
<path transform="translate(353,161)" d="m0 0h7l2 2v6l-1 1h-8l-2-3 1-4z" fill="#FEFEFD"/>
<path transform="translate(151,564)" d="m0 0 6 1 2 3-1 4-2 2h-5l-3-3v-5z" fill="#ECF1E7"/>
<path transform="translate(965,522)" d="m0 0h6l1 11-1 9-3-3-2-10z" fill="#181726"/>
<path transform="translate(956,462)" d="m0 0 2 2 2-1-3 10h-2v2l-3 2-4-1v-2l2-2 1-4z" fill="#252737"/>
<path transform="translate(127,535)" d="m0 0h5l3 3-1 5-3 2-6-1v-7z" fill="#F1F6EB"/>
<path transform="translate(387,208)" d="m0 0h26v3h-27z" fill="#6F8771"/>
<path transform="translate(599,724)" d="m0 0h3l1 8-4 7h-5l1-6z" fill="#95DF7F"/>
<path transform="translate(624,284)" d="m0 0 7 3 4 1v2l4 1v4h-5v2l-4-1v-5l-6-4z" fill="#191827"/>
<path transform="translate(831,374)" d="m0 0 8 1-1 6-2 3-4-1-4-4 1-4z" fill="#20202E"/>
<path transform="translate(311,208)" d="m0 0h30l-2 3h-29z" fill="#6A796F"/>
<path transform="translate(760,368)" d="m0 0 6 1 9 4 4 4-1 8-3-4-5-7-10-5z" fill="#F8CE6A"/>
<path transform="translate(495,726)" d="m0 0h2l7 14v3l-4 1-3-7-2-10z" fill="#96D87D"/>
<path transform="translate(269,316)" d="m0 0 5 1v10h-5l-1-1v-9z" fill="#F6F7F1"/>
<path transform="translate(640,294)" d="m0 0 1 3h5l1 2 1 4h5l3 4-1 2-5-1-10-10z" fill="#1A1A29"/>
<path transform="translate(914,267)" d="m0 0 2 1-1 10 1 4-3 3h-1l-1-10-2-3 1-4h2z" fill="#F9CF69"/>
<path transform="translate(615,315)" d="m0 0 4 1-7 11-5 2-2 1 2-4z" fill="#222333"/>
<path transform="translate(927,298)" d="m0 0 4 5 1 4-2 3-1 6h-1v-6h-2l-1-5z" fill="#737B75"/>
<path transform="translate(619,260)" d="m0 0h16v4l-8-1-6 1-7-1v-2z" fill="#181726"/>
<path transform="translate(948,265)" d="m0 0 1 4-4 8-2 1-2 3v-6h-2l2-4 2-2 1 2z" fill="#C4AC71"/>
<path transform="translate(614,365)" d="m0 0 7 1 6 2-2 3-9-1-3-4z" fill="#252733"/>
<path transform="translate(950,490)" d="m0 0h3v8l-1 1h-5l-1-4z" fill="#F1CA6C"/>
<path transform="translate(1013,476)" d="m0 0h1l-1 7-1 2-1 4-4-5 1-4z" fill="#252737"/>
<path transform="translate(912,386)" d="m0 0 7 3-1 5-3 2-2-1z" fill="#FEFEFD"/>
<path transform="translate(415,183)" d="m0 0h7l1 6h-2l-1 4-4-6z" fill="#181726"/>
<path transform="translate(611,746)" d="m0 0 6 1 5 3-1 3-8-2z" fill="#707F71"/>
<path transform="translate(525,708)" d="m0 0 5 1 1 4-3 1h-6l1-5z" fill="#111116"/>
<path transform="translate(527,728)" d="m0 0h2v3h-2l-1 3-8 1 2-4z" fill="#657265"/>
<path transform="translate(646,375)" d="m0 0 7 2-3 1 1 4h-2v-2l-10-2-3-2h9z" fill="#3B4348"/>
<path transform="translate(387,208)" d="m0 0h13l-1 3h-13z" fill="#6B7C70"/>
<path transform="translate(650,378)" d="m0 0h6l2 1 1 5-3 1-1-3-5-1z" fill="#1A1928"/>
<path transform="translate(928,194)" d="m0 0 9 1 6 2-1 2-6-1h-7z" fill="#181726"/>
<path transform="translate(622,306)" d="m0 0 2 2-2 5-2 3h-4l1-4z" fill="#1F2030"/>
<path transform="translate(828,757)" d="m0 0h1l-1 9-2 10-2 1v-9l3-8z" fill="#252737"/>
<path transform="translate(938,275)" d="m0 0h3v6l-6 2 1-5z" fill="#272836"/>
<path transform="translate(663,65)" d="m0 0 4 2 1 2-1 3-4 1-1-1v-6z" fill="#667967"/>
<path transform="translate(578,712)" d="m0 0 4 2 5 3-1 4-4-2-4-5z" fill="#323440"/>
<path transform="translate(938,698)" d="m0 0 7 3 2 3-8-1-5-2 4-1z" fill="#222331"/>
<path transform="translate(380,208)" d="m0 0h7l-1 3-16-1v-1z" fill="#78A075"/>
<path transform="translate(974,798)" d="m0 0h12v2l-3 1h-8z" fill="#FEFCF8"/>
<path transform="translate(495,726)" d="m0 0h2l4 9-1 4-2-3-2-2z" fill="#ADCC86"/>
<path transform="translate(668,686)" d="m0 0 9 1 6 1-2 2h-7l-4 1-3-4z" fill="#252737"/>
<path transform="translate(324,183)" d="m0 0h23l-4 3-3 1-2-2-14-1z" fill="#181726"/>
<path transform="translate(838,375)" d="m0 0 1 4-3 5-4-1 2-5 3-1z" fill="#1A1A29"/>
<path transform="translate(264,202)" d="m0 0h7v1l-7 2-2 5-2 2v-6z" fill="#596E5E"/>
<path transform="translate(631,33)" d="m0 0h11l-4 3-2 2-5-2z" fill="#181827"/>
<path transform="translate(902,544)" d="m0 0 2 3v5l-4-1v-2h-3v-2z" fill="#252737"/>
<path transform="translate(637,373)" d="m0 0 7 1 2 2-1 1-9-1-1-2z" fill="#191928"/>
<path transform="translate(983,489)" d="m0 0h9l-3 2-5 1-3 3-2 3 1-6z" fill="#1D1E2A"/>
<path transform="translate(907,440)" d="m0 0 2 4-1 5-2 4h-1l1-10z" fill="#252737"/>
<path transform="translate(823,777)" d="m0 0h1l-1 7-3 5-2-3 1-3 2-1z" fill="#252737"/>
<path transform="translate(818,776)" d="m0 0h1v5l-6 1v-4z" fill="#252737"/>
<path transform="translate(812,698)" d="m0 0 6 1 7 2v1l-12-1-4-2z" fill="#1A1A29"/>
<path transform="translate(953,497)" d="m0 0 1 2-3 5-3-1v-3h-2l1-2h5z" fill="#33353F"/>
<path transform="translate(841,421)" d="m0 0h10l-1 2-5 2-4-1z" fill="#181726"/>
<path transform="translate(624,284)" d="m0 0 8 4 1 3-2 3-3-5-4-2z" fill="#1D1E2D"/>
<path transform="translate(918,304)" d="m0 0h2l2 3-1 11-2 1 1-7 1-4-4-2z" fill="#81927F"/>
<path transform="translate(584,276)" d="m0 0h3l-1 5-1 2-4-1v-2h2z" fill="#181726"/>
</svg>
