<svg xmlns="http://www.w3.org/2000/svg" xmlns:xlink="http://www.w3.org/1999/xlink" width="320" zoomAndPan="magnify" viewBox="0 0 240 239.999995" height="320" preserveAspectRatio="xMidYMid meet" version="1.0"><defs><clipPath id="402e797eb3"><path d="M 51.828125 72.300781 L 188.464844 72.300781 L 188.464844 174.324219 L 51.828125 174.324219 Z M 51.828125 72.300781 " clip-rule="nonzero"/></clipPath><clipPath id="c468d6fe95"><path d="M 156 149 L 174.339844 149 L 174.339844 157 L 156 157 Z M 156 149 " clip-rule="nonzero"/></clipPath><clipPath id="790dce0830"><path d="M 156 133 L 174.339844 133 L 174.339844 141 L 156 141 Z M 156 133 " clip-rule="nonzero"/></clipPath></defs><g clip-path="url(#402e797eb3)"><path fill="#f8f5ff" d="M 217.617188 158.304688 C 217.617188 159.703125 217.585938 161.105469 217.515625 162.503906 C 217.445312 163.902344 217.34375 165.300781 217.207031 166.695312 C 217.066406 168.089844 216.894531 169.480469 216.6875 170.867188 C 216.484375 172.253906 216.242188 173.632812 215.96875 175.007812 C 215.695312 176.382812 215.386719 177.75 215.042969 179.109375 C 214.703125 180.46875 214.328125 181.816406 213.921875 183.160156 C 213.511719 184.5 213.070312 185.828125 212.597656 187.148438 C 212.125 188.46875 211.617188 189.777344 211.082031 191.070312 C 210.542969 192.367188 209.972656 193.644531 209.371094 194.914062 C 208.769531 196.179688 208.140625 197.429688 207.476562 198.667969 C 206.8125 199.902344 206.121094 201.121094 205.398438 202.324219 C 204.675781 203.527344 203.921875 204.710938 203.140625 205.875 C 202.363281 207.039062 201.550781 208.183594 200.714844 209.308594 C 199.878906 210.4375 199.011719 211.539062 198.121094 212.625 C 197.230469 213.707031 196.3125 214.769531 195.367188 215.804688 C 194.421875 216.84375 193.453125 217.859375 192.460938 218.851562 C 191.464844 219.839844 190.449219 220.808594 189.40625 221.746094 C 188.363281 222.6875 187.300781 223.605469 186.214844 224.492188 C 185.128906 225.382812 184.019531 226.242188 182.890625 227.078125 C 181.761719 227.914062 180.613281 228.71875 179.441406 229.5 C 178.273438 230.277344 177.085938 231.027344 175.882812 231.746094 C 174.675781 232.46875 173.453125 233.15625 172.210938 233.820312 C 170.972656 234.480469 169.71875 235.109375 168.445312 235.707031 C 167.175781 236.308594 165.890625 236.875 164.59375 237.410156 C 163.292969 237.949219 161.984375 238.453125 160.660156 238.925781 C 159.335938 239.394531 158 239.835938 156.65625 240.242188 C 155.308594 240.648438 153.957031 241.023438 152.59375 241.363281 C 151.230469 241.703125 149.859375 242.011719 148.480469 242.285156 C 147.101562 242.558594 145.714844 242.796875 144.324219 243.003906 C 142.933594 243.207031 141.539062 243.378906 140.140625 243.515625 C 138.742188 243.652344 137.339844 243.757812 135.9375 243.824219 C 134.53125 243.894531 133.125 243.929688 131.722656 243.929688 C 130.316406 243.929688 128.910156 243.894531 127.507812 243.824219 C 126.101562 243.757812 124.699219 243.65625 123.300781 243.515625 C 121.902344 243.378906 120.507812 243.207031 119.117188 243.003906 C 117.726562 242.796875 116.339844 242.558594 114.964844 242.285156 C 113.585938 242.011719 112.214844 241.703125 110.847656 241.363281 C 109.484375 241.023438 108.132812 240.648438 106.785156 240.242188 C 105.441406 239.835938 104.105469 239.394531 102.78125 238.925781 C 101.460938 238.453125 100.148438 237.949219 98.847656 237.410156 C 97.550781 236.875 96.265625 236.308594 94.996094 235.707031 C 93.722656 235.109375 92.46875 234.480469 91.230469 233.820312 C 89.988281 233.15625 88.765625 232.46875 87.558594 231.746094 C 86.355469 231.027344 85.167969 230.277344 84 229.5 C 82.828125 228.71875 81.679688 227.914062 80.550781 227.078125 C 79.421875 226.242188 78.3125 225.382812 77.226562 224.492188 C 76.140625 223.605469 75.078125 222.6875 74.035156 221.746094 C 72.992188 220.808594 71.976562 219.839844 70.980469 218.851562 C 69.988281 217.859375 69.019531 216.84375 68.074219 215.804688 C 67.128906 214.769531 66.210938 213.707031 65.320312 212.625 C 64.429688 211.539062 63.5625 210.4375 62.726562 209.308594 C 61.890625 208.183594 61.082031 207.039062 60.300781 205.875 C 59.519531 204.710938 58.765625 203.527344 58.042969 202.324219 C 57.320312 201.121094 56.628906 199.902344 55.964844 198.667969 C 55.304688 197.429688 54.671875 196.179688 54.070312 194.914062 C 53.46875 193.644531 52.898438 192.367188 52.363281 191.070312 C 51.824219 189.777344 51.316406 188.46875 50.84375 187.148438 C 50.371094 185.828125 49.929688 184.5 49.523438 183.160156 C 49.113281 181.816406 48.738281 180.46875 48.398438 179.109375 C 48.054688 177.75 47.746094 176.382812 47.472656 175.007812 C 47.199219 173.632812 46.957031 172.253906 46.753906 170.867188 C 46.546875 169.480469 46.375 168.089844 46.238281 166.695312 C 46.097656 165.300781 45.996094 163.902344 45.925781 162.503906 C 45.855469 161.105469 45.824219 159.703125 45.824219 158.304688 C 45.824219 156.902344 45.855469 155.5 45.925781 154.101562 C 45.996094 152.703125 46.097656 151.304688 46.238281 149.910156 C 46.375 148.515625 46.546875 147.125 46.753906 145.738281 C 46.957031 144.351562 47.199219 142.972656 47.472656 141.597656 C 47.746094 140.222656 48.054688 138.855469 48.398438 137.496094 C 48.738281 136.136719 49.113281 134.789062 49.523438 133.445312 C 49.929688 132.105469 50.371094 130.777344 50.84375 129.457031 C 51.316406 128.136719 51.824219 126.828125 52.363281 125.535156 C 52.898438 124.242188 53.46875 122.960938 54.070312 121.691406 C 54.671875 120.425781 55.304688 119.175781 55.964844 117.9375 C 56.628906 116.703125 57.320312 115.484375 58.042969 114.28125 C 58.765625 113.078125 59.519531 111.898438 60.300781 110.730469 C 61.082031 109.566406 61.890625 108.421875 62.726562 107.296875 C 63.5625 106.167969 64.429688 105.066406 65.320312 103.980469 C 66.210938 102.898438 67.128906 101.839844 68.074219 100.800781 C 69.019531 99.761719 69.988281 98.746094 70.980469 97.753906 C 71.976562 96.765625 72.992188 95.800781 74.035156 94.859375 C 75.078125 93.917969 76.140625 93 77.226562 92.113281 C 78.3125 91.222656 79.421875 90.363281 80.550781 89.527344 C 81.679688 88.691406 82.828125 87.886719 84 87.105469 C 85.167969 86.328125 86.355469 85.578125 87.558594 84.859375 C 88.765625 84.136719 89.988281 83.449219 91.230469 82.785156 C 92.46875 82.125 93.722656 81.496094 94.996094 80.898438 C 96.265625 80.296875 97.550781 79.730469 98.847656 79.195312 C 100.148438 78.65625 101.460938 78.152344 102.78125 77.683594 C 104.105469 77.210938 105.441406 76.769531 106.785156 76.363281 C 108.132812 75.957031 109.484375 75.582031 110.847656 75.242188 C 112.214844 74.902344 113.585938 74.59375 114.964844 74.320312 C 116.339844 74.046875 117.726562 73.808594 119.117188 73.601562 C 120.507812 73.398438 121.902344 73.226562 123.300781 73.089844 C 124.699219 72.953125 126.101562 72.847656 127.507812 72.78125 C 128.910156 72.710938 130.316406 72.675781 131.722656 72.675781 C 133.125 72.675781 134.53125 72.710938 135.9375 72.78125 C 137.339844 72.847656 138.742188 72.953125 140.140625 73.089844 C 141.539062 73.226562 142.933594 73.398438 144.324219 73.601562 C 145.714844 73.808594 147.101562 74.046875 148.480469 74.320312 C 149.859375 74.59375 151.230469 74.902344 152.59375 75.242188 C 153.957031 75.582031 155.308594 75.957031 156.65625 76.363281 C 158 76.769531 159.335938 77.210938 160.660156 77.683594 C 161.984375 78.152344 163.292969 78.65625 164.59375 79.195312 C 165.890625 79.730469 167.175781 80.296875 168.445312 80.898438 C 169.71875 81.496094 170.972656 82.125 172.210938 82.785156 C 173.453125 83.449219 174.675781 84.136719 175.882812 84.859375 C 177.085938 85.578125 178.273438 86.328125 179.441406 87.105469 C 180.613281 87.886719 181.761719 88.691406 182.890625 89.527344 C 184.019531 90.363281 185.128906 91.222656 186.214844 92.113281 C 187.300781 93 188.363281 93.917969 189.40625 94.859375 C 190.449219 95.800781 191.464844 96.765625 192.460938 97.753906 C 193.453125 98.746094 194.421875 99.761719 195.367188 100.800781 C 196.3125 101.839844 197.230469 102.898438 198.121094 103.980469 C 199.011719 105.066406 199.878906 106.167969 200.714844 107.296875 C 201.550781 108.421875 202.363281 109.566406 203.140625 110.730469 C 203.921875 111.894531 204.675781 113.078125 205.398438 114.28125 C 206.121094 115.484375 206.8125 116.703125 207.476562 117.9375 C 208.140625 119.175781 208.769531 120.425781 209.371094 121.691406 C 209.972656 122.960938 210.542969 124.242188 211.082031 125.535156 C 211.617188 126.828125 212.125 128.136719 212.597656 129.457031 C 213.070312 130.777344 213.511719 132.105469 213.921875 133.445312 C 214.328125 134.789062 214.703125 136.136719 215.042969 137.496094 C 215.386719 138.855469 215.695312 140.222656 215.96875 141.597656 C 216.242188 142.972656 216.484375 144.351562 216.6875 145.738281 C 216.894531 147.125 217.066406 148.515625 217.207031 149.910156 C 217.34375 151.304688 217.445312 152.703125 217.515625 154.101562 C 217.585938 155.5 217.617188 156.902344 217.617188 158.304688 Z M 217.617188 158.304688 " fill-opacity="1" fill-rule="nonzero"/></g><path fill="#38bdf8" d="M 110.566406 99.519531 C 114.113281 104.5 114.328125 113.347656 109.335938 116.882812 C 104.34375 120.421875 96.035156 117.300781 92.492188 112.316406 C 88.945312 107.332031 85.496094 95.058594 89.636719 91.625 C 93.78125 88.191406 107.019531 94.542969 110.566406 99.519531 Z M 110.566406 99.519531 " fill-opacity="1" fill-rule="nonzero"/><path fill="#6b39f4" d="M 104.21875 119.054688 C 102.851562 119.042969 101.488281 118.820312 100.183594 118.402344 C 96.902344 117.421875 94.019531 115.417969 91.960938 112.6875 C 90.070312 110.023438 88.328125 105.640625 87.539062 101.511719 C 86.988281 98.605469 86.464844 93.398438 89.21875 91.117188 C 90.410156 90.128906 92.226562 89.808594 94.628906 90.097656 C 100.316406 90.839844 108.320312 95.226562 111.097656 99.128906 C 113.003906 101.964844 113.953125 105.339844 113.804688 108.753906 C 113.660156 112.570312 112.203125 115.636719 109.714844 117.40625 C 108.101562 118.515625 106.179688 119.09375 104.21875 119.054688 Z M 93.039062 91.304688 C 91.984375 91.230469 90.9375 91.523438 90.074219 92.132812 C 88.441406 93.484375 87.996094 96.820312 88.847656 101.269531 C 89.589844 105.183594 91.28125 109.457031 93.046875 111.9375 C 94.9375 114.433594 97.578125 116.261719 100.582031 117.15625 C 103.855469 118.15625 106.824219 117.863281 108.976562 116.339844 C 111.128906 114.820312 112.386719 112.101562 112.515625 108.707031 C 112.652344 105.585938 111.789062 102.5 110.050781 99.898438 C 107.492188 96.304688 99.777344 92.066406 94.480469 91.414062 C 94.003906 91.34375 93.519531 91.308594 93.039062 91.304688 Z M 93.039062 91.304688 " fill-opacity="1" fill-rule="nonzero"/><path fill="#38bdf8" d="M 131.558594 99.519531 C 128.015625 104.5 127.796875 113.347656 132.789062 116.882812 C 137.78125 120.417969 146.085938 117.300781 149.628906 112.316406 C 153.175781 107.332031 156.628906 95.054688 152.488281 91.625 C 148.347656 88.191406 135.101562 94.539062 131.558594 99.519531 Z M 131.558594 99.519531 " fill-opacity="1" fill-rule="nonzero"/><path fill="#6b39f4" d="M 137.898438 119.054688 C 135.941406 119.097656 134.023438 118.523438 132.410156 117.417969 C 129.917969 115.648438 128.484375 112.582031 128.316406 108.765625 C 128.171875 105.351562 129.121094 101.980469 131.023438 99.140625 C 133.804688 95.226562 141.804688 90.855469 147.496094 90.109375 C 149.898438 89.796875 151.71875 90.109375 152.90625 91.128906 C 155.65625 93.414062 155.136719 98.617188 154.582031 101.523438 C 153.789062 105.652344 152.058594 110.003906 150.167969 112.699219 C 148.101562 115.425781 145.222656 117.429688 141.941406 118.417969 C 140.636719 118.828125 139.273438 119.046875 137.898438 119.054688 Z M 132.089844 99.898438 C 130.351562 102.503906 129.488281 105.59375 129.625 108.71875 C 129.753906 112.113281 131.015625 114.828125 133.167969 116.355469 C 135.320312 117.882812 138.300781 118.167969 141.5625 117.167969 C 144.566406 116.273438 147.207031 114.445312 149.101562 111.949219 C 150.859375 109.46875 152.554688 105.183594 153.300781 101.28125 C 154.152344 96.824219 153.707031 93.492188 152.070312 92.144531 C 151.1875 91.410156 149.664062 91.160156 147.660156 91.421875 C 142.367188 92.074219 134.65625 96.316406 132.089844 99.90625 Z M 132.089844 99.898438 " fill-opacity="1" fill-rule="nonzero"/><path fill="#38bdf8" d="M 150.089844 157.441406 C 150.546875 159.347656 148.648438 161.105469 146.164062 161.105469 L 141.125 161.105469 C 140.386719 161.140625 139.648438 160.976562 138.992188 160.632812 C 138.335938 160.289062 137.785156 159.773438 137.394531 159.144531 L 134.910156 154.480469 C 130.566406 156.496094 125.832031 157.542969 121.039062 157.542969 C 116.25 157.542969 111.515625 156.496094 107.171875 154.480469 L 104.722656 159.164062 C 104.335938 159.792969 103.785156 160.308594 103.128906 160.652344 C 102.472656 160.996094 101.734375 161.160156 100.996094 161.125 L 95.957031 161.125 C 93.453125 161.125 91.554688 159.367188 92.03125 157.460938 L 95.0625 144.804688 C 91.386719 140.046875 89.097656 134.375 88.441406 128.40625 C 87.785156 122.4375 88.789062 116.40625 91.339844 110.96875 C 93.890625 105.53125 97.894531 100.898438 102.90625 97.578125 C 107.921875 94.257812 113.757812 92.375 119.773438 92.140625 C 120.195312 92.140625 120.628906 92.140625 121.078125 92.140625 C 121.53125 92.140625 121.945312 92.140625 122.386719 92.140625 C 128.402344 92.375 134.238281 94.257812 139.253906 97.578125 C 144.265625 100.898438 148.269531 105.53125 150.820312 110.96875 C 153.371094 116.40625 154.375 122.4375 153.71875 128.40625 C 153.0625 134.375 150.769531 140.046875 147.097656 144.804688 Z M 150.089844 157.441406 " fill-opacity="1" fill-rule="nonzero"/><path fill="#6b39f4" d="M 146.144531 161.753906 L 141.105469 161.753906 C 140.25 161.792969 139.398438 161.605469 138.640625 161.203125 C 137.882812 160.800781 137.246094 160.203125 136.800781 159.472656 L 134.636719 155.335938 C 130.359375 157.21875 125.734375 158.191406 121.058594 158.191406 C 116.386719 158.191406 111.761719 157.21875 107.484375 155.335938 L 105.328125 159.464844 C 104.878906 160.199219 104.246094 160.796875 103.484375 161.199219 C 102.726562 161.605469 101.875 161.796875 101.015625 161.753906 L 95.976562 161.753906 C 95.234375 161.777344 94.496094 161.632812 93.816406 161.332031 C 93.136719 161.03125 92.535156 160.582031 92.050781 160.019531 C 91.738281 159.648438 91.515625 159.207031 91.402344 158.734375 C 91.289062 158.257812 91.289062 157.765625 91.398438 157.292969 L 94.347656 144.933594 C 90.660156 140.070312 88.382812 134.289062 87.757812 128.222656 C 87.132812 122.15625 88.183594 116.035156 90.800781 110.523438 C 93.421875 105.015625 97.503906 100.324219 102.605469 96.964844 C 107.707031 93.605469 113.636719 91.703125 119.746094 91.46875 C 120.617188 91.414062 121.492188 91.414062 122.363281 91.46875 C 128.46875 91.710938 134.390625 93.613281 139.488281 96.976562 C 144.589844 100.339844 148.667969 105.027344 151.28125 110.535156 C 153.898438 116.046875 154.949219 122.164062 154.328125 128.226562 C 153.703125 134.292969 151.429688 140.070312 147.746094 144.933594 L 150.703125 157.292969 C 150.8125 157.765625 150.808594 158.257812 150.695312 158.730469 C 150.582031 159.207031 150.359375 159.644531 150.050781 160.019531 C 149.566406 160.578125 148.96875 161.027344 148.292969 161.324219 C 147.617188 161.625 146.882812 161.773438 146.144531 161.753906 Z M 134.910156 153.828125 C 135.03125 153.828125 135.148438 153.859375 135.25 153.921875 C 135.355469 153.984375 135.4375 154.074219 135.492188 154.179688 L 137.9375 158.863281 C 138.277344 159.378906 138.75 159.796875 139.300781 160.078125 C 139.851562 160.355469 140.46875 160.484375 141.085938 160.449219 L 146.125 160.449219 C 146.671875 160.46875 147.214844 160.367188 147.722656 160.152344 C 148.226562 159.941406 148.675781 159.617188 149.042969 159.210938 C 149.226562 158.992188 149.359375 158.730469 149.429688 158.449219 C 149.496094 158.171875 149.5 157.878906 149.433594 157.597656 L 146.40625 144.941406 C 146.382812 144.847656 146.382812 144.746094 146.402344 144.652344 C 146.421875 144.558594 146.464844 144.46875 146.523438 144.390625 C 150.121094 139.730469 152.367188 134.171875 153.007812 128.324219 C 153.652344 122.476562 152.671875 116.566406 150.171875 111.234375 C 147.671875 105.90625 143.753906 101.367188 138.839844 98.113281 C 133.925781 94.855469 128.210938 93.011719 122.316406 92.777344 C 121.480469 92.726562 120.640625 92.726562 119.804688 92.777344 C 113.910156 93.011719 108.195312 94.855469 103.28125 98.113281 C 98.367188 101.367188 94.445312 105.90625 91.949219 111.234375 C 89.449219 116.566406 88.46875 122.476562 89.109375 128.324219 C 89.753906 134.171875 92 139.730469 95.597656 144.390625 C 95.660156 144.46875 95.699219 144.558594 95.722656 144.652344 C 95.742188 144.746094 95.742188 144.84375 95.722656 144.941406 L 92.691406 157.597656 C 92.625 157.878906 92.628906 158.171875 92.695312 158.453125 C 92.761719 158.734375 92.898438 158.996094 93.085938 159.21875 C 93.449219 159.625 93.898438 159.945312 94.402344 160.160156 C 94.90625 160.375 95.449219 160.476562 95.996094 160.457031 L 101.035156 160.457031 C 101.652344 160.492188 102.269531 160.363281 102.824219 160.082031 C 103.375 159.804688 103.847656 159.386719 104.1875 158.871094 L 106.632812 154.1875 C 106.714844 154.039062 106.847656 153.925781 107.003906 153.871094 C 107.164062 153.816406 107.339844 153.828125 107.492188 153.898438 C 111.75 155.871094 116.386719 156.894531 121.082031 156.894531 C 125.777344 156.894531 130.417969 155.871094 134.675781 153.898438 C 134.746094 153.859375 134.828125 153.835938 134.910156 153.828125 Z M 134.910156 153.828125 " fill-opacity="1" fill-rule="nonzero"/><path fill="#ffffff" d="M 121.0625 132.640625 C 113.027344 132.640625 106.734375 129.097656 106.734375 124.570312 C 106.734375 120.042969 113.027344 116.492188 121.0625 116.492188 C 129.09375 116.492188 135.386719 120.035156 135.386719 124.570312 C 135.386719 129.105469 129.09375 132.640625 121.0625 132.640625 Z M 121.0625 117.796875 C 114.007812 117.796875 108.042969 120.894531 108.042969 124.570312 C 108.042969 128.242188 114.007812 131.335938 121.0625 131.335938 C 128.113281 131.335938 134.078125 128.238281 134.078125 124.570312 C 134.078125 120.902344 128.121094 117.796875 121.0625 117.796875 Z M 121.0625 117.796875 " fill-opacity="1" fill-rule="nonzero"/><path fill="#6b39f4" d="M 107.15625 155.132812 C 107.046875 155.132812 106.933594 155.105469 106.835938 155.046875 C 106.570312 154.898438 104.21875 153.535156 103.515625 152.183594 C 103.4375 152.03125 103.425781 151.851562 103.480469 151.6875 C 103.535156 151.523438 103.652344 151.386719 103.808594 151.308594 C 103.960938 151.230469 104.140625 151.21875 104.304688 151.273438 C 104.46875 151.328125 104.605469 151.441406 104.683594 151.597656 C 105.066406 152.347656 106.601562 153.417969 107.476562 153.914062 C 107.628906 154 107.738281 154.140625 107.785156 154.304688 C 107.832031 154.472656 107.8125 154.648438 107.726562 154.800781 C 107.671875 154.902344 107.585938 154.984375 107.488281 155.042969 C 107.386719 155.101562 107.273438 155.132812 107.15625 155.132812 Z M 107.15625 155.132812 " fill-opacity="1" fill-rule="nonzero"/><path fill="#6b39f4" d="M 134.96875 155.132812 C 134.824219 155.132812 134.683594 155.085938 134.566406 155 C 134.453125 154.914062 134.371094 154.789062 134.332031 154.648438 C 134.296875 154.511719 134.304688 154.363281 134.363281 154.230469 C 134.417969 154.09375 134.515625 153.984375 134.640625 153.914062 C 135.527344 153.417969 137.0625 152.347656 137.441406 151.597656 C 137.519531 151.441406 137.65625 151.328125 137.820312 151.273438 C 137.984375 151.21875 138.164062 151.230469 138.320312 151.308594 C 138.472656 151.386719 138.59375 151.523438 138.648438 151.6875 C 138.703125 151.851562 138.691406 152.03125 138.613281 152.183594 C 137.960938 153.535156 135.558594 154.898438 135.289062 155.046875 C 135.191406 155.105469 135.082031 155.132812 134.96875 155.132812 Z M 134.96875 155.132812 " fill-opacity="1" fill-rule="nonzero"/><path fill="#ffffff" d="M 116.335938 127.566406 C 117.996094 127.566406 119.339844 126.222656 119.339844 124.570312 C 119.339844 122.914062 117.996094 121.574219 116.335938 121.574219 C 114.679688 121.574219 113.335938 122.914062 113.335938 124.570312 C 113.335938 126.222656 114.679688 127.566406 116.335938 127.566406 Z M 116.335938 127.566406 " fill-opacity="1" fill-rule="nonzero"/><path fill="#ffffff" d="M 125.789062 127.566406 C 127.449219 127.566406 128.792969 126.222656 128.792969 124.570312 C 128.792969 122.914062 127.449219 121.574219 125.789062 121.574219 C 124.132812 121.574219 122.789062 122.914062 122.789062 124.570312 C 122.789062 126.222656 124.132812 127.566406 125.789062 127.566406 Z M 125.789062 127.566406 " fill-opacity="1" fill-rule="nonzero"/><path fill="#ffffff" d="M 113.675781 113.417969 C 113.5 113.417969 113.335938 113.351562 113.210938 113.226562 C 113.089844 113.105469 113.019531 112.9375 113.019531 112.765625 C 113.019531 111.542969 112.535156 110.371094 111.667969 109.507812 C 110.800781 108.644531 109.625 108.160156 108.402344 108.160156 C 107.175781 108.160156 106 108.644531 105.136719 109.507812 C 104.269531 110.371094 103.78125 111.542969 103.78125 112.765625 C 103.78125 112.9375 103.714844 113.105469 103.589844 113.226562 C 103.46875 113.351562 103.300781 113.417969 103.128906 113.417969 C 102.953125 113.417969 102.789062 113.351562 102.664062 113.226562 C 102.542969 113.105469 102.472656 112.9375 102.472656 112.765625 C 102.472656 111.199219 103.097656 109.695312 104.210938 108.585938 C 105.320312 107.476562 106.828125 106.855469 108.402344 106.855469 C 109.972656 106.855469 111.480469 107.476562 112.59375 108.585938 C 113.703125 109.695312 114.328125 111.199219 114.328125 112.765625 C 114.328125 112.9375 114.257812 113.105469 114.136719 113.226562 C 114.015625 113.351562 113.847656 113.417969 113.675781 113.417969 Z M 113.675781 113.417969 " fill-opacity="1" fill-rule="nonzero"/><path fill="#ffffff" d="M 139 113.417969 C 138.824219 113.417969 138.660156 113.351562 138.535156 113.226562 C 138.414062 113.105469 138.34375 112.9375 138.34375 112.765625 C 138.34375 111.542969 137.859375 110.371094 136.992188 109.507812 C 136.125 108.644531 134.953125 108.160156 133.726562 108.160156 C 132.5 108.160156 131.328125 108.644531 130.460938 109.507812 C 129.59375 110.371094 129.109375 111.542969 129.109375 112.765625 C 129.109375 112.9375 129.039062 113.105469 128.914062 113.226562 C 128.792969 113.351562 128.625 113.417969 128.453125 113.417969 C 128.28125 113.417969 128.113281 113.351562 127.992188 113.226562 C 127.867188 113.105469 127.800781 112.9375 127.800781 112.765625 C 127.800781 111.199219 128.421875 109.695312 129.535156 108.585938 C 130.648438 107.476562 132.15625 106.855469 133.726562 106.855469 C 135.296875 106.855469 136.804688 107.476562 137.917969 108.585938 C 139.027344 109.695312 139.652344 111.199219 139.652344 112.765625 C 139.652344 112.9375 139.585938 113.105469 139.460938 113.226562 C 139.339844 113.351562 139.171875 113.417969 139 113.417969 Z M 139 113.417969 " fill-opacity="1" fill-rule="nonzero"/><path fill="#6b39f4" d="M 122.347656 92.121094 L 122.347656 99.617188 L 119.773438 99.617188 L 119.773438 92.121094 C 120.195312 92.121094 120.628906 92.121094 121.078125 92.121094 C 121.53125 92.121094 121.921875 92.09375 122.347656 92.121094 Z M 122.347656 92.121094 " fill-opacity="1" fill-rule="nonzero"/><path fill="#6b39f4" d="M 122.347656 100.269531 L 119.773438 100.269531 C 119.597656 100.269531 119.433594 100.203125 119.308594 100.078125 C 119.1875 99.957031 119.117188 99.789062 119.117188 99.617188 L 119.117188 92.121094 C 119.117188 91.953125 119.179688 91.792969 119.296875 91.671875 C 119.410156 91.550781 119.566406 91.476562 119.734375 91.46875 C 120.617188 91.414062 121.503906 91.414062 122.386719 91.46875 C 122.554688 91.476562 122.710938 91.550781 122.824219 91.671875 C 122.941406 91.792969 123.003906 91.953125 123.003906 92.121094 L 123.003906 99.617188 C 123.003906 99.789062 122.933594 99.957031 122.8125 100.078125 C 122.6875 100.203125 122.523438 100.269531 122.347656 100.269531 Z M 120.425781 98.964844 L 121.695312 98.964844 L 121.695312 92.746094 L 120.425781 92.746094 Z M 120.425781 98.964844 " fill-opacity="1" fill-rule="nonzero"/><path fill="#6b39f4" d="M 100.457031 96.503906 C 100.367188 96.507812 100.273438 96.488281 100.191406 96.449219 C 100.105469 96.414062 100.03125 96.359375 99.96875 96.289062 C 97.351562 93.386719 92.535156 94.070312 92.492188 94.078125 C 92.40625 94.089844 92.316406 94.085938 92.234375 94.066406 C 92.148438 94.046875 92.070312 94.007812 92 93.957031 C 91.929688 93.90625 91.871094 93.839844 91.824219 93.765625 C 91.78125 93.691406 91.75 93.609375 91.738281 93.523438 C 91.726562 93.4375 91.730469 93.351562 91.75 93.265625 C 91.769531 93.183594 91.808594 93.101562 91.859375 93.035156 C 91.910156 92.964844 91.976562 92.90625 92.050781 92.859375 C 92.125 92.816406 92.207031 92.785156 92.292969 92.773438 C 92.523438 92.773438 97.875 91.972656 100.941406 95.382812 C 101.027344 95.476562 101.078125 95.59375 101.097656 95.714844 C 101.117188 95.839844 101.101562 95.964844 101.050781 96.078125 C 100.996094 96.195312 100.914062 96.289062 100.8125 96.359375 C 100.707031 96.429688 100.582031 96.464844 100.457031 96.464844 Z M 100.457031 96.503906 " fill-opacity="1" fill-rule="nonzero"/><path fill="#6b39f4" d="M 141.667969 96.503906 C 141.566406 96.503906 141.46875 96.484375 141.378906 96.441406 C 141.289062 96.398438 141.210938 96.335938 141.152344 96.257812 C 141.042969 96.121094 140.996094 95.949219 141.015625 95.777344 C 141.039062 95.605469 141.125 95.449219 141.261719 95.34375 C 146.1875 91.429688 149.703125 92.679688 149.84375 92.734375 C 150.003906 92.796875 150.132812 92.917969 150.203125 93.070312 C 150.273438 93.226562 150.277344 93.402344 150.222656 93.5625 C 150.164062 93.722656 150.042969 93.851562 149.890625 93.925781 C 149.738281 94 149.5625 94.011719 149.402344 93.960938 C 149.261719 93.914062 146.371094 92.980469 142.074219 96.367188 C 141.957031 96.457031 141.8125 96.507812 141.667969 96.503906 Z M 141.667969 96.503906 " fill-opacity="1" fill-rule="nonzero"/><path fill="#7a4df5" d="M 107.15625 132.6875 C 107.15625 132.6875 108.179688 137.710938 113.332031 137.039062 Z M 107.15625 132.6875 " fill-opacity="1" fill-rule="nonzero"/><path fill="#ffffff" d="M 112.417969 137.75 C 108.570312 137.75 106.882812 134.613281 106.53125 132.816406 C 106.496094 132.644531 106.53125 132.464844 106.628906 132.316406 C 106.726562 132.171875 106.878906 132.070312 107.054688 132.035156 C 107.226562 132 107.40625 132.035156 107.554688 132.132812 C 107.703125 132.230469 107.804688 132.382812 107.839844 132.554688 C 107.878906 132.738281 108.800781 136.972656 113.289062 136.386719 C 113.460938 136.363281 113.636719 136.410156 113.773438 136.515625 C 113.914062 136.625 114.003906 136.78125 114.027344 136.953125 C 114.050781 137.128906 114.003906 137.300781 113.894531 137.441406 C 113.789062 137.578125 113.632812 137.667969 113.457031 137.691406 C 113.113281 137.734375 112.765625 137.753906 112.417969 137.75 Z M 112.417969 137.75 " fill-opacity="1" fill-rule="nonzero"/><path fill="#ffffff" d="M 107.386719 130.023438 C 107.386719 130.023438 108.335938 131.585938 105.628906 133.234375 Z M 107.386719 130.023438 " fill-opacity="1" fill-rule="nonzero"/><path fill="#ffffff" d="M 105.628906 133.886719 C 105.515625 133.886719 105.40625 133.859375 105.308594 133.804688 C 105.210938 133.753906 105.128906 133.675781 105.070312 133.582031 C 105.027344 133.507812 104.996094 133.425781 104.980469 133.339844 C 104.96875 133.257812 104.972656 133.167969 104.992188 133.085938 C 105.011719 133.003906 105.046875 132.921875 105.097656 132.855469 C 105.148438 132.785156 105.214844 132.726562 105.289062 132.679688 C 107.355469 131.414062 106.84375 130.390625 106.816406 130.34375 C 106.734375 130.195312 106.714844 130.015625 106.765625 129.851562 C 106.8125 129.6875 106.921875 129.546875 107.074219 129.464844 C 107.21875 129.382812 107.394531 129.359375 107.554688 129.398438 C 107.71875 129.441406 107.859375 129.542969 107.949219 129.6875 C 107.949219 129.6875 109.191406 131.824219 105.988281 133.796875 C 105.878906 133.859375 105.753906 133.894531 105.628906 133.886719 Z M 105.628906 133.886719 " fill-opacity="1" fill-rule="nonzero"/><path fill="#ffd023" d="M 170.648438 155.773438 L 156.230469 155.773438 C 155.574219 155.773438 155.039062 156.304688 155.039062 156.960938 L 155.039062 159.917969 C 155.039062 160.570312 155.574219 161.105469 156.230469 161.105469 L 170.648438 161.105469 C 171.308594 161.105469 171.839844 160.570312 171.839844 159.917969 L 171.839844 156.960938 C 171.839844 156.304688 171.308594 155.773438 170.648438 155.773438 Z M 170.648438 155.773438 " fill-opacity="1" fill-rule="nonzero"/><path fill="#6b39f4" d="M 170.65625 161.757812 L 156.265625 161.757812 C 156.023438 161.757812 155.78125 161.710938 155.558594 161.617188 C 155.335938 161.527344 155.132812 161.390625 154.960938 161.222656 C 154.789062 161.050781 154.652344 160.847656 154.558594 160.625 C 154.464844 160.402344 154.417969 160.164062 154.417969 159.921875 L 154.417969 156.960938 C 154.417969 156.472656 154.613281 156.003906 154.960938 155.660156 C 155.304688 155.3125 155.773438 155.121094 156.265625 155.121094 L 170.65625 155.121094 C 170.898438 155.121094 171.136719 155.167969 171.363281 155.261719 C 171.585938 155.351562 171.789062 155.488281 171.960938 155.660156 C 172.128906 155.832031 172.265625 156.03125 172.355469 156.257812 C 172.449219 156.480469 172.496094 156.71875 172.496094 156.960938 L 172.496094 159.921875 C 172.496094 160.410156 172.300781 160.875 171.957031 161.21875 C 171.613281 161.5625 171.144531 161.757812 170.65625 161.757812 Z M 156.265625 156.425781 C 156.121094 156.425781 155.984375 156.480469 155.882812 156.582031 C 155.785156 156.683594 155.726562 156.816406 155.726562 156.960938 L 155.726562 159.921875 C 155.730469 160.0625 155.785156 160.199219 155.886719 160.296875 C 155.988281 160.394531 156.121094 160.449219 156.265625 160.449219 L 170.65625 160.449219 C 170.796875 160.449219 170.933594 160.394531 171.03125 160.296875 C 171.132812 160.195312 171.1875 160.0625 171.1875 159.921875 L 171.1875 156.960938 C 171.1875 156.820312 171.132812 156.683594 171.03125 156.582031 C 170.933594 156.484375 170.796875 156.425781 170.65625 156.425781 Z M 156.265625 156.425781 " fill-opacity="1" fill-rule="nonzero"/><path fill="#ffd023" d="M 172.496094 150.234375 L 158.078125 150.234375 C 157.417969 150.234375 156.886719 150.765625 156.886719 151.421875 L 156.886719 154.378906 C 156.886719 155.035156 157.417969 155.566406 158.078125 155.566406 L 172.496094 155.566406 C 173.152344 155.566406 173.6875 155.035156 173.6875 154.378906 L 173.6875 151.421875 C 173.6875 150.765625 173.152344 150.234375 172.496094 150.234375 Z M 172.496094 150.234375 " fill-opacity="1" fill-rule="nonzero"/><g clip-path="url(#c468d6fe95)"><path fill="#6b39f4" d="M 172.503906 156.214844 L 158.109375 156.214844 C 157.621094 156.214844 157.152344 156.023438 156.804688 155.675781 C 156.457031 155.332031 156.265625 154.863281 156.265625 154.375 L 156.265625 151.414062 C 156.265625 150.925781 156.460938 150.460938 156.808594 150.117188 C 157.152344 149.773438 157.621094 149.582031 158.109375 149.582031 L 172.503906 149.582031 C 172.988281 149.582031 173.457031 149.773438 173.800781 150.117188 C 174.148438 150.460938 174.339844 150.929688 174.339844 151.414062 L 174.339844 154.375 C 174.339844 154.617188 174.292969 154.855469 174.203125 155.082031 C 174.109375 155.304688 173.976562 155.507812 173.804688 155.675781 C 173.632812 155.847656 173.429688 155.984375 173.207031 156.078125 C 172.984375 156.167969 172.746094 156.214844 172.503906 156.214844 Z M 158.109375 150.886719 C 157.96875 150.886719 157.832031 150.941406 157.730469 151.039062 C 157.632812 151.140625 157.574219 151.273438 157.574219 151.414062 L 157.574219 154.375 C 157.574219 154.519531 157.628906 154.65625 157.730469 154.753906 C 157.832031 154.855469 157.96875 154.910156 158.109375 154.910156 L 172.503906 154.910156 C 172.644531 154.910156 172.777344 154.851562 172.878906 154.753906 C 172.976562 154.652344 173.03125 154.515625 173.03125 154.375 L 173.03125 151.414062 C 173.03125 151.273438 172.976562 151.140625 172.878906 151.039062 C 172.777344 150.941406 172.644531 150.886719 172.503906 150.886719 Z M 158.109375 150.886719 " fill-opacity="1" fill-rule="nonzero"/></g><path fill="#ffd023" d="M 168.617188 144.902344 L 154.195312 144.902344 C 153.539062 144.902344 153.007812 145.433594 153.007812 146.089844 L 153.007812 149.046875 C 153.007812 149.703125 153.539062 150.234375 154.195312 150.234375 L 168.617188 150.234375 C 169.273438 150.234375 169.808594 149.703125 169.808594 149.046875 L 169.808594 146.089844 C 169.808594 145.433594 169.273438 144.902344 168.617188 144.902344 Z M 168.617188 144.902344 " fill-opacity="1" fill-rule="nonzero"/><path fill="#6b39f4" d="M 168.621094 150.886719 L 154.230469 150.886719 C 153.738281 150.886719 153.269531 150.691406 152.925781 150.347656 C 152.578125 150.003906 152.382812 149.535156 152.382812 149.046875 L 152.382812 146.085938 C 152.382812 145.84375 152.433594 145.605469 152.523438 145.378906 C 152.617188 145.15625 152.753906 144.957031 152.925781 144.785156 C 153.097656 144.613281 153.300781 144.480469 153.523438 144.386719 C 153.746094 144.296875 153.988281 144.25 154.230469 144.25 L 168.621094 144.25 C 169.109375 144.25 169.578125 144.445312 169.921875 144.789062 C 170.265625 145.132812 170.460938 145.597656 170.460938 146.085938 L 170.460938 149.046875 C 170.460938 149.535156 170.265625 150 169.921875 150.34375 C 169.578125 150.691406 169.109375 150.882812 168.621094 150.886719 Z M 154.230469 145.554688 C 154.089844 145.554688 153.953125 145.609375 153.851562 145.710938 C 153.75 145.808594 153.695312 145.941406 153.691406 146.085938 L 153.691406 149.046875 C 153.691406 149.1875 153.75 149.324219 153.851562 149.425781 C 153.949219 149.523438 154.085938 149.582031 154.230469 149.582031 L 168.621094 149.582031 C 168.761719 149.578125 168.898438 149.523438 168.996094 149.421875 C 169.097656 149.320312 169.152344 149.1875 169.152344 149.046875 L 169.152344 146.085938 C 169.152344 145.945312 169.097656 145.808594 168.996094 145.710938 C 168.898438 145.609375 168.761719 145.554688 168.621094 145.554688 Z M 154.230469 145.554688 " fill-opacity="1" fill-rule="nonzero"/><path fill="#ffd023" d="M 170.648438 139.570312 L 156.230469 139.570312 C 155.574219 139.570312 155.039062 140.101562 155.039062 140.757812 L 155.039062 143.714844 C 155.039062 144.371094 155.574219 144.902344 156.230469 144.902344 L 170.648438 144.902344 C 171.308594 144.902344 171.839844 144.371094 171.839844 143.714844 L 171.839844 140.757812 C 171.839844 140.101562 171.308594 139.570312 170.648438 139.570312 Z M 170.648438 139.570312 " fill-opacity="1" fill-rule="nonzero"/><path fill="#6b39f4" d="M 170.65625 145.554688 L 156.265625 145.554688 C 155.773438 145.554688 155.304688 145.359375 154.960938 145.015625 C 154.613281 144.671875 154.417969 144.203125 154.417969 143.714844 L 154.417969 140.753906 C 154.417969 140.511719 154.464844 140.273438 154.558594 140.050781 C 154.652344 139.824219 154.789062 139.625 154.960938 139.453125 C 155.132812 139.28125 155.335938 139.148438 155.558594 139.054688 C 155.78125 138.964844 156.023438 138.917969 156.265625 138.917969 L 170.65625 138.917969 C 171.144531 138.917969 171.613281 139.113281 171.957031 139.457031 C 172.300781 139.800781 172.496094 140.265625 172.496094 140.753906 L 172.496094 143.714844 C 172.496094 144.203125 172.300781 144.667969 171.957031 145.011719 C 171.613281 145.359375 171.144531 145.554688 170.65625 145.554688 Z M 156.265625 140.222656 C 156.121094 140.222656 155.988281 140.277344 155.886719 140.378906 C 155.785156 140.476562 155.730469 140.613281 155.726562 140.753906 L 155.726562 143.714844 C 155.726562 143.855469 155.785156 143.992188 155.882812 144.09375 C 155.984375 144.191406 156.121094 144.25 156.265625 144.25 L 170.65625 144.25 C 170.796875 144.246094 170.933594 144.191406 171.03125 144.089844 C 171.132812 143.992188 171.1875 143.855469 171.1875 143.714844 L 171.1875 140.753906 C 171.1875 140.613281 171.132812 140.476562 171.03125 140.378906 C 170.933594 140.28125 170.796875 140.222656 170.65625 140.222656 Z M 156.265625 140.222656 " fill-opacity="1" fill-rule="nonzero"/><path fill="#ffd023" d="M 172.496094 134.371094 L 158.078125 134.371094 C 157.417969 134.371094 156.886719 134.902344 156.886719 135.558594 L 156.886719 138.515625 C 156.886719 139.167969 157.417969 139.703125 158.078125 139.703125 L 172.496094 139.703125 C 173.152344 139.703125 173.6875 139.167969 173.6875 138.515625 L 173.6875 135.558594 C 173.6875 134.902344 173.152344 134.371094 172.496094 134.371094 Z M 172.496094 134.371094 " fill-opacity="1" fill-rule="nonzero"/><g clip-path="url(#790dce0830)"><path fill="#6b39f4" d="M 172.503906 140.355469 L 158.109375 140.355469 C 157.621094 140.355469 157.152344 140.160156 156.808594 139.816406 C 156.460938 139.472656 156.265625 139.007812 156.265625 138.519531 L 156.265625 135.558594 C 156.265625 135.070312 156.457031 134.601562 156.804688 134.257812 C 157.152344 133.910156 157.621094 133.71875 158.109375 133.71875 L 172.503906 133.71875 C 172.746094 133.71875 172.984375 133.765625 173.207031 133.859375 C 173.429688 133.949219 173.632812 134.085938 173.804688 134.257812 C 173.976562 134.429688 174.109375 134.628906 174.203125 134.855469 C 174.292969 135.078125 174.339844 135.316406 174.339844 135.558594 L 174.339844 138.519531 C 174.339844 139.007812 174.148438 139.472656 173.800781 139.816406 C 173.457031 140.160156 172.988281 140.355469 172.503906 140.355469 Z M 158.109375 135.023438 C 157.96875 135.023438 157.832031 135.078125 157.730469 135.179688 C 157.628906 135.28125 157.574219 135.414062 157.574219 135.558594 L 157.574219 138.519531 C 157.574219 138.660156 157.632812 138.796875 157.730469 138.894531 C 157.832031 138.992188 157.96875 139.046875 158.109375 139.046875 L 172.503906 139.046875 C 172.644531 139.046875 172.777344 138.992188 172.878906 138.894531 C 172.976562 138.792969 173.03125 138.660156 173.03125 138.519531 L 173.03125 135.558594 C 173.03125 135.417969 172.976562 135.28125 172.878906 135.179688 C 172.777344 135.082031 172.644531 135.023438 172.503906 135.023438 Z M 158.109375 135.023438 " fill-opacity="1" fill-rule="nonzero"/></g><path fill="#ffd023" d="M 85.757812 155.773438 L 71.339844 155.773438 C 70.679688 155.773438 70.148438 156.304688 70.148438 156.960938 L 70.148438 159.917969 C 70.148438 160.570312 70.679688 161.105469 71.339844 161.105469 L 85.757812 161.105469 C 86.414062 161.105469 86.949219 160.570312 86.949219 159.917969 L 86.949219 156.960938 C 86.949219 156.304688 86.414062 155.773438 85.757812 155.773438 Z M 85.757812 155.773438 " fill-opacity="1" fill-rule="nonzero"/><path fill="#6b39f4" d="M 85.765625 161.757812 L 71.371094 161.757812 C 70.882812 161.757812 70.414062 161.5625 70.070312 161.21875 C 69.722656 160.875 69.527344 160.410156 69.527344 159.921875 L 69.527344 156.960938 C 69.527344 156.472656 69.722656 156.003906 70.066406 155.660156 C 70.414062 155.3125 70.882812 155.121094 71.371094 155.121094 L 85.765625 155.121094 C 86.253906 155.121094 86.722656 155.3125 87.070312 155.660156 C 87.414062 156.003906 87.609375 156.472656 87.609375 156.960938 L 87.609375 159.921875 C 87.609375 160.410156 87.414062 160.875 87.066406 161.21875 C 86.722656 161.5625 86.253906 161.757812 85.765625 161.757812 Z M 71.371094 156.425781 C 71.230469 156.425781 71.09375 156.480469 70.992188 156.582031 C 70.890625 156.683594 70.835938 156.816406 70.835938 156.960938 L 70.835938 159.921875 C 70.835938 160.0625 70.894531 160.199219 70.996094 160.296875 C 71.09375 160.394531 71.230469 160.449219 71.371094 160.449219 L 85.765625 160.449219 C 85.90625 160.449219 86.042969 160.394531 86.140625 160.296875 C 86.242188 160.199219 86.300781 160.0625 86.300781 159.921875 L 86.300781 156.960938 C 86.300781 156.816406 86.246094 156.683594 86.144531 156.582031 C 86.042969 156.480469 85.90625 156.425781 85.765625 156.425781 Z M 71.371094 156.425781 " fill-opacity="1" fill-rule="nonzero"/><path fill="#ffd023" d="M 82.957031 150.234375 L 68.539062 150.234375 C 67.882812 150.234375 67.347656 150.765625 67.347656 151.421875 L 67.347656 154.378906 C 67.347656 155.035156 67.882812 155.566406 68.539062 155.566406 L 82.957031 155.566406 C 83.613281 155.566406 84.148438 155.035156 84.148438 154.378906 L 84.148438 151.421875 C 84.148438 150.765625 83.613281 150.234375 82.957031 150.234375 Z M 82.957031 150.234375 " fill-opacity="1" fill-rule="nonzero"/><path fill="#6b39f4" d="M 82.957031 156.214844 L 68.566406 156.214844 C 68.324219 156.214844 68.082031 156.167969 67.859375 156.078125 C 67.636719 155.984375 67.433594 155.847656 67.261719 155.675781 C 67.09375 155.507812 66.957031 155.304688 66.863281 155.082031 C 66.773438 154.855469 66.726562 154.617188 66.726562 154.375 L 66.726562 151.414062 C 66.726562 150.929688 66.921875 150.460938 67.265625 150.117188 C 67.609375 149.773438 68.078125 149.582031 68.566406 149.582031 L 82.957031 149.582031 C 83.445312 149.582031 83.914062 149.773438 84.261719 150.117188 C 84.605469 150.460938 84.800781 150.925781 84.804688 151.414062 L 84.804688 154.375 C 84.804688 154.863281 84.609375 155.332031 84.261719 155.675781 C 83.917969 156.023438 83.449219 156.214844 82.957031 156.214844 Z M 68.566406 150.886719 C 68.425781 150.886719 68.289062 150.941406 68.191406 151.039062 C 68.089844 151.140625 68.035156 151.273438 68.035156 151.414062 L 68.035156 154.375 C 68.035156 154.515625 68.089844 154.652344 68.191406 154.753906 C 68.289062 154.851562 68.425781 154.910156 68.566406 154.910156 L 82.957031 154.910156 C 83.101562 154.910156 83.238281 154.855469 83.335938 154.753906 C 83.4375 154.65625 83.496094 154.519531 83.496094 154.375 L 83.496094 151.414062 C 83.492188 151.273438 83.433594 151.140625 83.335938 151.039062 C 83.234375 150.941406 83.097656 150.886719 82.957031 150.886719 Z M 68.566406 150.886719 " fill-opacity="1" fill-rule="nonzero"/><path fill="#ffd023" d="M 87.117188 144.902344 L 72.699219 144.902344 C 72.042969 144.902344 71.507812 145.433594 71.507812 146.089844 L 71.507812 149.046875 C 71.507812 149.703125 72.042969 150.234375 72.699219 150.234375 L 87.117188 150.234375 C 87.777344 150.234375 88.308594 149.703125 88.308594 149.046875 L 88.308594 146.089844 C 88.308594 145.433594 87.777344 144.902344 87.117188 144.902344 Z M 87.117188 144.902344 " fill-opacity="1" fill-rule="nonzero"/><path fill="#6b39f4" d="M 87.152344 150.886719 L 72.757812 150.886719 C 72.269531 150.882812 71.800781 150.6875 71.457031 150.34375 C 71.113281 150 70.921875 149.53125 70.921875 149.046875 L 70.921875 146.082031 C 70.921875 145.597656 71.113281 145.128906 71.457031 144.785156 C 71.804688 144.441406 72.269531 144.25 72.757812 144.25 L 87.152344 144.25 C 87.394531 144.25 87.632812 144.296875 87.855469 144.386719 C 88.082031 144.480469 88.285156 144.613281 88.457031 144.785156 C 88.625 144.953125 88.761719 145.15625 88.855469 145.378906 C 88.949219 145.601562 88.996094 145.84375 88.996094 146.082031 L 88.996094 149.046875 C 88.996094 149.535156 88.800781 150 88.457031 150.347656 C 88.109375 150.691406 87.640625 150.886719 87.152344 150.886719 Z M 72.757812 145.554688 C 72.617188 145.554688 72.484375 145.609375 72.382812 145.710938 C 72.285156 145.808594 72.226562 145.941406 72.226562 146.082031 L 72.226562 149.046875 C 72.226562 149.1875 72.285156 149.320312 72.382812 149.421875 C 72.480469 149.523438 72.617188 149.578125 72.757812 149.582031 L 87.152344 149.582031 C 87.292969 149.582031 87.429688 149.523438 87.53125 149.425781 C 87.632812 149.324219 87.6875 149.1875 87.6875 149.046875 L 87.6875 146.082031 C 87.6875 145.941406 87.628906 145.808594 87.527344 145.710938 C 87.429688 145.609375 87.292969 145.554688 87.152344 145.554688 Z M 72.757812 145.554688 " fill-opacity="1" fill-rule="nonzero"/><path fill="#ffd023" d="M 121.871094 49.089844 L 120.527344 51.46875 C 119.558594 53.03125 121.722656 56.117188 125.375 58.375 C 129.023438 60.632812 132.773438 61.191406 133.722656 59.605469 L 135.074219 57.226562 Z M 121.871094 49.089844 " fill-opacity="1" fill-rule="nonzero"/><path fill="#6b39f4" d="M 131.558594 60.773438 C 131.207031 60.769531 130.851562 60.742188 130.503906 60.6875 C 126.722656 59.910156 123.34375 57.820312 120.964844 54.789062 C 119.972656 53.375 119.730469 52.125 120.261719 51.257812 L 121.601562 48.886719 C 121.644531 48.816406 121.710938 48.765625 121.792969 48.742188 C 121.828125 48.726562 121.871094 48.71875 121.910156 48.71875 C 121.953125 48.71875 121.996094 48.726562 122.03125 48.742188 L 135.234375 56.90625 C 135.300781 56.945312 135.351562 57.011719 135.371094 57.089844 C 135.390625 57.167969 135.378906 57.25 135.339844 57.316406 L 133.996094 59.703125 C 133.570312 60.441406 132.722656 60.773438 131.558594 60.773438 Z M 121.984375 49.46875 L 120.792969 51.574219 C 120.390625 52.1875 120.644531 53.257812 121.472656 54.433594 C 123.75 57.328125 126.984375 59.328125 130.597656 60.078125 C 132.027344 60.292969 133.0625 60.078125 133.464844 59.421875 L 134.660156 57.304688 Z M 121.984375 49.46875 " fill-opacity="1" fill-rule="nonzero"/><path fill="#ffd023" d="M 135.464844 57.46875 C 136.441406 55.910156 134.277344 52.808594 130.632812 50.542969 C 126.988281 48.277344 123.242188 47.703125 122.269531 49.261719 C 121.292969 50.820312 123.457031 53.921875 127.101562 56.1875 C 130.746094 58.457031 134.492188 59.027344 135.464844 57.46875 Z M 135.464844 57.46875 " fill-opacity="1" fill-rule="nonzero"/><path fill="#6b39f4" d="M 132.898438 58.410156 C 131.183594 58.410156 128.871094 57.65625 126.558594 56.226562 C 122.710938 53.847656 120.535156 50.632812 121.625 48.902344 C 122.71875 47.175781 126.558594 47.671875 130.40625 50.058594 C 134.253906 52.445312 136.425781 55.65625 135.339844 57.382812 C 134.90625 58.074219 134.03125 58.410156 132.898438 58.410156 Z M 124.019531 48.472656 C 123.117188 48.472656 122.445312 48.714844 122.132812 49.210938 C 121.273438 50.601562 123.445312 53.566406 126.878906 55.695312 C 130.3125 57.820312 133.945312 58.4375 134.808594 57.050781 C 135.671875 55.667969 133.496094 52.699219 130.0625 50.570312 C 127.871094 49.230469 125.597656 48.472656 124.019531 48.472656 Z M 124.019531 48.472656 " fill-opacity="1" fill-rule="nonzero"/><path fill="#ffffff" d="M 133.351562 55.738281 L 132.367188 55.230469 C 132.304688 55.230469 132.292969 55.230469 132.296875 55.230469 C 132.339844 55.378906 132.34375 55.535156 132.308594 55.6875 C 132.273438 55.835938 132.199219 55.972656 132.09375 56.085938 C 131.875 56.285156 131.476562 56.277344 130.960938 56.085938 C 130.820312 56.039062 130.675781 55.96875 130.523438 55.910156 L 130.132812 54.554688 C 130.308594 54.65625 130.507812 54.703125 130.707031 54.683594 C 130.792969 54.640625 130.875 54.589844 130.949219 54.523438 L 130.917969 54.523438 L 129.066406 53.582031 C 129.0625 53.621094 129.0625 53.65625 129.066406 53.695312 C 129.070312 53.964844 129.027344 54.230469 128.933594 54.480469 C 128.757812 54.863281 128.316406 54.898438 127.648438 54.617188 C 126.996094 54.328125 126.410156 53.910156 125.929688 53.386719 C 125.550781 53.011719 125.246094 52.574219 125.027344 52.089844 C 124.917969 51.835938 124.84375 51.597656 124.75 51.351562 L 124.078125 51.007812 L 124.046875 50.101562 L 124.707031 50.441406 C 124.75 50.304688 124.804688 50.171875 124.867188 50.042969 C 124.9375 49.917969 125.042969 49.820312 125.171875 49.757812 C 125.300781 49.699219 125.445312 49.679688 125.582031 49.703125 C 125.949219 49.746094 126.308594 49.859375 126.632812 50.035156 L 126.785156 50.9375 C 126.3125 50.742188 125.992188 50.734375 125.898438 51.039062 L 127.746094 51.960938 C 127.777344 51.800781 127.804688 51.648438 127.847656 51.5 C 127.855469 51.414062 127.890625 51.335938 127.945312 51.273438 C 128 51.207031 128.074219 51.160156 128.15625 51.136719 C 128.402344 51.09375 128.65625 51.128906 128.882812 51.234375 C 129.285156 51.390625 129.667969 51.597656 130.023438 51.847656 C 130.597656 52.253906 131.09375 52.753906 131.492188 53.332031 C 131.640625 53.554688 131.75 53.769531 131.878906 53.988281 L 131.921875 54.070312 L 132.890625 54.5625 Z M 126.015625 51.992188 C 126.078125 52.214844 126.1875 52.425781 126.335938 52.605469 C 126.457031 52.773438 126.613281 52.914062 126.792969 53.023438 C 126.972656 53.128906 127.171875 53.195312 127.378906 53.222656 C 127.574219 53.183594 127.59375 52.992188 127.648438 52.839844 Z M 130.6875 53.460938 C 130.554688 53.269531 130.449219 53.105469 130.3125 52.9375 C 129.988281 52.550781 129.449219 52.253906 129.257812 52.324219 C 129.066406 52.390625 129.148438 52.507812 129.121094 52.636719 Z M 130.6875 53.460938 " fill-opacity="1" fill-rule="nonzero"/><path fill="#ffd023" d="M 110.230469 58.382812 C 107.449219 59.386719 105.214844 64.804688 105.214844 64.804688 L 105.925781 67.496094 C 106.222656 68.402344 106.699219 69.242188 107.328125 69.960938 C 107.957031 70.679688 108.722656 71.265625 109.582031 71.683594 C 110.4375 72.101562 111.375 72.34375 112.328125 72.394531 C 113.28125 72.445312 114.238281 72.308594 115.136719 71.984375 C 116.035156 71.660156 116.863281 71.160156 117.5625 70.515625 C 118.265625 69.867188 118.832031 69.085938 119.226562 68.21875 C 119.621094 67.351562 119.835938 66.410156 119.859375 65.457031 C 119.886719 64.503906 119.71875 63.558594 119.367188 62.667969 L 118.214844 60.140625 C 118.214844 60.140625 113.011719 57.386719 110.230469 58.382812 Z M 110.230469 58.382812 " fill-opacity="1" fill-rule="nonzero"/><path fill="#6b39f4" d="M 112.664062 72.523438 C 111.132812 72.515625 109.636719 72.042969 108.386719 71.160156 C 107.132812 70.28125 106.179688 69.039062 105.660156 67.601562 L 104.9375 64.882812 C 104.917969 64.820312 104.917969 64.75 104.9375 64.6875 C 105.03125 64.464844 107.257812 59.152344 110.136719 58.09375 C 113.015625 57.0625 118.152344 59.753906 118.355469 59.871094 C 118.414062 59.902344 118.460938 59.953125 118.492188 60.011719 L 119.65625 62.539062 C 120.066406 63.664062 120.199219 64.867188 120.042969 66.050781 C 119.890625 67.238281 119.449219 68.367188 118.761719 69.34375 C 118.078125 70.324219 117.164062 71.125 116.101562 71.675781 C 115.042969 72.230469 113.863281 72.519531 112.664062 72.523438 Z M 105.558594 64.828125 L 106.25 67.417969 C 106.867188 69.117188 108.136719 70.503906 109.777344 71.269531 C 111.421875 72.035156 113.300781 72.121094 115.003906 71.503906 C 116.707031 70.890625 118.097656 69.625 118.867188 67.984375 C 119.632812 66.347656 119.71875 64.472656 119.101562 62.773438 L 117.984375 60.371094 C 117.289062 60.011719 112.78125 57.800781 110.359375 58.671875 C 107.933594 59.546875 105.84375 64.113281 105.535156 64.828125 Z M 105.558594 64.828125 " fill-opacity="1" fill-rule="nonzero"/><path fill="#ffd023" d="M 112.035156 70.503906 C 115.980469 70.503906 119.175781 67.316406 119.175781 63.382812 C 119.175781 59.449219 115.980469 56.261719 112.035156 56.261719 C 108.089844 56.261719 104.894531 59.449219 104.894531 63.382812 C 104.894531 67.316406 108.089844 70.503906 112.035156 70.503906 Z M 112.035156 70.503906 " fill-opacity="1" fill-rule="nonzero"/><path fill="#6b39f4" d="M 112.046875 70.8125 C 110.929688 70.816406 109.824219 70.566406 108.816406 70.085938 C 107.808594 69.609375 106.921875 68.90625 106.21875 68.039062 C 105.519531 67.167969 105.023438 66.152344 104.769531 65.070312 C 104.515625 63.984375 104.511719 62.855469 104.753906 61.765625 C 105 60.675781 105.484375 59.65625 106.175781 58.78125 C 106.867188 57.90625 107.75 57.199219 108.753906 56.707031 C 109.757812 56.21875 110.859375 55.960938 111.976562 55.953125 C 113.09375 55.945312 114.199219 56.191406 115.210938 56.667969 C 116.097656 57.082031 116.894531 57.664062 117.550781 58.386719 C 118.210938 59.109375 118.71875 59.953125 119.046875 60.875 C 119.449219 61.996094 119.578125 63.195312 119.421875 64.375 C 119.261719 65.554688 118.820312 66.679688 118.132812 67.65625 C 117.449219 68.628906 116.535156 69.425781 115.476562 69.976562 C 114.417969 70.523438 113.242188 70.8125 112.046875 70.8125 Z M 112.046875 56.5625 C 110.949219 56.5625 109.871094 56.828125 108.898438 57.332031 C 107.925781 57.835938 107.085938 58.566406 106.457031 59.460938 C 105.828125 60.355469 105.421875 61.390625 105.273438 62.472656 C 105.128906 63.558594 105.246094 64.660156 105.617188 65.6875 C 105.910156 66.542969 106.371094 67.328125 106.972656 68.003906 C 107.578125 68.679688 108.308594 69.226562 109.125 69.617188 C 109.9375 70.007812 110.824219 70.230469 111.730469 70.277344 C 112.632812 70.324219 113.539062 70.1875 114.390625 69.882812 C 115.242188 69.578125 116.023438 69.105469 116.691406 68.496094 C 117.359375 67.886719 117.898438 67.152344 118.277344 66.332031 C 118.65625 65.511719 118.871094 64.625 118.902344 63.722656 C 118.9375 62.820312 118.789062 61.921875 118.472656 61.078125 C 118.171875 60.234375 117.707031 59.457031 117.101562 58.792969 C 116.496094 58.128906 115.765625 57.59375 114.953125 57.214844 C 114.042969 56.789062 113.050781 56.566406 112.046875 56.5625 Z M 112.046875 56.5625 " fill-opacity="1" fill-rule="nonzero"/><path fill="#ffffff" d="M 110.992188 58.332031 L 111.34375 59.304688 C 111.34375 59.371094 111.394531 59.382812 111.460938 59.371094 C 111.972656 59.289062 112.496094 59.339844 112.984375 59.511719 C 113.507812 59.691406 113.945312 60.054688 114.21875 60.535156 C 114.292969 60.664062 114.347656 60.800781 114.421875 60.941406 L 112.910156 61.480469 C 112.824219 61.257812 112.664062 61.066406 112.460938 60.941406 C 112.285156 60.863281 112.105469 60.792969 111.925781 60.730469 L 111.925781 60.761719 L 112.601562 62.644531 L 112.78125 62.644531 C 113.21875 62.574219 113.660156 62.558594 114.101562 62.59375 C 114.429688 62.617188 114.746094 62.726562 115.019531 62.914062 C 115.292969 63.097656 115.507812 63.355469 115.648438 63.652344 C 115.914062 64.148438 116 64.71875 115.886719 65.269531 C 115.773438 65.820312 115.472656 66.316406 115.03125 66.667969 C 114.785156 66.863281 114.519531 67.027344 114.25 67.21875 L 114.515625 67.953125 L 113.121094 68.449219 L 112.847656 67.699219 C 112.539062 67.699219 112.230469 67.761719 111.960938 67.765625 C 111.394531 67.785156 110.839844 67.617188 110.382812 67.289062 C 110 66.988281 109.714844 66.585938 109.5625 66.125 L 111.046875 65.589844 C 111.148438 65.847656 111.332031 66.0625 111.566406 66.203125 C 111.804688 66.34375 112.082031 66.398438 112.355469 66.363281 C 112.113281 65.6875 111.867188 65.019531 111.628906 64.347656 L 110.695312 64.410156 C 110.324219 64.4375 109.949219 64.375 109.605469 64.226562 C 109.257812 64.0625 108.96875 63.796875 108.785156 63.460938 C 108.539062 63.066406 108.410156 62.605469 108.410156 62.140625 C 108.410156 61.800781 108.484375 61.46875 108.632812 61.164062 C 108.777344 60.859375 108.988281 60.589844 109.246094 60.375 C 109.46875 60.207031 109.695312 60.054688 109.933594 59.914062 L 110.019531 59.863281 L 109.582031 58.847656 Z M 113.710938 65.859375 C 113.933594 65.75 114.117188 65.578125 114.242188 65.367188 C 114.34375 65.183594 114.371094 64.972656 114.324219 64.769531 C 114.277344 64.5625 114.160156 64.382812 113.988281 64.261719 C 113.707031 64.140625 113.394531 64.09375 113.089844 64.132812 Z M 110.433594 61.132812 C 110.273438 61.277344 110.128906 61.433594 109.992188 61.597656 C 109.929688 61.691406 109.882812 61.800781 109.867188 61.914062 C 109.847656 62.027344 109.851562 62.140625 109.882812 62.25 C 109.914062 62.363281 109.96875 62.464844 110.042969 62.550781 C 110.117188 62.636719 110.210938 62.707031 110.316406 62.753906 C 110.546875 62.824219 110.792969 62.84375 111.035156 62.808594 Z M 110.433594 61.132812 " fill-opacity="1" fill-rule="nonzero"/><path fill="#ffd023" d="M 117.929688 76.996094 C 116.40625 79.527344 118.113281 85.132812 118.113281 85.132812 L 120.371094 86.769531 C 121.175781 87.253906 122.066406 87.570312 122.992188 87.710938 C 123.921875 87.847656 124.867188 87.804688 125.777344 87.578125 C 126.6875 87.351562 127.542969 86.949219 128.296875 86.394531 C 129.050781 85.839844 129.6875 85.140625 130.171875 84.339844 C 130.65625 83.535156 130.976562 82.648438 131.113281 81.722656 C 131.253906 80.796875 131.207031 79.855469 130.980469 78.945312 C 130.753906 78.039062 130.351562 77.183594 129.792969 76.433594 C 129.238281 75.679688 128.535156 75.042969 127.734375 74.5625 L 125.222656 73.332031 C 125.222656 73.332031 119.453125 74.488281 117.929688 76.996094 Z M 117.929688 76.996094 " fill-opacity="1" fill-rule="nonzero"/><path fill="#6b39f4" d="M 124.039062 88.117188 C 122.6875 88.117188 121.363281 87.75 120.210938 87.054688 L 117.929688 85.398438 C 117.875 85.363281 117.835938 85.308594 117.816406 85.246094 C 117.742188 85.003906 116.089844 79.46875 117.664062 76.855469 C 119.242188 74.242188 124.921875 73.105469 125.160156 73.054688 C 125.226562 73.035156 125.292969 73.035156 125.359375 73.054688 L 127.863281 74.285156 C 129.128906 75.039062 130.144531 76.152344 130.777344 77.480469 C 131.410156 78.808594 131.636719 80.296875 131.417969 81.753906 C 131.203125 83.207031 130.558594 84.570312 129.570312 85.660156 C 128.578125 86.75 127.285156 87.519531 125.851562 87.878906 C 125.257812 88.03125 124.652344 88.109375 124.039062 88.117188 Z M 118.378906 84.992188 L 120.550781 86.566406 C 122.101562 87.441406 123.933594 87.675781 125.652344 87.222656 C 127.375 86.765625 128.851562 85.660156 129.769531 84.136719 C 130.683594 82.613281 130.96875 80.792969 130.558594 79.066406 C 130.148438 77.335938 129.074219 75.835938 127.574219 74.882812 L 125.179688 73.714844 C 124.414062 73.878906 119.527344 75.003906 118.195312 77.207031 C 116.863281 79.378906 118.164062 84.21875 118.378906 84.992188 Z M 118.378906 84.992188 " fill-opacity="1" fill-rule="nonzero"/><path fill="#ffd023" d="M 122.496094 86.875 C 126.441406 86.875 129.636719 83.6875 129.636719 79.753906 C 129.636719 75.820312 126.441406 72.628906 122.496094 72.628906 C 118.554688 72.628906 115.355469 75.820312 115.355469 79.753906 C 115.355469 83.6875 118.554688 86.875 122.496094 86.875 Z M 122.496094 86.875 " fill-opacity="1" fill-rule="nonzero"/><path fill="#6b39f4" d="M 122.484375 87.183594 C 121.339844 87.179688 120.207031 86.914062 119.179688 86.402344 C 118.152344 85.890625 117.257812 85.152344 116.566406 84.242188 C 115.875 83.328125 115.402344 82.269531 115.1875 81.148438 C 114.96875 80.023438 115.019531 78.863281 115.324219 77.761719 C 115.632812 76.660156 116.191406 75.644531 116.957031 74.792969 C 117.722656 73.941406 118.675781 73.277344 119.742188 72.851562 C 120.808594 72.429688 121.957031 72.253906 123.097656 72.347656 C 124.242188 72.4375 125.347656 72.792969 126.332031 73.382812 C 127.730469 74.21875 128.816406 75.488281 129.421875 77 C 130.023438 78.507812 130.117188 80.175781 129.679688 81.742188 C 129.242188 83.308594 128.300781 84.691406 127.003906 85.671875 C 125.703125 86.65625 124.117188 87.1875 122.484375 87.183594 Z M 122.484375 72.9375 C 120.835938 72.941406 119.242188 73.535156 118 74.617188 C 116.757812 75.703125 115.949219 77.195312 115.726562 78.828125 C 115.503906 80.457031 115.878906 82.113281 116.785156 83.488281 C 117.691406 84.863281 119.066406 85.863281 120.65625 86.304688 C 122.246094 86.746094 123.941406 86.597656 125.429688 85.890625 C 126.917969 85.179688 128.101562 83.957031 128.753906 82.449219 C 129.410156 80.9375 129.496094 79.242188 128.992188 77.675781 C 128.492188 76.109375 127.4375 74.773438 126.023438 73.921875 C 124.964844 73.28125 123.746094 72.941406 122.503906 72.9375 Z M 122.484375 72.9375 " fill-opacity="1" fill-rule="nonzero"/><path fill="#ffffff" d="M 118.488281 76.492188 C 118.785156 76.671875 119.105469 76.84375 119.382812 77.027344 C 119.390625 77.039062 119.402344 77.046875 119.414062 77.050781 C 119.425781 77.054688 119.4375 77.058594 119.449219 77.058594 C 119.460938 77.058594 119.472656 77.054688 119.484375 77.050781 C 119.496094 77.046875 119.503906 77.039062 119.511719 77.027344 C 119.859375 76.644531 120.296875 76.351562 120.785156 76.175781 C 121.296875 75.992188 121.863281 76.003906 122.367188 76.210938 L 122.78125 76.394531 L 121.953125 77.765625 C 121.742188 77.648438 121.5 77.597656 121.257812 77.632812 C 121.074219 77.679688 120.890625 77.738281 120.714844 77.808594 L 120.714844 77.839844 L 122.429688 78.875 L 122.554688 78.746094 C 122.851562 78.414062 123.1875 78.121094 123.550781 77.871094 C 123.820312 77.6875 124.132812 77.574219 124.457031 77.550781 C 124.78125 77.523438 125.109375 77.582031 125.402344 77.722656 C 125.972656 77.953125 126.429688 78.394531 126.683594 78.953125 C 126.882812 79.417969 126.933594 79.929688 126.828125 80.421875 C 126.757812 80.730469 126.660156 81.039062 126.574219 81.347656 L 127.238281 81.753906 L 126.476562 83.011719 L 125.789062 82.601562 C 125.566406 82.816406 125.363281 83.023438 125.171875 83.214844 C 124.75 83.589844 124.210938 83.808594 123.644531 83.832031 C 123.160156 83.847656 122.683594 83.714844 122.277344 83.457031 L 123.089844 82.101562 C 123.328125 82.238281 123.609375 82.289062 123.882812 82.246094 C 124.152344 82.207031 124.40625 82.074219 124.59375 81.875 L 122.746094 80.773438 L 122.058594 81.390625 C 121.789062 81.644531 121.457031 81.832031 121.097656 81.9375 C 120.726562 82.027344 120.335938 82 119.980469 81.863281 C 119.539062 81.707031 119.144531 81.433594 118.847656 81.070312 C 118.636719 80.804688 118.484375 80.5 118.40625 80.171875 C 118.324219 79.847656 118.316406 79.503906 118.382812 79.175781 C 118.445312 78.910156 118.523438 78.644531 118.617188 78.386719 C 118.617188 78.355469 118.617188 78.324219 118.617188 78.289062 L 117.695312 77.734375 Z M 125.371094 80.613281 C 125.472656 80.386719 125.503906 80.136719 125.464844 79.894531 C 125.425781 79.691406 125.3125 79.507812 125.148438 79.378906 C 124.984375 79.25 124.777344 79.1875 124.570312 79.199219 C 124.273438 79.285156 124.003906 79.445312 123.792969 79.667969 Z M 119.820312 79.019531 C 119.792969 79.226562 119.777344 79.429688 119.777344 79.636719 C 119.789062 79.75 119.824219 79.863281 119.878906 79.960938 C 119.9375 80.0625 120.015625 80.148438 120.109375 80.214844 C 120.203125 80.28125 120.308594 80.328125 120.421875 80.347656 C 120.535156 80.371094 120.652344 80.367188 120.765625 80.335938 C 120.996094 80.246094 121.207031 80.105469 121.382812 79.925781 Z M 119.820312 79.019531 " fill-opacity="1" fill-rule="nonzero"/></svg>